<svg xmlns="http://www.w3.org/2000/svg" width="86" height="26" viewBox="0 0 86 26" fill="none">
     <path fillRule="evenodd" clipRule="evenodd" d="M18.824 16.2318C18.7918 19.117 16.5213 21.3575 13.6389 21.3414C10.7726 21.3253 8.40556 18.9236 8.46997 16.0706C8.51828 13.2015 10.8371 10.9449 13.6872 10.9449C16.5857 10.961 18.8562 13.2982 18.824 16.2318ZM16.5374 16.1351C16.5374 14.5393 15.217 13.2337 13.6228 13.2337C12.1092 13.2498 10.7726 14.5877 10.7726 16.1028C10.7726 17.7147 12.0448 19.0203 13.6389 19.0364C15.217 19.0526 16.5374 17.7308 16.5374 16.1351Z" fill="#F5983A"/>
     <path fillRule="evenodd" clipRule="evenodd" d="M13.5101 17.344C12.8821 17.344 12.3668 16.7798 12.3829 16.119C12.399 15.4581 12.9787 14.894 13.655 14.8778C14.3475 14.8778 14.8949 15.4098 14.911 16.1029C14.911 16.8765 14.3958 17.344 13.5101 17.344Z" fill="#F5983A"/>
     <path d="M7.26227 16.264C7.27838 15.5065 7.29448 13.0403 7.27838 10.558C6.32832 10.558 5.36216 10.558 4.41211 10.558C4.46042 13.7173 4.55703 17.1022 4.79857 18.3272C5.61981 22.4536 9.09797 25.4839 13.2202 25.4839V22.776C10.2735 22.7599 7.13345 20.068 7.26227 16.264Z" fill="#F5983A"/>
     <path d="M1.38483 7.93069C0.499182 7.94681 -0.0161023 8.4626 3.19851e-07 9.26853C0.0161029 10.0261 0.499182 10.5419 1.35262 10.558C2.36709 10.558 3.38155 10.5741 4.41212 10.5741C4.39602 9.63926 4.39602 8.75274 4.39602 7.93069C3.38155 7.93069 2.38319 7.91457 1.38483 7.93069Z" fill="#F5983A"/>
     <path d="M10.4345 10.5419C11.3523 10.5419 11.8354 10.0261 11.8193 9.20407C11.8032 8.39814 11.304 7.94682 10.3701 7.9307C9.33952 7.91458 8.30895 7.91458 7.27838 7.9307C7.27838 8.75275 7.27838 9.65539 7.27838 10.558C8.32505 10.558 9.38783 10.558 10.4345 10.5419Z" fill="#F5983A"/>
     <path d="M7.27837 10.558C7.27837 9.65539 7.27837 8.75274 7.27837 7.93069C6.82749 7.93069 6.37662 7.93069 5.92575 7.93069C5.41046 7.93069 4.89518 7.93069 4.396 7.93069C4.396 8.75274 4.4121 9.65539 4.4121 10.558C5.36215 10.558 6.32831 10.558 7.27837 10.558Z" fill="#F5983A"/>
     <path d="M22.3344 7.91458C21.4165 7.85011 20.9817 7.94682 20.7885 8.04353H20.7563C20.7402 8.04353 20.7241 8.05965 20.7241 8.05965C20.3215 8.26919 20.08 8.7044 20.0639 9.30079C20.0478 9.55868 20.0639 9.8327 20.0639 10.0906C20.0639 13.5883 20.1122 12.9436 20.0478 16.4413C19.9834 20.1003 17.5519 22.7276 13.961 22.776V25.4839C14.2508 25.4839 14.3797 25.4678 14.6695 25.4355C17.3587 25.1615 19.5808 23.7914 21.0139 21.825C21.4004 21.8894 21.7869 21.9217 22.1894 21.9217C26.1668 21.9217 29.4034 18.7785 29.4034 14.9101C29.3551 11.1222 26.2312 8.0113 22.3344 7.91458ZM22.1894 19.5039C22.4954 18.5851 22.6725 17.5858 22.6725 16.5542C22.6725 14.7811 22.6725 12.992 22.6725 11.2189C22.6725 10.7676 22.6725 10.5258 22.6725 10.3969C25.0235 10.6548 26.8431 12.589 26.8431 14.9423C26.8431 17.4407 24.7659 19.4716 22.1894 19.5039Z" fill="#F5983A"/>
     <g opacity="0.7">
       <path d="M7.27837 10.558C7.27837 9.65539 7.27837 8.75274 7.27837 7.93069C6.82749 7.93069 6.37662 7.93069 5.92575 7.93069C5.41046 7.93069 4.89518 7.93069 4.396 7.93069C4.396 8.75274 4.4121 9.65539 4.4121 10.558C5.36215 10.558 6.32831 10.558 7.27837 10.558Z" fill="#2EB9E6"/>
     </g>
     <path d="M8.50217 3.30464L6.02236 0.580595C5.94185 0.467764 5.73252 0.467764 5.6359 0.580595L3.1722 3.30464C3.07558 3.41747 3.1883 3.56254 3.36543 3.56254H4.396V3.72373C4.396 3.72373 4.396 3.72373 4.396 3.73985C4.396 3.73985 4.396 3.73985 4.396 3.75597C4.396 4.54578 5.0401 5.19052 5.84524 5.19052C6.63426 5.19052 7.27837 4.5619 7.29447 3.77208C7.29447 3.75597 7.29447 3.75597 7.29447 3.73985C7.29447 3.72373 7.29447 3.72373 7.29447 3.70761V3.56254H8.32504C8.48607 3.56254 8.58268 3.41747 8.50217 3.30464Z" fill="#2EB9E6"/>
     <path d="M7.27836 5.70631C7.27836 5.56124 7.21395 5.43229 7.08513 5.33558C6.908 5.20663 6.69866 5.20663 6.48933 5.33558C6.47323 5.3517 6.45712 5.36781 6.44102 5.36781C6.44102 5.36781 5.82912 5.69019 5.24943 5.36781C5.20112 5.3517 5.16891 5.33558 5.13671 5.30334C4.83076 5.10992 4.37989 5.31946 4.39599 5.72242C4.39599 6.10927 4.39599 7.54383 4.39599 7.93068H7.27836C7.27836 7.54383 7.27836 6.09315 7.27836 5.70631Z" fill="#2EB9E6"/>
     <path d="M37.9378 21.9217C37.6962 21.9539 37.4386 21.97 37.181 21.97C36.714 21.97 36.2792 21.9217 35.8444 21.825C35.4097 21.7282 35.0393 21.5187 34.7334 21.2125C34.4274 20.9062 34.2503 20.5516 34.2181 20.1325C34.1859 19.7134 34.1698 19.3266 34.1698 18.9397V13.2176H32.4629V11.4768H34.1698V8.65604H36.4402V11.4768H38.4853V13.2176H36.4402V18.7141C36.4402 19.1493 36.5369 19.5039 36.714 19.7779C36.8911 20.0519 37.2776 20.1809 37.8412 20.1809C38.0183 20.1809 38.1632 20.1647 38.2759 20.1486C38.3887 20.1325 38.5175 20.1003 38.6785 20.0519V21.7927C38.437 21.8572 38.1793 21.8894 37.9378 21.9217Z" fill="#414042"/>
     <path d="M46.6171 18.2627C46.6171 18.8108 46.5688 19.3266 46.4883 19.8262C46.3916 20.3259 46.1179 20.7934 45.6509 21.1963C45.2806 21.5187 44.8619 21.7282 44.3788 21.8411C43.9118 21.9539 43.4127 22.0184 42.9135 22.0184C42.3982 22.0184 41.9151 21.9539 41.4481 21.8411C40.9812 21.7121 40.5625 21.5026 40.1921 21.1963C39.7252 20.8256 39.4514 20.3582 39.3709 19.8424C39.2904 19.3104 39.2582 18.7946 39.2582 18.2627V15.0551C39.2582 14.7972 39.2582 14.5232 39.2743 14.2653C39.2743 14.0074 39.3226 13.7495 39.387 13.4916C39.4514 13.2337 39.548 13.0081 39.6768 12.7663C39.8057 12.5406 39.9828 12.315 40.2082 12.1215C40.5786 11.7992 40.9973 11.5896 41.4803 11.4607C41.9473 11.3317 42.4465 11.2672 42.9296 11.2672C43.4449 11.2672 43.944 11.3317 44.411 11.4607C44.878 11.5896 45.2967 11.8153 45.667 12.1215C45.9086 12.315 46.0857 12.5245 46.2145 12.7663C46.3433 13.0081 46.4399 13.2498 46.5044 13.4916C46.5688 13.7495 46.601 13.9913 46.6171 14.2653C46.6332 14.5232 46.6332 14.7811 46.6332 15.0551V18.2627H46.6171ZM44.3627 14.9262C44.3627 14.7005 44.3466 14.4749 44.3144 14.2492C44.2822 14.0235 44.2178 13.814 44.1212 13.6367C44.0246 13.4594 43.8796 13.3143 43.6864 13.2015C43.4932 13.0886 43.2355 13.0403 42.9135 13.0403C42.5914 13.0403 42.3338 13.1048 42.1567 13.2176C41.9795 13.3304 41.8346 13.4916 41.738 13.6689C41.6414 13.8462 41.577 14.0558 41.5448 14.2653C41.5125 14.491 41.4964 14.7005 41.4964 14.9262V18.3594C41.4964 18.5851 41.5125 18.8108 41.5448 19.0203C41.577 19.246 41.6414 19.4394 41.738 19.6167C41.8346 19.794 41.9634 19.9552 42.1567 20.068C42.3338 20.1808 42.5914 20.2453 42.9135 20.2453C43.2355 20.2453 43.4932 20.197 43.6864 20.0841C43.8796 19.9713 44.0246 19.8262 44.1212 19.6489C44.2178 19.4716 44.2822 19.2621 44.3144 19.0364C44.3466 18.8108 44.3627 18.5851 44.3627 18.3594V14.9262Z" fill="#414042"/>
     <path d="M55.4574 17.892C55.4574 18.2627 55.4413 18.6818 55.4091 19.1493C55.3769 19.6167 55.2803 20.068 55.1193 20.4871C54.9582 20.9062 54.7328 21.2608 54.3946 21.5348C54.0726 21.8249 53.6056 21.9539 53.0098 21.9539C52.4784 21.9539 51.9954 21.8411 51.5767 21.5993C51.158 21.3736 50.7555 21.0996 50.3851 20.7934V25.3388H48.1146V11.4768H50.3851V12.5245C50.7555 12.2021 51.1419 11.9281 51.5767 11.7024C51.9954 11.4768 52.4784 11.364 53.0098 11.364C53.6056 11.364 54.0726 11.509 54.3946 11.783C54.7167 12.0732 54.9582 12.4117 55.1193 12.8307C55.2803 13.2498 55.3769 13.685 55.393 14.1525C55.4252 14.6199 55.4413 15.039 55.4413 15.4097V17.892H55.4574ZM53.187 15.1196C53.187 14.9101 53.187 14.6844 53.1709 14.4426C53.1709 14.2008 53.1225 13.9752 53.0581 13.7656C52.9937 13.5561 52.8649 13.3949 52.7039 13.2498C52.5428 13.1048 52.2852 13.0403 51.947 13.0403C51.6572 13.0403 51.3835 13.0886 51.1258 13.1854C50.8682 13.2821 50.6266 13.411 50.4012 13.5561V19.7295C50.6427 19.8907 50.8843 20.0035 51.1258 20.1003C51.3835 20.197 51.6572 20.2453 51.9632 20.2453C52.2852 20.2453 52.5267 20.1808 52.7039 20.0197C52.8649 19.8746 52.9937 19.6973 53.0581 19.4877C53.1225 19.2782 53.1709 19.0525 53.1709 18.8108C53.1709 18.569 53.187 18.3433 53.187 18.166V15.1196Z" fill="#414042"/>
     <path d="M56.955 21.8088V7.94681H59.2254V21.8088H56.955Z" fill="#414042"/>
     <path d="M68.0819 18.2627C68.0819 18.8108 68.0336 19.3266 67.9531 19.8262C67.8565 20.3259 67.5827 20.7934 67.1158 21.1963C66.7454 21.5187 66.3267 21.7282 65.8437 21.8411C65.3767 21.9539 64.8775 22.0184 64.3783 22.0184C63.863 22.0184 63.38 21.9539 62.913 21.8411C62.446 21.7121 62.0273 21.5026 61.657 21.1963C61.19 20.8095 60.9163 20.3582 60.8519 19.8424C60.7713 19.3104 60.7391 18.7946 60.7391 18.2627V15.0551C60.7391 14.7972 60.7391 14.5232 60.7552 14.2653C60.7552 14.0074 60.8035 13.7495 60.868 13.4916C60.9324 13.2337 61.029 13.0081 61.1578 12.7663C61.2866 12.5406 61.4638 12.315 61.6892 12.1215C62.0596 11.7992 62.4782 11.5896 62.9613 11.4607C63.4283 11.3317 63.9275 11.2672 64.4105 11.2672C64.9258 11.2672 65.425 11.3317 65.892 11.4607C66.3589 11.5896 66.7776 11.8153 67.148 12.1215C67.3895 12.315 67.5666 12.5245 67.6955 12.7663C67.8243 13.0081 67.9209 13.2498 67.9853 13.4916C68.0497 13.7495 68.0819 13.9913 68.098 14.2653C68.1141 14.5232 68.1141 14.7811 68.1141 15.0551V18.2627H68.0819ZM65.8276 14.9262C65.8276 14.7005 65.8115 14.4749 65.7793 14.2492C65.747 14.0235 65.6826 13.814 65.586 13.6367C65.4894 13.4594 65.3445 13.3143 65.1512 13.2015C64.958 13.0886 64.7004 13.0403 64.3783 13.0403C64.0563 13.0403 63.7986 13.1048 63.6215 13.2176C63.4444 13.3304 63.2995 13.4916 63.2028 13.6689C63.1062 13.8462 63.0418 14.0558 63.0096 14.2653C62.9774 14.491 62.9613 14.7005 62.9613 14.9262V18.3594C62.9613 18.5851 62.9774 18.8108 63.0096 19.0203C63.0418 19.246 63.1062 19.4394 63.2028 19.6167C63.2995 19.794 63.4283 19.9552 63.6215 20.068C63.7986 20.1808 64.0563 20.2453 64.3783 20.2453C64.7004 20.2453 64.958 20.197 65.1512 20.0841C65.3445 19.9713 65.4894 19.8262 65.586 19.6489C65.6826 19.4716 65.747 19.2621 65.7793 19.0364C65.8115 18.8108 65.8276 18.5851 65.8276 18.3594V14.9262Z" fill="#414042"/>
     <path d="M76.8739 18.2627C76.8739 18.8108 76.8256 19.3266 76.7451 19.8262C76.6485 20.3259 76.3747 20.7934 75.9078 21.1963C75.5374 21.5187 75.1187 21.7282 74.6518 21.8411C74.1848 21.9539 73.6856 22.0184 73.1864 22.0184C72.6711 22.0184 72.1881 21.9539 71.7211 21.8411C71.2541 21.7121 70.8354 21.5026 70.4651 21.1963C69.9981 20.8256 69.7244 20.3582 69.6438 19.8424C69.5633 19.3104 69.5311 18.7946 69.5311 18.2627V15.0551C69.5311 14.7972 69.5311 14.5232 69.5472 14.2653C69.5472 14.0074 69.5955 13.7495 69.6599 13.4916C69.7244 13.2337 69.821 13.0081 69.9498 12.7663C70.0786 12.5406 70.2557 12.315 70.4812 12.1215C70.8515 11.7992 71.2702 11.5896 71.7533 11.4607C72.2203 11.3317 72.7194 11.2672 73.2025 11.2672C73.7178 11.2672 74.217 11.3317 74.684 11.4607C75.1509 11.5896 75.5696 11.8153 75.94 12.1215C76.1815 12.315 76.3586 12.5245 76.4875 12.7663C76.6163 13.0081 76.7129 13.2498 76.7773 13.4916C76.8417 13.7495 76.8739 13.9913 76.89 14.2653C76.9061 14.5232 76.9061 14.7811 76.9061 15.0551V18.2627H76.8739ZM74.6196 14.9262C74.6196 14.7005 74.6035 14.4749 74.5713 14.2492C74.539 14.0235 74.4746 13.814 74.378 13.6367C74.2814 13.4594 74.1365 13.3143 73.9432 13.2015C73.75 13.0886 73.4924 13.0403 73.1703 13.0403C72.8483 13.0403 72.5906 13.1048 72.4135 13.2176C72.2364 13.3304 72.0914 13.4916 71.9948 13.6689C71.8982 13.8462 71.8338 14.0558 71.8016 14.2653C71.7694 14.491 71.7533 14.7005 71.7533 14.9262V18.3594C71.7533 18.5851 71.7694 18.8108 71.8016 19.0203C71.8338 19.246 71.8982 19.4394 71.9948 19.6167C72.0914 19.794 72.2203 19.9552 72.4135 20.068C72.5906 20.1808 72.8483 20.2453 73.1703 20.2453C73.4924 20.2453 73.75 20.197 73.9432 20.0841C74.1365 19.9713 74.2814 19.8262 74.378 19.6489C74.4746 19.4716 74.539 19.2621 74.5713 19.0364C74.6035 18.8108 74.6196 18.5851 74.6196 18.3594V14.9262Z" fill="#414042"/>
     <path d="M85.7143 17.892C85.7143 18.2627 85.6982 18.6818 85.666 19.1493C85.6337 19.6167 85.5371 20.068 85.3761 20.4871C85.2312 20.9062 84.9896 21.2608 84.6515 21.5348C84.3294 21.8249 83.8625 21.9539 83.2667 21.9539C82.7353 21.9539 82.2522 21.8411 81.8335 21.5993C81.4149 21.3736 81.0123 21.0996 80.6419 20.7934V25.3388H78.3715V11.4768H80.6419V12.5245C81.0123 12.2021 81.3988 11.9281 81.8335 11.7024C82.2683 11.4768 82.7353 11.364 83.2667 11.364C83.8625 11.364 84.3294 11.509 84.6515 11.783C84.9735 12.0732 85.2151 12.4117 85.3761 12.8307C85.5371 13.2498 85.6337 13.685 85.666 14.1525C85.6982 14.6199 85.7143 15.039 85.7143 15.4097V17.892ZM83.4438 15.1196C83.4438 14.9101 83.4438 14.6844 83.4277 14.4426C83.4277 14.2008 83.3794 13.9752 83.315 13.7656C83.2506 13.5561 83.1217 13.3949 82.9607 13.2498C82.7997 13.1048 82.542 13.0403 82.2039 13.0403C81.914 13.0403 81.6403 13.0886 81.3827 13.1854C81.125 13.2821 80.8835 13.411 80.658 13.5561V19.7295C80.8996 19.8907 81.1411 20.0035 81.3827 20.1003C81.6403 20.197 81.914 20.2453 82.22 20.2453C82.542 20.2453 82.7836 20.1808 82.9607 20.0197C83.1217 19.8746 83.2506 19.6973 83.315 19.4877C83.3794 19.2782 83.4277 19.0525 83.4277 18.8108C83.4277 18.569 83.4438 18.3433 83.4438 18.166V15.1196Z" fill="#414042"/>
   </svg>