<svg width="36" height="30" viewBox="0 0 36 30" fill="none" xmlns="http://www.w3.org/2000/svg">
     <path fill-rule="evenodd" clip-rule="evenodd" d="M22.5888 18.8781C22.5502 22.3404 19.8256 25.029 16.3667 25.0096C12.9272 24.9903 10.0867 22.1083 10.164 18.6847C10.222 15.2417 13.0045 12.5338 16.4247 12.5338C19.9029 12.5532 22.6274 15.3578 22.5888 18.8781ZM19.8449 18.7621C19.8449 16.8472 18.2604 15.2804 16.3474 15.2804C14.531 15.2998 12.9272 16.9052 12.9272 18.7234C12.9272 20.6576 14.4538 22.2243 16.3667 22.2437C18.2604 22.263 19.8449 20.6769 19.8449 18.7621Z" fill="#F5983A"/>
     <path fill-rule="evenodd" clip-rule="evenodd" d="M16.2121 20.2128C15.4585 20.2128 14.8402 19.5358 14.8595 18.7428C14.8788 17.9497 15.5745 17.2728 16.386 17.2534C17.2169 17.2534 17.8739 17.8917 17.8932 18.7234C17.8932 19.6519 17.2749 20.2128 16.2121 20.2128Z" fill="#F5983A"/>
     <path d="M8.71475 18.9168C8.73408 18.0077 8.7534 15.0483 8.73408 12.0696C7.59401 12.0696 6.43462 12.0696 5.29456 12.0696C5.35253 15.8607 5.46846 19.9226 5.75831 21.3926C6.74379 26.3442 10.9176 29.9806 15.8643 29.9806V26.7311C12.3282 26.7117 8.56017 23.4816 8.71475 18.9168Z" fill="#F5983A"/>
     <path d="M1.6618 8.9168C0.59903 8.93614 -0.0193106 9.5551 1.25909e-05 10.5222C0.0193357 11.4313 0.59903 12.0503 1.62316 12.0696C2.84052 12.0696 4.05787 12.0889 5.29456 12.0889C5.27523 10.9671 5.27523 9.90326 5.27523 8.9168C4.05787 8.9168 2.85984 8.89746 1.6618 8.9168Z" fill="#F5983A"/>
     <path d="M12.5214 12.0503C13.6228 12.0503 14.2025 11.4314 14.1832 10.4449C14.1639 9.47778 13.5649 8.93619 12.4441 8.91685C11.2074 8.89751 9.97075 8.89751 8.73407 8.91685C8.73407 9.90331 8.73407 10.9865 8.73407 12.0697C9.99007 12.0697 11.2654 12.0697 12.5214 12.0503Z" fill="#F5983A"/>
     <path d="M8.73405 12.0697C8.73405 10.9865 8.73405 9.90333 8.73405 8.91687C8.193 8.91687 7.65196 8.91687 7.11091 8.91687C6.49257 8.91687 5.87423 8.91687 5.27521 8.91687C5.27521 9.90333 5.29453 10.9865 5.29453 12.0697C6.4346 12.0697 7.59399 12.0697 8.73405 12.0697Z" fill="#F5983A"/>
     <path d="M26.8012 8.89749C25.6998 8.82012 25.1781 8.93617 24.9462 9.05223H24.9075C24.8882 9.05223 24.8689 9.07157 24.8689 9.07157C24.3858 9.32302 24.096 9.84526 24.0766 10.5609C24.0573 10.8704 24.0766 11.1992 24.0766 11.5087C24.0766 15.706 24.1346 14.9323 24.0573 19.1296C23.98 23.5203 21.0622 26.6731 16.7532 26.7311V29.9807C17.101 29.9807 17.2556 29.9613 17.6034 29.9226C20.8304 29.5938 23.497 27.9497 25.2167 25.5899C25.6805 25.6673 26.1442 25.706 26.6273 25.706C31.4001 25.706 35.2841 21.9342 35.2841 17.2921C35.2261 12.7466 31.4774 9.01354 26.8012 8.89749ZM26.6273 22.8046C26.9944 21.7021 27.207 20.5029 27.207 19.265C27.207 17.1373 27.207 14.9903 27.207 12.8627C27.207 12.3211 27.207 12.031 27.207 11.8762C30.0282 12.1857 32.2117 14.5068 32.2117 17.3308C32.2117 20.3288 29.719 22.766 26.6273 22.8046Z" fill="#F5983A"/>
     <g opacity="0.7">
     <path d="M8.73405 12.0696C8.73405 10.9864 8.73405 9.90321 8.73405 8.91675C8.193 8.91675 7.65196 8.91675 7.11091 8.91675C6.49257 8.91675 5.87423 8.91675 5.27521 8.91675C5.27521 9.90321 5.29453 10.9864 5.29453 12.0696C6.4346 12.0696 7.59399 12.0696 8.73405 12.0696Z" fill="#2EB9E6"/>
     </g>
     <path d="M10.2026 3.36552L7.22687 0.0966646C7.13026 -0.0387319 6.87906 -0.0387319 6.76312 0.0966646L3.80668 3.36552C3.69074 3.50092 3.826 3.675 4.03855 3.675H5.27524V3.86842C5.27524 3.86842 5.27524 3.86842 5.27524 3.88777C5.27524 3.88777 5.27524 3.88777 5.27524 3.90711C5.27524 4.85489 6.04816 5.62858 7.01432 5.62858C7.96115 5.62858 8.73408 4.87423 8.7534 3.92645C8.7534 3.90711 8.7534 3.90711 8.7534 3.88777C8.7534 3.86842 8.7534 3.86842 8.7534 3.84908V3.675H9.99008C10.1833 3.675 10.2993 3.50092 10.2026 3.36552Z" fill="#2EB9E6"/>
     <path d="M8.73407 6.24748C8.73407 6.0734 8.65677 5.91866 8.50219 5.80261C8.28964 5.64787 8.03843 5.64787 7.78723 5.80261C7.76791 5.82195 7.74859 5.84129 7.72926 5.84129C7.72926 5.84129 6.99498 6.22814 6.29935 5.84129C6.24138 5.82195 6.20273 5.80261 6.16409 5.76392C5.79695 5.53181 5.2559 5.78326 5.27522 6.26682C5.27522 6.73104 5.27522 8.45251 5.27522 8.91673H8.73407C8.73407 8.45251 8.73407 6.7117 8.73407 6.24748Z" fill="#2EB9E6"/>
     </svg>
     