<svg width="481" height="249" viewBox="0 0 481 249" fill="none" xmlns="http://www.w3.org/2000/svg">
<rect x="1.4097" y="1.16406" width="478" height="246" rx="19" fill="white" stroke="#2EB9E6" stroke-width="2"/>
<path d="M125.182 41.9551L121.096 28.6351H123.904L125.65 35.1151C126.064 36.6091 126.37 37.9231 126.784 39.4351H126.874C127.306 37.9231 127.594 36.6091 127.99 35.1151L129.718 28.6351H132.436L128.35 41.9551H125.182ZM133.805 41.9551V31.8931H136.451V41.9551H133.805ZM135.209 30.2731L133.877 28.9771L136.955 25.3411L138.755 27.0871L135.209 30.2731ZM146.896 42.2071C144.376 42.2071 142.756 40.2451 142.756 36.9331C142.756 33.6391 144.826 31.6411 146.986 31.6411C148.12 31.6411 148.822 32.0551 149.56 32.7211L149.452 31.1371V27.6091H152.098V41.9551H149.938L149.74 40.9111H149.686C148.948 41.6491 147.94 42.2071 146.896 42.2071ZM147.562 40.0291C148.282 40.0291 148.876 39.7411 149.452 39.0031V34.5751C148.858 34.0171 148.21 33.8011 147.58 33.8011C146.446 33.8011 145.474 34.8811 145.474 36.8971C145.474 39.0031 146.248 40.0291 147.562 40.0291ZM157.94 42.2071C155.762 42.2071 154.808 40.7131 154.808 38.1751V31.8931H157.454V37.8511C157.454 39.3991 157.886 39.9391 158.876 39.9391C159.704 39.9391 160.244 39.5791 160.928 38.6791V31.8931H163.556V41.9551H161.396L161.198 40.5151H161.144C160.262 41.5411 159.308 42.2071 157.94 42.2071ZM159.164 46.4731C158.246 46.4731 157.634 45.9151 157.634 45.0151C157.634 44.1511 158.246 43.5751 159.164 43.5751C160.064 43.5751 160.694 44.1511 160.694 45.0151C160.694 45.9151 160.064 46.4731 159.164 46.4731ZM174.019 42.2071C171.499 42.2071 169.879 40.3171 169.879 37.3831C169.879 34.4851 171.949 32.5771 174.109 32.5771C175.243 32.5771 175.945 33.0091 176.683 33.6571L176.575 32.0911V27.6091H179.221V41.9551H177.007L176.845 41.0011H176.773C176.053 41.7031 175.081 42.2071 174.019 42.2071ZM174.685 40.0291C175.405 40.0291 175.999 39.7411 176.575 39.0031V35.5111C175.981 34.9531 175.333 34.7551 174.703 34.7551C173.569 34.7551 172.597 35.7271 172.597 37.3471C172.597 39.0751 173.371 40.0291 174.685 40.0291ZM173.461 30.5251V29.1931H180.643V30.4171L179.077 30.5251H173.461ZM182.057 41.9551V31.8931H184.703V41.9551H182.057ZM183.371 30.2551C182.453 30.2551 181.841 29.6791 181.841 28.7971C181.841 27.9331 182.453 27.3751 183.371 27.3751C184.289 27.3751 184.919 27.9331 184.919 28.7971C184.919 29.6791 184.289 30.2551 183.371 30.2551ZM191.916 42.2071C189.09 42.2071 186.894 40.2631 186.894 36.9331C186.894 33.6571 189.198 31.6411 191.574 31.6411C194.364 31.6411 195.786 33.6571 195.786 36.4471C195.786 36.9511 195.732 37.4191 195.678 37.6711H189.45C189.684 39.3271 190.764 40.1731 192.258 40.1731C193.068 40.1731 193.788 39.9211 194.526 39.4711L195.408 41.1091C194.418 41.7931 193.158 42.2071 191.916 42.2071ZM189.414 35.9071H193.536C193.536 34.5391 192.924 33.6751 191.628 33.6751C190.566 33.6751 189.63 34.4311 189.414 35.9071ZM189.396 30.3811L188.55 29.4091L190.494 27.5551H192.6L194.526 29.4091L193.68 30.3811L191.592 29.0131H191.502L189.396 30.3811ZM194.22 28.8511L194.04 27.9151C194.454 27.8071 194.724 27.6451 194.724 27.2851C194.724 26.8531 194.4 26.6371 193.374 26.5471L193.626 25.4131C195.678 25.4671 196.47 26.0431 196.47 26.9971C196.47 28.2751 195.444 28.6711 194.22 28.8511ZM197.983 41.9551V31.8931H200.125L200.341 33.2251H200.395C201.259 32.3611 202.303 31.6411 203.671 31.6411C205.831 31.6411 206.785 33.1531 206.785 35.6731V41.9551H204.139V36.0151C204.139 34.4311 203.689 33.9091 202.717 33.9091C201.889 33.9091 201.367 34.3051 200.629 35.0251V41.9551H197.983ZM213.592 41.9551V27.6091H216.238V31.2271L216.112 33.1171C216.904 32.3611 217.912 31.6411 219.28 31.6411C221.44 31.6411 222.394 33.1531 222.394 35.6731V41.9551H219.748V36.0151C219.748 34.4311 219.298 33.9091 218.326 33.9091C217.498 33.9091 216.976 34.3051 216.238 35.0251V41.9551H213.592ZM225.106 41.9551V31.8931H227.752V41.9551H225.106ZM226.348 30.2731L222.784 27.0871L224.584 25.3411L227.644 28.9771L226.348 30.2731ZM230.573 41.9551V31.8931H232.715L232.931 33.2251H232.985C233.849 32.3611 234.893 31.6411 236.261 31.6411C238.421 31.6411 239.375 33.1531 239.375 35.6731V41.9551H236.729V36.0151C236.729 34.4311 236.279 33.9091 235.307 33.9091C234.479 33.9091 233.957 34.3051 233.219 35.0251V41.9551H230.573ZM242.104 41.9551V27.6091H244.75V31.2271L244.624 33.1171C245.416 32.3611 246.424 31.6411 247.792 31.6411C249.952 31.6411 250.906 33.1531 250.906 35.6731V41.9551H248.26V36.0151C248.26 34.4311 247.81 33.9091 246.838 33.9091C246.01 33.9091 245.488 34.3051 244.75 35.0251V41.9551H242.104ZM259.964 41.9551L256.508 31.8931H259.19L260.648 36.9151C260.918 37.9051 261.188 38.9311 261.458 39.9571H261.548C261.818 38.9311 262.088 37.9051 262.358 36.9151L263.834 31.8931H266.39L263.024 41.9551H259.964ZM272.213 42.2071C269.387 42.2071 267.191 40.2631 267.191 36.9331C267.191 33.6571 269.495 31.6411 271.871 31.6411C274.661 31.6411 276.083 33.6571 276.083 36.4471C276.083 36.9511 276.029 37.4191 275.975 37.6711H269.747C269.981 39.3271 271.061 40.1731 272.555 40.1731C273.365 40.1731 274.085 39.9211 274.823 39.4711L275.705 41.1091C274.715 41.7931 273.455 42.2071 272.213 42.2071ZM269.711 35.9071H273.833C273.833 34.5391 273.221 33.6751 271.925 33.6751C270.863 33.6751 269.927 34.4311 269.711 35.9071ZM269.693 30.3811L268.847 29.4091L270.791 27.5551H272.897L274.823 29.4091L273.977 30.3811L271.889 29.0131H271.799L269.693 30.3811ZM268.487 28.9411L266.291 26.5471L267.713 25.5751L269.513 28.1131L268.487 28.9411ZM282.358 41.9551V27.6091H285.004V31.2271L284.878 33.1171C285.67 32.3611 286.678 31.6411 288.046 31.6411C290.206 31.6411 291.16 33.1531 291.16 35.6731V41.9551H288.514V36.0151C288.514 34.4311 288.064 33.9091 287.092 33.9091C286.264 33.9091 285.742 34.3051 285.004 35.0251V41.9551H282.358ZM298.264 42.2071C295.438 42.2071 293.242 40.2631 293.242 36.9331C293.242 33.6571 295.546 31.6411 297.922 31.6411C300.712 31.6411 302.134 33.6571 302.134 36.4471C302.134 36.9511 302.08 37.4191 302.026 37.6711H295.798C296.032 39.3271 297.112 40.1731 298.606 40.1731C299.416 40.1731 300.136 39.9211 300.874 39.4711L301.756 41.1091C300.766 41.7931 299.506 42.2071 298.264 42.2071ZM295.762 35.9071H299.884C299.884 34.5391 299.272 33.6751 297.976 33.6751C296.914 33.6751 295.978 34.4311 295.762 35.9071ZM294.304 29.4991L296.536 26.7991H299.236L301.486 29.4991L300.442 30.4711L297.94 28.4911H297.85L295.348 30.4711L294.304 29.4991ZM297.904 46.4731C296.968 46.4731 296.356 45.9151 296.356 45.0151C296.356 44.1511 296.968 43.5751 297.904 43.5751C298.804 43.5751 299.434 44.1511 299.434 45.0151C299.434 45.9151 298.804 46.4731 297.904 46.4731ZM312.081 42.2071C309.687 42.2071 308.769 40.6951 308.769 38.4451V33.9631H307.365V32.0011L308.931 31.8931L309.219 29.1571H311.415V31.8931H313.917V33.9631H311.415V38.4451C311.415 39.5971 311.901 40.1371 312.783 40.1371C313.125 40.1371 313.503 40.0111 313.791 39.9031L314.223 41.8291C313.683 42.0091 312.981 42.2071 312.081 42.2071ZM315.985 41.9551V27.6091H318.631V31.2271L318.505 33.1171C319.297 32.3611 320.305 31.6411 321.673 31.6411C323.833 31.6411 324.787 33.1531 324.787 35.6731V41.9551H322.141V36.0151C322.141 34.4311 321.691 33.9091 320.719 33.9091C319.891 33.9091 319.369 34.3051 318.631 35.0251V41.9551H315.985ZM331.711 42.2071C329.173 42.2071 326.869 40.2631 326.869 36.9331C326.869 33.5851 329.173 31.6411 331.711 31.6411C334.231 31.6411 336.535 33.5851 336.535 36.9331C336.535 40.2631 334.231 42.2071 331.711 42.2071ZM331.711 40.0651C333.079 40.0651 333.835 38.8231 333.835 36.9331C333.835 35.0251 333.079 33.8011 331.711 33.8011C330.325 33.8011 329.569 35.0251 329.569 36.9331C329.569 38.8231 330.325 40.0651 331.711 40.0651ZM329.551 30.3811L328.705 29.4091L330.649 27.5551H332.755L334.699 29.4091L333.835 30.3811L331.747 29.0131H331.657L329.551 30.3811ZM335.059 28.9411L334.033 28.1491L335.689 25.5751L337.129 26.5291L335.059 28.9411ZM338.766 41.9551V31.8931H340.908L341.124 33.2251H341.178C342.042 32.3611 343.086 31.6411 344.454 31.6411C346.614 31.6411 347.568 33.1531 347.568 35.6731V41.9551H344.922V36.0151C344.922 34.4311 344.472 33.9091 343.5 33.9091C342.672 33.9091 342.15 34.3051 341.412 35.0251V41.9551H338.766ZM353.826 46.3291C351.468 46.3291 349.632 45.5191 349.632 43.7551C349.632 42.9091 350.136 42.1711 351.072 41.6671V41.5771C350.55 41.2351 350.154 40.6951 350.154 39.8671C350.154 39.1111 350.658 38.4271 351.288 37.9951V37.9231C350.586 37.4191 349.92 36.4651 349.92 35.2771C349.92 32.9011 351.864 31.6411 353.988 31.6411C354.564 31.6411 355.104 31.7311 355.518 31.8931H359.154V33.8371H357.426C357.696 34.1791 357.894 34.7371 357.894 35.3491C357.894 37.6351 356.166 38.7691 353.988 38.7691C353.592 38.7691 353.142 38.6971 352.692 38.5351C352.422 38.7871 352.26 39.0031 352.26 39.4171C352.26 39.9391 352.674 40.2451 353.844 40.2451H355.572C358.002 40.2451 359.334 40.9831 359.334 42.7651C359.334 44.7991 357.192 46.3291 353.826 46.3291ZM353.988 37.1491C354.87 37.1491 355.572 36.4651 355.572 35.2771C355.572 34.0891 354.888 33.4411 353.988 33.4411C353.106 33.4411 352.404 34.0891 352.404 35.2771C352.404 36.4651 353.106 37.1491 353.988 37.1491ZM354.24 44.6551C355.752 44.6551 356.778 43.9891 356.778 43.2151C356.778 42.4951 356.184 42.2971 355.104 42.2971H353.88C353.268 42.2971 352.854 42.2611 352.494 42.1531C352.026 42.5311 351.828 42.9271 351.828 43.3411C351.828 44.1871 352.764 44.6551 354.24 44.6551ZM163.613 72.3291C161.255 72.3291 159.419 71.5191 159.419 69.7551C159.419 68.9091 159.923 68.1711 160.859 67.6671V67.5771C160.337 67.2351 159.941 66.6951 159.941 65.8671C159.941 65.1111 160.445 64.4271 161.075 63.9951V63.9231C160.373 63.4191 159.707 62.4651 159.707 61.2771C159.707 58.9011 161.651 57.6411 163.775 57.6411C164.351 57.6411 164.891 57.7311 165.305 57.8931H168.941V59.8371H167.213C167.483 60.1791 167.681 60.7371 167.681 61.3491C167.681 63.6351 165.953 64.7691 163.775 64.7691C163.379 64.7691 162.929 64.6971 162.479 64.5351C162.209 64.7871 162.047 65.0031 162.047 65.4171C162.047 65.9391 162.461 66.2451 163.631 66.2451H165.359C167.789 66.2451 169.121 66.9831 169.121 68.7651C169.121 70.7991 166.979 72.3291 163.613 72.3291ZM163.775 63.1491C164.657 63.1491 165.359 62.4651 165.359 61.2771C165.359 60.0891 164.675 59.4411 163.775 59.4411C162.893 59.4411 162.191 60.0891 162.191 61.2771C162.191 62.4651 162.893 63.1491 163.775 63.1491ZM164.027 70.6551C165.539 70.6551 166.565 69.9891 166.565 69.2151C166.565 68.4951 165.971 68.2971 164.891 68.2971H163.667C163.055 68.2971 162.641 68.2611 162.281 68.1531C161.813 68.5311 161.615 68.9271 161.615 69.3411C161.615 70.1871 162.551 70.6551 164.027 70.6551ZM170.825 67.9551V57.8931H173.471V67.9551H170.825ZM172.139 56.2551C171.221 56.2551 170.609 55.6791 170.609 54.7971C170.609 53.9331 171.221 53.3751 172.139 53.3751C173.057 53.3751 173.687 53.9331 173.687 54.7971C173.687 55.6791 173.057 56.2551 172.139 56.2551ZM183.726 58.9731L182.412 58.0551C183.348 57.8571 183.942 57.3351 183.942 56.1831C183.942 55.7511 183.816 55.3371 183.636 55.0311L185.598 54.1851C185.904 54.5991 186.174 55.3011 186.174 56.0031C186.174 57.6411 185.058 58.5771 183.726 58.9731ZM180.504 68.2071C177.966 68.2071 175.662 66.2631 175.662 62.9331C175.662 59.5851 177.966 57.6411 180.504 57.6411C183.024 57.6411 185.328 59.5851 185.328 62.9331C185.328 66.2631 183.024 68.2071 180.504 68.2071ZM180.504 66.0651C181.872 66.0651 182.628 64.8231 182.628 62.9331C182.628 61.0251 181.872 59.8011 180.504 59.8011C179.118 59.8011 178.362 61.0251 178.362 62.9331C178.362 64.8231 179.118 66.0651 180.504 66.0651ZM180.63 56.2731L179.316 54.9771L182.394 51.3411L184.194 53.0871L180.63 56.2731ZM187.559 67.9551V57.8931H190.205V67.9551H187.559ZM188.873 56.2551C187.955 56.2551 187.343 55.6791 187.343 54.7971C187.343 53.9331 187.955 53.3751 188.873 53.3751C189.791 53.3751 190.421 53.9331 190.421 54.7971C190.421 55.6791 189.791 56.2551 188.873 56.2551ZM200.776 68.2071C198.382 68.2071 197.464 66.6951 197.464 64.4451V59.9631H196.06V58.0011L197.626 57.8931L197.914 55.1571H200.11V57.8931H202.612V59.9631H200.11V64.4451C200.11 65.5971 200.596 66.1371 201.478 66.1371C201.82 66.1371 202.198 66.0111 202.486 65.9031L202.918 67.8291C202.378 68.0091 201.676 68.2071 200.776 68.2071ZM204.68 67.9551V53.6091H207.326V57.2271L207.2 59.1171C207.992 58.3611 209 57.6411 210.368 57.6411C212.528 57.6411 213.482 59.1531 213.482 61.6731V67.9551H210.836V62.0151C210.836 60.4311 210.386 59.9091 209.414 59.9091C208.586 59.9091 208.064 60.3051 207.326 61.0251V67.9551H204.68ZM216.194 67.9551V57.8931H218.84V67.9551H216.194ZM217.508 56.2551C216.59 56.2551 215.978 55.6791 215.978 54.7971C215.978 53.9331 216.59 53.3751 217.508 53.3751C218.426 53.3751 219.056 53.9331 219.056 54.7971C219.056 55.6791 218.426 56.2551 217.508 56.2551ZM226.053 68.2071C223.227 68.2071 221.031 66.2631 221.031 62.9331C221.031 59.6571 223.335 57.6411 225.711 57.6411C228.501 57.6411 229.923 59.6571 229.923 62.4471C229.923 62.9511 229.869 63.4191 229.815 63.6711H223.587C223.821 65.3271 224.901 66.1731 226.395 66.1731C227.205 66.1731 227.925 65.9211 228.663 65.4711L229.545 67.1091C228.555 67.7931 227.295 68.2071 226.053 68.2071ZM223.551 61.9071H227.673C227.673 60.5391 227.061 59.6751 225.765 59.6751C224.703 59.6751 223.767 60.4311 223.551 61.9071ZM222.093 55.4991L224.325 52.7991H227.025L229.275 55.4991L228.231 56.4711L225.729 54.4911H225.639L223.137 56.4711L222.093 55.4991ZM225.693 72.4731C224.757 72.4731 224.145 71.9151 224.145 71.0151C224.145 70.1511 224.757 69.5751 225.693 69.5751C226.593 69.5751 227.223 70.1511 227.223 71.0151C227.223 71.9151 226.593 72.4731 225.693 72.4731ZM235.126 68.2071C232.948 68.2071 231.994 66.7131 231.994 64.1751V57.8931H234.64V63.8511C234.64 65.3991 235.072 65.9391 236.062 65.9391C236.89 65.9391 237.43 65.5791 238.114 64.6791V57.8931H240.742V67.9551H238.582L238.384 66.5151H238.33C237.448 67.5411 236.494 68.2071 235.126 68.2071ZM247.659 67.9551V57.8931H249.801L250.017 59.2251H250.071C250.935 58.3611 251.979 57.6411 253.347 57.6411C255.507 57.6411 256.461 59.1531 256.461 61.6731V67.9551H253.815V62.0151C253.815 60.4311 253.365 59.9091 252.393 59.9091C251.565 59.9091 251.043 60.3051 250.305 61.0251V67.9551H247.659ZM259.19 67.9551V53.6091H261.836V57.2271L261.71 59.1171C262.502 58.3611 263.51 57.6411 264.878 57.6411C267.038 57.6411 267.992 59.1531 267.992 61.6731V67.9551H265.346V62.0151C265.346 60.4311 264.896 59.9091 263.924 59.9091C263.096 59.9091 262.574 60.3051 261.836 61.0251V67.9551H259.19ZM273.17 68.2071C271.37 68.2071 270.2 66.9471 270.2 65.2191C270.2 63.0771 271.946 61.9431 275.996 61.4931C275.942 60.5031 275.528 59.7651 274.286 59.7651C273.35 59.7651 272.432 60.1611 271.514 60.7191L270.56 58.9551C271.748 58.2351 273.17 57.6411 274.772 57.6411C277.328 57.6411 278.642 59.1531 278.642 62.0871V67.9551H276.482L276.284 66.8931H276.212C275.33 67.6491 274.322 68.2071 273.17 68.2071ZM274.034 66.1371C274.79 66.1371 275.348 65.7951 275.996 65.1651V63.1311C273.53 63.4371 272.72 64.1031 272.72 65.0211C272.72 65.7951 273.26 66.1371 274.034 66.1371ZM271.28 55.4991L273.53 52.7991H276.194L278.444 55.4991L277.436 56.4711L274.916 54.4911H274.844L272.324 56.4711L271.28 55.4991ZM281.339 67.9551V57.8931H283.481L283.697 59.2251H283.751C284.615 58.3611 285.659 57.6411 287.027 57.6411C289.187 57.6411 290.141 59.1531 290.141 61.6731V67.9551H287.495V62.0151C287.495 60.4311 287.045 59.9091 286.073 59.9091C285.245 59.9091 284.723 60.3051 283.985 61.0251V67.9551H281.339ZM299.432 68.2071C297.578 68.2071 296.948 67.0011 296.948 65.1291V53.6091H299.594V65.2371C299.594 65.8671 299.864 66.0651 300.116 66.0651C300.206 66.0651 300.278 66.0651 300.458 66.0291L300.782 67.9911C300.476 68.0991 300.062 68.2071 299.432 68.2071ZM311.176 58.7571L309.43 57.8931C310.24 57.8211 311.086 57.5151 311.086 55.9851C311.086 55.5531 310.924 55.1391 310.78 54.8331L312.742 53.9871C313.048 54.4011 313.318 55.1031 313.318 55.8051C313.318 57.4611 312.346 58.3791 311.176 58.7571ZM305.632 68.2071C303.454 68.2071 302.5 66.7131 302.5 64.1751V57.8931H305.146V63.8511C305.146 65.3991 305.578 65.9391 306.568 65.9391C307.396 65.9391 307.936 65.5791 308.62 64.6791V57.8931H311.248V67.9551H309.088L308.89 66.5151H308.836C307.954 67.5411 307 68.2071 305.632 68.2071ZM307.198 72.4731C306.28 72.4731 305.65 71.9151 305.65 71.0151C305.65 70.1511 306.28 69.5751 307.198 69.5751C308.098 69.5751 308.746 70.1511 308.746 71.0151C308.746 71.9151 308.098 72.4731 307.198 72.4731ZM318.353 68.2071C315.581 68.2071 313.457 66.2631 313.457 62.9331C313.457 59.5851 315.851 57.6411 318.587 57.6411C319.847 57.6411 320.783 58.1091 321.521 58.7571L320.279 60.4491C319.775 60.0171 319.289 59.8011 318.749 59.8011C317.183 59.8011 316.157 61.0251 316.157 62.9331C316.157 64.8231 317.201 66.0651 318.641 66.0651C319.379 66.0651 320.063 65.7051 320.621 65.2551L321.665 67.0011C320.711 67.8291 319.469 68.2071 318.353 68.2071Z" fill="#07407B"/>
<path d="M93.2977 210.955V202.163H90.3297V200.609H98.1417V202.163H95.1597V210.955H93.2977ZM101.715 211.151C101.071 211.151 100.464 210.992 99.8945 210.675C99.3345 210.348 98.8819 209.882 98.5365 209.275C98.1912 208.659 98.0185 207.926 98.0185 207.077C98.0185 206.209 98.1912 205.472 98.5365 204.865C98.8819 204.258 99.3345 203.796 99.8945 203.479C100.464 203.152 101.071 202.989 101.715 202.989C102.2 202.989 102.662 203.082 103.101 203.269C103.549 203.446 103.945 203.712 104.291 204.067C104.636 204.412 104.907 204.837 105.103 205.341C105.308 205.845 105.411 206.424 105.411 207.077C105.411 207.926 105.238 208.659 104.893 209.275C104.547 209.882 104.09 210.348 103.521 210.675C102.961 210.992 102.359 211.151 101.715 211.151ZM101.715 209.639C102.097 209.639 102.424 209.536 102.695 209.331C102.965 209.116 103.171 208.818 103.311 208.435C103.46 208.043 103.535 207.59 103.535 207.077C103.535 206.554 103.46 206.102 103.311 205.719C103.171 205.327 102.965 205.028 102.695 204.823C102.424 204.608 102.097 204.501 101.715 204.501C101.341 204.501 101.019 204.608 100.749 204.823C100.478 205.028 100.268 205.327 100.119 205.719C99.9785 206.102 99.9085 206.554 99.9085 207.077C99.9085 207.59 99.9785 208.043 100.119 208.435C100.268 208.818 100.478 209.116 100.749 209.331C101.019 209.536 101.341 209.639 101.715 209.639ZM101.687 201.897L100.763 201.001L103.115 198.229L104.375 199.447L101.687 201.897ZM107.218 210.955V203.185H108.716L108.87 204.249H108.898C109.234 203.904 109.594 203.61 109.976 203.367C110.359 203.115 110.798 202.989 111.292 202.989C111.862 202.989 112.314 203.11 112.65 203.353C112.996 203.596 113.257 203.936 113.434 204.375C113.808 203.983 114.195 203.656 114.596 203.395C114.998 203.124 115.446 202.989 115.94 202.989C116.752 202.989 117.35 203.26 117.732 203.801C118.124 204.342 118.32 205.103 118.32 206.083V210.955H116.5V206.321C116.5 205.677 116.402 205.224 116.206 204.963C116.02 204.702 115.721 204.571 115.31 204.571C115.068 204.571 114.811 204.65 114.54 204.809C114.279 204.968 113.994 205.206 113.686 205.523V210.955H111.852V206.321C111.852 205.677 111.754 205.224 111.558 204.963C111.372 204.702 111.073 204.571 110.662 204.571C110.429 204.571 110.177 204.65 109.906 204.809C109.636 204.968 109.351 205.206 109.052 205.523V210.955H107.218ZM126.45 211.151C125.853 211.151 125.372 211.034 125.008 210.801C124.653 210.558 124.392 210.227 124.224 209.807C124.065 209.378 123.986 208.883 123.986 208.323V204.641H122.88V203.269L124.098 203.185L124.294 201.057H125.82V203.185H127.794V204.641H125.82V208.337C125.82 208.785 125.909 209.126 126.086 209.359C126.273 209.583 126.553 209.695 126.926 209.695C127.057 209.695 127.192 209.676 127.332 209.639C127.481 209.602 127.612 209.56 127.724 209.513L128.032 210.857C127.827 210.922 127.589 210.988 127.318 211.053C127.057 211.118 126.767 211.151 126.45 211.151ZM130.901 211.151C130.443 211.151 130.042 211.053 129.697 210.857C129.361 210.661 129.095 210.395 128.899 210.059C128.703 209.714 128.605 209.317 128.605 208.869C128.605 208.029 128.969 207.385 129.697 206.937C130.425 206.48 131.582 206.162 133.169 205.985C133.159 205.705 133.108 205.453 133.015 205.229C132.931 204.996 132.786 204.814 132.581 204.683C132.385 204.543 132.114 204.473 131.769 204.473C131.377 204.473 130.999 204.548 130.635 204.697C130.271 204.846 129.916 205.028 129.571 205.243L128.913 204.011C129.202 203.834 129.51 203.67 129.837 203.521C130.173 203.362 130.527 203.236 130.901 203.143C131.283 203.04 131.68 202.989 132.091 202.989C132.744 202.989 133.285 203.12 133.715 203.381C134.144 203.642 134.466 204.025 134.681 204.529C134.895 205.024 135.003 205.63 135.003 206.349V210.955H133.505L133.365 210.101H133.309C132.963 210.39 132.59 210.638 132.189 210.843C131.787 211.048 131.358 211.151 130.901 211.151ZM131.489 209.695C131.797 209.695 132.081 209.625 132.343 209.485C132.613 209.336 132.889 209.13 133.169 208.869V207.133C132.469 207.217 131.913 207.334 131.503 207.483C131.092 207.632 130.798 207.814 130.621 208.029C130.453 208.234 130.369 208.468 130.369 208.729C130.369 209.074 130.471 209.322 130.677 209.471C130.891 209.62 131.162 209.695 131.489 209.695ZM132.175 201.925C131.587 201.925 131.106 201.813 130.733 201.589C130.359 201.356 130.079 201.052 129.893 200.679C129.715 200.306 129.613 199.904 129.585 199.475L130.579 199.293C130.616 199.564 130.695 199.816 130.817 200.049C130.947 200.282 131.125 200.474 131.349 200.623C131.573 200.763 131.848 200.833 132.175 200.833C132.501 200.833 132.772 200.763 132.987 200.623C133.211 200.474 133.383 200.282 133.505 200.049C133.635 199.816 133.719 199.564 133.757 199.293L134.751 199.475C134.732 199.904 134.629 200.306 134.443 200.679C134.256 201.052 133.976 201.356 133.603 201.589C133.239 201.813 132.763 201.925 132.175 201.925ZM132.203 200.049L131.391 199.475L132.805 197.375L133.911 198.201L132.203 200.049ZM139.589 211.151C138.991 211.151 138.511 211.034 138.147 210.801C137.792 210.558 137.531 210.227 137.363 209.807C137.204 209.378 137.125 208.883 137.125 208.323V204.641H136.019V203.269L137.237 203.185L137.433 201.057H138.959V203.185H140.933V204.641H138.959V208.337C138.959 208.785 139.047 209.126 139.225 209.359C139.411 209.583 139.691 209.695 140.065 209.695C140.195 209.695 140.331 209.676 140.471 209.639C140.62 209.602 140.751 209.56 140.863 209.513L141.171 210.857C140.965 210.922 140.727 210.988 140.457 211.053C140.195 211.118 139.906 211.151 139.589 211.151ZM148.966 211.151C148.257 211.151 147.617 210.992 147.048 210.675C146.488 210.348 146.04 209.882 145.704 209.275C145.377 208.659 145.214 207.926 145.214 207.077C145.214 206.209 145.396 205.472 145.76 204.865C146.124 204.258 146.6 203.796 147.188 203.479C147.785 203.152 148.429 202.989 149.12 202.989C149.605 202.989 150.035 203.073 150.408 203.241C150.781 203.409 151.108 203.619 151.388 203.871L150.506 205.047C150.301 204.87 150.095 204.734 149.89 204.641C149.685 204.548 149.461 204.501 149.218 204.501C148.807 204.501 148.439 204.608 148.112 204.823C147.795 205.028 147.547 205.327 147.37 205.719C147.193 206.102 147.104 206.554 147.104 207.077C147.104 207.59 147.193 208.043 147.37 208.435C147.547 208.818 147.79 209.116 148.098 209.331C148.406 209.536 148.756 209.639 149.148 209.639C149.456 209.639 149.745 209.578 150.016 209.457C150.287 209.326 150.534 209.168 150.758 208.981L151.5 210.199C151.136 210.516 150.73 210.754 150.282 210.913C149.843 211.072 149.405 211.151 148.966 211.151ZM153.046 210.955V199.797H154.88V202.681L154.796 204.165C155.123 203.857 155.482 203.586 155.874 203.353C156.276 203.11 156.742 202.989 157.274 202.989C158.105 202.989 158.712 203.26 159.094 203.801C159.477 204.342 159.668 205.103 159.668 206.083V210.955H157.834V206.321C157.834 205.677 157.736 205.224 157.54 204.963C157.354 204.702 157.05 204.571 156.63 204.571C156.294 204.571 155.996 204.655 155.734 204.823C155.482 204.982 155.198 205.215 154.88 205.523V210.955H153.046ZM168.318 203.801L167.086 203.185C167.31 203.157 167.52 203.101 167.716 203.017C167.912 202.933 168.071 202.788 168.192 202.583C168.323 202.368 168.388 202.07 168.388 201.687C168.388 201.528 168.36 201.374 168.304 201.225C168.258 201.076 168.202 200.94 168.136 200.819L169.522 200.203C169.644 200.371 169.742 200.576 169.816 200.819C169.9 201.062 169.942 201.314 169.942 201.575C169.942 201.995 169.868 202.359 169.718 202.667C169.569 202.966 169.368 203.208 169.116 203.395C168.874 203.582 168.608 203.717 168.318 203.801ZM164.188 211.151C163.348 211.151 162.737 210.88 162.354 210.339C161.972 209.798 161.78 209.037 161.78 208.057V203.185H163.614V207.833C163.614 208.458 163.708 208.906 163.894 209.177C164.09 209.438 164.398 209.569 164.818 209.569C165.154 209.569 165.453 209.485 165.714 209.317C165.976 209.149 166.251 208.878 166.54 208.505V203.185H168.374V210.955H166.862L166.722 209.807H166.68C166.335 210.208 165.966 210.535 165.574 210.787C165.182 211.03 164.72 211.151 164.188 211.151ZM165.07 201.897L164.132 201.001L166.47 198.229L167.73 199.447L165.07 201.897ZM173.917 211.151C173.208 211.151 172.568 210.992 171.999 210.675C171.439 210.348 170.991 209.882 170.655 209.275C170.328 208.659 170.165 207.926 170.165 207.077C170.165 206.209 170.347 205.472 170.711 204.865C171.075 204.258 171.551 203.796 172.139 203.479C172.736 203.152 173.38 202.989 174.071 202.989C174.556 202.989 174.986 203.073 175.359 203.241C175.732 203.409 176.059 203.619 176.339 203.871L175.457 205.047C175.252 204.87 175.046 204.734 174.841 204.641C174.636 204.548 174.412 204.501 174.169 204.501C173.758 204.501 173.39 204.608 173.063 204.823C172.746 205.028 172.498 205.327 172.321 205.719C172.144 206.102 172.055 206.554 172.055 207.077C172.055 207.59 172.144 208.043 172.321 208.435C172.498 208.818 172.741 209.116 173.049 209.331C173.357 209.536 173.707 209.639 174.099 209.639C174.407 209.639 174.696 209.578 174.967 209.457C175.238 209.326 175.485 209.168 175.709 208.981L176.451 210.199C176.087 210.516 175.681 210.754 175.233 210.913C174.794 211.072 174.356 211.151 173.917 211.151ZM181.156 210.955V203.185H182.654L182.808 204.235H182.836C183.181 203.89 183.559 203.596 183.97 203.353C184.38 203.11 184.852 202.989 185.384 202.989C186.214 202.989 186.821 203.26 187.204 203.801C187.586 204.342 187.778 205.103 187.778 206.083V210.955H185.944V206.321C185.944 205.677 185.846 205.224 185.65 204.963C185.463 204.702 185.16 204.571 184.74 204.571C184.404 204.571 184.105 204.655 183.844 204.823C183.592 204.982 183.307 205.215 182.99 205.523V210.955H181.156ZM191.877 211.151C191.42 211.151 191.019 211.053 190.673 210.857C190.337 210.661 190.071 210.395 189.875 210.059C189.679 209.714 189.581 209.317 189.581 208.869C189.581 208.029 189.945 207.385 190.673 206.937C191.401 206.48 192.559 206.162 194.145 205.985C194.136 205.705 194.085 205.453 193.991 205.229C193.907 204.996 193.763 204.814 193.557 204.683C193.361 204.543 193.091 204.473 192.745 204.473C192.353 204.473 191.975 204.548 191.611 204.697C191.247 204.846 190.893 205.028 190.547 205.243L189.889 204.011C190.179 203.834 190.487 203.67 190.813 203.521C191.149 203.362 191.504 203.236 191.877 203.143C192.26 203.04 192.657 202.989 193.067 202.989C193.721 202.989 194.262 203.12 194.691 203.381C195.121 203.642 195.443 204.025 195.657 204.529C195.872 205.024 195.979 205.63 195.979 206.349V210.955H194.481L194.341 210.101H194.285C193.94 210.39 193.567 210.638 193.165 210.843C192.764 211.048 192.335 211.151 191.877 211.151ZM192.465 209.695C192.773 209.695 193.058 209.625 193.319 209.485C193.59 209.336 193.865 209.13 194.145 208.869V207.133C193.445 207.217 192.89 207.334 192.479 207.483C192.069 207.632 191.775 207.814 191.597 208.029C191.429 208.234 191.345 208.468 191.345 208.729C191.345 209.074 191.448 209.322 191.653 209.471C191.868 209.62 192.139 209.695 192.465 209.695ZM193.151 201.925C192.563 201.925 192.083 201.813 191.709 201.589C191.336 201.356 191.056 201.052 190.869 200.679C190.692 200.306 190.589 199.904 190.561 199.475L191.653 199.293C191.691 199.545 191.765 199.783 191.877 200.007C191.999 200.222 192.162 200.399 192.367 200.539C192.582 200.67 192.843 200.735 193.151 200.735C193.459 200.735 193.716 200.67 193.921 200.539C194.127 200.399 194.29 200.222 194.411 200.007C194.533 199.783 194.612 199.545 194.649 199.293L195.727 199.475C195.709 199.904 195.606 200.306 195.419 200.679C195.233 201.052 194.953 201.356 194.579 201.589C194.215 201.813 193.739 201.925 193.151 201.925ZM198.163 210.955V203.185H199.661L199.815 204.235H199.843C200.189 203.89 200.567 203.596 200.977 203.353C201.388 203.11 201.859 202.989 202.391 202.989C203.222 202.989 203.829 203.26 204.211 203.801C204.594 204.342 204.785 205.103 204.785 206.083V210.955H202.951V206.321C202.951 205.677 202.853 205.224 202.657 204.963C202.471 204.702 202.167 204.571 201.747 204.571C201.411 204.571 201.113 204.655 200.851 204.823C200.599 204.982 200.315 205.215 199.997 205.523V210.955H198.163ZM209.711 214.385C209.095 214.385 208.54 214.31 208.045 214.161C207.56 214.012 207.177 213.788 206.897 213.489C206.617 213.19 206.477 212.817 206.477 212.369C206.477 212.042 206.571 211.734 206.757 211.445C206.953 211.165 207.233 210.922 207.597 210.717V210.647C207.401 210.516 207.233 210.348 207.093 210.143C206.963 209.928 206.897 209.662 206.897 209.345C206.897 209.046 206.981 208.771 207.149 208.519C207.327 208.258 207.532 208.052 207.765 207.903V207.847C207.495 207.642 207.252 207.362 207.037 207.007C206.823 206.652 206.715 206.246 206.715 205.789C206.715 205.192 206.86 204.683 207.149 204.263C207.439 203.843 207.817 203.526 208.283 203.311C208.75 203.096 209.249 202.989 209.781 202.989C210.015 202.989 210.229 203.008 210.425 203.045C210.621 203.082 210.794 203.129 210.943 203.185H213.729V204.543H212.329C212.451 204.692 212.549 204.879 212.623 205.103C212.707 205.327 212.749 205.574 212.749 205.845C212.749 206.414 212.619 206.9 212.357 207.301C212.096 207.693 211.737 207.992 211.279 208.197C210.831 208.393 210.332 208.491 209.781 208.491C209.632 208.491 209.464 208.477 209.277 208.449C209.1 208.412 208.923 208.36 208.745 208.295C208.633 208.388 208.54 208.491 208.465 208.603C208.4 208.715 208.367 208.86 208.367 209.037C208.367 209.242 208.456 209.41 208.633 209.541C208.82 209.662 209.151 209.723 209.627 209.723H211.013C211.937 209.723 212.642 209.877 213.127 210.185C213.613 210.484 213.855 210.969 213.855 211.641C213.855 212.154 213.687 212.616 213.351 213.027C213.015 213.447 212.535 213.778 211.909 214.021C211.284 214.264 210.551 214.385 209.711 214.385ZM209.781 207.343C210.033 207.343 210.262 207.282 210.467 207.161C210.673 207.03 210.836 206.853 210.957 206.629C211.079 206.396 211.139 206.116 211.139 205.789C211.139 205.462 211.079 205.187 210.957 204.963C210.836 204.73 210.673 204.557 210.467 204.445C210.271 204.324 210.043 204.263 209.781 204.263C209.539 204.263 209.315 204.324 209.109 204.445C208.913 204.557 208.755 204.725 208.633 204.949C208.512 205.173 208.451 205.453 208.451 205.789C208.451 206.116 208.512 206.396 208.633 206.629C208.755 206.853 208.913 207.03 209.109 207.161C209.315 207.282 209.539 207.343 209.781 207.343ZM209.977 213.195C210.407 213.195 210.775 213.134 211.083 213.013C211.401 212.901 211.643 212.752 211.811 212.565C211.989 212.378 212.077 212.173 212.077 211.949C212.077 211.641 211.961 211.431 211.727 211.319C211.494 211.216 211.158 211.165 210.719 211.165H209.655C209.45 211.165 209.259 211.156 209.081 211.137C208.913 211.128 208.755 211.104 208.605 211.067C208.4 211.216 208.251 211.38 208.157 211.557C208.064 211.734 208.017 211.912 208.017 212.089C208.017 212.434 208.195 212.705 208.549 212.901C208.904 213.097 209.38 213.195 209.977 213.195ZM217.208 210.955L220.582 200.609H222.738L226.098 210.955H224.152L222.584 205.453C222.416 204.902 222.257 204.338 222.108 203.759C221.959 203.18 221.805 202.611 221.646 202.051H221.59C221.45 202.62 221.301 203.194 221.142 203.773C220.983 204.342 220.825 204.902 220.666 205.453L219.084 210.955H217.208ZM219.196 208.155V206.713H224.082V208.155H219.196ZM227.398 210.955V200.609H229.246V210.955H227.398ZM237.07 209.387V206.391H234.242V205.075H237.07V202.065H238.456V205.075H241.298V206.391H238.456V209.387H237.07ZM249.386 211.151C248.676 211.151 248.037 210.992 247.468 210.675C246.908 210.348 246.46 209.882 246.124 209.275C245.797 208.659 245.634 207.926 245.634 207.077C245.634 206.209 245.816 205.472 246.18 204.865C246.544 204.258 247.02 203.796 247.608 203.479C248.205 203.152 248.849 202.989 249.54 202.989C250.025 202.989 250.454 203.073 250.828 203.241C251.201 203.409 251.528 203.619 251.808 203.871L250.926 205.047C250.72 204.87 250.515 204.734 250.31 204.641C250.104 204.548 249.88 204.501 249.638 204.501C249.227 204.501 248.858 204.608 248.532 204.823C248.214 205.028 247.967 205.327 247.79 205.719C247.612 206.102 247.524 206.554 247.524 207.077C247.524 207.59 247.612 208.043 247.79 208.435C247.967 208.818 248.21 209.116 248.518 209.331C248.826 209.536 249.176 209.639 249.568 209.639C249.876 209.639 250.165 209.578 250.436 209.457C250.706 209.326 250.954 209.168 251.178 208.981L251.92 210.199C251.556 210.516 251.15 210.754 250.702 210.913C250.263 211.072 249.824 211.151 249.386 211.151ZM253.466 210.955V199.797H255.3V202.681L255.216 204.165C255.543 203.857 255.902 203.586 256.294 203.353C256.696 203.11 257.162 202.989 257.694 202.989C258.525 202.989 259.132 203.26 259.514 203.801C259.897 204.342 260.088 205.103 260.088 206.083V210.955H258.254V206.321C258.254 205.677 258.156 205.224 257.96 204.963C257.774 204.702 257.47 204.571 257.05 204.571C256.714 204.571 256.416 204.655 256.154 204.823C255.902 204.982 255.618 205.215 255.3 205.523V210.955H253.466ZM268.738 203.801L267.506 203.185C267.73 203.157 267.94 203.101 268.136 203.017C268.332 202.933 268.491 202.788 268.612 202.583C268.743 202.368 268.808 202.07 268.808 201.687C268.808 201.528 268.78 201.374 268.724 201.225C268.678 201.076 268.622 200.94 268.556 200.819L269.942 200.203C270.064 200.371 270.162 200.576 270.236 200.819C270.32 201.062 270.362 201.314 270.362 201.575C270.362 201.995 270.288 202.359 270.138 202.667C269.989 202.966 269.788 203.208 269.536 203.395C269.294 203.582 269.028 203.717 268.738 203.801ZM264.608 211.151C263.768 211.151 263.157 210.88 262.774 210.339C262.392 209.798 262.2 209.037 262.2 208.057V203.185H264.034V207.833C264.034 208.458 264.128 208.906 264.314 209.177C264.51 209.438 264.818 209.569 265.238 209.569C265.574 209.569 265.873 209.485 266.134 209.317C266.396 209.149 266.671 208.878 266.96 208.505V203.185H268.794V210.955H267.282L267.142 209.807H267.1C266.755 210.208 266.386 210.535 265.994 210.787C265.602 211.03 265.14 211.151 264.608 211.151ZM265.49 201.897L264.552 201.001L266.89 198.229L268.15 199.447L265.49 201.897ZM274.337 211.151C273.628 211.151 272.988 210.992 272.419 210.675C271.859 210.348 271.411 209.882 271.075 209.275C270.748 208.659 270.585 207.926 270.585 207.077C270.585 206.209 270.767 205.472 271.131 204.865C271.495 204.258 271.971 203.796 272.559 203.479C273.156 203.152 273.8 202.989 274.491 202.989C274.976 202.989 275.406 203.073 275.779 203.241C276.152 203.409 276.479 203.619 276.759 203.871L275.877 205.047C275.672 204.87 275.466 204.734 275.261 204.641C275.056 204.548 274.832 204.501 274.589 204.501C274.178 204.501 273.81 204.608 273.483 204.823C273.166 205.028 272.918 205.327 272.741 205.719C272.564 206.102 272.475 206.554 272.475 207.077C272.475 207.59 272.564 208.043 272.741 208.435C272.918 208.818 273.161 209.116 273.469 209.331C273.777 209.536 274.127 209.639 274.519 209.639C274.827 209.639 275.116 209.578 275.387 209.457C275.658 209.326 275.905 209.168 276.129 208.981L276.871 210.199C276.507 210.516 276.101 210.754 275.653 210.913C275.214 211.072 274.776 211.151 274.337 211.151ZM281.576 210.955V203.185H283.074L283.228 204.235H283.256C283.601 203.89 283.979 203.596 284.39 203.353C284.8 203.11 285.272 202.989 285.804 202.989C286.634 202.989 287.241 203.26 287.624 203.801C288.006 204.342 288.198 205.103 288.198 206.083V210.955H286.364V206.321C286.364 205.677 286.266 205.224 286.07 204.963C285.883 204.702 285.58 204.571 285.16 204.571C284.824 204.571 284.525 204.655 284.264 204.823C284.012 204.982 283.727 205.215 283.41 205.523V210.955H281.576ZM292.297 211.151C291.84 211.151 291.439 211.053 291.093 210.857C290.757 210.661 290.491 210.395 290.295 210.059C290.099 209.714 290.001 209.317 290.001 208.869C290.001 208.029 290.365 207.385 291.093 206.937C291.821 206.48 292.979 206.162 294.565 205.985C294.556 205.705 294.505 205.453 294.411 205.229C294.327 204.996 294.183 204.814 293.977 204.683C293.781 204.543 293.511 204.473 293.165 204.473C292.773 204.473 292.395 204.548 292.031 204.697C291.667 204.846 291.313 205.028 290.967 205.243L290.309 204.011C290.599 203.834 290.907 203.67 291.233 203.521C291.569 203.362 291.924 203.236 292.297 203.143C292.68 203.04 293.077 202.989 293.487 202.989C294.141 202.989 294.682 203.12 295.111 203.381C295.541 203.642 295.863 204.025 296.077 204.529C296.292 205.024 296.399 205.63 296.399 206.349V210.955H294.901L294.761 210.101H294.705C294.36 210.39 293.987 210.638 293.585 210.843C293.184 211.048 292.755 211.151 292.297 211.151ZM292.885 209.695C293.193 209.695 293.478 209.625 293.739 209.485C294.01 209.336 294.285 209.13 294.565 208.869V207.133C293.865 207.217 293.31 207.334 292.899 207.483C292.489 207.632 292.195 207.814 292.017 208.029C291.849 208.234 291.765 208.468 291.765 208.729C291.765 209.074 291.868 209.322 292.073 209.471C292.288 209.62 292.559 209.695 292.885 209.695ZM293.571 201.925C292.983 201.925 292.503 201.813 292.129 201.589C291.756 201.356 291.476 201.052 291.289 200.679C291.112 200.306 291.009 199.904 290.981 199.475L292.073 199.293C292.111 199.545 292.185 199.783 292.297 200.007C292.419 200.222 292.582 200.399 292.787 200.539C293.002 200.67 293.263 200.735 293.571 200.735C293.879 200.735 294.136 200.67 294.341 200.539C294.547 200.399 294.71 200.222 294.831 200.007C294.953 199.783 295.032 199.545 295.069 199.293L296.147 199.475C296.129 199.904 296.026 200.306 295.839 200.679C295.653 201.052 295.373 201.356 294.999 201.589C294.635 201.813 294.159 201.925 293.571 201.925ZM298.583 210.955V203.185H300.081L300.235 204.235H300.263C300.609 203.89 300.987 203.596 301.397 203.353C301.808 203.11 302.279 202.989 302.811 202.989C303.642 202.989 304.249 203.26 304.631 203.801C305.014 204.342 305.205 205.103 305.205 206.083V210.955H303.371V206.321C303.371 205.677 303.273 205.224 303.077 204.963C302.891 204.702 302.587 204.571 302.167 204.571C301.831 204.571 301.533 204.655 301.271 204.823C301.019 204.982 300.735 205.215 300.417 205.523V210.955H298.583ZM310.131 214.385C309.515 214.385 308.96 214.31 308.465 214.161C307.98 214.012 307.597 213.788 307.317 213.489C307.037 213.19 306.897 212.817 306.897 212.369C306.897 212.042 306.99 211.734 307.177 211.445C307.373 211.165 307.653 210.922 308.017 210.717V210.647C307.821 210.516 307.653 210.348 307.513 210.143C307.382 209.928 307.317 209.662 307.317 209.345C307.317 209.046 307.401 208.771 307.569 208.519C307.746 208.258 307.952 208.052 308.185 207.903V207.847C307.914 207.642 307.672 207.362 307.457 207.007C307.242 206.652 307.135 206.246 307.135 205.789C307.135 205.192 307.28 204.683 307.569 204.263C307.858 203.843 308.236 203.526 308.703 203.311C309.17 203.096 309.669 202.989 310.201 202.989C310.434 202.989 310.649 203.008 310.845 203.045C311.041 203.082 311.214 203.129 311.363 203.185H314.149V204.543H312.749C312.87 204.692 312.968 204.879 313.043 205.103C313.127 205.327 313.169 205.574 313.169 205.845C313.169 206.414 313.038 206.9 312.777 207.301C312.516 207.693 312.156 207.992 311.699 208.197C311.251 208.393 310.752 208.491 310.201 208.491C310.052 208.491 309.884 208.477 309.697 208.449C309.52 208.412 309.342 208.36 309.165 208.295C309.053 208.388 308.96 208.491 308.885 208.603C308.82 208.715 308.787 208.86 308.787 209.037C308.787 209.242 308.876 209.41 309.053 209.541C309.24 209.662 309.571 209.723 310.047 209.723H311.433C312.357 209.723 313.062 209.877 313.547 210.185C314.032 210.484 314.275 210.969 314.275 211.641C314.275 212.154 314.107 212.616 313.771 213.027C313.435 213.447 312.954 213.778 312.329 214.021C311.704 214.264 310.971 214.385 310.131 214.385ZM310.201 207.343C310.453 207.343 310.682 207.282 310.887 207.161C311.092 207.03 311.256 206.853 311.377 206.629C311.498 206.396 311.559 206.116 311.559 205.789C311.559 205.462 311.498 205.187 311.377 204.963C311.256 204.73 311.092 204.557 310.887 204.445C310.691 204.324 310.462 204.263 310.201 204.263C309.958 204.263 309.734 204.324 309.529 204.445C309.333 204.557 309.174 204.725 309.053 204.949C308.932 205.173 308.871 205.453 308.871 205.789C308.871 206.116 308.932 206.396 309.053 206.629C309.174 206.853 309.333 207.03 309.529 207.161C309.734 207.282 309.958 207.343 310.201 207.343ZM310.397 213.195C310.826 213.195 311.195 213.134 311.503 213.013C311.82 212.901 312.063 212.752 312.231 212.565C312.408 212.378 312.497 212.173 312.497 211.949C312.497 211.641 312.38 211.431 312.147 211.319C311.914 211.216 311.578 211.165 311.139 211.165H310.075C309.87 211.165 309.678 211.156 309.501 211.137C309.333 211.128 309.174 211.104 309.025 211.067C308.82 211.216 308.67 211.38 308.577 211.557C308.484 211.734 308.437 211.912 308.437 212.089C308.437 212.434 308.614 212.705 308.969 212.901C309.324 213.097 309.8 213.195 310.397 213.195ZM317.628 210.955L321.002 200.609H323.158L326.518 210.955H324.572L323.004 205.453C322.836 204.902 322.677 204.338 322.528 203.759C322.378 203.18 322.224 202.611 322.066 202.051H322.01C321.87 202.62 321.72 203.194 321.562 203.773C321.403 204.342 321.244 204.902 321.086 205.453L319.504 210.955H317.628ZM319.616 208.155V206.713H324.502V208.155H319.616ZM327.817 210.955V200.609H329.665V210.955H327.817ZM335.292 214.021V203.185H336.79L336.944 204.011H336.972C337.308 203.731 337.677 203.493 338.078 203.297C338.48 203.092 338.89 202.989 339.31 202.989C339.964 202.989 340.519 203.157 340.976 203.493C341.434 203.82 341.779 204.277 342.012 204.865C342.255 205.453 342.376 206.148 342.376 206.951C342.376 207.838 342.218 208.594 341.9 209.219C341.583 209.844 341.172 210.325 340.668 210.661C340.164 210.988 339.628 211.151 339.058 211.151C338.713 211.151 338.372 211.076 338.036 210.927C337.7 210.768 337.378 210.554 337.07 210.283L337.126 211.585V214.021H335.292ZM338.666 209.625C339.012 209.625 339.32 209.527 339.59 209.331C339.87 209.126 340.09 208.827 340.248 208.435C340.407 208.043 340.486 207.558 340.486 206.979C340.486 206.456 340.426 206.013 340.304 205.649C340.192 205.276 340.015 204.991 339.772 204.795C339.53 204.599 339.208 204.501 338.806 204.501C338.526 204.501 338.251 204.576 337.98 204.725C337.71 204.865 337.425 205.08 337.126 205.369V208.981C337.406 209.224 337.677 209.392 337.938 209.485C338.209 209.578 338.452 209.625 338.666 209.625ZM344.206 210.955V199.797H346.04V202.681L345.956 204.165C346.283 203.857 346.642 203.586 347.034 203.353C347.436 203.11 347.902 202.989 348.434 202.989C349.265 202.989 349.872 203.26 350.254 203.801C350.637 204.342 350.828 205.103 350.828 206.083V210.955H348.994V206.321C348.994 205.677 348.896 205.224 348.7 204.963C348.514 204.702 348.21 204.571 347.79 204.571C347.454 204.571 347.156 204.655 346.894 204.823C346.642 204.982 346.358 205.215 346.04 205.523V210.955H344.206ZM355.348 211.151C354.508 211.151 353.897 210.88 353.514 210.339C353.132 209.798 352.94 209.037 352.94 208.057V203.185H354.774V207.833C354.774 208.458 354.868 208.906 355.054 209.177C355.25 209.438 355.558 209.569 355.978 209.569C356.314 209.569 356.613 209.485 356.874 209.317C357.136 209.149 357.411 208.878 357.7 208.505V203.185H359.534V210.955H358.022L357.882 209.807H357.84C357.495 210.208 357.126 210.535 356.734 210.787C356.342 211.03 355.88 211.151 355.348 211.151ZM356.3 201.897L353.626 199.447L354.872 198.229L357.21 201.001L356.3 201.897ZM365.001 210.955V199.797H366.835V202.681L366.751 204.165C367.078 203.857 367.437 203.586 367.829 203.353C368.231 203.11 368.697 202.989 369.229 202.989C370.06 202.989 370.667 203.26 371.049 203.801C371.432 204.342 371.623 205.103 371.623 206.083V210.955H369.789V206.321C369.789 205.677 369.691 205.224 369.495 204.963C369.309 204.702 369.005 204.571 368.585 204.571C368.249 204.571 367.951 204.655 367.689 204.823C367.437 204.982 367.153 205.215 366.835 205.523V210.955H365.001ZM379.433 203.983L378.481 203.325C378.873 203.25 379.181 203.096 379.405 202.863C379.629 202.63 379.741 202.294 379.741 201.855C379.741 201.696 379.718 201.542 379.671 201.393C379.634 201.234 379.578 201.094 379.503 200.973L380.875 200.357C380.997 200.525 381.095 200.73 381.169 200.973C381.253 201.216 381.295 201.468 381.295 201.729C381.295 202.149 381.207 202.508 381.029 202.807C380.861 203.106 380.637 203.353 380.357 203.549C380.077 203.736 379.769 203.88 379.433 203.983ZM377.011 211.151C376.367 211.151 375.761 210.992 375.191 210.675C374.631 210.348 374.179 209.882 373.833 209.275C373.488 208.659 373.315 207.926 373.315 207.077C373.315 206.209 373.488 205.472 373.833 204.865C374.179 204.258 374.631 203.796 375.191 203.479C375.761 203.152 376.367 202.989 377.011 202.989C377.497 202.989 377.959 203.082 378.397 203.269C378.845 203.446 379.242 203.712 379.587 204.067C379.933 204.412 380.203 204.837 380.399 205.341C380.605 205.845 380.707 206.424 380.707 207.077C380.707 207.926 380.535 208.659 380.189 209.275C379.844 209.882 379.387 210.348 378.817 210.675C378.257 210.992 377.655 211.151 377.011 211.151ZM377.011 209.639C377.394 209.639 377.721 209.536 377.991 209.331C378.262 209.116 378.467 208.818 378.607 208.435C378.757 208.043 378.831 207.59 378.831 207.077C378.831 206.554 378.757 206.102 378.607 205.719C378.467 205.327 378.262 205.028 377.991 204.823C377.721 204.608 377.394 204.501 377.011 204.501C376.638 204.501 376.316 204.608 376.045 204.823C375.775 205.028 375.565 205.327 375.415 205.719C375.275 206.102 375.205 206.554 375.205 207.077C375.205 207.59 375.275 208.043 375.415 208.435C375.565 208.818 375.775 209.116 376.045 209.331C376.316 209.536 376.638 209.639 377.011 209.639ZM377.053 214.385C376.727 214.385 376.461 214.287 376.255 214.091C376.059 213.904 375.961 213.652 375.961 213.335C375.961 213.018 376.059 212.761 376.255 212.565C376.461 212.378 376.727 212.285 377.053 212.285C377.38 212.285 377.646 212.378 377.851 212.565C378.057 212.761 378.159 213.018 378.159 213.335C378.159 213.652 378.057 213.904 377.851 214.091C377.646 214.287 377.38 214.385 377.053 214.385ZM382.515 214.021V203.185H384.013L384.167 204.011H384.195C384.531 203.731 384.9 203.493 385.301 203.297C385.702 203.092 386.113 202.989 386.533 202.989C387.186 202.989 387.742 203.157 388.199 203.493C388.656 203.82 389.002 204.277 389.235 204.865C389.478 205.453 389.599 206.148 389.599 206.951C389.599 207.838 389.44 208.594 389.123 209.219C388.806 209.844 388.395 210.325 387.891 210.661C387.387 210.988 386.85 211.151 386.281 211.151C385.936 211.151 385.595 211.076 385.259 210.927C384.923 210.768 384.601 210.554 384.293 210.283L384.349 211.585V214.021H382.515ZM385.889 209.625C386.234 209.625 386.542 209.527 386.813 209.331C387.093 209.126 387.312 208.827 387.471 208.435C387.63 208.043 387.709 207.558 387.709 206.979C387.709 206.456 387.648 206.013 387.527 205.649C387.415 205.276 387.238 204.991 386.995 204.795C386.752 204.599 386.43 204.501 386.029 204.501C385.749 204.501 385.474 204.576 385.203 204.725C384.932 204.865 384.648 205.08 384.349 205.369V208.981C384.629 209.224 384.9 209.392 385.161 209.485C385.432 209.578 385.674 209.625 385.889 209.625Z" fill="#0E0F3B"/>
<path d="M99.0082 135.023V123.295H101.936C105.552 123.295 107.472 125.391 107.472 129.119C107.472 132.847 105.552 135.023 102.016 135.023H99.0082ZM100.496 133.807H101.824C104.576 133.807 105.952 132.095 105.952 129.119C105.952 126.143 104.576 124.511 101.824 124.511H100.496V133.807ZM116.632 126.911L115.592 126.335C116.424 126.207 117.096 125.807 117.096 124.607C117.096 124.287 116.984 123.935 116.824 123.647L117.96 123.119C118.2 123.503 118.376 124.015 118.376 124.511C118.376 125.967 117.496 126.623 116.632 126.911ZM112.424 135.247C110.6 135.247 109.768 134.063 109.768 131.839V126.335H111.224V131.663C111.224 133.279 111.72 133.967 112.872 133.967C113.752 133.967 114.392 133.535 115.208 132.511V126.335H116.664V135.023H115.464L115.336 133.663H115.304C114.488 134.607 113.624 135.247 112.424 135.247ZM114.472 124.703C113.208 124.703 112.728 123.199 111.896 123.199C111.352 123.199 111.112 123.775 111.064 124.623L110.088 124.559C110.136 123.183 110.648 122.143 111.896 122.143C113.144 122.143 113.624 123.647 114.472 123.647C115 123.647 115.24 123.071 115.288 122.239L116.264 122.287C116.216 123.663 115.704 124.703 114.472 124.703ZM124.729 135.247C123.625 135.247 123.193 134.543 123.193 133.295V122.303H124.649V133.391C124.649 133.855 124.841 134.031 125.065 134.031C125.129 134.031 125.193 134.031 125.369 133.999L125.561 135.119C125.353 135.183 125.129 135.247 124.729 135.247ZM127.74 135.023V126.335H129.196V135.023H127.74ZM128.476 124.543C127.9 124.543 127.5 124.175 127.5 123.567C127.5 123.007 127.9 122.639 128.476 122.639C129.036 122.639 129.452 123.007 129.452 123.567C129.452 124.175 129.036 124.543 128.476 124.543ZM135.65 135.247C133.33 135.247 131.49 133.551 131.49 130.703C131.49 127.871 133.394 126.127 135.394 126.127C137.602 126.127 138.85 127.711 138.85 130.207C138.85 130.511 138.834 130.815 138.786 131.039H132.93C133.042 132.879 134.162 134.079 135.826 134.079C136.658 134.079 137.346 133.807 137.986 133.375L138.514 134.351C137.746 134.847 136.834 135.247 135.65 135.247ZM132.914 129.983H137.57C137.57 128.239 136.786 127.295 135.41 127.295C134.194 127.295 133.106 128.271 132.914 129.983ZM132.61 124.287L134.642 121.807H136.114L138.146 124.287L137.522 124.879L135.41 122.863H135.346L133.25 124.879L132.61 124.287ZM135.378 138.719C134.802 138.719 134.402 138.351 134.402 137.743C134.402 137.167 134.802 136.799 135.378 136.799C135.954 136.799 136.354 137.167 136.354 137.743C136.354 138.351 135.954 138.719 135.378 138.719ZM143.533 135.247C141.709 135.247 140.877 134.063 140.877 131.839V126.335H142.333V131.663C142.333 133.279 142.829 133.967 143.981 133.967C144.861 133.967 145.501 133.535 146.317 132.511V126.335H147.773V135.023H146.573L146.445 133.663H146.413C145.597 134.607 144.733 135.247 143.533 135.247ZM73.319 158.247C71.463 158.247 70.855 157.079 70.855 155.351V150.519H69.559V149.431L70.919 149.335L71.079 146.887H72.311V149.335H74.663V150.519H72.311V155.383C72.311 156.439 72.647 157.063 73.655 157.063C73.959 157.063 74.359 156.935 74.631 156.823L74.919 157.911C74.439 158.087 73.863 158.247 73.319 158.247ZM76.6302 158.023V149.335H78.0862V158.023H76.6302ZM77.3662 147.543C76.7902 147.543 76.3902 147.175 76.3902 146.567C76.3902 146.007 76.7902 145.639 77.3662 145.639C77.9262 145.639 78.3422 146.007 78.3422 146.567C78.3422 147.175 77.9262 147.543 77.3662 147.543ZM81.0365 158.023V149.335H82.2205L82.3645 150.599H82.4125C83.2285 149.783 84.1245 149.127 85.3245 149.127C87.1485 149.127 87.9805 150.311 87.9805 152.519V158.023H86.5085V152.711C86.5085 151.079 86.0125 150.391 84.8605 150.391C83.9805 150.391 83.3565 150.855 82.4925 151.719V158.023H81.0365ZM97.1002 158.247C95.2442 158.247 94.6362 157.079 94.6362 155.351V150.519H93.3402V149.431L94.7002 149.335L94.8602 146.887H96.0922V149.335H98.4442V150.519H96.0922V155.383C96.0922 156.439 96.4282 157.063 97.4362 157.063C97.7402 157.063 98.1402 156.935 98.4122 156.823L98.7002 157.911C98.2202 158.087 97.6442 158.247 97.1002 158.247ZM102.939 158.247C101.115 158.247 100.283 157.063 100.283 154.839V149.335H101.739V154.663C101.739 156.279 102.235 156.967 103.387 156.967C104.267 156.967 104.907 156.535 105.723 155.511V149.335H107.179V158.023H105.979L105.851 156.663H105.819C105.003 157.607 104.139 158.247 102.939 158.247ZM110.258 161.783C109.858 161.783 109.522 161.719 109.25 161.607L109.538 160.439C109.698 160.503 109.954 160.567 110.194 160.567C111.17 160.567 111.794 159.767 112.162 158.695L112.354 158.039L108.866 149.335H110.37L112.146 154.167C112.418 154.935 112.706 155.815 112.994 156.615H113.074C113.314 155.815 113.57 154.951 113.794 154.167L115.362 149.335H116.786L113.506 158.759C112.898 160.471 112.002 161.783 110.258 161.783ZM121.869 158.247C119.549 158.247 117.709 156.551 117.709 153.703C117.709 150.871 119.613 149.127 121.613 149.127C123.821 149.127 125.069 150.711 125.069 153.207C125.069 153.511 125.053 153.815 125.005 154.039H119.149C119.261 155.879 120.381 157.079 122.045 157.079C122.877 157.079 123.565 156.807 124.205 156.375L124.733 157.351C123.965 157.847 123.053 158.247 121.869 158.247ZM119.133 152.983H123.789C123.789 151.239 123.005 150.295 121.629 150.295C120.413 150.295 119.325 151.271 119.133 152.983ZM119.709 147.831L119.213 147.239L121.005 145.607H122.189L123.981 147.239L123.485 147.831L121.629 146.535H121.565L119.709 147.831ZM123.661 146.663L123.501 146.055C123.949 145.927 124.269 145.735 124.269 145.351C124.269 144.887 123.917 144.663 123.037 144.599L123.165 143.879C124.541 143.927 125.309 144.343 125.309 145.191C125.309 146.151 124.509 146.487 123.661 146.663ZM127.224 158.023V149.335H128.408L128.552 150.599H128.6C129.416 149.783 130.312 149.127 131.512 149.127C133.336 149.127 134.168 150.311 134.168 152.519V158.023H132.696V152.711C132.696 151.079 132.2 150.391 131.048 150.391C130.168 150.391 129.544 150.855 128.68 151.719V158.023H127.224ZM143.512 158.247C141.336 158.247 139.928 156.599 139.928 153.703C139.928 150.871 141.72 149.127 143.704 149.127C144.712 149.127 145.384 149.495 146.136 150.135L146.072 148.631V145.303H147.528V158.023H146.328L146.2 156.999H146.168C145.48 157.687 144.568 158.247 143.512 158.247ZM143.832 157.015C144.648 157.015 145.352 156.615 146.072 155.831V151.271C145.336 150.599 144.664 150.343 143.944 150.343C142.552 150.343 141.448 151.703 141.448 153.687C141.448 155.767 142.312 157.015 143.832 157.015ZM153.018 158.247C151.194 158.247 150.362 157.063 150.362 154.839V149.335H151.818V154.663C151.818 156.279 152.314 156.967 153.466 156.967C154.346 156.967 154.986 156.535 155.802 155.511V149.335H157.258V158.023H156.058L155.93 156.663H155.898C155.082 157.607 154.218 158.247 153.018 158.247ZM153.898 161.719C153.338 161.719 152.938 161.351 152.938 160.743C152.938 160.167 153.338 159.799 153.898 159.799C154.474 159.799 154.874 160.167 154.874 160.743C154.874 161.351 154.474 161.719 153.898 161.719ZM160.208 158.023V149.335H161.392L161.536 150.599H161.584C162.4 149.783 163.296 149.127 164.496 149.127C166.32 149.127 167.152 150.311 167.152 152.519V158.023H165.68V152.711C165.68 151.079 165.184 150.391 164.032 150.391C163.152 150.391 162.528 150.855 161.664 151.719V158.023H160.208ZM172.902 162.023C170.774 162.023 169.302 161.191 169.302 159.703C169.302 158.967 169.782 158.247 170.582 157.735V157.671C170.134 157.383 169.798 156.919 169.798 156.231C169.798 155.511 170.31 154.951 170.774 154.631V154.567C170.198 154.103 169.622 153.271 169.622 152.231C169.622 150.311 171.126 149.127 172.886 149.127C173.382 149.127 173.814 149.223 174.118 149.335H177.142V150.471H175.366C175.782 150.871 176.07 151.511 176.07 152.263C176.07 154.119 174.662 155.271 172.886 155.271C172.47 155.271 171.99 155.175 171.59 154.983C171.286 155.239 171.03 155.543 171.03 156.007C171.03 156.567 171.398 156.967 172.566 156.967H174.262C176.278 156.967 177.286 157.591 177.286 159.031C177.286 160.647 175.574 162.023 172.902 162.023ZM172.886 154.295C173.894 154.295 174.742 153.479 174.742 152.231C174.742 150.951 173.91 150.183 172.886 150.183C171.862 150.183 171.03 150.935 171.03 152.231C171.03 153.479 171.878 154.295 172.886 154.295ZM173.094 161.031C174.774 161.031 175.862 160.151 175.862 159.255C175.862 158.439 175.238 158.167 174.102 158.167H172.598C172.262 158.167 171.862 158.135 171.462 158.023C170.838 158.471 170.582 158.999 170.582 159.495C170.582 160.439 171.526 161.031 173.094 161.031Z" fill="#07407B"/>
<path d="M203.976 112.21L189.131 97.3886C188.993 97.251 188.83 97.1419 188.649 97.0675C188.469 96.9931 188.276 96.9549 188.081 96.9551L70.7383 96.9551C69.5572 96.9551 68.4245 97.4236 67.5894 98.2574C66.7542 99.0913 66.285 100.222 66.285 101.402V108.813H58.863C57.6819 108.813 56.5492 109.281 55.714 110.115C54.8789 110.949 54.4097 112.08 54.4097 113.259V166.617C54.4097 167.797 54.8789 168.928 55.714 169.762C56.5492 170.596 57.6819 171.064 58.863 171.064H188.081C189.262 171.064 190.395 170.596 191.23 169.762C192.065 168.928 192.534 167.797 192.534 166.617V159.207H199.956C201.138 159.207 202.27 158.738 203.105 157.904C203.941 157.07 204.41 155.939 204.41 154.76V113.259C204.41 113.064 204.372 112.872 204.297 112.692C204.223 112.512 204.113 112.348 203.976 112.21ZM189.566 166.617C189.566 167.011 189.409 167.388 189.131 167.666C188.852 167.943 188.475 168.1 188.081 168.1H58.863C58.4693 168.1 58.0917 167.943 57.8133 167.666C57.5349 167.388 57.3785 167.011 57.3785 166.617V113.259C57.3785 112.866 57.5349 112.489 57.8133 112.211C58.0917 111.933 58.4693 111.777 58.863 111.777L175.59 111.777L189.566 125.732V166.617ZM201.441 154.76C201.441 155.153 201.284 155.53 201.006 155.808C200.728 156.086 200.35 156.242 199.956 156.242H192.534V125.116C192.535 124.922 192.496 124.729 192.422 124.549C192.347 124.369 192.238 124.206 192.1 124.068L177.256 109.246C177.118 109.108 176.954 108.999 176.774 108.925C176.594 108.851 176.401 108.812 176.206 108.813L69.2539 108.813V101.402C69.2539 101.009 69.4103 100.632 69.6887 100.354C69.967 100.076 70.3446 99.9194 70.7383 99.9194L187.465 99.9194L201.441 113.874V154.76Z" fill="#07407B"/>
<path d="M321.024 135.023V123.295H323.952C327.568 123.295 329.488 125.391 329.488 129.119C329.488 132.847 327.568 135.023 324.032 135.023H321.024ZM322.512 133.807H323.84C326.592 133.807 327.968 132.095 327.968 129.119C327.968 126.143 326.592 124.511 323.84 124.511H322.512V133.807ZM338.648 126.911L337.608 126.335C338.44 126.207 339.112 125.807 339.112 124.607C339.112 124.287 339 123.935 338.84 123.647L339.976 123.119C340.216 123.503 340.392 124.015 340.392 124.511C340.392 125.967 339.512 126.623 338.648 126.911ZM334.44 135.247C332.616 135.247 331.784 134.063 331.784 131.839V126.335H333.24V131.663C333.24 133.279 333.736 133.967 334.888 133.967C335.768 133.967 336.408 133.535 337.224 132.511V126.335H338.68V135.023H337.48L337.352 133.663H337.32C336.504 134.607 335.64 135.247 334.44 135.247ZM336.488 124.703C335.224 124.703 334.744 123.199 333.912 123.199C333.368 123.199 333.128 123.775 333.08 124.623L332.104 124.559C332.152 123.183 332.664 122.143 333.912 122.143C335.16 122.143 335.64 123.647 336.488 123.647C337.016 123.647 337.256 123.071 337.304 122.239L338.28 122.287C338.232 123.663 337.72 124.703 336.488 124.703ZM346.745 135.247C345.641 135.247 345.209 134.543 345.209 133.295V122.303H346.665V133.391C346.665 133.855 346.857 134.031 347.081 134.031C347.145 134.031 347.209 134.031 347.385 133.999L347.577 135.119C347.369 135.183 347.145 135.247 346.745 135.247ZM349.756 135.023V126.335H351.212V135.023H349.756ZM350.492 124.543C349.916 124.543 349.516 124.175 349.516 123.567C349.516 123.007 349.916 122.639 350.492 122.639C351.052 122.639 351.468 123.007 351.468 123.567C351.468 124.175 351.052 124.543 350.492 124.543ZM357.666 135.247C355.346 135.247 353.506 133.551 353.506 130.703C353.506 127.871 355.41 126.127 357.41 126.127C359.618 126.127 360.866 127.711 360.866 130.207C360.866 130.511 360.85 130.815 360.802 131.039H354.946C355.058 132.879 356.178 134.079 357.842 134.079C358.674 134.079 359.362 133.807 360.002 133.375L360.53 134.351C359.762 134.847 358.85 135.247 357.666 135.247ZM354.93 129.983H359.586C359.586 128.239 358.802 127.295 357.426 127.295C356.21 127.295 355.122 128.271 354.93 129.983ZM354.626 124.287L356.658 121.807H358.13L360.162 124.287L359.538 124.879L357.426 122.863H357.362L355.266 124.879L354.626 124.287ZM357.394 138.719C356.818 138.719 356.418 138.351 356.418 137.743C356.418 137.167 356.818 136.799 357.394 136.799C357.97 136.799 358.37 137.167 358.37 137.743C358.37 138.351 357.97 138.719 357.394 138.719ZM365.549 135.247C363.725 135.247 362.893 134.063 362.893 131.839V126.335H364.349V131.663C364.349 133.279 364.845 133.967 365.997 133.967C366.877 133.967 367.517 133.535 368.333 132.511V126.335H369.789V135.023H368.589L368.461 133.663H368.429C367.613 134.607 366.749 135.247 365.549 135.247ZM294.42 158.023V149.335H295.604L295.748 150.599H295.796C296.612 149.783 297.508 149.127 298.708 149.127C300.532 149.127 301.364 150.311 301.364 152.519V158.023H299.892V152.711C299.892 151.079 299.396 150.391 298.244 150.391C297.364 150.391 296.74 150.855 295.876 151.719V158.023H294.42ZM307.113 162.023C304.985 162.023 303.513 161.191 303.513 159.703C303.513 158.967 303.993 158.247 304.793 157.735V157.671C304.345 157.383 304.009 156.919 304.009 156.231C304.009 155.511 304.521 154.951 304.985 154.631V154.567C304.409 154.103 303.833 153.271 303.833 152.231C303.833 150.311 305.337 149.127 307.097 149.127C307.593 149.127 308.025 149.223 308.329 149.335H311.353V150.471H309.577C309.993 150.871 310.281 151.511 310.281 152.263C310.281 154.119 308.873 155.271 307.097 155.271C306.681 155.271 306.201 155.175 305.801 154.983C305.497 155.239 305.241 155.543 305.241 156.007C305.241 156.567 305.609 156.967 306.777 156.967H308.473C310.489 156.967 311.497 157.591 311.497 159.031C311.497 160.647 309.785 162.023 307.113 162.023ZM307.097 154.295C308.105 154.295 308.953 153.479 308.953 152.231C308.953 150.951 308.121 150.183 307.097 150.183C306.073 150.183 305.241 150.935 305.241 152.231C305.241 153.479 306.089 154.295 307.097 154.295ZM307.305 161.031C308.985 161.031 310.073 160.151 310.073 159.255C310.073 158.439 309.449 158.167 308.313 158.167H306.809C306.473 158.167 306.073 158.135 305.673 158.023C305.049 158.471 304.793 158.999 304.793 159.495C304.793 160.439 305.737 161.031 307.305 161.031ZM319.952 149.911L318.912 149.335C319.744 149.207 320.416 148.807 320.416 147.607C320.416 147.287 320.304 146.935 320.144 146.647L321.28 146.119C321.52 146.503 321.696 147.015 321.696 147.511C321.696 148.967 320.816 149.623 319.952 149.911ZM315.744 158.247C313.92 158.247 313.088 157.063 313.088 154.839V149.335H314.544V154.663C314.544 156.279 315.04 156.967 316.192 156.967C317.072 156.967 317.712 156.535 318.528 155.511V149.335H319.984V158.023H318.784L318.656 156.663H318.624C317.808 157.607 316.944 158.247 315.744 158.247ZM328.775 150.103L327.911 149.511C328.951 149.319 329.543 148.807 329.543 147.783C329.543 147.463 329.447 147.111 329.287 146.823L330.407 146.295C330.647 146.679 330.823 147.191 330.823 147.687C330.823 149.111 329.815 149.815 328.775 150.103ZM326.311 158.247C324.167 158.247 322.279 156.567 322.279 153.703C322.279 150.791 324.167 149.127 326.311 149.127C328.439 149.127 330.327 150.791 330.327 153.703C330.327 156.567 328.439 158.247 326.311 158.247ZM326.311 157.031C327.815 157.031 328.823 155.687 328.823 153.703C328.823 151.687 327.815 150.343 326.311 150.343C324.791 150.343 323.783 151.687 323.783 153.703C323.783 155.687 324.791 157.031 326.311 157.031ZM326.599 147.783L323.783 145.047L324.807 144.087L327.335 147.047L326.599 147.783ZM332.638 158.023V149.335H334.094V158.023H332.638ZM333.374 147.543C332.798 147.543 332.398 147.175 332.398 146.567C332.398 146.007 332.798 145.639 333.374 145.639C333.934 145.639 334.35 146.007 334.35 146.567C334.35 147.175 333.934 147.543 333.374 147.543ZM343.343 158.247C341.487 158.247 340.879 157.079 340.879 155.351V150.519H339.583V149.431L340.943 149.335L341.103 146.887H342.335V149.335H344.687V150.519H342.335V155.383C342.335 156.439 342.671 157.063 343.679 157.063C343.983 157.063 344.383 156.935 344.655 156.823L344.943 157.911C344.463 158.087 343.887 158.247 343.343 158.247ZM346.654 158.023V149.335H348.11V158.023H346.654ZM347.646 147.783L344.846 145.047L345.854 144.087L348.382 147.047L347.646 147.783ZM351.06 158.023V149.335H352.244L352.388 150.599H352.436C353.188 149.783 354.1 149.127 355.14 149.127C356.468 149.127 357.188 149.751 357.524 150.775C358.436 149.815 359.348 149.127 360.404 149.127C362.18 149.127 363.044 150.311 363.044 152.519V158.023H361.588V152.711C361.588 151.079 361.076 150.391 359.956 150.391C359.284 150.391 358.596 150.839 357.78 151.719V158.023H356.324V152.711C356.324 151.079 355.812 150.391 354.692 150.391C354.036 150.391 353.3 150.839 352.516 151.719V158.023H351.06ZM371.323 158.023L368.187 149.335H369.691L371.339 154.295C371.595 155.143 371.867 156.023 372.139 156.839H372.203C372.475 156.023 372.747 155.143 373.003 154.295L374.667 149.335H376.091L373.019 158.023H371.323ZM377.795 158.023V149.335H379.251V158.023H377.795ZM378.531 147.543C377.955 147.543 377.555 147.175 377.555 146.567C377.555 146.007 377.955 145.639 378.531 145.639C379.091 145.639 379.507 146.007 379.507 146.567C379.507 147.175 379.091 147.543 378.531 147.543ZM385.705 158.247C383.385 158.247 381.545 156.551 381.545 153.703C381.545 150.871 383.449 149.127 385.449 149.127C387.657 149.127 388.905 150.711 388.905 153.207C388.905 153.511 388.889 153.815 388.841 154.039H382.985C383.097 155.879 384.217 157.079 385.881 157.079C386.713 157.079 387.401 156.807 388.041 156.375L388.569 157.351C387.801 157.847 386.889 158.247 385.705 158.247ZM382.969 152.983H387.625C387.625 151.239 386.841 150.295 385.465 150.295C384.249 150.295 383.161 151.271 382.969 152.983ZM382.665 147.287L384.697 144.807H386.169L388.201 147.287L387.577 147.879L385.465 145.863H385.401L383.305 147.879L382.665 147.287ZM385.433 161.719C384.857 161.719 384.457 161.351 384.457 160.743C384.457 160.167 384.857 159.799 385.433 159.799C386.009 159.799 386.409 160.167 386.409 160.743C386.409 161.351 386.009 161.719 385.433 161.719ZM394.468 158.247C392.164 158.247 390.404 156.567 390.404 153.703C390.404 150.791 392.356 149.127 394.58 149.127C395.716 149.127 396.516 149.591 397.124 150.151L396.388 151.111C395.876 150.647 395.332 150.343 394.66 150.343C393.06 150.343 391.908 151.687 391.908 153.703C391.908 155.687 393.012 157.031 394.612 157.031C395.396 157.031 396.116 156.647 396.66 156.167L397.284 157.143C396.516 157.831 395.508 158.247 394.468 158.247Z" fill="#FF8B13"/>
<path d="M425.976 112.21L411.131 97.3886C410.993 97.251 410.83 97.1419 410.649 97.0675C410.469 96.9931 410.276 96.9549 410.081 96.9551L292.738 96.9551C291.557 96.9551 290.425 97.4236 289.589 98.2574C288.754 99.0913 288.285 100.222 288.285 101.402V108.813H280.863C279.682 108.813 278.549 109.281 277.714 110.115C276.879 110.949 276.41 112.08 276.41 113.259V166.617C276.41 167.797 276.879 168.928 277.714 169.762C278.549 170.596 279.682 171.064 280.863 171.064H410.081C411.262 171.064 412.395 170.596 413.23 169.762C414.065 168.928 414.534 167.797 414.534 166.617V159.207H421.956C423.138 159.207 424.27 158.738 425.105 157.904C425.941 157.07 426.41 155.939 426.41 154.76V113.259C426.41 113.064 426.372 112.872 426.297 112.692C426.223 112.512 426.113 112.348 425.976 112.21ZM411.566 166.617C411.566 167.011 411.409 167.388 411.131 167.666C410.852 167.943 410.475 168.1 410.081 168.1H280.863C280.469 168.1 280.092 167.943 279.813 167.666C279.535 167.388 279.379 167.011 279.379 166.617V113.259C279.379 112.866 279.535 112.489 279.813 112.211C280.092 111.933 280.469 111.777 280.863 111.777L397.59 111.777L411.566 125.732V166.617ZM423.441 154.76C423.441 155.153 423.284 155.53 423.006 155.808C422.728 156.086 422.35 156.242 421.956 156.242H414.534V125.116C414.535 124.922 414.496 124.729 414.422 124.549C414.347 124.369 414.238 124.206 414.1 124.068L399.256 109.246C399.118 109.108 398.954 108.999 398.774 108.925C398.594 108.851 398.401 108.812 398.206 108.813L291.254 108.813V101.402C291.254 101.009 291.41 100.632 291.689 100.354C291.967 100.076 292.345 99.9194 292.738 99.9194L409.465 99.9194L423.441 113.874V154.76Z" fill="#FF8B13"/>
<path d="M231.076 138.01H249.742V144.677L260.41 134.01L249.742 123.344V130.01H231.076V123.344L220.41 134.01L231.076 144.677V138.01Z" fill="#07407B"/>
</svg>
