<svg width="480" height="200" viewBox="0 0 480 200" fill="none" xmlns="http://www.w3.org/2000/svg">
<rect x="1.00153" y="1" width="478" height="198" rx="19" fill="white" stroke="#2EB9E6" stroke-width="2"/>
<path d="M121.49 22.148H123.956C123.794 25.172 123.56 33.956 116.198 38.474C115.82 37.916 115.118 37.25 114.38 36.746C121.616 32.732 121.364 24.506 121.49 22.148ZM123.884 22.616C123.938 24.182 124.316 33.164 131.696 36.62C131.012 37.142 130.364 37.862 130.04 38.456C122.282 34.604 121.94 24.686 121.796 22.832L123.884 22.616ZM140.552 25.442H149.39V27.494H140.552V25.442ZM145.376 21.734H147.662V35.972C147.662 37.196 147.41 37.79 146.672 38.132C145.934 38.492 144.8 38.546 143.234 38.546C143.126 37.934 142.802 36.962 142.496 36.368C143.486 36.404 144.602 36.386 144.926 36.386C145.25 36.386 145.376 36.278 145.376 35.972V21.734ZM145.196 26.432L146.942 27.494C145.628 30.626 143.108 34.046 140.57 35.954C140.21 35.378 139.544 34.622 139.004 34.19C141.524 32.588 143.99 29.366 145.196 26.432ZM132.812 25.424H140.048V27.494H132.812V25.424ZM135.584 21.716H137.762V38.618H135.584V21.716ZM135.512 26.81L136.916 27.314C136.232 30.284 134.954 33.758 133.406 35.648C133.19 34.982 132.65 34.064 132.29 33.488C133.694 31.904 134.954 29.15 135.512 26.81ZM137.6 27.818C138.176 28.268 140.138 30.266 140.57 30.752L139.31 32.606C138.68 31.58 137.24 29.708 136.538 28.88L137.6 27.818ZM159.416 35.918H165.626V37.826H159.416V35.918ZM158.408 30.95H166.67V38.528H164.582V32.858H160.388V38.6H158.408V30.95ZM157.778 22.562H166.022V24.542H157.778V22.562ZM165.014 22.562H167.03C167.03 22.562 167.012 23.084 166.994 23.336C166.904 27.098 166.778 28.664 166.328 29.24C165.95 29.708 165.554 29.852 164.978 29.924C164.492 29.996 163.664 29.996 162.782 29.996C162.728 29.366 162.494 28.538 162.152 27.998C162.908 28.07 163.646 28.07 163.988 28.07C164.24 28.07 164.42 28.034 164.564 27.872C164.834 27.566 164.942 26.27 165.014 22.868V22.562ZM160.352 23.372H162.476C162.206 26.414 161.504 28.952 158.318 30.464C158.066 29.96 157.49 29.204 157.04 28.844C159.74 27.674 160.154 25.694 160.352 23.372ZM153.242 21.734L155.114 22.436C154.376 23.804 153.548 25.406 152.846 26.414L151.406 25.784C152.054 24.722 152.828 22.994 153.242 21.734ZM155.312 23.858L157.058 24.65C155.762 26.72 153.998 29.222 152.63 30.788L151.388 30.086C152.72 28.448 154.376 25.802 155.312 23.858ZM150.47 26L151.496 24.524C152.45 25.352 153.566 26.486 154.034 27.314L152.918 28.988C152.486 28.124 151.388 26.864 150.47 26ZM154.772 28.16L156.194 27.566C156.896 28.772 157.58 30.356 157.796 31.4L156.266 32.084C156.068 31.04 155.456 29.402 154.772 28.16ZM150.452 29.654C152.108 29.6 154.538 29.51 156.914 29.402L156.896 31.112C154.682 31.274 152.378 31.418 150.632 31.544L150.452 29.654ZM155.168 32.642L156.68 32.156C157.13 33.182 157.598 34.532 157.796 35.432L156.212 35.99C156.032 35.09 155.564 33.704 155.168 32.642ZM151.226 32.3L153.008 32.606C152.828 34.334 152.432 36.134 151.91 37.286C151.532 37.052 150.722 36.674 150.272 36.494C150.794 35.432 151.082 33.83 151.226 32.3ZM153.242 30.608H155.132V38.636H153.242V30.608ZM176.93 23.876C175.526 26.18 172.772 28.664 169.748 30.266C169.478 29.726 168.866 28.916 168.398 28.466C171.602 26.936 174.41 24.056 175.652 21.662H177.992C179.846 24.704 182.708 27.08 185.66 28.214C185.102 28.79 184.616 29.528 184.22 30.194C181.34 28.736 178.388 26.216 176.93 23.876ZM178.928 28.304H181.178V38.618H178.928V28.304ZM172.718 28.394H174.932V30.626C174.932 33.182 174.572 36.404 171.026 38.618C170.648 38.15 169.802 37.43 169.226 37.088C172.394 35.198 172.718 32.66 172.718 30.572V28.394ZM191.546 22.76C192.734 23.408 194.714 24.668 195.65 25.334L194.318 27.314C193.31 26.612 191.438 25.406 190.25 24.74L191.546 22.76ZM188.216 35.54C190.232 35.198 192.374 34.586 194.336 33.506C197.396 31.796 199.916 29.33 201.338 26.756L202.724 29.204C201.068 31.706 198.512 33.974 195.578 35.684C193.742 36.71 191.15 37.61 189.566 37.898L188.216 35.54ZM188.774 26.864C189.98 27.512 191.96 28.736 192.896 29.402L191.564 31.418C190.556 30.698 188.684 29.492 187.478 28.844L188.774 26.864ZM218.996 24.812C218.852 25.01 218.528 25.55 218.366 25.928C217.628 27.638 216.296 30.086 214.748 31.886C212.732 34.208 210.014 36.44 207.224 37.754L205.352 35.81C208.268 34.73 211.04 32.534 212.732 30.662C213.92 29.312 215.018 27.53 215.432 26.252C214.676 26.252 210.086 26.252 209.312 26.252C208.574 26.252 207.584 26.342 207.188 26.378V23.804C207.674 23.876 208.79 23.93 209.312 23.93C210.266 23.93 214.874 23.93 215.666 23.93C216.458 23.93 217.16 23.84 217.538 23.714L218.996 24.812ZM214.982 30.392C216.836 31.904 219.392 34.586 220.562 36.026L218.51 37.808C217.178 35.954 215.216 33.812 213.29 32.066L214.982 30.392ZM225.62 23.21C226.196 23.282 226.934 23.336 227.546 23.336C228.68 23.336 233.72 23.336 234.782 23.336C235.376 23.336 236.096 23.282 236.708 23.21V25.532C236.096 25.496 235.394 25.46 234.782 25.46C233.72 25.46 228.68 25.46 227.546 25.46C226.934 25.46 226.16 25.496 225.62 25.532V23.21ZM223.514 27.8C224.054 27.872 224.684 27.908 225.242 27.908C226.376 27.908 235.97 27.908 237.032 27.908C237.41 27.908 238.202 27.89 238.688 27.8V30.14C238.22 30.122 237.536 30.104 237.032 30.104C235.97 30.104 226.376 30.104 225.242 30.104C224.72 30.104 224.018 30.122 223.514 30.158V27.8ZM232.73 29.06C232.73 31.418 232.316 33.218 231.542 34.712C230.93 35.972 229.526 37.358 227.942 38.186L225.818 36.656C227.096 36.152 228.374 35.126 229.076 34.064C229.976 32.696 230.228 31.004 230.228 29.078L232.73 29.06ZM249.429 23.426C249.195 23.966 248.943 24.632 248.673 25.442C248.007 27.458 246.135 33.254 245.361 35.126L242.715 35.216C243.687 32.912 245.559 27.008 246.153 24.92C246.405 24.02 246.495 23.444 246.567 22.85L249.429 23.426ZM252.651 29.24C253.947 31.184 255.783 34.73 256.611 36.728L254.181 37.808C253.371 35.63 251.697 31.904 250.419 30.176L252.651 29.24ZM242.535 34.406C245.037 34.316 250.923 33.65 253.443 33.308L253.965 35.612C251.301 35.954 245.109 36.602 242.679 36.854C242.229 36.908 241.545 36.998 240.987 37.07L240.555 34.424C241.167 34.442 241.959 34.424 242.535 34.406ZM258.123 31.652C258.663 31.22 259.095 30.806 259.635 30.248C260.481 29.384 261.849 27.53 262.983 26.234C264.243 24.794 265.395 24.668 266.709 25.946C267.951 27.134 269.373 28.988 270.435 30.158C271.587 31.418 273.135 33.02 274.845 34.55L272.973 36.71C271.695 35.486 270.165 33.758 269.013 32.408C267.897 31.094 266.547 29.366 265.719 28.412C265.071 27.728 264.729 27.818 264.207 28.466C263.487 29.384 262.227 31.166 261.453 32.192C261.039 32.768 260.625 33.416 260.301 33.884L258.123 31.652ZM286.095 24.668C285.843 26.504 285.483 28.61 284.853 30.734C283.773 34.37 282.225 36.602 280.263 36.602C278.247 36.602 276.591 34.388 276.591 31.346C276.591 27.206 280.209 23.642 284.871 23.642C289.317 23.642 292.143 26.738 292.143 30.68C292.143 34.46 289.821 37.142 285.285 37.844L283.917 35.72C284.619 35.63 285.123 35.54 285.609 35.432C287.895 34.874 289.695 33.236 289.695 30.59C289.695 27.764 287.931 25.748 284.817 25.748C281.001 25.748 278.913 28.862 278.913 31.13C278.913 32.948 279.633 33.83 280.317 33.83C281.091 33.83 281.775 32.678 282.531 30.248C283.053 28.556 283.449 26.486 283.629 24.596L286.095 24.668ZM294.213 33.488H310.701V35.126H294.213V33.488ZM298.875 23.192H310.683V24.65H298.875V23.192ZM304.707 32.534H306.795V36.566C306.795 37.538 306.615 38.042 305.877 38.33C305.175 38.6 304.203 38.618 302.853 38.618C302.763 38.06 302.457 37.286 302.187 36.764C303.069 36.818 304.077 36.8 304.347 36.782C304.635 36.782 304.707 36.728 304.707 36.512V32.534ZM297.273 35.918L298.731 34.712C299.595 35.27 300.693 36.116 301.233 36.728L299.649 38.06C299.199 37.448 298.119 36.53 297.273 35.918ZM294.717 23.084L296.121 21.914C297.021 22.526 298.137 23.444 298.641 24.128L297.165 25.442C296.697 24.758 295.617 23.768 294.717 23.084ZM300.945 22.022L302.709 21.698C303.087 22.22 303.483 22.958 303.645 23.462L301.791 23.84C301.647 23.354 301.287 22.58 300.945 22.022ZM302.295 27.62V28.178H307.119V27.62H302.295ZM302.295 29.096V29.654H307.119V29.096H302.295ZM302.295 26.162V26.702H307.119V26.162H302.295ZM300.297 25.208H309.207V30.608H300.297V25.208ZM298.335 26.18V30.41H296.373V27.818H294.285V26.18H298.335ZM303.663 23.786L305.805 23.93C305.535 24.614 305.283 25.19 305.085 25.64L303.375 25.424C303.501 24.902 303.627 24.236 303.663 23.786ZM306.777 21.662L308.811 22.004C308.379 22.706 307.947 23.282 307.605 23.732L305.895 23.39C306.201 22.868 306.579 22.166 306.777 21.662ZM298.335 29.69C298.911 30.68 300.009 31.094 301.539 31.148C303.735 31.238 308.451 31.184 310.953 31.004C310.773 31.4 310.521 32.174 310.431 32.66C308.127 32.768 303.771 32.786 301.557 32.714C299.721 32.642 298.515 32.228 297.615 31.094C296.769 31.688 295.869 32.246 294.879 32.876L294.123 31.166C294.969 30.77 295.995 30.23 296.895 29.69H298.335ZM315.579 22.724H320.673V24.92H315.579V22.724ZM319.611 22.724H321.843C321.843 26.144 322.329 32.768 329.007 36.674C328.503 37.07 327.639 38.024 327.261 38.564C320.403 34.442 319.611 26.396 319.611 22.724ZM318.837 26.666L321.321 27.116C320.061 32.462 317.667 36.332 313.905 38.6C313.509 38.132 312.501 37.232 311.943 36.836C315.705 34.928 317.865 31.436 318.837 26.666ZM337.287 21.716H339.483V36.566C339.483 37.628 339.213 38.06 338.529 38.366C337.827 38.636 336.855 38.672 335.325 38.672C335.217 38.168 334.875 37.412 334.605 36.98C335.469 37.016 336.531 36.998 336.837 36.998C337.179 36.98 337.287 36.872 337.287 36.566V21.716ZM330.537 22.886H346.377V24.596H330.537V22.886ZM334.443 26.684V27.548H342.399V26.684H334.443ZM332.391 25.316H344.613V28.916H332.391V25.316ZM331.941 29.708H344.919V36.746H342.723V31.184H331.941V29.708ZM330.123 31.94H346.791V33.578H330.123V31.94ZM331.797 34.424H343.893V35.99H331.797V34.424ZM353.055 22.508H359.463V24.398H353.055V22.508ZM354.873 26.342H357.933V28.214H354.279L354.873 26.342ZM353.757 31.292L354.675 29.672C355.395 30.158 356.295 30.878 356.709 31.364L355.755 33.182C355.359 32.642 354.477 31.85 353.757 31.292ZM359.337 23.804H361.245V34.352H359.337V23.804ZM362.361 22.058H364.359V36.17C364.359 37.322 364.143 37.88 363.495 38.222C362.829 38.564 361.821 38.636 360.399 38.636C360.309 38.06 360.021 37.124 359.733 36.53C360.723 36.566 361.641 36.566 361.965 36.566C362.253 36.548 362.361 36.458 362.361 36.17V22.058ZM354.387 23.174L356.439 23.462C355.917 26.756 354.981 30.68 352.983 33.02C352.695 32.588 352.101 31.868 351.705 31.508C353.379 29.492 354.099 25.928 354.387 23.174ZM357.123 26.342H357.501L357.843 26.27L359.085 26.648C358.437 32.516 356.547 36.602 353.775 38.618C353.487 38.132 352.839 37.286 352.425 36.962C355.017 35.198 356.619 31.706 357.123 26.756V26.342ZM351.219 21.734L353.217 22.328C352.191 25.478 350.535 28.88 348.699 31.022C348.519 30.5 347.997 29.258 347.655 28.7C349.113 26.99 350.445 24.362 351.219 21.734ZM349.797 26.684L351.723 24.758L351.777 24.794V38.6H349.797V26.684Z" fill="#07407B"/>
<path d="M143.104 175.756H155.914V176.974H143.104V175.756ZM143.384 168.672H155.578V169.974H143.384V168.672ZM147.822 174.37L149.292 174.748C148.993 175.243 148.666 175.756 148.312 176.288C147.957 176.82 147.607 177.333 147.262 177.828C146.916 178.323 146.599 178.761 146.31 179.144L144.868 178.682C145.157 178.309 145.479 177.875 145.834 177.38C146.188 176.885 146.538 176.377 146.884 175.854C147.238 175.322 147.551 174.827 147.822 174.37ZM151.91 176.204L153.366 176.582C153.03 177.385 152.591 178.061 152.05 178.612C151.508 179.163 150.85 179.615 150.076 179.97C149.31 180.315 148.414 180.586 147.388 180.782C146.37 180.978 145.208 181.127 143.902 181.23C143.855 181.006 143.78 180.773 143.678 180.53C143.575 180.297 143.463 180.096 143.342 179.928C144.938 179.853 146.305 179.699 147.444 179.466C148.582 179.223 149.516 178.845 150.244 178.332C150.981 177.809 151.536 177.1 151.91 176.204ZM145.764 178.724L146.534 177.646C147.635 177.861 148.732 178.103 149.824 178.374C150.925 178.645 151.961 178.925 152.932 179.214C153.912 179.503 154.752 179.779 155.452 180.04L154.556 181.258C153.865 180.978 153.053 180.689 152.12 180.39C151.186 180.091 150.178 179.797 149.096 179.508C148.013 179.219 146.902 178.957 145.764 178.724ZM147.108 169.176H148.522V173.992H147.108V169.176ZM150.3 169.176H151.728V173.992H150.3V169.176ZM145.456 172.074V173.558H153.59V172.074H145.456ZM144.042 170.884H155.088V174.734H144.042V170.884ZM163.488 174.384L164.692 173.782C164.944 174.109 165.191 174.463 165.434 174.846C165.686 175.219 165.91 175.593 166.106 175.966C166.302 176.33 166.451 176.661 166.554 176.96L165.252 177.646C165.158 177.347 165.018 177.011 164.832 176.638C164.645 176.255 164.435 175.868 164.202 175.476C163.968 175.084 163.73 174.72 163.488 174.384ZM163.838 170.562H168.948V171.99H163.838V170.562ZM168.318 170.562H169.76C169.76 170.562 169.76 170.609 169.76 170.702C169.76 170.795 169.76 170.898 169.76 171.01C169.76 171.122 169.755 171.211 169.746 171.276C169.699 172.825 169.648 174.141 169.592 175.224C169.536 176.307 169.47 177.203 169.396 177.912C169.321 178.612 169.232 179.163 169.13 179.564C169.027 179.956 168.906 180.245 168.766 180.432C168.579 180.675 168.383 180.843 168.178 180.936C167.982 181.039 167.739 181.109 167.45 181.146C167.207 181.183 166.885 181.197 166.484 181.188C166.082 181.188 165.676 181.183 165.266 181.174C165.256 180.95 165.205 180.693 165.112 180.404C165.018 180.124 164.902 179.877 164.762 179.662C165.21 179.699 165.625 179.723 166.008 179.732C166.39 179.741 166.67 179.746 166.848 179.746C166.988 179.746 167.104 179.732 167.198 179.704C167.291 179.667 167.375 179.601 167.45 179.508C167.571 179.387 167.674 179.139 167.758 178.766C167.851 178.393 167.93 177.865 167.996 177.184C168.061 176.503 168.117 175.644 168.164 174.608C168.22 173.563 168.271 172.317 168.318 170.87V170.562ZM164.048 168.126L165.602 168.476C165.406 169.157 165.168 169.829 164.888 170.492C164.617 171.155 164.318 171.775 163.992 172.354C163.665 172.923 163.324 173.423 162.97 173.852C162.867 173.759 162.732 173.656 162.564 173.544C162.405 173.432 162.237 173.32 162.06 173.208C161.892 173.096 161.747 173.007 161.626 172.942C161.99 172.559 162.321 172.116 162.62 171.612C162.928 171.099 163.203 170.543 163.446 169.946C163.688 169.349 163.889 168.742 164.048 168.126ZM159.092 168.154L160.422 168.63C160.235 168.985 160.039 169.349 159.834 169.722C159.628 170.095 159.428 170.459 159.232 170.814C159.036 171.159 158.844 171.458 158.658 171.71L157.636 171.29C157.813 171.01 157.99 170.688 158.168 170.324C158.345 169.96 158.513 169.587 158.672 169.204C158.84 168.821 158.98 168.471 159.092 168.154ZM160.772 169.792L162.046 170.324C161.71 170.856 161.341 171.416 160.94 172.004C160.538 172.583 160.132 173.143 159.722 173.684C159.32 174.216 158.938 174.683 158.574 175.084L157.664 174.608C157.934 174.3 158.21 173.945 158.49 173.544C158.779 173.143 159.059 172.727 159.33 172.298C159.61 171.859 159.871 171.425 160.114 170.996C160.366 170.567 160.585 170.165 160.772 169.792ZM156.922 171.36L157.636 170.338C157.888 170.553 158.144 170.791 158.406 171.052C158.667 171.304 158.905 171.556 159.12 171.808C159.344 172.06 159.516 172.293 159.638 172.508L158.868 173.67C158.746 173.446 158.578 173.199 158.364 172.928C158.158 172.657 157.925 172.387 157.664 172.116C157.412 171.836 157.164 171.584 156.922 171.36ZM160.394 173.124L161.472 172.662C161.668 172.97 161.854 173.301 162.032 173.656C162.209 174.011 162.363 174.356 162.494 174.692C162.634 175.028 162.736 175.331 162.802 175.602L161.654 176.134C161.588 175.863 161.49 175.555 161.36 175.21C161.238 174.865 161.094 174.51 160.926 174.146C160.758 173.782 160.58 173.441 160.394 173.124ZM156.908 174.342C157.552 174.323 158.322 174.295 159.218 174.258C160.114 174.221 161.033 174.179 161.976 174.132L161.962 175.322C161.084 175.387 160.212 175.448 159.344 175.504C158.485 175.56 157.71 175.611 157.02 175.658L156.908 174.342ZM160.674 176.596L161.78 176.232C161.976 176.652 162.158 177.114 162.326 177.618C162.503 178.113 162.629 178.537 162.704 178.892L161.514 179.312C161.448 178.948 161.336 178.514 161.178 178.01C161.019 177.497 160.851 177.025 160.674 176.596ZM157.552 176.302L158.798 176.526C158.723 177.198 158.606 177.861 158.448 178.514C158.298 179.158 158.121 179.704 157.916 180.152C157.822 180.096 157.706 180.035 157.566 179.97C157.426 179.895 157.281 179.825 157.132 179.76C156.992 179.685 156.866 179.629 156.754 179.592C156.968 179.172 157.136 178.668 157.258 178.08C157.388 177.492 157.486 176.899 157.552 176.302ZM159.176 174.986H160.506V181.23H159.176V174.986ZM170.474 179.998L173.848 169.652H176.004L179.364 179.998H177.418L175.85 174.496C175.682 173.945 175.523 173.381 175.374 172.802C175.224 172.223 175.07 171.654 174.912 171.094H174.856C174.716 171.663 174.566 172.237 174.408 172.816C174.249 173.385 174.09 173.945 173.932 174.496L172.35 179.998H170.474ZM172.462 177.198V175.756H177.348V177.198H172.462ZM180.663 179.998V169.652H182.511V179.998H180.663ZM188.69 175.28H197.258V176.47H188.69V175.28ZM189.824 177.814L190.594 176.918C190.827 177.049 191.07 177.203 191.322 177.38C191.574 177.557 191.812 177.735 192.036 177.912C192.269 178.08 192.456 178.239 192.596 178.388L191.798 179.41C191.658 179.251 191.476 179.079 191.252 178.892C191.028 178.705 190.79 178.519 190.538 178.332C190.295 178.136 190.057 177.963 189.824 177.814ZM194.374 174.678L195.116 174.006C195.349 174.146 195.592 174.314 195.844 174.51C196.096 174.697 196.292 174.869 196.432 175.028L195.662 175.742C195.531 175.583 195.34 175.406 195.088 175.21C194.845 175.005 194.607 174.827 194.374 174.678ZM189.656 175.882H190.986C190.93 176.591 190.832 177.277 190.692 177.94C190.561 178.593 190.342 179.2 190.034 179.76C189.726 180.311 189.287 180.787 188.718 181.188C188.634 181.029 188.508 180.852 188.34 180.656C188.172 180.46 188.013 180.306 187.864 180.194C188.34 179.877 188.699 179.489 188.942 179.032C189.185 178.575 189.353 178.075 189.446 177.534C189.549 176.993 189.619 176.442 189.656 175.882ZM192.092 168.154H193.408C193.38 169.461 193.399 170.707 193.464 171.892C193.529 173.068 193.627 174.151 193.758 175.14C193.898 176.12 194.075 176.974 194.29 177.702C194.505 178.421 194.752 178.976 195.032 179.368C195.321 179.76 195.643 179.956 195.998 179.956C196.185 179.956 196.315 179.863 196.39 179.676C196.465 179.489 196.521 179.107 196.558 178.528C196.698 178.668 196.861 178.799 197.048 178.92C197.235 179.032 197.403 179.125 197.552 179.2C197.477 179.732 197.375 180.143 197.244 180.432C197.123 180.721 196.955 180.927 196.74 181.048C196.525 181.169 196.245 181.23 195.9 181.23C195.303 181.23 194.785 181.001 194.346 180.544C193.907 180.096 193.543 179.466 193.254 178.654C192.965 177.833 192.736 176.876 192.568 175.784C192.4 174.683 192.279 173.488 192.204 172.2C192.129 170.903 192.092 169.554 192.092 168.154ZM195.27 176.498L196.53 176.974C196.054 177.945 195.401 178.789 194.57 179.508C193.739 180.217 192.792 180.782 191.728 181.202C191.644 181.062 191.518 180.894 191.35 180.698C191.191 180.511 191.051 180.357 190.93 180.236C191.947 179.872 192.829 179.368 193.576 178.724C194.332 178.08 194.897 177.338 195.27 176.498ZM193.268 170.716L193.842 169.904C194.131 170.109 194.43 170.352 194.738 170.632C195.055 170.912 195.293 171.164 195.452 171.388L194.864 172.326C194.705 172.093 194.472 171.827 194.164 171.528C193.856 171.22 193.557 170.949 193.268 170.716ZM195.886 172.368L196.74 172.046C196.927 172.373 197.09 172.732 197.23 173.124C197.379 173.507 197.477 173.838 197.524 174.118L196.6 174.51C196.553 174.221 196.465 173.875 196.334 173.474C196.203 173.073 196.054 172.704 195.886 172.368ZM193.506 173.18C193.926 173.161 194.407 173.133 194.948 173.096C195.499 173.049 196.068 173.003 196.656 172.956L196.684 173.922C196.161 173.987 195.648 174.053 195.144 174.118C194.649 174.174 194.173 174.225 193.716 174.272L193.506 173.18ZM194.836 168.238L195.97 168.672C195.755 169.064 195.531 169.465 195.298 169.876C195.074 170.287 194.864 170.632 194.668 170.912L193.856 170.548C193.977 170.333 194.099 170.095 194.22 169.834C194.341 169.563 194.453 169.288 194.556 169.008C194.668 168.728 194.761 168.471 194.836 168.238ZM196.012 169.708L197.062 170.212C196.81 170.613 196.539 171.029 196.25 171.458C195.97 171.887 195.69 172.303 195.41 172.704C195.13 173.105 194.859 173.455 194.598 173.754L193.8 173.32C194.052 173.003 194.313 172.634 194.584 172.214C194.855 171.794 195.116 171.365 195.368 170.926C195.62 170.487 195.835 170.081 196.012 169.708ZM188.424 170.716L188.984 169.904C189.283 170.109 189.586 170.352 189.894 170.632C190.211 170.912 190.445 171.164 190.594 171.388L190.006 172.326C189.857 172.093 189.623 171.827 189.306 171.528C188.998 171.22 188.704 170.949 188.424 170.716ZM190.818 172.508L191.672 172.214C191.84 172.55 191.985 172.914 192.106 173.306C192.237 173.698 192.321 174.029 192.358 174.3L191.434 174.664C191.406 174.375 191.331 174.029 191.21 173.628C191.098 173.227 190.967 172.853 190.818 172.508ZM188.508 173.39C188.928 173.362 189.413 173.329 189.964 173.292C190.515 173.245 191.093 173.199 191.7 173.152L191.714 174.188C191.191 174.244 190.673 174.3 190.16 174.356C189.647 174.412 189.161 174.463 188.704 174.51L188.508 173.39ZM189.992 168.238L191.112 168.672C190.888 169.064 190.664 169.47 190.44 169.89C190.216 170.31 190.011 170.665 189.824 170.954L189.012 170.59C189.124 170.375 189.241 170.133 189.362 169.862C189.483 169.582 189.6 169.302 189.712 169.022C189.824 168.733 189.917 168.471 189.992 168.238ZM191.154 169.708L192.204 170.212C191.943 170.623 191.663 171.057 191.364 171.514C191.075 171.971 190.781 172.41 190.482 172.83C190.183 173.241 189.903 173.605 189.642 173.922L188.844 173.502C189.105 173.166 189.376 172.779 189.656 172.34C189.945 171.901 190.221 171.453 190.482 170.996C190.753 170.529 190.977 170.1 191.154 169.708ZM184.462 171.08H188.732V172.466H184.462V171.08ZM186.044 168.14H187.388V181.202H186.044V168.14ZM186.016 172.004L186.814 172.284C186.73 172.825 186.618 173.395 186.478 173.992C186.347 174.58 186.193 175.163 186.016 175.742C185.848 176.311 185.661 176.843 185.456 177.338C185.251 177.833 185.036 178.257 184.812 178.612C184.737 178.425 184.635 178.211 184.504 177.968C184.373 177.725 184.257 177.515 184.154 177.338C184.359 177.03 184.555 176.671 184.742 176.26C184.929 175.84 185.101 175.392 185.26 174.916C185.428 174.431 185.577 173.941 185.708 173.446C185.839 172.942 185.941 172.461 186.016 172.004ZM187.318 172.942C187.393 173.035 187.5 173.199 187.64 173.432C187.789 173.665 187.953 173.922 188.13 174.202C188.307 174.482 188.466 174.743 188.606 174.986C188.746 175.229 188.844 175.401 188.9 175.504L188.172 176.554C188.107 176.358 188.009 176.12 187.878 175.84C187.757 175.551 187.626 175.257 187.486 174.958C187.346 174.659 187.211 174.379 187.08 174.118C186.949 173.857 186.842 173.651 186.758 173.502L187.318 172.942ZM200.464 168.098L202.032 168.434C201.864 168.845 201.682 169.265 201.486 169.694C201.299 170.123 201.108 170.529 200.912 170.912C200.716 171.295 200.529 171.64 200.352 171.948L199.05 171.598C199.227 171.281 199.405 170.921 199.582 170.52C199.759 170.109 199.923 169.694 200.072 169.274C200.231 168.845 200.361 168.453 200.464 168.098ZM198.28 170.996C198.784 170.977 199.358 170.959 200.002 170.94C200.646 170.912 201.327 170.879 202.046 170.842C202.765 170.805 203.488 170.772 204.216 170.744L204.202 172.06C203.511 172.107 202.821 172.153 202.13 172.2C201.439 172.237 200.777 172.279 200.142 172.326C199.507 172.363 198.929 172.396 198.406 172.424L198.28 170.996ZM199.12 173.18H203.558V174.426H200.506V181.202H199.12V173.18ZM202.858 173.18H204.342V179.648C204.342 179.984 204.3 180.25 204.216 180.446C204.141 180.651 203.987 180.815 203.754 180.936C203.53 181.048 203.255 181.113 202.928 181.132C202.611 181.16 202.242 181.174 201.822 181.174C201.785 180.978 201.719 180.749 201.626 180.488C201.533 180.227 201.435 180.007 201.332 179.83C201.603 179.839 201.859 179.849 202.102 179.858C202.354 179.858 202.527 179.853 202.62 179.844C202.713 179.844 202.774 179.83 202.802 179.802C202.839 179.774 202.858 179.713 202.858 179.62V173.18ZM199.75 175.294H203.684V176.414H199.75V175.294ZM199.75 177.352H203.684V178.486H199.75V177.352ZM205.504 168.182H207.002V172.508C207.002 172.751 207.039 172.905 207.114 172.97C207.189 173.035 207.366 173.068 207.646 173.068C207.711 173.068 207.819 173.068 207.968 173.068C208.127 173.068 208.299 173.068 208.486 173.068C208.673 173.068 208.85 173.068 209.018 173.068C209.186 173.068 209.307 173.068 209.382 173.068C209.541 173.068 209.662 173.031 209.746 172.956C209.83 172.881 209.891 172.741 209.928 172.536C209.965 172.321 209.993 171.999 210.012 171.57C210.115 171.645 210.241 171.724 210.39 171.808C210.549 171.883 210.712 171.948 210.88 172.004C211.057 172.06 211.211 172.102 211.342 172.13C211.295 172.727 211.207 173.194 211.076 173.53C210.945 173.857 210.754 174.085 210.502 174.216C210.259 174.347 209.933 174.412 209.522 174.412C209.457 174.412 209.354 174.412 209.214 174.412C209.074 174.412 208.915 174.412 208.738 174.412C208.561 174.412 208.383 174.412 208.206 174.412C208.038 174.412 207.889 174.412 207.758 174.412C207.627 174.412 207.529 174.412 207.464 174.412C206.941 174.412 206.535 174.356 206.246 174.244C205.966 174.132 205.77 173.941 205.658 173.67C205.555 173.39 205.504 173.012 205.504 172.536V168.182ZM209.732 169.064L210.684 170.17C210.273 170.357 209.825 170.543 209.34 170.73C208.855 170.917 208.36 171.089 207.856 171.248C207.361 171.397 206.881 171.537 206.414 171.668C206.386 171.528 206.325 171.36 206.232 171.164C206.148 170.959 206.064 170.781 205.98 170.632C206.428 170.492 206.881 170.338 207.338 170.17C207.795 169.993 208.229 169.811 208.64 169.624C209.06 169.428 209.424 169.241 209.732 169.064ZM205.504 174.72H206.988V179.228C206.988 179.471 207.03 179.625 207.114 179.69C207.198 179.755 207.385 179.788 207.674 179.788C207.739 179.788 207.851 179.788 208.01 179.788C208.169 179.788 208.346 179.788 208.542 179.788C208.738 179.788 208.92 179.788 209.088 179.788C209.265 179.788 209.391 179.788 209.466 179.788C209.643 179.788 209.774 179.746 209.858 179.662C209.951 179.578 210.017 179.415 210.054 179.172C210.091 178.92 210.119 178.551 210.138 178.066C210.306 178.178 210.521 178.285 210.782 178.388C211.043 178.491 211.272 178.565 211.468 178.612C211.421 179.265 211.333 179.769 211.202 180.124C211.071 180.488 210.88 180.74 210.628 180.88C210.385 181.029 210.045 181.104 209.606 181.104C209.541 181.104 209.433 181.104 209.284 181.104C209.144 181.104 208.985 181.104 208.808 181.104C208.631 181.104 208.449 181.104 208.262 181.104C208.085 181.104 207.926 181.104 207.786 181.104C207.646 181.104 207.543 181.104 207.478 181.104C206.955 181.104 206.549 181.048 206.26 180.936C205.98 180.824 205.784 180.633 205.672 180.362C205.56 180.091 205.504 179.713 205.504 179.228V174.72ZM209.844 175.35L210.838 176.456C210.427 176.689 209.97 176.909 209.466 177.114C208.962 177.31 208.449 177.497 207.926 177.674C207.403 177.842 206.895 177.996 206.4 178.136C206.363 177.996 206.297 177.823 206.204 177.618C206.12 177.403 206.036 177.226 205.952 177.086C206.419 176.937 206.89 176.769 207.366 176.582C207.851 176.386 208.309 176.185 208.738 175.98C209.167 175.765 209.536 175.555 209.844 175.35ZM202.326 169.568L203.586 169.092C203.829 169.419 204.062 169.778 204.286 170.17C204.51 170.553 204.715 170.931 204.902 171.304C205.089 171.677 205.229 172.018 205.322 172.326L203.964 172.872C203.88 172.573 203.749 172.237 203.572 171.864C203.404 171.481 203.213 171.089 202.998 170.688C202.783 170.287 202.559 169.913 202.326 169.568ZM223.816 175.35H219.462V179.704H218.174V175.35H213.82V174.062H218.174V169.708H219.462V174.062H223.816V175.35ZM239.062 171.164C238.978 171.257 238.894 171.351 238.81 171.444C238.735 171.528 238.67 171.612 238.614 171.696C238.343 172.144 238.017 172.629 237.634 173.152C237.261 173.665 236.841 174.188 236.374 174.72C235.907 175.252 235.408 175.77 234.876 176.274C234.353 176.769 233.812 177.221 233.252 177.632L232.006 176.484C232.491 176.148 232.953 175.779 233.392 175.378C233.84 174.967 234.251 174.552 234.624 174.132C234.997 173.712 235.329 173.306 235.618 172.914C235.907 172.513 236.141 172.149 236.318 171.822C236.141 171.822 235.889 171.822 235.562 171.822C235.245 171.822 234.871 171.822 234.442 171.822C234.022 171.822 233.579 171.822 233.112 171.822C232.645 171.822 232.179 171.822 231.712 171.822C231.255 171.822 230.821 171.822 230.41 171.822C230.009 171.822 229.654 171.822 229.346 171.822C229.047 171.822 228.828 171.822 228.688 171.822C228.501 171.822 228.305 171.831 228.1 171.85C227.904 171.859 227.717 171.873 227.54 171.892C227.363 171.901 227.227 171.911 227.134 171.92V170.156C227.255 170.165 227.405 170.184 227.582 170.212C227.769 170.231 227.96 170.249 228.156 170.268C228.352 170.277 228.529 170.282 228.688 170.282C228.809 170.282 229.015 170.282 229.304 170.282C229.603 170.282 229.957 170.282 230.368 170.282C230.779 170.282 231.222 170.282 231.698 170.282C232.174 170.282 232.655 170.282 233.14 170.282C233.625 170.282 234.092 170.282 234.54 170.282C234.997 170.282 235.403 170.282 235.758 170.282C236.122 170.282 236.407 170.282 236.612 170.282C237.125 170.282 237.527 170.235 237.816 170.142L239.062 171.164ZM231.894 177.856C231.689 177.641 231.451 177.413 231.18 177.17C230.909 176.918 230.625 176.666 230.326 176.414C230.037 176.153 229.757 175.915 229.486 175.7C229.225 175.476 228.991 175.289 228.786 175.14L230.102 174.076C230.279 174.216 230.494 174.389 230.746 174.594C231.007 174.799 231.287 175.028 231.586 175.28C231.885 175.523 232.183 175.779 232.482 176.05C232.781 176.311 233.065 176.568 233.336 176.82C233.635 177.109 233.947 177.427 234.274 177.772C234.61 178.108 234.927 178.439 235.226 178.766C235.525 179.093 235.781 179.391 235.996 179.662L234.526 180.838C234.339 180.577 234.097 180.273 233.798 179.928C233.499 179.583 233.182 179.228 232.846 178.864C232.519 178.491 232.202 178.155 231.894 177.856ZM246.804 171.752C246.869 171.901 246.953 172.116 247.056 172.396C247.168 172.667 247.28 172.961 247.392 173.278C247.513 173.586 247.621 173.88 247.714 174.16C247.817 174.431 247.891 174.645 247.938 174.804L246.44 175.336C246.403 175.168 246.337 174.949 246.244 174.678C246.151 174.398 246.048 174.109 245.936 173.81C245.824 173.502 245.712 173.208 245.6 172.928C245.488 172.648 245.395 172.419 245.32 172.242L246.804 171.752ZM251.942 172.704C251.877 172.909 251.821 173.087 251.774 173.236C251.727 173.376 251.685 173.511 251.648 173.642C251.461 174.361 251.214 175.079 250.906 175.798C250.598 176.507 250.201 177.175 249.716 177.8C249.063 178.631 248.325 179.335 247.504 179.914C246.683 180.483 245.866 180.922 245.054 181.23L243.738 179.886C244.261 179.737 244.802 179.527 245.362 179.256C245.931 178.976 246.477 178.64 247 178.248C247.523 177.856 247.975 177.422 248.358 176.946C248.685 176.545 248.974 176.087 249.226 175.574C249.478 175.051 249.688 174.496 249.856 173.908C250.024 173.32 250.136 172.732 250.192 172.144L251.942 172.704ZM243.556 172.48C243.64 172.657 243.738 172.886 243.85 173.166C243.971 173.437 244.093 173.731 244.214 174.048C244.345 174.356 244.466 174.655 244.578 174.944C244.69 175.233 244.779 175.476 244.844 175.672L243.318 176.232C243.262 176.055 243.178 175.817 243.066 175.518C242.963 175.21 242.847 174.893 242.716 174.566C242.585 174.239 242.459 173.941 242.338 173.67C242.226 173.39 242.128 173.175 242.044 173.026L243.556 172.48ZM256.016 170.03C256.371 170.039 256.823 170.044 257.374 170.044C257.925 170.035 258.499 170.011 259.096 169.974C259.703 169.937 260.258 169.885 260.762 169.82C261.107 169.764 261.453 169.708 261.798 169.652C262.143 169.587 262.475 169.521 262.792 169.456C263.109 169.381 263.399 169.302 263.66 169.218C263.921 169.134 264.141 169.055 264.318 168.98L265.354 170.366C265.139 170.413 264.948 170.459 264.78 170.506C264.612 170.553 264.472 170.59 264.36 170.618C264.071 170.683 263.753 170.753 263.408 170.828C263.072 170.893 262.717 170.959 262.344 171.024C261.98 171.08 261.616 171.136 261.252 171.192C260.72 171.267 260.155 171.323 259.558 171.36C258.97 171.397 258.401 171.425 257.85 171.444C257.299 171.463 256.819 171.477 256.408 171.486L256.016 170.03ZM256.66 179.662C257.481 179.279 258.153 178.822 258.676 178.29C259.208 177.758 259.6 177.137 259.852 176.428C260.113 175.719 260.244 174.911 260.244 174.006C260.244 174.006 260.244 173.894 260.244 173.67C260.244 173.446 260.244 173.115 260.244 172.676C260.244 172.237 260.244 171.691 260.244 171.038L261.882 170.842C261.882 171.075 261.882 171.332 261.882 171.612C261.882 171.892 261.882 172.172 261.882 172.452C261.882 172.732 261.882 172.989 261.882 173.222C261.882 173.446 261.882 173.628 261.882 173.768C261.882 173.908 261.882 173.978 261.882 173.978C261.882 174.93 261.765 175.821 261.532 176.652C261.299 177.473 260.916 178.229 260.384 178.92C259.861 179.601 259.152 180.208 258.256 180.74L256.66 179.662ZM254.952 173.376C255.139 173.395 255.344 173.413 255.568 173.432C255.792 173.441 256.011 173.446 256.226 173.446C256.347 173.446 256.59 173.446 256.954 173.446C257.318 173.446 257.761 173.446 258.284 173.446C258.807 173.446 259.362 173.446 259.95 173.446C260.547 173.446 261.145 173.446 261.742 173.446C262.339 173.446 262.899 173.446 263.422 173.446C263.945 173.446 264.388 173.446 264.752 173.446C265.125 173.446 265.377 173.446 265.508 173.446C265.611 173.446 265.737 173.446 265.886 173.446C266.045 173.437 266.199 173.427 266.348 173.418C266.507 173.399 266.633 173.385 266.726 173.376V175C266.549 174.981 266.353 174.972 266.138 174.972C265.933 174.963 265.732 174.958 265.536 174.958C265.415 174.958 265.167 174.958 264.794 174.958C264.43 174.958 263.987 174.958 263.464 174.958C262.941 174.958 262.381 174.958 261.784 174.958C261.187 174.958 260.585 174.958 259.978 174.958C259.381 174.958 258.821 174.958 258.298 174.958C257.775 174.958 257.332 174.958 256.968 174.958C256.604 174.958 256.361 174.958 256.24 174.958C256.025 174.958 255.801 174.963 255.568 174.972C255.335 174.972 255.129 174.981 254.952 175V173.376ZM271.136 169.456C271.379 169.624 271.663 169.834 271.99 170.086C272.317 170.329 272.653 170.59 272.998 170.87C273.343 171.15 273.67 171.425 273.978 171.696C274.286 171.957 274.538 172.195 274.734 172.41L273.46 173.698C273.283 173.511 273.049 173.283 272.76 173.012C272.48 172.741 272.172 172.466 271.836 172.186C271.5 171.897 271.169 171.621 270.842 171.36C270.515 171.099 270.221 170.884 269.96 170.716L271.136 169.456ZM269.54 178.808C270.296 178.696 271.001 178.542 271.654 178.346C272.307 178.15 272.909 177.931 273.46 177.688C274.02 177.436 274.524 177.179 274.972 176.918C275.747 176.451 276.456 175.919 277.1 175.322C277.744 174.715 278.309 174.09 278.794 173.446C279.279 172.793 279.667 172.163 279.956 171.556L280.922 173.292C280.577 173.917 280.152 174.538 279.648 175.154C279.144 175.77 278.575 176.358 277.94 176.918C277.305 177.469 276.619 177.973 275.882 178.43C275.406 178.71 274.893 178.985 274.342 179.256C273.791 179.517 273.203 179.755 272.578 179.97C271.953 180.175 271.29 180.334 270.59 180.446L269.54 178.808ZM292.668 168.602C292.789 168.77 292.915 168.971 293.046 169.204C293.186 169.437 293.321 169.671 293.452 169.904C293.583 170.137 293.695 170.343 293.788 170.52L292.766 170.968C292.626 170.679 292.453 170.352 292.248 169.988C292.043 169.615 291.847 169.293 291.66 169.022L292.668 168.602ZM294.292 167.986C294.413 168.163 294.544 168.369 294.684 168.602C294.833 168.835 294.973 169.069 295.104 169.302C295.244 169.526 295.356 169.722 295.44 169.89L294.418 170.338C294.278 170.039 294.101 169.708 293.886 169.344C293.681 168.98 293.48 168.667 293.284 168.406L294.292 167.986ZM293.83 171.598C293.755 171.719 293.681 171.869 293.606 172.046C293.531 172.214 293.466 172.377 293.41 172.536C293.289 172.965 293.116 173.446 292.892 173.978C292.668 174.51 292.393 175.061 292.066 175.63C291.749 176.19 291.38 176.731 290.96 177.254C290.297 178.047 289.523 178.771 288.636 179.424C287.749 180.068 286.648 180.647 285.332 181.16L283.848 179.844C284.781 179.564 285.589 179.247 286.27 178.892C286.961 178.528 287.567 178.131 288.09 177.702C288.613 177.273 289.079 176.825 289.49 176.358C289.817 175.975 290.12 175.546 290.4 175.07C290.68 174.594 290.918 174.123 291.114 173.656C291.319 173.18 291.459 172.76 291.534 172.396H286.69L287.278 170.968C287.399 170.968 287.6 170.968 287.88 170.968C288.169 170.968 288.496 170.968 288.86 170.968C289.224 170.968 289.583 170.968 289.938 170.968C290.293 170.968 290.601 170.968 290.862 170.968C291.133 170.968 291.315 170.968 291.408 170.968C291.623 170.968 291.828 170.954 292.024 170.926C292.229 170.898 292.402 170.861 292.542 170.814L293.83 171.598ZM289.238 169.414C289.079 169.647 288.925 169.895 288.776 170.156C288.636 170.408 288.524 170.604 288.44 170.744C288.141 171.295 287.763 171.873 287.306 172.48C286.858 173.077 286.34 173.661 285.752 174.23C285.173 174.799 284.539 175.317 283.848 175.784L282.434 174.748C283.05 174.384 283.591 174.001 284.058 173.6C284.534 173.189 284.945 172.779 285.29 172.368C285.645 171.957 285.943 171.565 286.186 171.192C286.438 170.819 286.648 170.483 286.816 170.184C286.919 170.025 287.026 169.815 287.138 169.554C287.259 169.283 287.348 169.036 287.404 168.812L289.238 169.414ZM295.79 179.998L299.164 169.652H301.32L304.68 179.998H302.734L301.166 174.496C300.998 173.945 300.839 173.381 300.69 172.802C300.541 172.223 300.387 171.654 300.228 171.094H300.172C300.032 171.663 299.883 172.237 299.724 172.816C299.565 173.385 299.407 173.945 299.248 174.496L297.666 179.998H295.79ZM297.778 177.198V175.756H302.664V177.198H297.778ZM305.98 179.998V169.652H307.828V179.998H305.98ZM314.006 175.28H322.574V176.47H314.006V175.28ZM315.14 177.814L315.91 176.918C316.144 177.049 316.386 177.203 316.638 177.38C316.89 177.557 317.128 177.735 317.352 177.912C317.586 178.08 317.772 178.239 317.912 178.388L317.114 179.41C316.974 179.251 316.792 179.079 316.568 178.892C316.344 178.705 316.106 178.519 315.854 178.332C315.612 178.136 315.374 177.963 315.14 177.814ZM319.69 174.678L320.432 174.006C320.666 174.146 320.908 174.314 321.16 174.51C321.412 174.697 321.608 174.869 321.748 175.028L320.978 175.742C320.848 175.583 320.656 175.406 320.404 175.21C320.162 175.005 319.924 174.827 319.69 174.678ZM314.972 175.882H316.302C316.246 176.591 316.148 177.277 316.008 177.94C315.878 178.593 315.658 179.2 315.35 179.76C315.042 180.311 314.604 180.787 314.034 181.188C313.95 181.029 313.824 180.852 313.656 180.656C313.488 180.46 313.33 180.306 313.18 180.194C313.656 179.877 314.016 179.489 314.258 179.032C314.501 178.575 314.669 178.075 314.762 177.534C314.865 176.993 314.935 176.442 314.972 175.882ZM317.408 168.154H318.724C318.696 169.461 318.715 170.707 318.78 171.892C318.846 173.068 318.944 174.151 319.074 175.14C319.214 176.12 319.392 176.974 319.606 177.702C319.821 178.421 320.068 178.976 320.348 179.368C320.638 179.76 320.96 179.956 321.314 179.956C321.501 179.956 321.632 179.863 321.706 179.676C321.781 179.489 321.837 179.107 321.874 178.528C322.014 178.668 322.178 178.799 322.364 178.92C322.551 179.032 322.719 179.125 322.868 179.2C322.794 179.732 322.691 180.143 322.56 180.432C322.439 180.721 322.271 180.927 322.056 181.048C321.842 181.169 321.562 181.23 321.216 181.23C320.619 181.23 320.101 181.001 319.662 180.544C319.224 180.096 318.86 179.466 318.57 178.654C318.281 177.833 318.052 176.876 317.884 175.784C317.716 174.683 317.595 173.488 317.52 172.2C317.446 170.903 317.408 169.554 317.408 168.154ZM320.586 176.498L321.846 176.974C321.37 177.945 320.717 178.789 319.886 179.508C319.056 180.217 318.108 180.782 317.044 181.202C316.96 181.062 316.834 180.894 316.666 180.698C316.508 180.511 316.368 180.357 316.246 180.236C317.264 179.872 318.146 179.368 318.892 178.724C319.648 178.08 320.213 177.338 320.586 176.498ZM318.584 170.716L319.158 169.904C319.448 170.109 319.746 170.352 320.054 170.632C320.372 170.912 320.61 171.164 320.768 171.388L320.18 172.326C320.022 172.093 319.788 171.827 319.48 171.528C319.172 171.22 318.874 170.949 318.584 170.716ZM321.202 172.368L322.056 172.046C322.243 172.373 322.406 172.732 322.546 173.124C322.696 173.507 322.794 173.838 322.84 174.118L321.916 174.51C321.87 174.221 321.781 173.875 321.65 173.474C321.52 173.073 321.37 172.704 321.202 172.368ZM318.822 173.18C319.242 173.161 319.723 173.133 320.264 173.096C320.815 173.049 321.384 173.003 321.972 172.956L322 173.922C321.478 173.987 320.964 174.053 320.46 174.118C319.966 174.174 319.49 174.225 319.032 174.272L318.822 173.18ZM320.152 168.238L321.286 168.672C321.072 169.064 320.848 169.465 320.614 169.876C320.39 170.287 320.18 170.632 319.984 170.912L319.172 170.548C319.294 170.333 319.415 170.095 319.536 169.834C319.658 169.563 319.77 169.288 319.872 169.008C319.984 168.728 320.078 168.471 320.152 168.238ZM321.328 169.708L322.378 170.212C322.126 170.613 321.856 171.029 321.566 171.458C321.286 171.887 321.006 172.303 320.726 172.704C320.446 173.105 320.176 173.455 319.914 173.754L319.116 173.32C319.368 173.003 319.63 172.634 319.9 172.214C320.171 171.794 320.432 171.365 320.684 170.926C320.936 170.487 321.151 170.081 321.328 169.708ZM313.74 170.716L314.3 169.904C314.599 170.109 314.902 170.352 315.21 170.632C315.528 170.912 315.761 171.164 315.91 171.388L315.322 172.326C315.173 172.093 314.94 171.827 314.622 171.528C314.314 171.22 314.02 170.949 313.74 170.716ZM316.134 172.508L316.988 172.214C317.156 172.55 317.301 172.914 317.422 173.306C317.553 173.698 317.637 174.029 317.674 174.3L316.75 174.664C316.722 174.375 316.648 174.029 316.526 173.628C316.414 173.227 316.284 172.853 316.134 172.508ZM313.824 173.39C314.244 173.362 314.73 173.329 315.28 173.292C315.831 173.245 316.41 173.199 317.016 173.152L317.03 174.188C316.508 174.244 315.99 174.3 315.476 174.356C314.963 174.412 314.478 174.463 314.02 174.51L313.824 173.39ZM315.308 168.238L316.428 168.672C316.204 169.064 315.98 169.47 315.756 169.89C315.532 170.31 315.327 170.665 315.14 170.954L314.328 170.59C314.44 170.375 314.557 170.133 314.678 169.862C314.8 169.582 314.916 169.302 315.028 169.022C315.14 168.733 315.234 168.471 315.308 168.238ZM316.47 169.708L317.52 170.212C317.259 170.623 316.979 171.057 316.68 171.514C316.391 171.971 316.097 172.41 315.798 172.83C315.5 173.241 315.22 173.605 314.958 173.922L314.16 173.502C314.422 173.166 314.692 172.779 314.972 172.34C315.262 171.901 315.537 171.453 315.798 170.996C316.069 170.529 316.293 170.1 316.47 169.708ZM309.778 171.08H314.048V172.466H309.778V171.08ZM311.36 168.14H312.704V181.202H311.36V168.14ZM311.332 172.004L312.13 172.284C312.046 172.825 311.934 173.395 311.794 173.992C311.664 174.58 311.51 175.163 311.332 175.742C311.164 176.311 310.978 176.843 310.772 177.338C310.567 177.833 310.352 178.257 310.128 178.612C310.054 178.425 309.951 178.211 309.82 177.968C309.69 177.725 309.573 177.515 309.47 177.338C309.676 177.03 309.872 176.671 310.058 176.26C310.245 175.84 310.418 175.392 310.576 174.916C310.744 174.431 310.894 173.941 311.024 173.446C311.155 172.942 311.258 172.461 311.332 172.004ZM312.634 172.942C312.709 173.035 312.816 173.199 312.956 173.432C313.106 173.665 313.269 173.922 313.446 174.202C313.624 174.482 313.782 174.743 313.922 174.986C314.062 175.229 314.16 175.401 314.216 175.504L313.488 176.554C313.423 176.358 313.325 176.12 313.194 175.84C313.073 175.551 312.942 175.257 312.802 174.958C312.662 174.659 312.527 174.379 312.396 174.118C312.266 173.857 312.158 173.651 312.074 173.502L312.634 172.942ZM325.78 168.098L327.348 168.434C327.18 168.845 326.998 169.265 326.802 169.694C326.616 170.123 326.424 170.529 326.228 170.912C326.032 171.295 325.846 171.64 325.668 171.948L324.366 171.598C324.544 171.281 324.721 170.921 324.898 170.52C325.076 170.109 325.239 169.694 325.388 169.274C325.547 168.845 325.678 168.453 325.78 168.098ZM323.596 170.996C324.1 170.977 324.674 170.959 325.318 170.94C325.962 170.912 326.644 170.879 327.362 170.842C328.081 170.805 328.804 170.772 329.532 170.744L329.518 172.06C328.828 172.107 328.137 172.153 327.446 172.2C326.756 172.237 326.093 172.279 325.458 172.326C324.824 172.363 324.245 172.396 323.722 172.424L323.596 170.996ZM324.436 173.18H328.874V174.426H325.822V181.202H324.436V173.18ZM328.174 173.18H329.658V179.648C329.658 179.984 329.616 180.25 329.532 180.446C329.458 180.651 329.304 180.815 329.07 180.936C328.846 181.048 328.571 181.113 328.244 181.132C327.927 181.16 327.558 181.174 327.138 181.174C327.101 180.978 327.036 180.749 326.942 180.488C326.849 180.227 326.751 180.007 326.648 179.83C326.919 179.839 327.176 179.849 327.418 179.858C327.67 179.858 327.843 179.853 327.936 179.844C328.03 179.844 328.09 179.83 328.118 179.802C328.156 179.774 328.174 179.713 328.174 179.62V173.18ZM325.066 175.294H329V176.414H325.066V175.294ZM325.066 177.352H329V178.486H325.066V177.352ZM330.82 168.182H332.318V172.508C332.318 172.751 332.356 172.905 332.43 172.97C332.505 173.035 332.682 173.068 332.962 173.068C333.028 173.068 333.135 173.068 333.284 173.068C333.443 173.068 333.616 173.068 333.802 173.068C333.989 173.068 334.166 173.068 334.334 173.068C334.502 173.068 334.624 173.068 334.698 173.068C334.857 173.068 334.978 173.031 335.062 172.956C335.146 172.881 335.207 172.741 335.244 172.536C335.282 172.321 335.31 171.999 335.328 171.57C335.431 171.645 335.557 171.724 335.706 171.808C335.865 171.883 336.028 171.948 336.196 172.004C336.374 172.06 336.528 172.102 336.658 172.13C336.612 172.727 336.523 173.194 336.392 173.53C336.262 173.857 336.07 174.085 335.818 174.216C335.576 174.347 335.249 174.412 334.838 174.412C334.773 174.412 334.67 174.412 334.53 174.412C334.39 174.412 334.232 174.412 334.054 174.412C333.877 174.412 333.7 174.412 333.522 174.412C333.354 174.412 333.205 174.412 333.074 174.412C332.944 174.412 332.846 174.412 332.78 174.412C332.258 174.412 331.852 174.356 331.562 174.244C331.282 174.132 331.086 173.941 330.974 173.67C330.872 173.39 330.82 173.012 330.82 172.536V168.182ZM335.048 169.064L336 170.17C335.59 170.357 335.142 170.543 334.656 170.73C334.171 170.917 333.676 171.089 333.172 171.248C332.678 171.397 332.197 171.537 331.73 171.668C331.702 171.528 331.642 171.36 331.548 171.164C331.464 170.959 331.38 170.781 331.296 170.632C331.744 170.492 332.197 170.338 332.654 170.17C333.112 169.993 333.546 169.811 333.956 169.624C334.376 169.428 334.74 169.241 335.048 169.064ZM330.82 174.72H332.304V179.228C332.304 179.471 332.346 179.625 332.43 179.69C332.514 179.755 332.701 179.788 332.99 179.788C333.056 179.788 333.168 179.788 333.326 179.788C333.485 179.788 333.662 179.788 333.858 179.788C334.054 179.788 334.236 179.788 334.404 179.788C334.582 179.788 334.708 179.788 334.782 179.788C334.96 179.788 335.09 179.746 335.174 179.662C335.268 179.578 335.333 179.415 335.37 179.172C335.408 178.92 335.436 178.551 335.454 178.066C335.622 178.178 335.837 178.285 336.098 178.388C336.36 178.491 336.588 178.565 336.784 178.612C336.738 179.265 336.649 179.769 336.518 180.124C336.388 180.488 336.196 180.74 335.944 180.88C335.702 181.029 335.361 181.104 334.922 181.104C334.857 181.104 334.75 181.104 334.6 181.104C334.46 181.104 334.302 181.104 334.124 181.104C333.947 181.104 333.765 181.104 333.578 181.104C333.401 181.104 333.242 181.104 333.102 181.104C332.962 181.104 332.86 181.104 332.794 181.104C332.272 181.104 331.866 181.048 331.576 180.936C331.296 180.824 331.1 180.633 330.988 180.362C330.876 180.091 330.82 179.713 330.82 179.228V174.72ZM335.16 175.35L336.154 176.456C335.744 176.689 335.286 176.909 334.782 177.114C334.278 177.31 333.765 177.497 333.242 177.674C332.72 177.842 332.211 177.996 331.716 178.136C331.679 177.996 331.614 177.823 331.52 177.618C331.436 177.403 331.352 177.226 331.268 177.086C331.735 176.937 332.206 176.769 332.682 176.582C333.168 176.386 333.625 176.185 334.054 175.98C334.484 175.765 334.852 175.555 335.16 175.35ZM327.642 169.568L328.902 169.092C329.145 169.419 329.378 169.778 329.602 170.17C329.826 170.553 330.032 170.931 330.218 171.304C330.405 171.677 330.545 172.018 330.638 172.326L329.28 172.872C329.196 172.573 329.066 172.237 328.888 171.864C328.72 171.481 328.529 171.089 328.314 170.688C328.1 170.287 327.876 169.913 327.642 169.568Z" fill="#0E0F3B"/>
<path d="M75.4619 103.455H89.4619V104.623H75.4619V103.455ZM82.9179 104.495C84.1179 108.335 86.5819 111.807 89.9259 113.263C89.6379 113.503 89.2379 113.967 89.0459 114.319C85.6379 112.655 83.2859 108.991 81.9739 104.783L82.9179 104.495ZM87.7179 105.279L88.7579 106.031C87.7019 107.247 86.2459 108.671 85.1259 109.583L84.2779 108.927C85.3659 108.015 86.8539 106.463 87.7179 105.279ZM84.5179 101.583L85.2539 100.831C86.2299 101.343 87.5419 102.095 88.2139 102.623L87.4459 103.487C86.8219 102.927 85.5419 102.127 84.5179 101.583ZM76.3259 106.191L77.2539 105.583C78.2299 106.431 79.3819 107.647 79.8779 108.495L78.9019 109.183C78.4219 108.351 77.3179 107.071 76.3259 106.191ZM81.7819 100.815H83.0139V113.871C83.0139 114.719 82.7899 115.087 82.2619 115.279C81.7179 115.503 80.7579 115.519 79.3499 115.519C79.2859 115.183 79.0939 114.623 78.9019 114.255C80.0219 114.287 81.0619 114.287 81.3819 114.271C81.6699 114.255 81.7819 114.175 81.7819 113.871V100.815ZM75.0299 112.863C76.3739 112.175 78.4699 111.007 80.4219 109.871L80.8059 110.943C79.0779 112.015 77.1899 113.135 75.7659 113.935L75.0299 112.863ZM97.6059 101.263H98.9339C98.8059 103.775 98.5659 111.759 91.9419 115.359C91.7339 115.055 91.3339 114.687 90.9659 114.415C97.4939 111.087 97.4939 103.391 97.6059 101.263ZM98.8859 101.583C98.9339 102.831 99.3979 111.327 105.99 114.351C105.638 114.623 105.27 115.023 105.078 115.359C98.2939 112.111 97.8459 103.167 97.7339 101.695L98.8859 101.583ZM116.758 112.511L117.622 111.887C118.934 112.591 120.63 113.647 121.51 114.399L120.582 115.103C119.782 114.383 118.102 113.263 116.758 112.511ZM109.238 108.383H119.67V109.343H109.238V108.383ZM107.286 110.447H121.606V111.439H107.286V110.447ZM107.462 101.423H121.302V102.399H107.462V101.423ZM113.83 110.639H115.046V114.223C115.046 114.847 114.934 115.151 114.438 115.311C113.958 115.503 113.206 115.503 112.054 115.503C111.99 115.183 111.814 114.735 111.67 114.431C112.566 114.463 113.302 114.463 113.558 114.447C113.782 114.431 113.83 114.367 113.83 114.191V110.639ZM110.774 111.839L111.878 112.223C110.918 113.407 109.398 114.527 108.07 115.247C107.862 115.039 107.414 114.623 107.142 114.447C108.502 113.823 109.926 112.863 110.774 111.839ZM109.542 104.559V106.399H119.334V104.559H109.542ZM108.422 103.631H120.518V107.343H108.422V103.631ZM111.974 101.791H113.094V106.911H111.974V101.791ZM115.638 101.791H116.758V106.911H115.638V101.791ZM125.686 102.527C126.134 102.575 126.614 102.607 127.126 102.607C128.054 102.607 131.782 102.607 132.678 102.607C133.126 102.607 133.702 102.575 134.166 102.527V103.855C133.686 103.823 133.126 103.791 132.678 103.791C131.782 103.791 128.054 103.791 127.158 103.791C126.614 103.791 126.102 103.823 125.686 103.855V102.527ZM123.782 106.543C124.214 106.591 124.678 106.623 125.174 106.623C126.102 106.623 134.79 106.623 135.638 106.623C135.974 106.623 136.502 106.591 136.902 106.543V107.871C136.55 107.839 136.038 107.823 135.638 107.823C134.79 107.823 126.102 107.823 125.174 107.823C124.694 107.823 124.214 107.839 123.782 107.871V106.543ZM131.318 107.183C131.318 109.199 131.062 110.863 130.358 112.207C129.766 113.279 128.566 114.431 127.206 115.119L126.022 114.255C127.254 113.727 128.406 112.815 129.046 111.791C129.846 110.527 129.958 108.959 129.974 107.199L131.318 107.183ZM134.998 101.215C135.398 101.791 135.974 102.767 136.294 103.407L135.43 103.791C135.126 103.151 134.582 102.191 134.15 101.583L134.998 101.215ZM136.742 100.575C137.174 101.167 137.782 102.159 138.086 102.751L137.238 103.135C136.886 102.447 136.358 101.535 135.91 100.943L136.742 100.575ZM140.054 107.279C140.55 107.327 141.382 107.375 142.294 107.375C143.462 107.375 149.878 107.375 151.062 107.375C151.862 107.375 152.422 107.311 152.79 107.279V108.847C152.454 108.831 151.782 108.783 151.078 108.783C149.862 108.783 143.478 108.783 142.294 108.783C141.414 108.783 140.566 108.815 140.054 108.847V107.279ZM161.078 106.879C163.126 108.079 165.75 109.919 167.334 111.199L166.39 112.319C164.918 110.975 162.182 109.007 160.198 107.775L161.078 106.879ZM168.39 103.967C168.262 104.191 168.102 104.559 168.022 104.815C167.542 106.447 166.534 108.575 165.126 110.303C163.67 112.095 161.59 113.807 158.55 114.927L157.414 113.919C160.39 113.023 162.566 111.327 164.006 109.615C165.238 108.143 166.246 106.111 166.614 104.623H160.694L161.206 103.471H166.294C166.726 103.471 167.078 103.423 167.334 103.327L168.39 103.967ZM162.998 101.647C162.726 102.063 162.438 102.607 162.278 102.911C161.334 104.671 159.526 107.087 156.966 108.847L155.91 108.031C158.646 106.319 160.294 103.919 161.03 102.447C161.19 102.175 161.446 101.599 161.542 101.183L162.998 101.647Z" fill="#07407B"/>
<path d="M203.567 81.2534L188.723 66.4316C188.585 66.294 188.421 66.1849 188.241 66.1105C188.061 66.0361 187.868 65.9979 187.673 65.998L70.3301 65.998C69.149 65.998 68.0163 66.4665 67.1812 67.3004C66.3461 68.1343 65.8769 69.2653 65.8769 70.4446V77.8555H58.4548C57.2737 77.8555 56.141 78.3239 55.3059 79.1578C54.4707 79.9917 54.0015 81.1227 54.0015 82.302V135.66C54.0015 136.84 54.4707 137.971 55.3059 138.805C56.141 139.638 57.2737 140.107 58.4548 140.107H187.673C188.854 140.107 189.987 139.638 190.822 138.805C191.657 137.971 192.126 136.84 192.126 135.66V128.25H199.548C200.729 128.25 201.862 127.781 202.697 126.947C203.532 126.113 204.002 124.982 204.002 123.803V82.302C204.002 82.1073 203.963 81.9145 203.889 81.7346C203.814 81.5546 203.705 81.3911 203.567 81.2534ZM189.157 135.66C189.157 136.054 189.001 136.431 188.723 136.708C188.444 136.986 188.067 137.143 187.673 137.143H58.4548C58.0611 137.143 57.6835 136.986 57.4051 136.708C57.1268 136.431 56.9704 136.054 56.9704 135.66V82.302C56.9704 81.9089 57.1268 81.5319 57.4051 81.2539C57.6835 80.976 58.0611 80.8198 58.4548 80.8198L175.182 80.8198L189.157 94.7745V135.66ZM201.033 123.803C201.033 124.196 200.876 124.573 200.598 124.851C200.32 125.129 199.942 125.285 199.548 125.285H192.126V94.1594C192.126 93.9647 192.088 93.7719 192.014 93.592C191.939 93.412 191.83 93.2485 191.692 93.1108L176.848 78.289C176.71 78.1514 176.546 78.0423 176.366 77.9679C176.186 77.8935 175.993 77.8553 175.798 77.8555L68.8457 77.8555V70.4446C68.8457 70.0515 69.0021 69.6745 69.2805 69.3965C69.5589 69.1186 69.9364 68.9624 70.3301 68.9624L187.057 68.9624L201.033 82.9171V123.803Z" fill="#07407B"/>
<path d="M297.462 103.455H311.462V104.623H297.462V103.455ZM304.918 104.495C306.118 108.335 308.582 111.807 311.926 113.263C311.638 113.503 311.238 113.967 311.046 114.319C307.638 112.655 305.286 108.991 303.974 104.783L304.918 104.495ZM309.718 105.279L310.758 106.031C309.702 107.247 308.246 108.671 307.126 109.583L306.278 108.927C307.366 108.015 308.854 106.463 309.718 105.279ZM306.518 101.583L307.254 100.831C308.23 101.343 309.542 102.095 310.214 102.623L309.446 103.487C308.822 102.927 307.542 102.127 306.518 101.583ZM298.326 106.191L299.254 105.583C300.23 106.431 301.382 107.647 301.878 108.495L300.902 109.183C300.422 108.351 299.318 107.071 298.326 106.191ZM303.782 100.815H305.014V113.871C305.014 114.719 304.79 115.087 304.262 115.279C303.718 115.503 302.758 115.519 301.35 115.519C301.286 115.183 301.094 114.623 300.902 114.255C302.022 114.287 303.062 114.287 303.382 114.271C303.67 114.255 303.782 114.175 303.782 113.871V100.815ZM297.03 112.863C298.374 112.175 300.47 111.007 302.422 109.871L302.806 110.943C301.078 112.015 299.19 113.135 297.766 113.935L297.03 112.863ZM319.446 110.111H322.694V110.975H319.446V110.111ZM318.55 102.367H323.59V103.311H318.55V102.367ZM318.086 105.871H327.814V106.863H318.086V105.871ZM319.654 107.823H323.238V113.311H319.654V112.415H322.262V108.719H319.654V107.823ZM318.95 107.823H319.91V114.319H318.95V107.823ZM320.486 100.799H321.542V103.039H320.486V100.799ZM326.358 107.679L327.366 107.887C326.47 111.263 324.79 113.839 322.438 115.487C322.294 115.295 321.926 114.879 321.686 114.687C324.022 113.231 325.574 110.783 326.358 107.679ZM319.03 103.599L319.862 103.407C320.166 104.111 320.374 105.039 320.406 105.663L319.526 105.871C319.51 105.263 319.302 104.319 319.03 103.599ZM325.302 101.807L326.134 101.375C326.838 102.159 327.526 103.247 327.83 103.983L326.95 104.463C326.662 103.727 325.974 102.607 325.302 101.807ZM322.086 103.375L323.062 103.599C322.806 104.367 322.55 105.263 322.326 105.839L321.526 105.647C321.734 105.007 321.99 104.031 322.086 103.375ZM313.238 101.471H318.582V102.543H313.238V101.471ZM314.486 104.831H317.366V105.839H314.486V104.831ZM314.486 108.127H317.366V109.151H314.486V108.127ZM313.99 102.015H314.998V112.255H313.99V102.015ZM316.758 101.999H317.798V115.503H316.758V101.999ZM312.966 112.095C314.07 111.903 315.67 111.583 317.302 111.247L317.382 112.303C315.878 112.623 314.374 112.959 313.174 113.215L312.966 112.095ZM323.958 100.799H325.046C325.046 107.935 325.558 114.031 326.598 114.079C326.838 114.079 327.03 113.183 327.126 111.679C327.318 111.919 327.75 112.207 327.942 112.303C327.638 114.815 327.062 115.471 326.55 115.455C324.454 115.423 324.086 109.039 323.958 100.799ZM329.302 105.919H343.558V106.991H329.302V105.919ZM330.71 102.783H339.974V103.855H330.71V102.783ZM333.302 111.279H340.838V112.239H333.302V111.279ZM333.302 113.935H340.838V114.975H333.302V113.935ZM334.822 100.767H335.99V106.495H334.822V100.767ZM341.83 101.327L342.854 101.871C339.638 106.079 334.822 109.231 329.702 111.199C329.558 110.927 329.174 110.431 328.934 110.191C334.102 108.399 338.87 105.295 341.83 101.327ZM332.646 108.687H341.606V115.439H340.358V109.695H333.846V115.503H332.646V108.687ZM347.686 102.527C348.134 102.575 348.614 102.607 349.126 102.607C350.054 102.607 353.782 102.607 354.678 102.607C355.126 102.607 355.702 102.575 356.166 102.527V103.855C355.686 103.823 355.126 103.791 354.678 103.791C353.782 103.791 350.054 103.791 349.158 103.791C348.614 103.791 348.102 103.823 347.686 103.855V102.527ZM345.782 106.543C346.214 106.591 346.678 106.623 347.174 106.623C348.102 106.623 356.79 106.623 357.638 106.623C357.974 106.623 358.502 106.591 358.902 106.543V107.871C358.55 107.839 358.038 107.823 357.638 107.823C356.79 107.823 348.102 107.823 347.174 107.823C346.694 107.823 346.214 107.839 345.782 107.871V106.543ZM353.318 107.183C353.318 109.199 353.062 110.863 352.358 112.207C351.766 113.279 350.566 114.431 349.206 115.119L348.022 114.255C349.254 113.727 350.406 112.815 351.046 111.791C351.846 110.527 351.958 108.959 351.974 107.199L353.318 107.183ZM356.998 101.215C357.398 101.791 357.974 102.767 358.294 103.407L357.43 103.791C357.126 103.151 356.582 102.191 356.15 101.583L356.998 101.215ZM358.742 100.575C359.174 101.167 359.782 102.159 360.086 102.751L359.238 103.135C358.886 102.447 358.358 101.535 357.91 100.943L358.742 100.575ZM362.054 107.279C362.55 107.327 363.382 107.375 364.294 107.375C365.462 107.375 371.878 107.375 373.062 107.375C373.862 107.375 374.422 107.311 374.79 107.279V108.847C374.454 108.831 373.782 108.783 373.078 108.783C371.862 108.783 365.478 108.783 364.294 108.783C363.414 108.783 362.566 108.815 362.054 108.847V107.279ZM383.078 106.879C385.126 108.079 387.75 109.919 389.334 111.199L388.39 112.319C386.918 110.975 384.182 109.007 382.198 107.775L383.078 106.879ZM390.39 103.967C390.262 104.191 390.102 104.559 390.022 104.815C389.542 106.447 388.534 108.575 387.126 110.303C385.67 112.095 383.59 113.807 380.55 114.927L379.414 113.919C382.39 113.023 384.566 111.327 386.006 109.615C387.238 108.143 388.246 106.111 388.614 104.623H382.694L383.206 103.471H388.294C388.726 103.471 389.078 103.423 389.334 103.327L390.39 103.967ZM384.998 101.647C384.726 102.063 384.438 102.607 384.278 102.911C383.334 104.671 381.526 107.087 378.966 108.847L377.91 108.031C380.646 106.319 382.294 103.919 383.03 102.447C383.19 102.175 383.446 101.599 383.542 101.183L384.998 101.647Z" fill="#FF8B13"/>
<path d="M425.567 81.2534L410.723 66.4316C410.585 66.294 410.421 66.1849 410.241 66.1105C410.061 66.0361 409.868 65.9979 409.673 65.998L292.33 65.998C291.149 65.998 290.016 66.4665 289.181 67.3004C288.346 68.1343 287.877 69.2653 287.877 70.4446V77.8555H280.455C279.274 77.8555 278.141 78.3239 277.306 79.1578C276.471 79.9917 276.002 81.1227 276.002 82.302V135.66C276.002 136.84 276.471 137.971 277.306 138.805C278.141 139.638 279.274 140.107 280.455 140.107H409.673C410.854 140.107 411.987 139.638 412.822 138.805C413.657 137.971 414.126 136.84 414.126 135.66V128.25H421.548C422.729 128.25 423.862 127.781 424.697 126.947C425.532 126.113 426.002 124.982 426.002 123.803V82.302C426.002 82.1073 425.963 81.9145 425.889 81.7346C425.814 81.5546 425.705 81.3911 425.567 81.2534ZM411.157 135.66C411.157 136.054 411.001 136.431 410.723 136.708C410.444 136.986 410.067 137.143 409.673 137.143H280.455C280.061 137.143 279.684 136.986 279.405 136.708C279.127 136.431 278.97 136.054 278.97 135.66V82.302C278.97 81.9089 279.127 81.5319 279.405 81.2539C279.684 80.976 280.061 80.8198 280.455 80.8198L397.182 80.8198L411.157 94.7745V135.66ZM423.033 123.803C423.033 124.196 422.876 124.573 422.598 124.851C422.32 125.129 421.942 125.285 421.548 125.285H414.126V94.1594C414.126 93.9647 414.088 93.7719 414.014 93.592C413.939 93.412 413.83 93.2485 413.692 93.1108L398.848 78.289C398.71 78.1514 398.546 78.0423 398.366 77.9679C398.186 77.8935 397.993 77.8553 397.798 77.8555L290.846 77.8555V70.4446C290.846 70.0515 291.002 69.6745 291.28 69.3965C291.559 69.1186 291.936 68.9624 292.33 68.9624L409.057 68.9624L423.033 82.9171V123.803Z" fill="#FF8B13"/>
<path d="M230.668 107.053H249.334V113.72L260.002 103.053L249.334 92.3867V99.0534H230.668V92.3867L220.002 103.053L230.668 113.72V107.053Z" fill="#07407B"/>
</svg>
