<svg width="1120" height="252" viewBox="0 0 1120 252" fill="none" xmlns="http://www.w3.org/2000/svg">
<rect x="942" y="-0.0078125" width="178" height="74" rx="15" fill="#FBD656"/>
<path d="M995.846 33.5082H1001.68V35.3082H995.846V33.5082ZM998.15 29.7462H999.932V46.5402H998.15V29.7462ZM998.15 34.7142L999.248 35.0922C999.128 35.8122 998.966 36.5562 998.762 37.3242C998.57 38.0922 998.342 38.8482 998.078 39.5922C997.826 40.3242 997.556 41.0142 997.268 41.6622C996.98 42.2982 996.674 42.8442 996.35 43.3002C996.254 43.0482 996.116 42.7542 995.936 42.4182C995.756 42.0822 995.594 41.8002 995.45 41.5722C995.738 41.1762 996.02 40.7142 996.296 40.1862C996.572 39.6462 996.83 39.0702 997.07 38.4582C997.31 37.8342 997.52 37.2042 997.7 36.5682C997.88 35.9322 998.03 35.3142 998.15 34.7142ZM999.842 36.1902C999.95 36.3102 1000.11 36.5142 1000.31 36.8022C1000.51 37.0902 1000.73 37.4082 1000.96 37.7562C1001.2 38.1042 1001.41 38.4282 1001.61 38.7282C1001.81 39.0162 1001.95 39.2202 1002.02 39.3402L1001.01 40.8522C1000.92 40.6002 1000.78 40.3002 1000.62 39.9522C1000.45 39.5922 1000.27 39.2262 1000.08 38.8542C999.884 38.4702 999.698 38.1162 999.518 37.7922C999.338 37.4682 999.188 37.2042 999.068 37.0002L999.842 36.1902ZM1003.62 33.9222H1010.28V35.5242H1003.62V33.9222ZM1006.9 31.4382C1006.56 31.9302 1006.14 32.4282 1005.64 32.9322C1005.13 33.4362 1004.58 33.9102 1003.98 34.3542C1003.38 34.7982 1002.76 35.1882 1002.13 35.5242C1002.03 35.2722 1001.89 34.9902 1001.71 34.6782C1001.53 34.3662 1001.37 34.1082 1001.21 33.9042C1001.87 33.6162 1002.5 33.2502 1003.1 32.8062C1003.7 32.3502 1004.25 31.8642 1004.74 31.3482C1005.23 30.8202 1005.63 30.2982 1005.94 29.7822H1007.71C1008.13 30.3582 1008.61 30.9102 1009.15 31.4382C1009.7 31.9542 1010.28 32.4162 1010.89 32.8242C1011.51 33.2322 1012.12 33.5622 1012.75 33.8142C1012.57 34.0422 1012.39 34.3122 1012.21 34.6242C1012.03 34.9362 1011.88 35.2302 1011.76 35.5062C1011.17 35.2062 1010.56 34.8342 1009.94 34.3902C1009.33 33.9462 1008.76 33.4722 1008.23 32.9682C1007.7 32.4522 1007.26 31.9422 1006.9 31.4382ZM1003.96 38.3142V40.2222H1009.9V38.3142H1003.96ZM1002.29 36.8202H1011.65V41.7162H1002.29V36.8202ZM1006.02 34.9302H1007.76V39.5742C1007.76 40.2342 1007.69 40.9002 1007.55 41.5722C1007.4 42.2442 1007.13 42.8922 1006.74 43.5162C1006.34 44.1402 1005.77 44.7162 1005.03 45.2442C1004.29 45.7842 1003.33 46.2522 1002.13 46.6482C1002.08 46.5162 1001.99 46.3542 1001.86 46.1622C1001.73 45.9822 1001.59 45.8022 1001.44 45.6222C1001.31 45.4422 1001.19 45.3042 1001.08 45.2082C1002.19 44.8602 1003.07 44.4702 1003.73 44.0382C1004.39 43.6062 1004.88 43.1442 1005.21 42.6522C1005.53 42.1602 1005.75 41.6502 1005.85 41.1222C1005.96 40.5942 1006.02 40.0602 1006.02 39.5202V34.9302ZM1007.91 40.7622C1008.28 41.6502 1008.69 42.3702 1009.15 42.9222C1009.6 43.4622 1010.12 43.8942 1010.7 44.2182C1011.28 44.5302 1011.93 44.8002 1012.64 45.0282C1012.41 45.2202 1012.19 45.4602 1011.97 45.7482C1011.77 46.0482 1011.62 46.3422 1011.52 46.6302C1010.73 46.3302 1010.01 45.9642 1009.36 45.5322C1008.72 45.1002 1008.13 44.5362 1007.62 43.8402C1007.11 43.1322 1006.66 42.2202 1006.27 41.1042L1007.91 40.7622ZM1020.99 41.6262H1022.92V46.5582H1020.99V41.6262ZM1020.97 29.7462H1022.9V34.8942H1020.97V29.7462ZM1020.45 35.2182L1022.22 36.0462C1021.68 36.5262 1021.11 37.0002 1020.52 37.4682C1019.94 37.9362 1019.39 38.3382 1018.89 38.6742L1017.52 37.9182C1017.84 37.6782 1018.18 37.4022 1018.54 37.0902C1018.9 36.7782 1019.25 36.4602 1019.59 36.1362C1019.94 35.8002 1020.22 35.4942 1020.45 35.2182ZM1024.34 36.3702L1026.07 37.3062C1025.35 37.8582 1024.56 38.4222 1023.71 38.9982C1022.87 39.5622 1022.02 40.1022 1021.17 40.6182C1020.32 41.1342 1019.52 41.5902 1018.76 41.9862L1017.46 41.1042C1018.03 40.8042 1018.62 40.4622 1019.25 40.0782C1019.87 39.6942 1020.49 39.2922 1021.1 38.8722C1021.72 38.4402 1022.31 38.0142 1022.86 37.5942C1023.42 37.1622 1023.91 36.7542 1024.34 36.3702ZM1015.99 38.1522L1017.25 37.0722C1017.69 37.2882 1018.15 37.5402 1018.63 37.8282C1019.13 38.1042 1019.59 38.3862 1020.04 38.6742C1020.49 38.9622 1020.87 39.2322 1021.15 39.4842L1019.82 40.6902C1019.56 40.4382 1019.21 40.1622 1018.78 39.8622C1018.35 39.5502 1017.88 39.2442 1017.39 38.9442C1016.91 38.6442 1016.44 38.3802 1015.99 38.1522ZM1024.36 39.5742L1025.62 38.5842C1026.11 38.8842 1026.63 39.2262 1027.18 39.6102C1027.75 39.9942 1028.28 40.3782 1028.77 40.7622C1029.27 41.1462 1029.68 41.4942 1029.99 41.8062L1028.64 42.9222C1028.34 42.6102 1027.95 42.2562 1027.47 41.8602C1026.99 41.4642 1026.48 41.0622 1025.92 40.6542C1025.38 40.2462 1024.86 39.8862 1024.36 39.5742ZM1024.14 43.4442L1025.62 42.4902C1026.1 42.7302 1026.61 43.0122 1027.17 43.3362C1027.73 43.6602 1028.27 43.9902 1028.79 44.3262C1029.3 44.6622 1029.73 44.9742 1030.06 45.2622L1028.48 46.3602C1028.18 46.0842 1027.78 45.7722 1027.29 45.4242C1026.8 45.0762 1026.27 44.7282 1025.71 44.3802C1025.16 44.0322 1024.63 43.7202 1024.14 43.4442ZM1014.13 40.7082C1014.96 40.7082 1015.91 40.7082 1016.98 40.7082C1018.06 40.6962 1019.2 40.6902 1020.42 40.6902C1021.64 40.6782 1022.9 40.6602 1024.2 40.6362C1025.5 40.6122 1026.8 40.5942 1028.08 40.5822L1027.99 42.0582C1026.34 42.1062 1024.67 42.1602 1022.99 42.2202C1021.32 42.2682 1019.73 42.3162 1018.22 42.3642C1016.72 42.4002 1015.39 42.4302 1014.22 42.4542L1014.13 40.7082ZM1017.9 42.5262L1019.73 43.2102C1019.34 43.6182 1018.88 44.0202 1018.36 44.4162C1017.86 44.8122 1017.33 45.1782 1016.78 45.5142C1016.23 45.8622 1015.69 46.1622 1015.18 46.4142C1015.07 46.2822 1014.93 46.1322 1014.75 45.9642C1014.57 45.7962 1014.38 45.6282 1014.19 45.4602C1014.01 45.2922 1013.84 45.1602 1013.68 45.0642C1014.46 44.7642 1015.24 44.3922 1016.01 43.9482C1016.77 43.4922 1017.4 43.0182 1017.9 42.5262ZM1014.33 31.2042H1029.63V32.8602H1014.33V31.2042ZM1014.21 34.1562H1029.85V37.7922H1027.94V35.7762H1016.02V37.7922H1014.21V34.1562ZM1037.26 38.9262H1048.28V40.4562H1037.26V38.9262ZM1038.72 42.1842L1039.71 41.0322C1040.01 41.2002 1040.32 41.3982 1040.65 41.6262C1040.97 41.8542 1041.28 42.0822 1041.57 42.3102C1041.87 42.5262 1042.11 42.7302 1042.29 42.9222L1041.26 44.2362C1041.08 44.0322 1040.85 43.8102 1040.56 43.5702C1040.27 43.3302 1039.96 43.0902 1039.64 42.8502C1039.33 42.5982 1039.02 42.3762 1038.72 42.1842ZM1044.57 38.1522L1045.53 37.2882C1045.83 37.4682 1046.14 37.6842 1046.46 37.9362C1046.79 38.1762 1047.04 38.3982 1047.22 38.6022L1046.23 39.5202C1046.06 39.3162 1045.81 39.0882 1045.49 38.8362C1045.18 38.5722 1044.87 38.3442 1044.57 38.1522ZM1038.51 39.7002H1040.22C1040.14 40.6122 1040.02 41.4942 1039.84 42.3462C1039.67 43.1862 1039.39 43.9662 1038.99 44.6862C1038.6 45.3942 1038.03 46.0062 1037.3 46.5222C1037.19 46.3182 1037.03 46.0902 1036.81 45.8382C1036.6 45.5862 1036.39 45.3882 1036.2 45.2442C1036.81 44.8362 1037.28 44.3382 1037.59 43.7502C1037.9 43.1622 1038.12 42.5202 1038.24 41.8242C1038.37 41.1282 1038.46 40.4202 1038.51 39.7002ZM1041.64 29.7642H1043.33C1043.29 31.4442 1043.32 33.0462 1043.4 34.5702C1043.49 36.0822 1043.61 37.4742 1043.78 38.7462C1043.96 40.0062 1044.19 41.1042 1044.46 42.0402C1044.74 42.9642 1045.06 43.6782 1045.42 44.1822C1045.79 44.6862 1046.2 44.9382 1046.66 44.9382C1046.9 44.9382 1047.07 44.8182 1047.16 44.5782C1047.26 44.3382 1047.33 43.8462 1047.38 43.1022C1047.56 43.2822 1047.77 43.4502 1048.01 43.6062C1048.25 43.7502 1048.47 43.8702 1048.66 43.9662C1048.56 44.6502 1048.43 45.1782 1048.26 45.5502C1048.11 45.9222 1047.89 46.1862 1047.61 46.3422C1047.34 46.4982 1046.98 46.5762 1046.53 46.5762C1045.77 46.5762 1045.1 46.2822 1044.54 45.6942C1043.97 45.1182 1043.5 44.3082 1043.13 43.2642C1042.76 42.2082 1042.47 40.9782 1042.25 39.5742C1042.03 38.1582 1041.88 36.6222 1041.78 34.9662C1041.69 33.2982 1041.64 31.5642 1041.64 29.7642ZM1045.72 40.4922L1047.34 41.1042C1046.73 42.3522 1045.89 43.4382 1044.82 44.3622C1043.76 45.2742 1042.54 46.0002 1041.17 46.5402C1041.06 46.3602 1040.9 46.1442 1040.68 45.8922C1040.48 45.6522 1040.3 45.4542 1040.14 45.2982C1041.45 44.8302 1042.59 44.1822 1043.55 43.3542C1044.52 42.5262 1045.24 41.5722 1045.72 40.4922ZM1043.15 33.0582L1043.89 32.0142C1044.26 32.2782 1044.64 32.5902 1045.04 32.9502C1045.45 33.3102 1045.75 33.6342 1045.96 33.9222L1045.2 35.1282C1045 34.8282 1044.7 34.4862 1044.3 34.1022C1043.91 33.7062 1043.52 33.3582 1043.15 33.0582ZM1046.52 35.1822L1047.61 34.7682C1047.85 35.1882 1048.06 35.6502 1048.24 36.1542C1048.44 36.6462 1048.56 37.0722 1048.62 37.4322L1047.43 37.9362C1047.37 37.5642 1047.26 37.1202 1047.09 36.6042C1046.92 36.0882 1046.73 35.6142 1046.52 35.1822ZM1043.46 36.2262C1044 36.2022 1044.61 36.1662 1045.31 36.1182C1046.02 36.0582 1046.75 35.9982 1047.51 35.9382L1047.54 37.1802C1046.87 37.2642 1046.21 37.3482 1045.56 37.4322C1044.93 37.5042 1044.31 37.5702 1043.73 37.6302L1043.46 36.2262ZM1045.17 29.8722L1046.62 30.4302C1046.35 30.9342 1046.06 31.4502 1045.76 31.9782C1045.47 32.5062 1045.2 32.9502 1044.95 33.3102L1043.91 32.8422C1044.06 32.5662 1044.22 32.2602 1044.37 31.9242C1044.53 31.5762 1044.67 31.2222 1044.81 30.8622C1044.95 30.5022 1045.07 30.1722 1045.17 29.8722ZM1046.68 31.7622L1048.03 32.4102C1047.7 32.9262 1047.36 33.4602 1046.98 34.0122C1046.62 34.5642 1046.26 35.0982 1045.9 35.6142C1045.54 36.1302 1045.2 36.5802 1044.86 36.9642L1043.83 36.4062C1044.16 35.9982 1044.49 35.5242 1044.84 34.9842C1045.19 34.4442 1045.53 33.8922 1045.85 33.3282C1046.17 32.7642 1046.45 32.2422 1046.68 31.7622ZM1036.92 33.0582L1037.64 32.0142C1038.03 32.2782 1038.42 32.5902 1038.81 32.9502C1039.22 33.3102 1039.52 33.6342 1039.71 33.9222L1038.96 35.1282C1038.76 34.8282 1038.46 34.4862 1038.06 34.1022C1037.66 33.7062 1037.28 33.3582 1036.92 33.0582ZM1040 35.3622L1041.1 34.9842C1041.31 35.4162 1041.5 35.8842 1041.66 36.3882C1041.82 36.8922 1041.93 37.3182 1041.98 37.6662L1040.79 38.1342C1040.76 37.7622 1040.66 37.3182 1040.5 36.8022C1040.36 36.2862 1040.19 35.8062 1040 35.3622ZM1037.03 36.4962C1037.57 36.4602 1038.19 36.4182 1038.9 36.3702C1039.61 36.3102 1040.35 36.2502 1041.13 36.1902L1041.15 37.5222C1040.48 37.5942 1039.81 37.6662 1039.15 37.7382C1038.49 37.8102 1037.87 37.8762 1037.28 37.9362L1037.03 36.4962ZM1038.94 29.8722L1040.38 30.4302C1040.09 30.9342 1039.8 31.4562 1039.51 31.9962C1039.23 32.5362 1038.96 32.9922 1038.72 33.3642L1037.68 32.8962C1037.82 32.6202 1037.97 32.3082 1038.13 31.9602C1038.28 31.6002 1038.43 31.2402 1038.58 30.8802C1038.72 30.5082 1038.84 30.1722 1038.94 29.8722ZM1040.43 31.7622L1041.78 32.4102C1041.45 32.9382 1041.09 33.4962 1040.7 34.0842C1040.33 34.6722 1039.95 35.2362 1039.57 35.7762C1039.18 36.3042 1038.82 36.7722 1038.49 37.1802L1037.46 36.6402C1037.8 36.2082 1038.15 35.7102 1038.51 35.1462C1038.88 34.5822 1039.23 34.0062 1039.57 33.4182C1039.92 32.8182 1040.2 32.2662 1040.43 31.7622ZM1031.83 33.5262H1037.32V35.3082H1031.83V33.5262ZM1033.86 29.7462H1035.59V46.5402H1033.86V29.7462ZM1033.83 34.7142L1034.85 35.0742C1034.74 35.7702 1034.6 36.5022 1034.42 37.2702C1034.25 38.0262 1034.05 38.7762 1033.83 39.5202C1033.61 40.2522 1033.37 40.9362 1033.11 41.5722C1032.84 42.2082 1032.57 42.7542 1032.28 43.2102C1032.18 42.9702 1032.05 42.6942 1031.88 42.3822C1031.71 42.0702 1031.56 41.8002 1031.43 41.5722C1031.7 41.1762 1031.95 40.7142 1032.19 40.1862C1032.43 39.6462 1032.65 39.0702 1032.85 38.4582C1033.07 37.8342 1033.26 37.2042 1033.43 36.5682C1033.6 35.9202 1033.73 35.3022 1033.83 34.7142ZM1035.5 35.9202C1035.6 36.0402 1035.73 36.2502 1035.91 36.5502C1036.11 36.8502 1036.32 37.1802 1036.54 37.5402C1036.77 37.9002 1036.98 38.2362 1037.16 38.5482C1037.34 38.8602 1037.46 39.0822 1037.53 39.2142L1036.6 40.5642C1036.51 40.3122 1036.39 40.0062 1036.22 39.6462C1036.06 39.2742 1035.9 38.8962 1035.72 38.5122C1035.54 38.1282 1035.36 37.7682 1035.19 37.4322C1035.03 37.0962 1034.89 36.8322 1034.78 36.6402L1035.5 35.9202ZM1052.4 29.6922L1054.42 30.1242C1054.2 30.6522 1053.97 31.1922 1053.72 31.7442C1053.48 32.2962 1053.23 32.8182 1052.98 33.3102C1052.73 33.8022 1052.49 34.2462 1052.26 34.6422L1050.58 34.1922C1050.81 33.7842 1051.04 33.3222 1051.27 32.8062C1051.5 32.2782 1051.71 31.7442 1051.9 31.2042C1052.1 30.6522 1052.27 30.1482 1052.4 29.6922ZM1049.59 33.4182C1050.24 33.3942 1050.98 33.3702 1051.81 33.3462C1052.64 33.3102 1053.51 33.2682 1054.44 33.2202C1055.36 33.1722 1056.29 33.1302 1057.23 33.0942L1057.21 34.7862C1056.32 34.8462 1055.43 34.9062 1054.54 34.9662C1053.66 35.0142 1052.8 35.0682 1051.99 35.1282C1051.17 35.1762 1050.43 35.2182 1049.76 35.2542L1049.59 33.4182ZM1050.67 36.2262H1056.38V37.8282H1052.46V46.5402H1050.67V36.2262ZM1055.48 36.2262H1057.39V44.5422C1057.39 44.9742 1057.33 45.3162 1057.23 45.5682C1057.13 45.8322 1056.93 46.0422 1056.63 46.1982C1056.34 46.3422 1055.99 46.4262 1055.57 46.4502C1055.16 46.4862 1054.69 46.5042 1054.15 46.5042C1054.1 46.2522 1054.02 45.9582 1053.9 45.6222C1053.78 45.2862 1053.65 45.0042 1053.52 44.7762C1053.87 44.7882 1054.2 44.8002 1054.51 44.8122C1054.83 44.8122 1055.05 44.8062 1055.17 44.7942C1055.29 44.7942 1055.37 44.7762 1055.41 44.7402C1055.46 44.7042 1055.48 44.6262 1055.48 44.5062V36.2262ZM1051.48 38.9442H1056.54V40.3842H1051.48V38.9442ZM1051.48 41.5902H1056.54V43.0482H1051.48V41.5902ZM1058.88 29.8002H1060.81V35.3622C1060.81 35.6742 1060.86 35.8722 1060.95 35.9562C1061.05 36.0402 1061.28 36.0822 1061.64 36.0822C1061.72 36.0822 1061.86 36.0822 1062.05 36.0822C1062.25 36.0822 1062.48 36.0822 1062.72 36.0822C1062.96 36.0822 1063.18 36.0822 1063.4 36.0822C1063.62 36.0822 1063.77 36.0822 1063.87 36.0822C1064.07 36.0822 1064.23 36.0342 1064.34 35.9382C1064.44 35.8422 1064.52 35.6622 1064.57 35.3982C1064.62 35.1222 1064.65 34.7082 1064.68 34.1562C1064.81 34.2522 1064.97 34.3542 1065.16 34.4622C1065.37 34.5582 1065.58 34.6422 1065.79 34.7142C1066.02 34.7862 1066.22 34.8402 1066.39 34.8762C1066.33 35.6442 1066.21 36.2442 1066.05 36.6762C1065.88 37.0962 1065.63 37.3902 1065.31 37.5582C1065 37.7262 1064.58 37.8102 1064.05 37.8102C1063.96 37.8102 1063.83 37.8102 1063.65 37.8102C1063.47 37.8102 1063.27 37.8102 1063.04 37.8102C1062.81 37.8102 1062.58 37.8102 1062.36 37.8102C1062.14 37.8102 1061.95 37.8102 1061.78 37.8102C1061.61 37.8102 1061.49 37.8102 1061.4 37.8102C1060.73 37.8102 1060.21 37.7382 1059.84 37.5942C1059.48 37.4502 1059.22 37.2042 1059.08 36.8562C1058.95 36.4962 1058.88 36.0102 1058.88 35.3982V29.8002ZM1064.32 30.9342L1065.54 32.3562C1065.01 32.5962 1064.44 32.8362 1063.81 33.0762C1063.19 33.3162 1062.55 33.5382 1061.91 33.7422C1061.27 33.9342 1060.65 34.1142 1060.05 34.2822C1060.02 34.1022 1059.94 33.8862 1059.82 33.6342C1059.71 33.3702 1059.6 33.1422 1059.49 32.9502C1060.07 32.7702 1060.65 32.5722 1061.24 32.3562C1061.83 32.1282 1062.39 31.8942 1062.91 31.6542C1063.45 31.4022 1063.92 31.1622 1064.32 30.9342ZM1058.88 38.2062H1060.79V44.0022C1060.79 44.3142 1060.84 44.5122 1060.95 44.5962C1061.06 44.6802 1061.3 44.7222 1061.67 44.7222C1061.76 44.7222 1061.9 44.7222 1062.1 44.7222C1062.31 44.7222 1062.54 44.7222 1062.79 44.7222C1063.04 44.7222 1063.27 44.7222 1063.49 44.7222C1063.72 44.7222 1063.88 44.7222 1063.98 44.7222C1064.2 44.7222 1064.37 44.6682 1064.48 44.5602C1064.6 44.4522 1064.68 44.2422 1064.73 43.9302C1064.78 43.6062 1064.82 43.1322 1064.84 42.5082C1065.06 42.6522 1065.33 42.7902 1065.67 42.9222C1066 43.0542 1066.3 43.1502 1066.55 43.2102C1066.49 44.0502 1066.38 44.6982 1066.21 45.1542C1066.04 45.6222 1065.79 45.9462 1065.47 46.1262C1065.16 46.3182 1064.72 46.4142 1064.16 46.4142C1064.07 46.4142 1063.93 46.4142 1063.74 46.4142C1063.56 46.4142 1063.36 46.4142 1063.13 46.4142C1062.9 46.4142 1062.67 46.4142 1062.43 46.4142C1062.2 46.4142 1062 46.4142 1061.82 46.4142C1061.64 46.4142 1061.5 46.4142 1061.42 46.4142C1060.75 46.4142 1060.23 46.3422 1059.85 46.1982C1059.49 46.0542 1059.24 45.8082 1059.1 45.4602C1058.95 45.1122 1058.88 44.6262 1058.88 44.0022V38.2062ZM1064.46 39.0162L1065.74 40.4382C1065.21 40.7382 1064.62 41.0202 1063.98 41.2842C1063.33 41.5362 1062.67 41.7762 1062 42.0042C1061.32 42.2202 1060.67 42.4182 1060.03 42.5982C1059.99 42.4182 1059.9 42.1962 1059.78 41.9322C1059.67 41.6562 1059.57 41.4282 1059.46 41.2482C1060.06 41.0562 1060.66 40.8402 1061.28 40.6002C1061.9 40.3482 1062.49 40.0902 1063.04 39.8262C1063.59 39.5502 1064.07 39.2802 1064.46 39.0162ZM1054.8 31.5822L1056.42 30.9702C1056.73 31.3902 1057.03 31.8522 1057.32 32.3562C1057.6 32.8482 1057.87 33.3342 1058.11 33.8142C1058.35 34.2942 1058.53 34.7322 1058.65 35.1282L1056.9 35.8302C1056.79 35.4462 1056.63 35.0142 1056.4 34.5342C1056.18 34.0422 1055.94 33.5382 1055.66 33.0222C1055.38 32.5062 1055.1 32.0262 1054.8 31.5822Z" fill="#0E0F3B"/>
<rect x="942" y="88.9922" width="178" height="74" rx="15" fill="#FBD656"/>
<path d="M1003.03 109.634C1002.92 109.754 1002.81 109.874 1002.7 109.994C1002.61 110.102 1002.52 110.21 1002.45 110.318C1002.1 110.894 1001.68 111.518 1001.19 112.19C1000.71 112.85 1000.17 113.522 999.572 114.206C998.972 114.89 998.33 115.556 997.646 116.204C996.974 116.84 996.278 117.422 995.558 117.95L993.956 116.474C994.58 116.042 995.174 115.568 995.738 115.052C996.314 114.524 996.842 113.99 997.322 113.45C997.802 112.91 998.228 112.388 998.6 111.884C998.972 111.368 999.272 110.9 999.5 110.48C999.272 110.48 998.948 110.48 998.528 110.48C998.12 110.48 997.64 110.48 997.088 110.48C996.548 110.48 995.978 110.48 995.378 110.48C994.778 110.48 994.178 110.48 993.578 110.48C992.99 110.48 992.432 110.48 991.904 110.48C991.388 110.48 990.932 110.48 990.536 110.48C990.152 110.48 989.87 110.48 989.69 110.48C989.45 110.48 989.198 110.492 988.934 110.516C988.682 110.528 988.442 110.546 988.214 110.57C987.986 110.582 987.812 110.594 987.692 110.606V108.338C987.848 108.35 988.04 108.374 988.268 108.41C988.508 108.434 988.754 108.458 989.006 108.482C989.258 108.494 989.486 108.5 989.69 108.5C989.846 108.5 990.11 108.5 990.482 108.5C990.866 108.5 991.322 108.5 991.85 108.5C992.378 108.5 992.948 108.5 993.56 108.5C994.172 108.5 994.79 108.5 995.414 108.5C996.038 108.5 996.638 108.5 997.214 108.5C997.802 108.5 998.324 108.5 998.78 108.5C999.248 108.5 999.614 108.5 999.878 108.5C1000.54 108.5 1001.05 108.44 1001.43 108.32L1003.03 109.634ZM993.812 118.238C993.548 117.962 993.242 117.668 992.894 117.356C992.546 117.032 992.18 116.708 991.796 116.384C991.424 116.048 991.064 115.742 990.716 115.466C990.38 115.178 990.08 114.938 989.816 114.746L991.508 113.378C991.736 113.558 992.012 113.78 992.336 114.044C992.672 114.308 993.032 114.602 993.416 114.926C993.8 115.238 994.184 115.568 994.568 115.916C994.952 116.252 995.318 116.582 995.666 116.906C996.05 117.278 996.452 117.686 996.872 118.13C997.304 118.562 997.712 118.988 998.096 119.408C998.48 119.828 998.81 120.212 999.086 120.56L997.196 122.072C996.956 121.736 996.644 121.346 996.26 120.902C995.876 120.458 995.468 120.002 995.036 119.534C994.616 119.054 994.208 118.622 993.812 118.238ZM1012.98 110.39C1013.07 110.582 1013.17 110.858 1013.31 111.218C1013.45 111.566 1013.59 111.944 1013.74 112.352C1013.89 112.748 1014.03 113.126 1014.15 113.486C1014.28 113.834 1014.38 114.11 1014.44 114.314L1012.51 114.998C1012.47 114.782 1012.38 114.5 1012.26 114.152C1012.14 113.792 1012.01 113.42 1011.87 113.036C1011.72 112.64 1011.58 112.262 1011.43 111.902C1011.29 111.542 1011.17 111.248 1011.07 111.02L1012.98 110.39ZM1019.59 111.614C1019.5 111.878 1019.43 112.106 1019.37 112.298C1019.31 112.478 1019.26 112.652 1019.21 112.82C1018.97 113.744 1018.65 114.668 1018.26 115.592C1017.86 116.504 1017.35 117.362 1016.73 118.166C1015.89 119.234 1014.94 120.14 1013.88 120.884C1012.83 121.616 1011.78 122.18 1010.73 122.576L1009.04 120.848C1009.71 120.656 1010.41 120.386 1011.13 120.038C1011.86 119.678 1012.56 119.246 1013.23 118.742C1013.91 118.238 1014.49 117.68 1014.98 117.068C1015.4 116.552 1015.77 115.964 1016.1 115.304C1016.42 114.632 1016.69 113.918 1016.91 113.162C1017.12 112.406 1017.27 111.65 1017.34 110.894L1019.59 111.614ZM1008.81 111.326C1008.91 111.554 1009.04 111.848 1009.18 112.208C1009.34 112.556 1009.5 112.934 1009.65 113.342C1009.82 113.738 1009.98 114.122 1010.12 114.494C1010.26 114.866 1010.38 115.178 1010.46 115.43L1008.5 116.15C1008.43 115.922 1008.32 115.616 1008.18 115.232C1008.04 114.836 1007.89 114.428 1007.73 114.008C1007.56 113.588 1007.4 113.204 1007.24 112.856C1007.1 112.496 1006.97 112.22 1006.86 112.028L1008.81 111.326ZM1024.83 108.176C1025.28 108.188 1025.86 108.194 1026.57 108.194C1027.28 108.182 1028.02 108.152 1028.79 108.104C1029.57 108.056 1030.28 107.99 1030.93 107.906C1031.37 107.834 1031.82 107.762 1032.26 107.69C1032.7 107.606 1033.13 107.522 1033.54 107.438C1033.95 107.342 1034.32 107.24 1034.65 107.132C1034.99 107.024 1035.27 106.922 1035.5 106.826L1036.83 108.608C1036.56 108.668 1036.31 108.728 1036.09 108.788C1035.88 108.848 1035.7 108.896 1035.55 108.932C1035.18 109.016 1034.77 109.106 1034.33 109.202C1033.9 109.286 1033.44 109.37 1032.96 109.454C1032.49 109.526 1032.03 109.598 1031.56 109.67C1030.87 109.766 1030.15 109.838 1029.38 109.886C1028.62 109.934 1027.89 109.97 1027.18 109.994C1026.48 110.018 1025.86 110.036 1025.33 110.048L1024.83 108.176ZM1025.65 120.56C1026.71 120.068 1027.57 119.48 1028.25 118.796C1028.93 118.112 1029.43 117.314 1029.76 116.402C1030.09 115.49 1030.26 114.452 1030.26 113.288C1030.26 113.288 1030.26 113.144 1030.26 112.856C1030.26 112.568 1030.26 112.142 1030.26 111.578C1030.26 111.014 1030.26 110.312 1030.26 109.472L1032.37 109.22C1032.37 109.52 1032.37 109.85 1032.37 110.21C1032.37 110.57 1032.37 110.93 1032.37 111.29C1032.37 111.65 1032.37 111.98 1032.37 112.28C1032.37 112.568 1032.37 112.802 1032.37 112.982C1032.37 113.162 1032.37 113.252 1032.37 113.252C1032.37 114.476 1032.22 115.622 1031.92 116.69C1031.62 117.746 1031.13 118.718 1030.44 119.606C1029.77 120.482 1028.86 121.262 1027.71 121.946L1025.65 120.56ZM1023.46 112.478C1023.7 112.502 1023.96 112.526 1024.25 112.55C1024.54 112.562 1024.82 112.568 1025.1 112.568C1025.25 112.568 1025.56 112.568 1026.03 112.568C1026.5 112.568 1027.07 112.568 1027.74 112.568C1028.41 112.568 1029.13 112.568 1029.88 112.568C1030.65 112.568 1031.42 112.568 1032.19 112.568C1032.96 112.568 1033.68 112.568 1034.35 112.568C1035.02 112.568 1035.59 112.568 1036.06 112.568C1036.54 112.568 1036.86 112.568 1037.03 112.568C1037.16 112.568 1037.32 112.568 1037.52 112.568C1037.72 112.556 1037.92 112.544 1038.11 112.532C1038.31 112.508 1038.48 112.49 1038.6 112.478V114.566C1038.37 114.542 1038.12 114.53 1037.84 114.53C1037.58 114.518 1037.32 114.512 1037.07 114.512C1036.91 114.512 1036.59 114.512 1036.11 114.512C1035.64 114.512 1035.07 114.512 1034.4 114.512C1033.73 114.512 1033.01 114.512 1032.24 114.512C1031.47 114.512 1030.7 114.512 1029.92 114.512C1029.15 114.512 1028.43 114.512 1027.76 114.512C1027.09 114.512 1026.52 114.512 1026.05 114.512C1025.58 114.512 1025.27 114.512 1025.11 114.512C1024.84 114.512 1024.55 114.518 1024.25 114.53C1023.95 114.53 1023.69 114.542 1023.46 114.566V112.478ZM1044.27 107.438C1044.58 107.654 1044.94 107.924 1045.36 108.248C1045.78 108.56 1046.22 108.896 1046.66 109.256C1047.1 109.616 1047.52 109.97 1047.92 110.318C1048.32 110.654 1048.64 110.96 1048.89 111.236L1047.25 112.892C1047.03 112.652 1046.73 112.358 1046.35 112.01C1045.99 111.662 1045.6 111.308 1045.17 110.948C1044.73 110.576 1044.31 110.222 1043.89 109.886C1043.47 109.55 1043.09 109.274 1042.75 109.058L1044.27 107.438ZM1042.21 119.462C1043.19 119.318 1044.09 119.12 1044.93 118.868C1045.77 118.616 1046.55 118.334 1047.25 118.022C1047.97 117.698 1048.62 117.368 1049.2 117.032C1050.19 116.432 1051.11 115.748 1051.93 114.98C1052.76 114.2 1053.49 113.396 1054.11 112.568C1054.74 111.728 1055.23 110.918 1055.61 110.138L1056.85 112.37C1056.4 113.174 1055.86 113.972 1055.21 114.764C1054.56 115.556 1053.83 116.312 1053.01 117.032C1052.2 117.74 1051.32 118.388 1050.37 118.976C1049.76 119.336 1049.1 119.69 1048.39 120.038C1047.68 120.374 1046.92 120.68 1046.12 120.956C1045.32 121.22 1044.46 121.424 1043.56 121.568L1042.21 119.462ZM1071.95 106.34C1072.11 106.556 1072.27 106.814 1072.44 107.114C1072.62 107.414 1072.79 107.714 1072.96 108.014C1073.13 108.314 1073.27 108.578 1073.39 108.806L1072.08 109.382C1071.9 109.01 1071.67 108.59 1071.41 108.122C1071.15 107.642 1070.89 107.228 1070.65 106.88L1071.95 106.34ZM1074.04 105.548C1074.19 105.776 1074.36 106.04 1074.54 106.34C1074.73 106.64 1074.91 106.94 1075.08 107.24C1075.26 107.528 1075.41 107.78 1075.51 107.996L1074.2 108.572C1074.02 108.188 1073.79 107.762 1073.52 107.294C1073.25 106.826 1072.99 106.424 1072.74 106.088L1074.04 105.548ZM1073.44 110.192C1073.35 110.348 1073.25 110.54 1073.16 110.768C1073.06 110.984 1072.98 111.194 1072.9 111.398C1072.75 111.95 1072.53 112.568 1072.24 113.252C1071.95 113.936 1071.6 114.644 1071.18 115.376C1070.77 116.096 1070.29 116.792 1069.75 117.464C1068.9 118.484 1067.91 119.414 1066.77 120.254C1065.63 121.082 1064.21 121.826 1062.52 122.486L1060.61 120.794C1061.81 120.434 1062.85 120.026 1063.72 119.57C1064.61 119.102 1065.39 118.592 1066.06 118.04C1066.74 117.488 1067.34 116.912 1067.86 116.312C1068.28 115.82 1068.67 115.268 1069.03 114.656C1069.39 114.044 1069.7 113.438 1069.95 112.838C1070.22 112.226 1070.4 111.686 1070.49 111.218H1064.26L1065.02 109.382C1065.18 109.382 1065.43 109.382 1065.79 109.382C1066.17 109.382 1066.59 109.382 1067.05 109.382C1067.52 109.382 1067.98 109.382 1068.44 109.382C1068.9 109.382 1069.29 109.382 1069.63 109.382C1069.98 109.382 1070.21 109.382 1070.33 109.382C1070.61 109.382 1070.87 109.364 1071.12 109.328C1071.39 109.292 1071.61 109.244 1071.79 109.184L1073.44 110.192ZM1067.54 107.384C1067.34 107.684 1067.14 108.002 1066.95 108.338C1066.77 108.662 1066.62 108.914 1066.51 109.094C1066.13 109.802 1065.64 110.546 1065.06 111.326C1064.48 112.094 1063.81 112.844 1063.06 113.576C1062.31 114.308 1061.5 114.974 1060.61 115.574L1058.79 114.242C1059.58 113.774 1060.28 113.282 1060.88 112.766C1061.49 112.238 1062.02 111.71 1062.46 111.182C1062.92 110.654 1063.3 110.15 1063.62 109.67C1063.94 109.19 1064.21 108.758 1064.43 108.374C1064.56 108.17 1064.7 107.9 1064.84 107.564C1065 107.216 1065.11 106.898 1065.18 106.61L1067.54 107.384ZM1019.26 140.926H1030.28V142.456H1019.26V140.926ZM1020.72 144.184L1021.71 143.032C1022.01 143.2 1022.32 143.398 1022.65 143.626C1022.97 143.854 1023.28 144.082 1023.57 144.31C1023.87 144.526 1024.11 144.73 1024.29 144.922L1023.26 146.236C1023.08 146.032 1022.85 145.81 1022.56 145.57C1022.27 145.33 1021.96 145.09 1021.64 144.85C1021.33 144.598 1021.02 144.376 1020.72 144.184ZM1026.57 140.152L1027.53 139.288C1027.83 139.468 1028.14 139.684 1028.46 139.936C1028.79 140.176 1029.04 140.398 1029.22 140.602L1028.23 141.52C1028.06 141.316 1027.81 141.088 1027.49 140.836C1027.18 140.572 1026.87 140.344 1026.57 140.152ZM1020.51 141.7H1022.22C1022.14 142.612 1022.02 143.494 1021.84 144.346C1021.67 145.186 1021.39 145.966 1020.99 146.686C1020.6 147.394 1020.03 148.006 1019.3 148.522C1019.19 148.318 1019.03 148.09 1018.81 147.838C1018.6 147.586 1018.39 147.388 1018.2 147.244C1018.81 146.836 1019.28 146.338 1019.59 145.75C1019.9 145.162 1020.12 144.52 1020.24 143.824C1020.37 143.128 1020.46 142.42 1020.51 141.7ZM1023.64 131.764H1025.33C1025.29 133.444 1025.32 135.046 1025.4 136.57C1025.49 138.082 1025.61 139.474 1025.78 140.746C1025.96 142.006 1026.19 143.104 1026.46 144.04C1026.74 144.964 1027.06 145.678 1027.42 146.182C1027.79 146.686 1028.2 146.938 1028.66 146.938C1028.9 146.938 1029.07 146.818 1029.16 146.578C1029.26 146.338 1029.33 145.846 1029.38 145.102C1029.56 145.282 1029.77 145.45 1030.01 145.606C1030.25 145.75 1030.47 145.87 1030.66 145.966C1030.56 146.65 1030.43 147.178 1030.26 147.55C1030.11 147.922 1029.89 148.186 1029.61 148.342C1029.34 148.498 1028.98 148.576 1028.53 148.576C1027.77 148.576 1027.1 148.282 1026.54 147.694C1025.97 147.118 1025.5 146.308 1025.13 145.264C1024.76 144.208 1024.47 142.978 1024.25 141.574C1024.03 140.158 1023.88 138.622 1023.78 136.966C1023.69 135.298 1023.64 133.564 1023.64 131.764ZM1027.72 142.492L1029.34 143.104C1028.73 144.352 1027.89 145.438 1026.82 146.362C1025.76 147.274 1024.54 148 1023.17 148.54C1023.06 148.36 1022.9 148.144 1022.68 147.892C1022.48 147.652 1022.3 147.454 1022.14 147.298C1023.45 146.83 1024.59 146.182 1025.55 145.354C1026.52 144.526 1027.24 143.572 1027.72 142.492ZM1025.15 135.058L1025.89 134.014C1026.26 134.278 1026.64 134.59 1027.04 134.95C1027.45 135.31 1027.75 135.634 1027.96 135.922L1027.2 137.128C1027 136.828 1026.7 136.486 1026.3 136.102C1025.91 135.706 1025.52 135.358 1025.15 135.058ZM1028.52 137.182L1029.61 136.768C1029.85 137.188 1030.06 137.65 1030.24 138.154C1030.44 138.646 1030.56 139.072 1030.62 139.432L1029.43 139.936C1029.37 139.564 1029.26 139.12 1029.09 138.604C1028.92 138.088 1028.73 137.614 1028.52 137.182ZM1025.46 138.226C1026 138.202 1026.61 138.166 1027.31 138.118C1028.02 138.058 1028.75 137.998 1029.51 137.938L1029.54 139.18C1028.87 139.264 1028.21 139.348 1027.56 139.432C1026.93 139.504 1026.31 139.57 1025.73 139.63L1025.46 138.226ZM1027.17 131.872L1028.62 132.43C1028.35 132.934 1028.06 133.45 1027.76 133.978C1027.47 134.506 1027.2 134.95 1026.95 135.31L1025.91 134.842C1026.06 134.566 1026.22 134.26 1026.37 133.924C1026.53 133.576 1026.67 133.222 1026.81 132.862C1026.95 132.502 1027.07 132.172 1027.17 131.872ZM1028.68 133.762L1030.03 134.41C1029.7 134.926 1029.36 135.46 1028.98 136.012C1028.62 136.564 1028.26 137.098 1027.9 137.614C1027.54 138.13 1027.2 138.58 1026.86 138.964L1025.83 138.406C1026.16 137.998 1026.49 137.524 1026.84 136.984C1027.19 136.444 1027.53 135.892 1027.85 135.328C1028.17 134.764 1028.45 134.242 1028.68 133.762ZM1018.92 135.058L1019.64 134.014C1020.03 134.278 1020.42 134.59 1020.81 134.95C1021.22 135.31 1021.52 135.634 1021.71 135.922L1020.96 137.128C1020.76 136.828 1020.46 136.486 1020.06 136.102C1019.66 135.706 1019.28 135.358 1018.92 135.058ZM1022 137.362L1023.1 136.984C1023.31 137.416 1023.5 137.884 1023.66 138.388C1023.82 138.892 1023.93 139.318 1023.98 139.666L1022.79 140.134C1022.76 139.762 1022.66 139.318 1022.5 138.802C1022.36 138.286 1022.19 137.806 1022 137.362ZM1019.03 138.496C1019.57 138.46 1020.19 138.418 1020.9 138.37C1021.61 138.31 1022.35 138.25 1023.13 138.19L1023.15 139.522C1022.48 139.594 1021.81 139.666 1021.15 139.738C1020.49 139.81 1019.87 139.876 1019.28 139.936L1019.03 138.496ZM1020.94 131.872L1022.38 132.43C1022.09 132.934 1021.8 133.456 1021.51 133.996C1021.23 134.536 1020.96 134.992 1020.72 135.364L1019.68 134.896C1019.82 134.62 1019.97 134.308 1020.13 133.96C1020.28 133.6 1020.43 133.24 1020.58 132.88C1020.72 132.508 1020.84 132.172 1020.94 131.872ZM1022.43 133.762L1023.78 134.41C1023.45 134.938 1023.09 135.496 1022.7 136.084C1022.33 136.672 1021.95 137.236 1021.57 137.776C1021.18 138.304 1020.82 138.772 1020.49 139.18L1019.46 138.64C1019.8 138.208 1020.15 137.71 1020.51 137.146C1020.88 136.582 1021.23 136.006 1021.57 135.418C1021.92 134.818 1022.2 134.266 1022.43 133.762ZM1013.83 135.526H1019.32V137.308H1013.83V135.526ZM1015.86 131.746H1017.59V148.54H1015.86V131.746ZM1015.83 136.714L1016.85 137.074C1016.74 137.77 1016.6 138.502 1016.42 139.27C1016.25 140.026 1016.05 140.776 1015.83 141.52C1015.61 142.252 1015.37 142.936 1015.11 143.572C1014.84 144.208 1014.57 144.754 1014.28 145.21C1014.18 144.97 1014.05 144.694 1013.88 144.382C1013.71 144.07 1013.56 143.8 1013.43 143.572C1013.7 143.176 1013.95 142.714 1014.19 142.186C1014.43 141.646 1014.65 141.07 1014.85 140.458C1015.07 139.834 1015.26 139.204 1015.43 138.568C1015.6 137.92 1015.73 137.302 1015.83 136.714ZM1017.5 137.92C1017.6 138.04 1017.73 138.25 1017.91 138.55C1018.11 138.85 1018.32 139.18 1018.54 139.54C1018.77 139.9 1018.98 140.236 1019.16 140.548C1019.34 140.86 1019.46 141.082 1019.53 141.214L1018.6 142.564C1018.51 142.312 1018.39 142.006 1018.22 141.646C1018.06 141.274 1017.9 140.896 1017.72 140.512C1017.54 140.128 1017.36 139.768 1017.19 139.432C1017.03 139.096 1016.89 138.832 1016.78 138.64L1017.5 137.92ZM1034.4 131.692L1036.42 132.124C1036.2 132.652 1035.97 133.192 1035.72 133.744C1035.48 134.296 1035.23 134.818 1034.98 135.31C1034.73 135.802 1034.49 136.246 1034.26 136.642L1032.58 136.192C1032.81 135.784 1033.04 135.322 1033.27 134.806C1033.5 134.278 1033.71 133.744 1033.9 133.204C1034.1 132.652 1034.27 132.148 1034.4 131.692ZM1031.59 135.418C1032.24 135.394 1032.98 135.37 1033.81 135.346C1034.64 135.31 1035.51 135.268 1036.44 135.22C1037.36 135.172 1038.29 135.13 1039.23 135.094L1039.21 136.786C1038.32 136.846 1037.43 136.906 1036.54 136.966C1035.66 137.014 1034.8 137.068 1033.99 137.128C1033.17 137.176 1032.43 137.218 1031.76 137.254L1031.59 135.418ZM1032.67 138.226H1038.38V139.828H1034.46V148.54H1032.67V138.226ZM1037.48 138.226H1039.39V146.542C1039.39 146.974 1039.33 147.316 1039.23 147.568C1039.13 147.832 1038.93 148.042 1038.63 148.198C1038.34 148.342 1037.99 148.426 1037.57 148.45C1037.16 148.486 1036.69 148.504 1036.15 148.504C1036.1 148.252 1036.02 147.958 1035.9 147.622C1035.78 147.286 1035.65 147.004 1035.52 146.776C1035.87 146.788 1036.2 146.8 1036.51 146.812C1036.83 146.812 1037.05 146.806 1037.17 146.794C1037.29 146.794 1037.37 146.776 1037.41 146.74C1037.46 146.704 1037.48 146.626 1037.48 146.506V138.226ZM1033.48 140.944H1038.54V142.384H1033.48V140.944ZM1033.48 143.59H1038.54V145.048H1033.48V143.59ZM1040.88 131.8H1042.81V137.362C1042.81 137.674 1042.86 137.872 1042.95 137.956C1043.05 138.04 1043.28 138.082 1043.64 138.082C1043.72 138.082 1043.86 138.082 1044.05 138.082C1044.25 138.082 1044.48 138.082 1044.72 138.082C1044.96 138.082 1045.18 138.082 1045.4 138.082C1045.62 138.082 1045.77 138.082 1045.87 138.082C1046.07 138.082 1046.23 138.034 1046.34 137.938C1046.44 137.842 1046.52 137.662 1046.57 137.398C1046.62 137.122 1046.65 136.708 1046.68 136.156C1046.81 136.252 1046.97 136.354 1047.16 136.462C1047.37 136.558 1047.58 136.642 1047.79 136.714C1048.02 136.786 1048.22 136.84 1048.39 136.876C1048.33 137.644 1048.21 138.244 1048.05 138.676C1047.88 139.096 1047.63 139.39 1047.31 139.558C1047 139.726 1046.58 139.81 1046.05 139.81C1045.96 139.81 1045.83 139.81 1045.65 139.81C1045.47 139.81 1045.27 139.81 1045.04 139.81C1044.81 139.81 1044.58 139.81 1044.36 139.81C1044.14 139.81 1043.95 139.81 1043.78 139.81C1043.61 139.81 1043.49 139.81 1043.4 139.81C1042.73 139.81 1042.21 139.738 1041.84 139.594C1041.48 139.45 1041.22 139.204 1041.08 138.856C1040.95 138.496 1040.88 138.01 1040.88 137.398V131.8ZM1046.32 132.934L1047.54 134.356C1047.01 134.596 1046.44 134.836 1045.81 135.076C1045.19 135.316 1044.55 135.538 1043.91 135.742C1043.27 135.934 1042.65 136.114 1042.05 136.282C1042.02 136.102 1041.94 135.886 1041.82 135.634C1041.71 135.37 1041.6 135.142 1041.49 134.95C1042.07 134.77 1042.65 134.572 1043.24 134.356C1043.83 134.128 1044.39 133.894 1044.91 133.654C1045.45 133.402 1045.92 133.162 1046.32 132.934ZM1040.88 140.206H1042.79V146.002C1042.79 146.314 1042.84 146.512 1042.95 146.596C1043.06 146.68 1043.3 146.722 1043.67 146.722C1043.76 146.722 1043.9 146.722 1044.1 146.722C1044.31 146.722 1044.54 146.722 1044.79 146.722C1045.04 146.722 1045.27 146.722 1045.49 146.722C1045.72 146.722 1045.88 146.722 1045.98 146.722C1046.2 146.722 1046.37 146.668 1046.48 146.56C1046.6 146.452 1046.68 146.242 1046.73 145.93C1046.78 145.606 1046.82 145.132 1046.84 144.508C1047.06 144.652 1047.33 144.79 1047.67 144.922C1048 145.054 1048.3 145.15 1048.55 145.21C1048.49 146.05 1048.38 146.698 1048.21 147.154C1048.04 147.622 1047.79 147.946 1047.47 148.126C1047.16 148.318 1046.72 148.414 1046.16 148.414C1046.07 148.414 1045.93 148.414 1045.74 148.414C1045.56 148.414 1045.36 148.414 1045.13 148.414C1044.9 148.414 1044.67 148.414 1044.43 148.414C1044.2 148.414 1044 148.414 1043.82 148.414C1043.64 148.414 1043.5 148.414 1043.42 148.414C1042.75 148.414 1042.23 148.342 1041.85 148.198C1041.49 148.054 1041.24 147.808 1041.1 147.46C1040.95 147.112 1040.88 146.626 1040.88 146.002V140.206ZM1046.46 141.016L1047.74 142.438C1047.21 142.738 1046.62 143.02 1045.98 143.284C1045.33 143.536 1044.67 143.776 1044 144.004C1043.32 144.22 1042.67 144.418 1042.03 144.598C1041.99 144.418 1041.9 144.196 1041.78 143.932C1041.67 143.656 1041.57 143.428 1041.46 143.248C1042.06 143.056 1042.66 142.84 1043.28 142.6C1043.9 142.348 1044.49 142.09 1045.04 141.826C1045.59 141.55 1046.07 141.28 1046.46 141.016ZM1036.8 133.582L1038.42 132.97C1038.73 133.39 1039.03 133.852 1039.32 134.356C1039.6 134.848 1039.87 135.334 1040.11 135.814C1040.35 136.294 1040.53 136.732 1040.65 137.128L1038.9 137.83C1038.79 137.446 1038.63 137.014 1038.4 136.534C1038.18 136.042 1037.94 135.538 1037.66 135.022C1037.38 134.506 1037.1 134.026 1036.8 133.582Z" fill="#0E0F3B"/>
<rect x="942" y="177.992" width="178" height="74" rx="15" fill="#FBD656"/>
<path d="M996.692 209.024H1011.36V210.68H996.692V209.024ZM997.538 211.76H1010.66V213.308H997.538V211.76ZM996.026 214.478H1011.94V216.134H996.026V214.478ZM1002.97 207.746H1004.94V215.846H1002.97V207.746ZM1002.97 215.072L1004.65 215.882C1004.17 216.386 1003.62 216.884 1002.99 217.376C1002.37 217.856 1001.7 218.306 1000.99 218.726C1000.29 219.134 999.56 219.506 998.816 219.842C998.072 220.178 997.334 220.46 996.602 220.688C996.518 220.532 996.398 220.358 996.242 220.166C996.098 219.974 995.948 219.782 995.792 219.59C995.648 219.398 995.504 219.236 995.36 219.104C996.068 218.924 996.788 218.69 997.52 218.402C998.252 218.114 998.954 217.796 999.626 217.448C1000.31 217.088 1000.94 216.71 1001.52 216.314C1002.09 215.918 1002.58 215.504 1002.97 215.072ZM1005.76 215.378C1006.09 216.59 1006.54 217.694 1007.13 218.69C1007.72 219.674 1008.46 220.514 1009.35 221.21C1010.25 221.906 1011.32 222.434 1012.57 222.794C1012.42 222.926 1012.27 223.094 1012.12 223.298C1011.96 223.502 1011.81 223.706 1011.67 223.91C1011.52 224.126 1011.4 224.324 1011.31 224.504C1009.98 224.048 1008.84 223.412 1007.89 222.596C1006.95 221.768 1006.17 220.778 1005.53 219.626C1004.91 218.474 1004.4 217.172 1004 215.72L1005.76 215.378ZM1010.19 216.494L1011.78 217.7C1011.33 218.024 1010.86 218.348 1010.37 218.672C1009.88 218.996 1009.39 219.302 1008.9 219.59C1008.42 219.878 1007.97 220.13 1007.55 220.346L1006.32 219.32C1006.74 219.068 1007.19 218.786 1007.65 218.474C1008.12 218.15 1008.58 217.814 1009.02 217.466C1009.48 217.118 1009.87 216.794 1010.19 216.494ZM997.304 222.74C998.024 222.608 998.846 222.446 999.77 222.254C1000.71 222.05 1001.69 221.834 1002.72 221.606C1003.77 221.378 1004.8 221.15 1005.82 220.922L1006 222.668C1005.06 222.896 1004.11 223.118 1003.14 223.334C1002.18 223.562 1001.25 223.772 1000.35 223.964C999.458 224.168 998.642 224.36 997.898 224.54L997.304 222.74ZM999.788 218.816L1001.08 217.52L1001.73 217.682V222.938H999.788V218.816ZM1020.99 214.37H1023.12V222.236C1023.12 222.788 1023.04 223.214 1022.88 223.514C1022.74 223.826 1022.47 224.06 1022.07 224.216C1021.68 224.36 1021.19 224.45 1020.61 224.486C1020.04 224.534 1019.35 224.558 1018.56 224.558C1018.51 224.258 1018.42 223.91 1018.29 223.514C1018.16 223.13 1018.02 222.794 1017.88 222.506C1018.24 222.518 1018.6 222.53 1018.96 222.542C1019.33 222.554 1019.66 222.56 1019.95 222.56C1020.24 222.548 1020.43 222.542 1020.54 222.542C1020.71 222.542 1020.82 222.518 1020.88 222.47C1020.96 222.422 1020.99 222.332 1020.99 222.2V214.37ZM1016.74 216.674L1018.76 217.196C1018.5 217.916 1018.17 218.63 1017.79 219.338C1017.4 220.034 1017 220.688 1016.56 221.3C1016.13 221.912 1015.69 222.446 1015.25 222.902C1015.12 222.782 1014.94 222.65 1014.71 222.506C1014.49 222.362 1014.27 222.218 1014.04 222.074C1013.83 221.93 1013.64 221.822 1013.47 221.75C1014.14 221.138 1014.76 220.376 1015.34 219.464C1015.93 218.552 1016.4 217.622 1016.74 216.674ZM1025.15 217.376L1026.95 216.62C1027.37 217.184 1027.78 217.79 1028.17 218.438C1028.58 219.086 1028.95 219.728 1029.27 220.364C1029.61 220.988 1029.86 221.558 1030.03 222.074L1028.03 222.938C1027.9 222.446 1027.68 221.882 1027.36 221.246C1027.06 220.598 1026.72 219.938 1026.32 219.266C1025.94 218.582 1025.55 217.952 1025.15 217.376ZM1015.63 208.952H1028.37V210.878H1015.63V208.952ZM1014.01 213.308H1030.03V215.234H1014.01V213.308ZM1037.26 216.926H1048.28V218.456H1037.26V216.926ZM1038.72 220.184L1039.71 219.032C1040.01 219.2 1040.32 219.398 1040.65 219.626C1040.97 219.854 1041.28 220.082 1041.57 220.31C1041.87 220.526 1042.11 220.73 1042.29 220.922L1041.26 222.236C1041.08 222.032 1040.85 221.81 1040.56 221.57C1040.27 221.33 1039.96 221.09 1039.64 220.85C1039.33 220.598 1039.02 220.376 1038.72 220.184ZM1044.57 216.152L1045.53 215.288C1045.83 215.468 1046.14 215.684 1046.46 215.936C1046.79 216.176 1047.04 216.398 1047.22 216.602L1046.23 217.52C1046.06 217.316 1045.81 217.088 1045.49 216.836C1045.18 216.572 1044.87 216.344 1044.57 216.152ZM1038.51 217.7H1040.22C1040.14 218.612 1040.02 219.494 1039.84 220.346C1039.67 221.186 1039.39 221.966 1038.99 222.686C1038.6 223.394 1038.03 224.006 1037.3 224.522C1037.19 224.318 1037.03 224.09 1036.81 223.838C1036.6 223.586 1036.39 223.388 1036.2 223.244C1036.81 222.836 1037.28 222.338 1037.59 221.75C1037.9 221.162 1038.12 220.52 1038.24 219.824C1038.37 219.128 1038.46 218.42 1038.51 217.7ZM1041.64 207.764H1043.33C1043.29 209.444 1043.32 211.046 1043.4 212.57C1043.49 214.082 1043.61 215.474 1043.78 216.746C1043.96 218.006 1044.19 219.104 1044.46 220.04C1044.74 220.964 1045.06 221.678 1045.42 222.182C1045.79 222.686 1046.2 222.938 1046.66 222.938C1046.9 222.938 1047.07 222.818 1047.16 222.578C1047.26 222.338 1047.33 221.846 1047.38 221.102C1047.56 221.282 1047.77 221.45 1048.01 221.606C1048.25 221.75 1048.47 221.87 1048.66 221.966C1048.56 222.65 1048.43 223.178 1048.26 223.55C1048.11 223.922 1047.89 224.186 1047.61 224.342C1047.34 224.498 1046.98 224.576 1046.53 224.576C1045.77 224.576 1045.1 224.282 1044.54 223.694C1043.97 223.118 1043.5 222.308 1043.13 221.264C1042.76 220.208 1042.47 218.978 1042.25 217.574C1042.03 216.158 1041.88 214.622 1041.78 212.966C1041.69 211.298 1041.64 209.564 1041.64 207.764ZM1045.72 218.492L1047.34 219.104C1046.73 220.352 1045.89 221.438 1044.82 222.362C1043.76 223.274 1042.54 224 1041.17 224.54C1041.06 224.36 1040.9 224.144 1040.68 223.892C1040.48 223.652 1040.3 223.454 1040.14 223.298C1041.45 222.83 1042.59 222.182 1043.55 221.354C1044.52 220.526 1045.24 219.572 1045.72 218.492ZM1043.15 211.058L1043.89 210.014C1044.26 210.278 1044.64 210.59 1045.04 210.95C1045.45 211.31 1045.75 211.634 1045.96 211.922L1045.2 213.128C1045 212.828 1044.7 212.486 1044.3 212.102C1043.91 211.706 1043.52 211.358 1043.15 211.058ZM1046.52 213.182L1047.61 212.768C1047.85 213.188 1048.06 213.65 1048.24 214.154C1048.44 214.646 1048.56 215.072 1048.62 215.432L1047.43 215.936C1047.37 215.564 1047.26 215.12 1047.09 214.604C1046.92 214.088 1046.73 213.614 1046.52 213.182ZM1043.46 214.226C1044 214.202 1044.61 214.166 1045.31 214.118C1046.02 214.058 1046.75 213.998 1047.51 213.938L1047.54 215.18C1046.87 215.264 1046.21 215.348 1045.56 215.432C1044.93 215.504 1044.31 215.57 1043.73 215.63L1043.46 214.226ZM1045.17 207.872L1046.62 208.43C1046.35 208.934 1046.06 209.45 1045.76 209.978C1045.47 210.506 1045.2 210.95 1044.95 211.31L1043.91 210.842C1044.06 210.566 1044.22 210.26 1044.37 209.924C1044.53 209.576 1044.67 209.222 1044.81 208.862C1044.95 208.502 1045.07 208.172 1045.17 207.872ZM1046.68 209.762L1048.03 210.41C1047.7 210.926 1047.36 211.46 1046.98 212.012C1046.62 212.564 1046.26 213.098 1045.9 213.614C1045.54 214.13 1045.2 214.58 1044.86 214.964L1043.83 214.406C1044.16 213.998 1044.49 213.524 1044.84 212.984C1045.19 212.444 1045.53 211.892 1045.85 211.328C1046.17 210.764 1046.45 210.242 1046.68 209.762ZM1036.92 211.058L1037.64 210.014C1038.03 210.278 1038.42 210.59 1038.81 210.95C1039.22 211.31 1039.52 211.634 1039.71 211.922L1038.96 213.128C1038.76 212.828 1038.46 212.486 1038.06 212.102C1037.66 211.706 1037.28 211.358 1036.92 211.058ZM1040 213.362L1041.1 212.984C1041.31 213.416 1041.5 213.884 1041.66 214.388C1041.82 214.892 1041.93 215.318 1041.98 215.666L1040.79 216.134C1040.76 215.762 1040.66 215.318 1040.5 214.802C1040.36 214.286 1040.19 213.806 1040 213.362ZM1037.03 214.496C1037.57 214.46 1038.19 214.418 1038.9 214.37C1039.61 214.31 1040.35 214.25 1041.13 214.19L1041.15 215.522C1040.48 215.594 1039.81 215.666 1039.15 215.738C1038.49 215.81 1037.87 215.876 1037.28 215.936L1037.03 214.496ZM1038.94 207.872L1040.38 208.43C1040.09 208.934 1039.8 209.456 1039.51 209.996C1039.23 210.536 1038.96 210.992 1038.72 211.364L1037.68 210.896C1037.82 210.62 1037.97 210.308 1038.13 209.96C1038.28 209.6 1038.43 209.24 1038.58 208.88C1038.72 208.508 1038.84 208.172 1038.94 207.872ZM1040.43 209.762L1041.78 210.41C1041.45 210.938 1041.09 211.496 1040.7 212.084C1040.33 212.672 1039.95 213.236 1039.57 213.776C1039.18 214.304 1038.82 214.772 1038.49 215.18L1037.46 214.64C1037.8 214.208 1038.15 213.71 1038.51 213.146C1038.88 212.582 1039.23 212.006 1039.57 211.418C1039.92 210.818 1040.2 210.266 1040.43 209.762ZM1031.83 211.526H1037.32V213.308H1031.83V211.526ZM1033.86 207.746H1035.59V224.54H1033.86V207.746ZM1033.83 212.714L1034.85 213.074C1034.74 213.77 1034.6 214.502 1034.42 215.27C1034.25 216.026 1034.05 216.776 1033.83 217.52C1033.61 218.252 1033.37 218.936 1033.11 219.572C1032.84 220.208 1032.57 220.754 1032.28 221.21C1032.18 220.97 1032.05 220.694 1031.88 220.382C1031.71 220.07 1031.56 219.8 1031.43 219.572C1031.7 219.176 1031.95 218.714 1032.19 218.186C1032.43 217.646 1032.65 217.07 1032.85 216.458C1033.07 215.834 1033.26 215.204 1033.43 214.568C1033.6 213.92 1033.73 213.302 1033.83 212.714ZM1035.5 213.92C1035.6 214.04 1035.73 214.25 1035.91 214.55C1036.11 214.85 1036.32 215.18 1036.54 215.54C1036.77 215.9 1036.98 216.236 1037.16 216.548C1037.34 216.86 1037.46 217.082 1037.53 217.214L1036.6 218.564C1036.51 218.312 1036.39 218.006 1036.22 217.646C1036.06 217.274 1035.9 216.896 1035.72 216.512C1035.54 216.128 1035.36 215.768 1035.19 215.432C1035.03 215.096 1034.89 214.832 1034.78 214.64L1035.5 213.92ZM1052.4 207.692L1054.42 208.124C1054.2 208.652 1053.97 209.192 1053.72 209.744C1053.48 210.296 1053.23 210.818 1052.98 211.31C1052.73 211.802 1052.49 212.246 1052.26 212.642L1050.58 212.192C1050.81 211.784 1051.04 211.322 1051.27 210.806C1051.5 210.278 1051.71 209.744 1051.9 209.204C1052.1 208.652 1052.27 208.148 1052.4 207.692ZM1049.59 211.418C1050.24 211.394 1050.98 211.37 1051.81 211.346C1052.64 211.31 1053.51 211.268 1054.44 211.22C1055.36 211.172 1056.29 211.13 1057.23 211.094L1057.21 212.786C1056.32 212.846 1055.43 212.906 1054.54 212.966C1053.66 213.014 1052.8 213.068 1051.99 213.128C1051.17 213.176 1050.43 213.218 1049.76 213.254L1049.59 211.418ZM1050.67 214.226H1056.38V215.828H1052.46V224.54H1050.67V214.226ZM1055.48 214.226H1057.39V222.542C1057.39 222.974 1057.33 223.316 1057.23 223.568C1057.13 223.832 1056.93 224.042 1056.63 224.198C1056.34 224.342 1055.99 224.426 1055.57 224.45C1055.16 224.486 1054.69 224.504 1054.15 224.504C1054.1 224.252 1054.02 223.958 1053.9 223.622C1053.78 223.286 1053.65 223.004 1053.52 222.776C1053.87 222.788 1054.2 222.8 1054.51 222.812C1054.83 222.812 1055.05 222.806 1055.17 222.794C1055.29 222.794 1055.37 222.776 1055.41 222.74C1055.46 222.704 1055.48 222.626 1055.48 222.506V214.226ZM1051.48 216.944H1056.54V218.384H1051.48V216.944ZM1051.48 219.59H1056.54V221.048H1051.48V219.59ZM1058.88 207.8H1060.81V213.362C1060.81 213.674 1060.86 213.872 1060.95 213.956C1061.05 214.04 1061.28 214.082 1061.64 214.082C1061.72 214.082 1061.86 214.082 1062.05 214.082C1062.25 214.082 1062.48 214.082 1062.72 214.082C1062.96 214.082 1063.18 214.082 1063.4 214.082C1063.62 214.082 1063.77 214.082 1063.87 214.082C1064.07 214.082 1064.23 214.034 1064.34 213.938C1064.44 213.842 1064.52 213.662 1064.57 213.398C1064.62 213.122 1064.65 212.708 1064.68 212.156C1064.81 212.252 1064.97 212.354 1065.16 212.462C1065.37 212.558 1065.58 212.642 1065.79 212.714C1066.02 212.786 1066.22 212.84 1066.39 212.876C1066.33 213.644 1066.21 214.244 1066.05 214.676C1065.88 215.096 1065.63 215.39 1065.31 215.558C1065 215.726 1064.58 215.81 1064.05 215.81C1063.96 215.81 1063.83 215.81 1063.65 215.81C1063.47 215.81 1063.27 215.81 1063.04 215.81C1062.81 215.81 1062.58 215.81 1062.36 215.81C1062.14 215.81 1061.95 215.81 1061.78 215.81C1061.61 215.81 1061.49 215.81 1061.4 215.81C1060.73 215.81 1060.21 215.738 1059.84 215.594C1059.48 215.45 1059.22 215.204 1059.08 214.856C1058.95 214.496 1058.88 214.01 1058.88 213.398V207.8ZM1064.32 208.934L1065.54 210.356C1065.01 210.596 1064.44 210.836 1063.81 211.076C1063.19 211.316 1062.55 211.538 1061.91 211.742C1061.27 211.934 1060.65 212.114 1060.05 212.282C1060.02 212.102 1059.94 211.886 1059.82 211.634C1059.71 211.37 1059.6 211.142 1059.49 210.95C1060.07 210.77 1060.65 210.572 1061.24 210.356C1061.83 210.128 1062.39 209.894 1062.91 209.654C1063.45 209.402 1063.92 209.162 1064.32 208.934ZM1058.88 216.206H1060.79V222.002C1060.79 222.314 1060.84 222.512 1060.95 222.596C1061.06 222.68 1061.3 222.722 1061.67 222.722C1061.76 222.722 1061.9 222.722 1062.1 222.722C1062.31 222.722 1062.54 222.722 1062.79 222.722C1063.04 222.722 1063.27 222.722 1063.49 222.722C1063.72 222.722 1063.88 222.722 1063.98 222.722C1064.2 222.722 1064.37 222.668 1064.48 222.56C1064.6 222.452 1064.68 222.242 1064.73 221.93C1064.78 221.606 1064.82 221.132 1064.84 220.508C1065.06 220.652 1065.33 220.79 1065.67 220.922C1066 221.054 1066.3 221.15 1066.55 221.21C1066.49 222.05 1066.38 222.698 1066.21 223.154C1066.04 223.622 1065.79 223.946 1065.47 224.126C1065.16 224.318 1064.72 224.414 1064.16 224.414C1064.07 224.414 1063.93 224.414 1063.74 224.414C1063.56 224.414 1063.36 224.414 1063.13 224.414C1062.9 224.414 1062.67 224.414 1062.43 224.414C1062.2 224.414 1062 224.414 1061.82 224.414C1061.64 224.414 1061.5 224.414 1061.42 224.414C1060.75 224.414 1060.23 224.342 1059.85 224.198C1059.49 224.054 1059.24 223.808 1059.1 223.46C1058.95 223.112 1058.88 222.626 1058.88 222.002V216.206ZM1064.46 217.016L1065.74 218.438C1065.21 218.738 1064.62 219.02 1063.98 219.284C1063.33 219.536 1062.67 219.776 1062 220.004C1061.32 220.22 1060.67 220.418 1060.03 220.598C1059.99 220.418 1059.9 220.196 1059.78 219.932C1059.67 219.656 1059.57 219.428 1059.46 219.248C1060.06 219.056 1060.66 218.84 1061.28 218.6C1061.9 218.348 1062.49 218.09 1063.04 217.826C1063.59 217.55 1064.07 217.28 1064.46 217.016ZM1054.8 209.582L1056.42 208.97C1056.73 209.39 1057.03 209.852 1057.32 210.356C1057.6 210.848 1057.87 211.334 1058.11 211.814C1058.35 212.294 1058.53 212.732 1058.65 213.128L1056.9 213.83C1056.79 213.446 1056.63 213.014 1056.4 212.534C1056.18 212.042 1055.94 211.538 1055.66 211.022C1055.38 210.506 1055.1 210.026 1054.8 209.582Z" fill="#0E0F3B"/>
<rect x="457" y="81.9922" width="118" height="88" rx="19" fill="white" stroke="#FF8B13" stroke-width="2"/>
<path d="M492.618 109.688L494.67 110.282C493.914 112.454 492.936 114.332 491.736 115.916C490.548 117.5 489.126 118.838 487.47 119.93C485.826 121.022 483.924 121.91 481.764 122.594C481.692 122.426 481.584 122.228 481.44 122C481.296 121.772 481.14 121.538 480.972 121.298C480.816 121.058 480.672 120.866 480.54 120.722C482.628 120.146 484.458 119.378 486.03 118.418C487.602 117.458 488.934 116.258 490.026 114.818C491.118 113.378 491.982 111.668 492.618 109.688ZM485.31 109.814C485.934 111.638 486.792 113.276 487.884 114.728C488.976 116.168 490.32 117.392 491.916 118.4C493.524 119.408 495.396 120.158 497.532 120.65C497.388 120.794 497.226 120.98 497.046 121.208C496.866 121.448 496.692 121.688 496.524 121.928C496.368 122.168 496.242 122.378 496.146 122.558C493.902 121.982 491.964 121.136 490.332 120.02C488.712 118.904 487.338 117.542 486.21 115.934C485.082 114.326 484.14 112.478 483.384 110.39L485.31 109.814ZM480.828 108.662H497.262V110.552H480.828V108.662ZM487.992 105.746H489.99V109.814H487.992V105.746ZM498.81 119.066H515.19V120.614H498.81V119.066ZM505.938 117.5H507.972V122.54H505.938V117.5ZM502.68 115.862V116.852H511.266V115.862H502.68ZM502.68 113.666V114.638H511.266V113.666H502.68ZM500.79 112.37H513.228V118.148H500.79V112.37ZM500.016 107.024H514.056V108.536H500.016V107.024ZM498.864 110.048H515.136V111.578H498.864V110.048ZM505.938 105.746H507.972V108.086H505.938V105.746ZM509.646 108.194L511.698 108.572C511.506 108.944 511.314 109.298 511.122 109.634C510.942 109.97 510.774 110.264 510.618 110.516L508.8 110.156C508.896 109.964 508.998 109.754 509.106 109.526C509.214 109.298 509.316 109.07 509.412 108.842C509.508 108.602 509.586 108.386 509.646 108.194ZM502.464 108.626L504.318 108.284C504.51 108.56 504.684 108.872 504.84 109.22C505.008 109.556 505.122 109.856 505.182 110.12L503.238 110.534C503.19 110.27 503.094 109.958 502.95 109.598C502.806 109.238 502.644 108.914 502.464 108.626ZM516.774 115.538H533.244V117.104H516.774V115.538ZM517.134 106.43H532.812V108.104H517.134V106.43ZM522.84 113.756L524.73 114.242C524.346 114.878 523.926 115.538 523.47 116.222C523.014 116.906 522.564 117.566 522.12 118.202C521.676 118.838 521.268 119.402 520.896 119.894L519.042 119.3C519.414 118.82 519.828 118.262 520.284 117.626C520.74 116.99 521.19 116.336 521.634 115.664C522.09 114.98 522.492 114.344 522.84 113.756ZM528.096 116.114L529.968 116.6C529.536 117.632 528.972 118.502 528.276 119.21C527.58 119.918 526.734 120.5 525.738 120.956C524.754 121.4 523.602 121.748 522.282 122C520.974 122.252 519.48 122.444 517.8 122.576C517.74 122.288 517.644 121.988 517.512 121.676C517.38 121.376 517.236 121.118 517.08 120.902C519.132 120.806 520.89 120.608 522.354 120.308C523.818 119.996 525.018 119.51 525.954 118.85C526.902 118.178 527.616 117.266 528.096 116.114ZM520.194 119.354L521.184 117.968C522.6 118.244 524.01 118.556 525.414 118.904C526.83 119.252 528.162 119.612 529.41 119.984C530.67 120.356 531.75 120.71 532.65 121.046L531.498 122.612C530.61 122.252 529.566 121.88 528.366 121.496C527.166 121.112 525.87 120.734 524.478 120.362C523.086 119.99 521.658 119.654 520.194 119.354ZM521.922 107.078H523.74V113.27H521.922V107.078ZM526.026 107.078H527.862V113.27H526.026V107.078ZM519.798 110.804V112.712H530.256V110.804H519.798ZM517.98 109.274H532.182V114.224H517.98V109.274ZM542.982 113.774L544.53 113C544.854 113.42 545.172 113.876 545.484 114.368C545.808 114.848 546.096 115.328 546.348 115.808C546.6 116.276 546.792 116.702 546.924 117.086L545.25 117.968C545.13 117.584 544.95 117.152 544.71 116.672C544.47 116.18 544.2 115.682 543.9 115.178C543.6 114.674 543.294 114.206 542.982 113.774ZM543.432 108.86H550.002V110.696H543.432V108.86ZM549.192 108.86H551.046C551.046 108.86 551.046 108.92 551.046 109.04C551.046 109.16 551.046 109.292 551.046 109.436C551.046 109.58 551.04 109.694 551.028 109.778C550.968 111.77 550.902 113.462 550.83 114.854C550.758 116.246 550.674 117.398 550.578 118.31C550.482 119.21 550.368 119.918 550.236 120.434C550.104 120.938 549.948 121.31 549.768 121.55C549.528 121.862 549.276 122.078 549.012 122.198C548.76 122.33 548.448 122.42 548.076 122.468C547.764 122.516 547.35 122.534 546.834 122.522C546.318 122.522 545.796 122.516 545.268 122.504C545.256 122.216 545.19 121.886 545.07 121.514C544.95 121.154 544.8 120.836 544.62 120.56C545.196 120.608 545.73 120.638 546.222 120.65C546.714 120.662 547.074 120.668 547.302 120.668C547.482 120.668 547.632 120.65 547.752 120.614C547.872 120.566 547.98 120.482 548.076 120.362C548.232 120.206 548.364 119.888 548.472 119.408C548.592 118.928 548.694 118.25 548.778 117.374C548.862 116.498 548.934 115.394 548.994 114.062C549.066 112.718 549.132 111.116 549.192 109.256V108.86ZM543.702 105.728L545.7 106.178C545.448 107.054 545.142 107.918 544.782 108.77C544.434 109.622 544.05 110.42 543.63 111.164C543.21 111.896 542.772 112.538 542.316 113.09C542.184 112.97 542.01 112.838 541.794 112.694C541.59 112.55 541.374 112.406 541.146 112.262C540.93 112.118 540.744 112.004 540.588 111.92C541.056 111.428 541.482 110.858 541.866 110.21C542.262 109.55 542.616 108.836 542.928 108.068C543.24 107.3 543.498 106.52 543.702 105.728ZM537.33 105.764L539.04 106.376C538.8 106.832 538.548 107.3 538.284 107.78C538.02 108.26 537.762 108.728 537.51 109.184C537.258 109.628 537.012 110.012 536.772 110.336L535.458 109.796C535.686 109.436 535.914 109.022 536.142 108.554C536.37 108.086 536.586 107.606 536.79 107.114C537.006 106.622 537.186 106.172 537.33 105.764ZM539.49 107.87L541.128 108.554C540.696 109.238 540.222 109.958 539.706 110.714C539.19 111.458 538.668 112.178 538.14 112.874C537.624 113.558 537.132 114.158 536.664 114.674L535.494 114.062C535.842 113.666 536.196 113.21 536.556 112.694C536.928 112.178 537.288 111.644 537.636 111.092C537.996 110.528 538.332 109.97 538.644 109.418C538.968 108.866 539.25 108.35 539.49 107.87ZM534.54 109.886L535.458 108.572C535.782 108.848 536.112 109.154 536.448 109.49C536.784 109.814 537.09 110.138 537.366 110.462C537.654 110.786 537.876 111.086 538.032 111.362L537.042 112.856C536.886 112.568 536.67 112.25 536.394 111.902C536.13 111.554 535.83 111.206 535.494 110.858C535.17 110.498 534.852 110.174 534.54 109.886ZM539.004 112.154L540.39 111.56C540.642 111.956 540.882 112.382 541.11 112.838C541.338 113.294 541.536 113.738 541.704 114.17C541.884 114.602 542.016 114.992 542.1 115.34L540.624 116.024C540.54 115.676 540.414 115.28 540.246 114.836C540.09 114.392 539.904 113.936 539.688 113.468C539.472 113 539.244 112.562 539.004 112.154ZM534.522 113.72C535.35 113.696 536.34 113.66 537.492 113.612C538.644 113.564 539.826 113.51 541.038 113.45L541.02 114.98C539.892 115.064 538.77 115.142 537.654 115.214C536.55 115.286 535.554 115.352 534.666 115.412L534.522 113.72ZM539.364 116.618L540.786 116.15C541.038 116.69 541.272 117.284 541.488 117.932C541.716 118.568 541.878 119.114 541.974 119.57L540.444 120.11C540.36 119.642 540.216 119.084 540.012 118.436C539.808 117.776 539.592 117.17 539.364 116.618ZM535.35 116.24L536.952 116.528C536.856 117.392 536.706 118.244 536.502 119.084C536.31 119.912 536.082 120.614 535.818 121.19C535.698 121.118 535.548 121.04 535.368 120.956C535.188 120.86 535.002 120.77 534.81 120.686C534.63 120.59 534.468 120.518 534.324 120.47C534.6 119.93 534.816 119.282 534.972 118.526C535.14 117.77 535.266 117.008 535.35 116.24ZM537.438 114.548H539.148V122.576H537.438V114.548ZM489.403 146.992L493.741 133.69H496.513L500.833 146.992H498.331L496.315 139.918C496.099 139.21 495.895 138.484 495.703 137.74C495.511 136.996 495.313 136.264 495.109 135.544H495.037C494.857 136.276 494.665 137.014 494.461 137.758C494.257 138.49 494.053 139.21 493.849 139.918L491.815 146.992H489.403ZM491.959 143.392V141.538H498.241V143.392H491.959ZM502.505 146.992V133.69H504.881V146.992H502.505ZM514.589 140.53H516.533V142.384H514.589V140.53ZM514.553 142.096L516.047 142.762C515.591 143.17 515.063 143.554 514.463 143.914C513.875 144.274 513.233 144.604 512.537 144.904C511.853 145.192 511.145 145.45 510.413 145.678C509.681 145.894 508.943 146.068 508.199 146.2C508.091 145.996 507.935 145.756 507.731 145.48C507.539 145.192 507.353 144.964 507.173 144.796C507.869 144.688 508.571 144.55 509.279 144.382C509.999 144.214 510.689 144.016 511.349 143.788C512.009 143.56 512.609 143.302 513.149 143.014C513.701 142.726 514.169 142.42 514.553 142.096ZM516.695 142.024C517.235 143.392 518.111 144.502 519.323 145.354C520.535 146.194 522.089 146.758 523.985 147.046C523.793 147.226 523.595 147.472 523.391 147.784C523.199 148.096 523.043 148.366 522.923 148.594C521.555 148.33 520.367 147.922 519.359 147.37C518.363 146.83 517.517 146.146 516.821 145.318C516.125 144.49 515.555 143.506 515.111 142.366L516.695 142.024ZM521.591 142.924L522.977 143.95C522.413 144.334 521.795 144.706 521.123 145.066C520.451 145.414 519.833 145.708 519.269 145.948L518.099 144.994C518.471 144.826 518.873 144.622 519.305 144.382C519.737 144.142 520.151 143.896 520.547 143.644C520.955 143.392 521.303 143.152 521.591 142.924ZM509.549 146.812C510.173 146.74 510.887 146.65 511.691 146.542C512.507 146.434 513.365 146.32 514.265 146.2C515.165 146.068 516.071 145.942 516.983 145.822L517.055 147.334C515.783 147.514 514.505 147.7 513.221 147.892C511.949 148.084 510.827 148.252 509.855 148.396L509.549 146.812ZM507.479 141.52H523.661V143.05H507.479V141.52ZM517.289 132.466H519.017V138.496H517.289V132.466ZM521.231 131.908H522.995V139.198C522.995 139.63 522.941 139.96 522.833 140.188C522.725 140.416 522.521 140.596 522.221 140.728C521.909 140.848 521.531 140.926 521.087 140.962C520.643 140.986 520.109 140.998 519.485 140.998C519.449 140.758 519.371 140.494 519.251 140.206C519.143 139.918 519.029 139.666 518.909 139.45C519.329 139.462 519.731 139.474 520.115 139.486C520.511 139.486 520.775 139.48 520.907 139.468C521.039 139.468 521.123 139.45 521.159 139.414C521.207 139.366 521.231 139.288 521.231 139.18V131.908ZM511.241 131.746H512.897V140.998H511.241V131.746ZM514.553 137.074H516.119V139.162C516.119 139.474 516.083 139.714 516.011 139.882C515.939 140.05 515.795 140.188 515.579 140.296C515.363 140.392 515.111 140.452 514.823 140.476C514.535 140.488 514.193 140.494 513.797 140.494C513.761 140.302 513.695 140.104 513.599 139.9C513.503 139.696 513.413 139.516 513.329 139.36C513.557 139.372 513.767 139.378 513.959 139.378C514.151 139.378 514.283 139.372 514.355 139.36C514.487 139.36 514.553 139.3 514.553 139.18V137.074ZM508.217 137.074H515.219V138.262H509.675V140.566H508.217V137.074ZM507.425 135.022H516.479V136.336H507.425V135.022ZM509.369 132.952H515.957V134.212H508.865L509.369 132.952ZM508.901 131.782L510.359 132.142C510.167 132.694 509.927 133.24 509.639 133.78C509.363 134.32 509.075 134.782 508.775 135.166C508.631 135.046 508.427 134.914 508.163 134.77C507.899 134.626 507.671 134.506 507.479 134.41C507.791 134.074 508.067 133.672 508.307 133.204C508.559 132.724 508.757 132.25 508.901 131.782ZM511.367 144.868L512.375 143.86L513.221 144.148V147.64H511.367V144.868ZM530.285 134.32V137.02H536.855V134.32H530.285ZM528.413 132.484H538.835V138.856H528.413V132.484ZM525.893 140.494H532.643V148.432H530.717V142.33H527.729V148.558H525.893V140.494ZM534.299 140.494H541.319V148.468H539.375V142.33H536.135V148.558H534.299V140.494ZM526.703 145.768H531.509V147.622H526.703V145.768ZM535.181 145.768H540.311V147.622H535.181V145.768Z" fill="#0E0F3B"/>
<rect x="152" y="80.9922" width="90" height="90" rx="20" fill="#FBD656"/>
<path d="M191.118 109.688L193.17 110.282C192.414 112.454 191.436 114.332 190.236 115.916C189.048 117.5 187.626 118.838 185.97 119.93C184.326 121.022 182.424 121.91 180.264 122.594C180.192 122.426 180.084 122.228 179.94 122C179.796 121.772 179.64 121.538 179.472 121.298C179.316 121.058 179.172 120.866 179.04 120.722C181.128 120.146 182.958 119.378 184.53 118.418C186.102 117.458 187.434 116.258 188.526 114.818C189.618 113.378 190.482 111.668 191.118 109.688ZM183.81 109.814C184.434 111.638 185.292 113.276 186.384 114.728C187.476 116.168 188.82 117.392 190.416 118.4C192.024 119.408 193.896 120.158 196.032 120.65C195.888 120.794 195.726 120.98 195.546 121.208C195.366 121.448 195.192 121.688 195.024 121.928C194.868 122.168 194.742 122.378 194.646 122.558C192.402 121.982 190.464 121.136 188.832 120.02C187.212 118.904 185.838 117.542 184.71 115.934C183.582 114.326 182.64 112.478 181.884 110.39L183.81 109.814ZM179.328 108.662H195.762V110.552H179.328V108.662ZM186.492 105.746H188.49V109.814H186.492V105.746ZM197.31 119.066H213.69V120.614H197.31V119.066ZM204.438 117.5H206.472V122.54H204.438V117.5ZM201.18 115.862V116.852H209.766V115.862H201.18ZM201.18 113.666V114.638H209.766V113.666H201.18ZM199.29 112.37H211.728V118.148H199.29V112.37ZM198.516 107.024H212.556V108.536H198.516V107.024ZM197.364 110.048H213.636V111.578H197.364V110.048ZM204.438 105.746H206.472V108.086H204.438V105.746ZM208.146 108.194L210.198 108.572C210.006 108.944 209.814 109.298 209.622 109.634C209.442 109.97 209.274 110.264 209.118 110.516L207.3 110.156C207.396 109.964 207.498 109.754 207.606 109.526C207.714 109.298 207.816 109.07 207.912 108.842C208.008 108.602 208.086 108.386 208.146 108.194ZM200.964 108.626L202.818 108.284C203.01 108.56 203.184 108.872 203.34 109.22C203.508 109.556 203.622 109.856 203.682 110.12L201.738 110.534C201.69 110.27 201.594 109.958 201.45 109.598C201.306 109.238 201.144 108.914 200.964 108.626ZM190.132 146.992V133.69H192.508V146.992H190.132ZM195.88 146.992V133.69H203.908V135.688H198.256V139.45H203.08V141.448H198.256V146.992H195.88Z" fill="#0E0F3B"/>
<rect x="304" y="80.9922" width="90" height="90" rx="20" fill="#FBD656"/>
<path d="M322.864 121.464H339.154V123.228H322.864V121.464ZM324.916 127.494H329.686V128.952H324.916V127.494ZM324.916 130.302H329.686V131.742H324.916V130.302ZM332.602 124.74H334.384V132.138H332.602V124.74ZM329.002 124.56H330.874V133.596C330.874 134.016 330.82 134.352 330.712 134.604C330.616 134.856 330.418 135.048 330.118 135.18C329.83 135.324 329.482 135.414 329.074 135.45C328.666 135.486 328.174 135.504 327.598 135.504C327.55 135.264 327.466 134.982 327.346 134.658C327.226 134.334 327.106 134.064 326.986 133.848C327.346 133.86 327.694 133.872 328.03 133.884C328.366 133.884 328.588 133.878 328.696 133.866C328.816 133.854 328.894 133.83 328.93 133.794C328.978 133.746 329.002 133.668 329.002 133.56V124.56ZM336.22 124.236H338.128V133.38C338.128 133.872 338.062 134.25 337.93 134.514C337.81 134.79 337.582 135.006 337.246 135.162C336.922 135.306 336.514 135.396 336.022 135.432C335.542 135.48 334.972 135.498 334.312 135.486C334.264 135.234 334.174 134.928 334.042 134.568C333.91 134.22 333.772 133.92 333.628 133.668C334.108 133.68 334.558 133.692 334.978 133.704C335.398 133.704 335.686 133.698 335.842 133.686C335.986 133.686 336.082 133.662 336.13 133.614C336.19 133.566 336.22 133.482 336.22 133.362V124.236ZM325.42 119.376L327.256 118.728C327.58 119.088 327.904 119.49 328.228 119.934C328.564 120.378 328.81 120.774 328.966 121.122L327.022 121.824C326.89 121.488 326.668 121.092 326.356 120.636C326.056 120.168 325.744 119.748 325.42 119.376ZM334.672 118.692L336.76 119.322C336.412 119.886 336.046 120.45 335.662 121.014C335.278 121.566 334.924 122.046 334.6 122.454L332.872 121.842C333.088 121.554 333.304 121.23 333.52 120.87C333.748 120.498 333.964 120.126 334.168 119.754C334.372 119.37 334.54 119.016 334.672 118.692ZM323.89 124.56H329.56V126.198H325.708V135.45H323.89V124.56ZM343.006 118.782L344.914 119.016C344.746 120.372 344.524 121.692 344.248 122.976C343.972 124.248 343.636 125.436 343.24 126.54C342.844 127.644 342.37 128.616 341.818 129.456C341.722 129.336 341.584 129.186 341.404 129.006C341.224 128.814 341.038 128.628 340.846 128.448C340.666 128.268 340.504 128.124 340.36 128.016C340.864 127.308 341.284 126.468 341.62 125.496C341.968 124.512 342.25 123.45 342.466 122.31C342.694 121.17 342.874 119.994 343.006 118.782ZM343.708 121.716H346.894V123.354H343.078L343.708 121.716ZM346.39 121.716H346.714L347.056 121.662L348.208 121.86C348.052 124.308 347.722 126.42 347.218 128.196C346.714 129.972 346.036 131.466 345.184 132.678C344.332 133.89 343.288 134.88 342.052 135.648C341.908 135.396 341.722 135.114 341.494 134.802C341.278 134.502 341.068 134.262 340.864 134.082C341.944 133.494 342.868 132.654 343.636 131.562C344.416 130.458 345.034 129.114 345.49 127.53C345.958 125.934 346.258 124.122 346.39 122.094V121.716ZM343.672 124.002C343.996 125.598 344.404 126.948 344.896 128.052C345.388 129.156 345.946 130.062 346.57 130.77C347.206 131.466 347.896 132.006 348.64 132.39C349.396 132.762 350.194 133.02 351.034 133.164C351.874 133.308 352.75 133.38 353.662 133.38C353.842 133.38 354.1 133.38 354.436 133.38C354.772 133.38 355.138 133.38 355.534 133.38C355.942 133.38 356.326 133.38 356.686 133.38C357.046 133.38 357.328 133.374 357.532 133.362C357.436 133.506 357.34 133.692 357.244 133.92C357.148 134.148 357.064 134.376 356.992 134.604C356.92 134.844 356.866 135.054 356.83 135.234H356.254H353.554C352.498 135.234 351.49 135.144 350.53 134.964C349.57 134.796 348.664 134.49 347.812 134.046C346.96 133.602 346.18 132.978 345.472 132.174C344.764 131.37 344.134 130.338 343.582 129.078C343.042 127.806 342.598 126.264 342.25 124.452L343.672 124.002ZM349.468 119.988H351.25V123.408C351.25 124.032 351.226 124.722 351.178 125.478C351.13 126.222 351.04 126.978 350.908 127.746C350.776 128.514 350.584 129.264 350.332 129.996C350.08 130.728 349.75 131.4 349.342 132.012C349.234 131.904 349.084 131.784 348.892 131.652C348.7 131.52 348.502 131.394 348.298 131.274C348.106 131.154 347.938 131.064 347.794 131.004C348.31 130.26 348.682 129.444 348.91 128.556C349.15 127.656 349.3 126.756 349.36 125.856C349.432 124.956 349.468 124.134 349.468 123.39V119.988ZM350.35 119.988H354.184V121.626H350.35V119.988ZM353.032 119.988H354.724V129.762C354.724 130.062 354.736 130.248 354.76 130.32C354.796 130.392 354.868 130.428 354.976 130.428C355 130.428 355.042 130.428 355.102 130.428C355.174 130.428 355.246 130.428 355.318 130.428C355.39 130.428 355.438 130.428 355.462 130.428C355.57 130.428 355.642 130.32 355.678 130.104C355.726 129.876 355.756 129.426 355.768 128.754C355.948 128.874 356.176 128.994 356.452 129.114C356.728 129.222 356.974 129.306 357.19 129.366C357.13 130.266 356.98 130.89 356.74 131.238C356.512 131.586 356.14 131.76 355.624 131.76C355.552 131.76 355.45 131.76 355.318 131.76C355.198 131.76 355.072 131.76 354.94 131.76C354.82 131.76 354.712 131.76 354.616 131.76C354.184 131.76 353.854 131.7 353.626 131.58C353.398 131.46 353.242 131.256 353.158 130.968C353.074 130.668 353.032 130.26 353.032 129.744V119.988ZM367.054 124.434V126.198H372.85V124.434H367.054ZM367.054 121.176V122.904H372.85V121.176H367.054ZM365.308 119.538H374.686V127.836H365.308V119.538ZM365.164 129.546H374.902V131.292H365.164V129.546ZM363.868 133.218H375.496V134.982H363.868V133.218ZM358.702 119.826H364.57V121.626H358.702V119.826ZM358.864 125.028H364.282V126.81H358.864V125.028ZM358.486 131.868C359.002 131.736 359.584 131.574 360.232 131.382C360.88 131.19 361.558 130.98 362.266 130.752C362.986 130.524 363.706 130.296 364.426 130.068L364.75 131.904C363.754 132.24 362.746 132.582 361.726 132.93C360.706 133.266 359.776 133.572 358.936 133.848L358.486 131.868ZM360.754 120.546H362.59V131.634L360.754 131.94V120.546ZM369.16 120.24H370.798V127.062H370.978V134.046H368.998V127.062H369.16V120.24Z" fill="#0E0F3B"/>
<rect x="638" y="80.9922" width="90" height="90" rx="20" fill="#FBD656"/>
<path d="M665.436 126.18L667.164 126.72C666.78 127.428 666.306 128.106 665.742 128.754C665.19 129.402 664.596 129.996 663.96 130.536C663.324 131.076 662.676 131.544 662.016 131.94C661.932 131.82 661.812 131.67 661.656 131.49C661.5 131.31 661.338 131.13 661.17 130.95C661.014 130.758 660.87 130.608 660.738 130.5C661.686 130.02 662.58 129.402 663.42 128.646C664.272 127.89 664.944 127.068 665.436 126.18ZM665.634 118.692L667.308 119.556C666.84 120.12 666.342 120.684 665.814 121.248C665.298 121.812 664.824 122.292 664.392 122.688L663.06 121.932C663.348 121.644 663.648 121.314 663.96 120.942C664.284 120.57 664.59 120.186 664.878 119.79C665.178 119.394 665.43 119.028 665.634 118.692ZM669.018 120.042L670.746 120.996C670.122 121.656 669.438 122.34 668.694 123.048C667.95 123.756 667.2 124.434 666.444 125.082C665.7 125.73 664.992 126.294 664.32 126.774L663.042 125.928C663.546 125.556 664.068 125.13 664.608 124.65C665.148 124.17 665.682 123.666 666.21 123.138C666.75 122.61 667.26 122.082 667.74 121.554C668.22 121.026 668.646 120.522 669.018 120.042ZM661.422 121.932L662.574 120.69C663.018 120.966 663.48 121.278 663.96 121.626C664.452 121.974 664.914 122.328 665.346 122.688C665.778 123.048 666.12 123.384 666.372 123.696L665.148 125.082C664.908 124.782 664.578 124.446 664.158 124.074C663.738 123.69 663.288 123.312 662.808 122.94C662.34 122.568 661.878 122.232 661.422 121.932ZM668.82 123.966L670.314 123.156C670.686 123.552 671.052 123.984 671.412 124.452C671.772 124.92 672.108 125.388 672.42 125.856C672.732 126.312 672.972 126.726 673.14 127.098L671.52 128.016C671.364 127.656 671.142 127.242 670.854 126.774C670.566 126.294 670.242 125.814 669.882 125.334C669.534 124.842 669.18 124.386 668.82 123.966ZM660.972 125.388C661.848 125.388 662.856 125.382 663.996 125.37C665.136 125.346 666.348 125.322 667.632 125.298C668.928 125.274 670.212 125.25 671.484 125.226L671.412 126.774C670.188 126.822 668.958 126.87 667.722 126.918C666.486 126.954 665.304 126.99 664.176 127.026C663.048 127.05 662.034 127.074 661.134 127.098L660.972 125.388ZM664.644 129.096C665.148 129.924 665.814 130.668 666.642 131.328C667.482 131.976 668.448 132.522 669.54 132.966C670.644 133.41 671.844 133.74 673.14 133.956C673.008 134.088 672.864 134.25 672.708 134.442C672.564 134.646 672.426 134.844 672.294 135.036C672.174 135.24 672.072 135.426 671.988 135.594C670.632 135.318 669.39 134.904 668.262 134.352C667.146 133.812 666.156 133.146 665.292 132.354C664.428 131.562 663.696 130.644 663.096 129.6L664.644 129.096ZM665.094 128.106H670.08V129.564H663.798L665.094 128.106ZM669.468 128.106H669.828L670.152 128.034L671.358 128.592C670.95 129.588 670.416 130.47 669.756 131.238C669.108 132.006 668.358 132.678 667.506 133.254C666.666 133.818 665.748 134.292 664.752 134.676C663.768 135.072 662.736 135.39 661.656 135.63C661.572 135.39 661.44 135.108 661.26 134.784C661.08 134.46 660.906 134.196 660.738 133.992C661.722 133.812 662.664 133.566 663.564 133.254C664.476 132.93 665.316 132.534 666.084 132.066C666.864 131.598 667.542 131.058 668.118 130.446C668.706 129.834 669.156 129.144 669.468 128.376V128.106ZM659.964 122.562L661.656 123.192C661.272 123.912 660.816 124.638 660.288 125.37C659.76 126.09 659.196 126.774 658.596 127.422C658.008 128.058 657.42 128.616 656.832 129.096C656.784 128.952 656.694 128.772 656.562 128.556C656.442 128.328 656.316 128.1 656.184 127.872C656.052 127.644 655.926 127.458 655.806 127.314C656.334 126.93 656.85 126.486 657.354 125.982C657.87 125.478 658.35 124.932 658.794 124.344C659.25 123.756 659.64 123.162 659.964 122.562ZM659.604 118.746L661.314 119.43C660.954 119.946 660.534 120.474 660.054 121.014C659.574 121.542 659.07 122.052 658.542 122.544C658.026 123.024 657.516 123.444 657.012 123.804C656.928 123.672 656.826 123.522 656.706 123.354C656.586 123.186 656.46 123.018 656.328 122.85C656.196 122.67 656.082 122.52 655.986 122.4C656.43 122.088 656.88 121.728 657.336 121.32C657.804 120.9 658.236 120.468 658.632 120.024C659.028 119.58 659.352 119.154 659.604 118.746ZM658.434 126.306L660.054 124.668L660.234 124.758V135.594H658.434V126.306ZM676.506 118.782L678.414 119.016C678.246 120.372 678.024 121.692 677.748 122.976C677.472 124.248 677.136 125.436 676.74 126.54C676.344 127.644 675.87 128.616 675.318 129.456C675.222 129.336 675.084 129.186 674.904 129.006C674.724 128.814 674.538 128.628 674.346 128.448C674.166 128.268 674.004 128.124 673.86 128.016C674.364 127.308 674.784 126.468 675.12 125.496C675.468 124.512 675.75 123.45 675.966 122.31C676.194 121.17 676.374 119.994 676.506 118.782ZM677.208 121.716H680.394V123.354H676.578L677.208 121.716ZM679.89 121.716H680.214L680.556 121.662L681.708 121.86C681.552 124.308 681.222 126.42 680.718 128.196C680.214 129.972 679.536 131.466 678.684 132.678C677.832 133.89 676.788 134.88 675.552 135.648C675.408 135.396 675.222 135.114 674.994 134.802C674.778 134.502 674.568 134.262 674.364 134.082C675.444 133.494 676.368 132.654 677.136 131.562C677.916 130.458 678.534 129.114 678.99 127.53C679.458 125.934 679.758 124.122 679.89 122.094V121.716ZM677.172 124.002C677.496 125.598 677.904 126.948 678.396 128.052C678.888 129.156 679.446 130.062 680.07 130.77C680.706 131.466 681.396 132.006 682.14 132.39C682.896 132.762 683.694 133.02 684.534 133.164C685.374 133.308 686.25 133.38 687.162 133.38C687.342 133.38 687.6 133.38 687.936 133.38C688.272 133.38 688.638 133.38 689.034 133.38C689.442 133.38 689.826 133.38 690.186 133.38C690.546 133.38 690.828 133.374 691.032 133.362C690.936 133.506 690.84 133.692 690.744 133.92C690.648 134.148 690.564 134.376 690.492 134.604C690.42 134.844 690.366 135.054 690.33 135.234H689.754H687.054C685.998 135.234 684.99 135.144 684.03 134.964C683.07 134.796 682.164 134.49 681.312 134.046C680.46 133.602 679.68 132.978 678.972 132.174C678.264 131.37 677.634 130.338 677.082 129.078C676.542 127.806 676.098 126.264 675.75 124.452L677.172 124.002ZM682.968 119.988H684.75V123.408C684.75 124.032 684.726 124.722 684.678 125.478C684.63 126.222 684.54 126.978 684.408 127.746C684.276 128.514 684.084 129.264 683.832 129.996C683.58 130.728 683.25 131.4 682.842 132.012C682.734 131.904 682.584 131.784 682.392 131.652C682.2 131.52 682.002 131.394 681.798 131.274C681.606 131.154 681.438 131.064 681.294 131.004C681.81 130.26 682.182 129.444 682.41 128.556C682.65 127.656 682.8 126.756 682.86 125.856C682.932 124.956 682.968 124.134 682.968 123.39V119.988ZM683.85 119.988H687.684V121.626H683.85V119.988ZM686.532 119.988H688.224V129.762C688.224 130.062 688.236 130.248 688.26 130.32C688.296 130.392 688.368 130.428 688.476 130.428C688.5 130.428 688.542 130.428 688.602 130.428C688.674 130.428 688.746 130.428 688.818 130.428C688.89 130.428 688.938 130.428 688.962 130.428C689.07 130.428 689.142 130.32 689.178 130.104C689.226 129.876 689.256 129.426 689.268 128.754C689.448 128.874 689.676 128.994 689.952 129.114C690.228 129.222 690.474 129.306 690.69 129.366C690.63 130.266 690.48 130.89 690.24 131.238C690.012 131.586 689.64 131.76 689.124 131.76C689.052 131.76 688.95 131.76 688.818 131.76C688.698 131.76 688.572 131.76 688.44 131.76C688.32 131.76 688.212 131.76 688.116 131.76C687.684 131.76 687.354 131.7 687.126 131.58C686.898 131.46 686.742 131.256 686.658 130.968C686.574 130.668 686.532 130.26 686.532 129.744V119.988ZM700.554 124.434V126.198H706.35V124.434H700.554ZM700.554 121.176V122.904H706.35V121.176H700.554ZM698.808 119.538H708.186V127.836H698.808V119.538ZM698.664 129.546H708.402V131.292H698.664V129.546ZM697.368 133.218H708.996V134.982H697.368V133.218ZM692.202 119.826H698.07V121.626H692.202V119.826ZM692.364 125.028H697.782V126.81H692.364V125.028ZM691.986 131.868C692.502 131.736 693.084 131.574 693.732 131.382C694.38 131.19 695.058 130.98 695.766 130.752C696.486 130.524 697.206 130.296 697.926 130.068L698.25 131.904C697.254 132.24 696.246 132.582 695.226 132.93C694.206 133.266 693.276 133.572 692.436 133.848L691.986 131.868ZM694.254 120.546H696.09V131.634L694.254 131.94V120.546ZM702.66 120.24H704.298V127.062H704.478V134.046H702.498V127.062H702.66V120.24Z" fill="#0E0F3B"/>
<rect x="790" y="80.9922" width="90" height="90" rx="20" fill="#FBD656"/>
<path d="M829.118 109.688L831.17 110.282C830.414 112.454 829.436 114.332 828.236 115.916C827.048 117.5 825.626 118.838 823.97 119.93C822.326 121.022 820.424 121.91 818.264 122.594C818.192 122.426 818.084 122.228 817.94 122C817.796 121.772 817.64 121.538 817.472 121.298C817.316 121.058 817.172 120.866 817.04 120.722C819.128 120.146 820.958 119.378 822.53 118.418C824.102 117.458 825.434 116.258 826.526 114.818C827.618 113.378 828.482 111.668 829.118 109.688ZM821.81 109.814C822.434 111.638 823.292 113.276 824.384 114.728C825.476 116.168 826.82 117.392 828.416 118.4C830.024 119.408 831.896 120.158 834.032 120.65C833.888 120.794 833.726 120.98 833.546 121.208C833.366 121.448 833.192 121.688 833.024 121.928C832.868 122.168 832.742 122.378 832.646 122.558C830.402 121.982 828.464 121.136 826.832 120.02C825.212 118.904 823.838 117.542 822.71 115.934C821.582 114.326 820.64 112.478 819.884 110.39L821.81 109.814ZM817.328 108.662H833.762V110.552H817.328V108.662ZM824.492 105.746H826.49V109.814H824.492V105.746ZM835.31 119.066H851.69V120.614H835.31V119.066ZM842.438 117.5H844.472V122.54H842.438V117.5ZM839.18 115.862V116.852H847.766V115.862H839.18ZM839.18 113.666V114.638H847.766V113.666H839.18ZM837.29 112.37H849.728V118.148H837.29V112.37ZM836.516 107.024H850.556V108.536H836.516V107.024ZM835.364 110.048H851.636V111.578H835.364V110.048ZM842.438 105.746H844.472V108.086H842.438V105.746ZM846.146 108.194L848.198 108.572C848.006 108.944 847.814 109.298 847.622 109.634C847.442 109.97 847.274 110.264 847.118 110.516L845.3 110.156C845.396 109.964 845.498 109.754 845.606 109.526C845.714 109.298 845.816 109.07 845.912 108.842C846.008 108.602 846.086 108.386 846.146 108.194ZM838.964 108.626L840.818 108.284C841.01 108.56 841.184 108.872 841.34 109.22C841.508 109.556 841.622 109.856 841.682 110.12L839.738 110.534C839.69 110.27 839.594 109.958 839.45 109.598C839.306 109.238 839.144 108.914 838.964 108.626ZM828.132 146.992V133.69H830.508V146.992H828.132ZM833.88 146.992V133.69H841.908V135.688H836.256V139.45H841.08V141.448H836.256V146.992H833.88Z" fill="#0E0F3B"/>
<rect x="1" y="8.99219" width="88" height="88" rx="19" fill="white" stroke="#2EB9E6" stroke-width="2"/>
<path d="M30.2775 47.9922L34.6155 34.6902H37.3875L41.7075 47.9922H39.2055L37.1895 40.9182C36.9735 40.2102 36.7695 39.4842 36.5775 38.7402C36.3855 37.9962 36.1875 37.2642 35.9835 36.5442H35.9115C35.7315 37.2762 35.5395 38.0142 35.3355 38.7582C35.1315 39.4902 34.9275 40.2102 34.7235 40.9182L32.6895 47.9922H30.2775ZM32.8335 44.3922V42.5382H39.1155V44.3922H32.8335ZM49.0305 47.1462H59.2725V49.0362H49.0305V47.1462ZM49.7685 38.4162H58.8585V40.2702H49.7685V38.4162ZM53.3145 32.9082H55.3125V48.0642H53.3145V32.9082ZM42.6225 36.0942H48.5445V37.8582H42.6225V36.0942ZM45.2685 42.0342L47.1945 39.7482V49.5582H45.2685V42.0342ZM45.2685 32.7642H47.1945V36.9222H45.2685V32.7642ZM46.9965 40.2882C47.1525 40.3962 47.3805 40.5762 47.6805 40.8282C47.9805 41.0682 48.2985 41.3382 48.6345 41.6382C48.9705 41.9262 49.2765 42.1962 49.5525 42.4482C49.8405 42.6882 50.0445 42.8682 50.1645 42.9882L48.9945 44.5542C48.8265 44.3382 48.6105 44.0802 48.3465 43.7802C48.0825 43.4682 47.8005 43.1562 47.5005 42.8442C47.2005 42.5202 46.9125 42.2202 46.6365 41.9442C46.3605 41.6562 46.1265 41.4222 45.9345 41.2422L46.9965 40.2882ZM47.8425 36.0942H48.2205L48.5625 36.0222L49.6425 36.7422C49.1865 37.8942 48.5985 38.9922 47.8785 40.0362C47.1705 41.0802 46.3845 42.0282 45.5205 42.8802C44.6565 43.7202 43.7805 44.4162 42.8925 44.9682C42.8325 44.7882 42.7485 44.5842 42.6405 44.3562C42.5325 44.1162 42.4185 43.8882 42.2985 43.6722C42.1785 43.4562 42.0645 43.2822 41.9565 43.1502C42.7845 42.7062 43.5825 42.1302 44.3505 41.4222C45.1185 40.7142 45.8085 39.9342 46.4205 39.0822C47.0325 38.2182 47.5065 37.3422 47.8425 36.4542V36.0942ZM39.618 62.6882L41.67 63.2822C40.914 65.4542 39.936 67.3322 38.736 68.9162C37.548 70.5002 36.126 71.8382 34.47 72.9302C32.826 74.0222 30.924 74.9102 28.764 75.5942C28.692 75.4262 28.584 75.2282 28.44 75.0002C28.296 74.7722 28.14 74.5382 27.972 74.2982C27.816 74.0582 27.672 73.8662 27.54 73.7222C29.628 73.1462 31.458 72.3782 33.03 71.4182C34.602 70.4582 35.934 69.2582 37.026 67.8182C38.118 66.3782 38.982 64.6682 39.618 62.6882ZM32.31 62.8142C32.934 64.6382 33.792 66.2762 34.884 67.7282C35.976 69.1682 37.32 70.3922 38.916 71.4002C40.524 72.4082 42.396 73.1582 44.532 73.6502C44.388 73.7942 44.226 73.9802 44.046 74.2082C43.866 74.4482 43.692 74.6882 43.524 74.9282C43.368 75.1682 43.242 75.3782 43.146 75.5582C40.902 74.9822 38.964 74.1362 37.332 73.0202C35.712 71.9042 34.338 70.5422 33.21 68.9342C32.082 67.3262 31.14 65.4782 30.384 63.3902L32.31 62.8142ZM27.828 61.6622H44.262V63.5522H27.828V61.6622ZM34.992 58.7462H36.99V62.8142H34.992V58.7462ZM45.81 72.0662H62.19V73.6142H45.81V72.0662ZM52.938 70.5002H54.972V75.5402H52.938V70.5002ZM49.68 68.8622V69.8522H58.266V68.8622H49.68ZM49.68 66.6662V67.6382H58.266V66.6662H49.68ZM47.79 65.3702H60.228V71.1482H47.79V65.3702ZM47.016 60.0242H61.056V61.5362H47.016V60.0242ZM45.864 63.0482H62.136V64.5782H45.864V63.0482ZM52.938 58.7462H54.972V61.0862H52.938V58.7462ZM56.646 61.1942L58.698 61.5722C58.506 61.9442 58.314 62.2982 58.122 62.6342C57.942 62.9702 57.774 63.2642 57.618 63.5162L55.8 63.1562C55.896 62.9642 55.998 62.7542 56.106 62.5262C56.214 62.2982 56.316 62.0702 56.412 61.8422C56.508 61.6022 56.586 61.3862 56.646 61.1942ZM49.464 61.6262L51.318 61.2842C51.51 61.5602 51.684 61.8722 51.84 62.2202C52.008 62.5562 52.122 62.8562 52.182 63.1202L50.238 63.5342C50.19 63.2702 50.094 62.9582 49.95 62.5982C49.806 62.2382 49.644 61.9142 49.464 61.6262Z" fill="#0E0F3B"/>
<rect x="1" y="154.992" width="88" height="88" rx="19" fill="white" stroke="#2EB9E6" stroke-width="2"/>
<path d="M30.768 193.992L34.548 187.134L31.002 180.69H33.63L35.106 183.624C35.274 183.936 35.43 184.254 35.574 184.578C35.73 184.902 35.91 185.268 36.114 185.676H36.186C36.354 185.268 36.51 184.902 36.654 184.578C36.798 184.254 36.942 183.936 37.086 183.624L38.49 180.69H40.992L37.464 187.242L41.244 193.992H38.616L36.996 190.86C36.828 190.524 36.654 190.182 36.474 189.834C36.306 189.474 36.12 189.09 35.916 188.682H35.844C35.664 189.09 35.49 189.474 35.322 189.834C35.166 190.182 35.01 190.524 34.854 190.86L33.288 193.992H30.768ZM48.846 193.146H59.088V195.036H48.846V193.146ZM49.584 184.416H58.674V186.27H49.584V184.416ZM53.13 178.908H55.128V194.064H53.13V178.908ZM42.438 182.094H48.36V183.858H42.438V182.094ZM45.084 188.034L47.01 185.748V195.558H45.084V188.034ZM45.084 178.764H47.01V182.922H45.084V178.764ZM46.812 186.288C46.968 186.396 47.196 186.576 47.496 186.828C47.796 187.068 48.114 187.338 48.45 187.638C48.786 187.926 49.092 188.196 49.368 188.448C49.656 188.688 49.86 188.868 49.98 188.988L48.81 190.554C48.642 190.338 48.426 190.08 48.162 189.78C47.898 189.468 47.616 189.156 47.316 188.844C47.016 188.52 46.728 188.22 46.452 187.944C46.176 187.656 45.942 187.422 45.75 187.242L46.812 186.288ZM47.658 182.094H48.036L48.378 182.022L49.458 182.742C49.002 183.894 48.414 184.992 47.694 186.036C46.986 187.08 46.2 188.028 45.336 188.88C44.472 189.72 43.596 190.416 42.708 190.968C42.648 190.788 42.564 190.584 42.456 190.356C42.348 190.116 42.234 189.888 42.114 189.672C41.994 189.456 41.88 189.282 41.772 189.15C42.6 188.706 43.398 188.13 44.166 187.422C44.934 186.714 45.624 185.934 46.236 185.082C46.848 184.218 47.322 183.342 47.658 182.454V182.094ZM39.618 208.688L41.67 209.282C40.914 211.454 39.936 213.332 38.736 214.916C37.548 216.5 36.126 217.838 34.47 218.93C32.826 220.022 30.924 220.91 28.764 221.594C28.692 221.426 28.584 221.228 28.44 221C28.296 220.772 28.14 220.538 27.972 220.298C27.816 220.058 27.672 219.866 27.54 219.722C29.628 219.146 31.458 218.378 33.03 217.418C34.602 216.458 35.934 215.258 37.026 213.818C38.118 212.378 38.982 210.668 39.618 208.688ZM32.31 208.814C32.934 210.638 33.792 212.276 34.884 213.728C35.976 215.168 37.32 216.392 38.916 217.4C40.524 218.408 42.396 219.158 44.532 219.65C44.388 219.794 44.226 219.98 44.046 220.208C43.866 220.448 43.692 220.688 43.524 220.928C43.368 221.168 43.242 221.378 43.146 221.558C40.902 220.982 38.964 220.136 37.332 219.02C35.712 217.904 34.338 216.542 33.21 214.934C32.082 213.326 31.14 211.478 30.384 209.39L32.31 208.814ZM27.828 207.662H44.262V209.552H27.828V207.662ZM34.992 204.746H36.99V208.814H34.992V204.746ZM45.81 218.066H62.19V219.614H45.81V218.066ZM52.938 216.5H54.972V221.54H52.938V216.5ZM49.68 214.862V215.852H58.266V214.862H49.68ZM49.68 212.666V213.638H58.266V212.666H49.68ZM47.79 211.37H60.228V217.148H47.79V211.37ZM47.016 206.024H61.056V207.536H47.016V206.024ZM45.864 209.048H62.136V210.578H45.864V209.048ZM52.938 204.746H54.972V207.086H52.938V204.746ZM56.646 207.194L58.698 207.572C58.506 207.944 58.314 208.298 58.122 208.634C57.942 208.97 57.774 209.264 57.618 209.516L55.8 209.156C55.896 208.964 55.998 208.754 56.106 208.526C56.214 208.298 56.316 208.07 56.412 207.842C56.508 207.602 56.586 207.386 56.646 207.194ZM49.464 207.626L51.318 207.284C51.51 207.56 51.684 207.872 51.84 208.22C52.008 208.556 52.122 208.856 52.182 209.12L50.238 209.534C50.19 209.27 50.094 208.958 49.95 208.598C49.806 208.238 49.644 207.914 49.464 207.626Z" fill="#0E0F3B"/>
<path fill-rule="evenodd" clip-rule="evenodd" d="M112 101.992L106 107.992L124 125.992L106 143.992L112 149.992L136 125.992L112 101.992Z" fill="#07407B"/>
<path fill-rule="evenodd" clip-rule="evenodd" d="M264 101.992L258 107.992L276 125.992L258 143.992L264 149.992L288 125.992L264 101.992Z" fill="#07407B"/>
<path fill-rule="evenodd" clip-rule="evenodd" d="M416 101.992L410 107.992L428 125.992L410 143.992L416 149.992L440 125.992L416 101.992Z" fill="#07407B"/>
<path fill-rule="evenodd" clip-rule="evenodd" d="M598 101.992L592 107.992L610 125.992L592 143.992L598 149.992L622 125.992L598 101.992Z" fill="#07407B"/>
<path fill-rule="evenodd" clip-rule="evenodd" d="M750 101.992L744 107.992L762 125.992L744 143.992L750 149.992L774 125.992L750 101.992Z" fill="#07407B"/>
<path fill-rule="evenodd" clip-rule="evenodd" d="M902 101.992L896 107.992L914 125.992L896 143.992L902 149.992L926 125.992L902 101.992Z" fill="#07407B"/>
</svg>
