<svg width="431" height="412" viewBox="0 0 431 412" fill="none" xmlns="http://www.w3.org/2000/svg">
<g clip-path="url(#clip0_5024_12482)">
<path d="M165.936 312.489L187.413 242.99L132.701 202.248H200L219.895 137.889L242.324 202.248H307.088L256.174 242.004L280.729 312.466L221.965 268.711L165.936 312.489ZM229.15 263.128L263.015 288.34L248.867 247.731L229.15 263.128ZM194.886 248.562L182.597 288.329L214.658 263.283L194.886 248.562ZM197.642 239.656L221.843 257.678L245.811 238.969L236.08 211.054H206.477L197.642 239.656ZM159.216 211.054L190.158 234.095L197.277 211.054H159.216ZM245.38 211.054L253.118 233.264L281.548 211.054H245.38ZM233.013 202.259L220.393 166.025L209.2 202.259H233.013Z" fill="#E6E1E6"/>
<path d="M162.371 312.489L183.848 242.99L129.137 202.248H196.436L216.33 137.889L238.76 202.248H303.524L252.609 242.004L277.164 312.466L218.4 268.711L162.371 312.489ZM225.596 263.128L259.462 288.34L245.313 247.731L225.596 263.128ZM191.321 248.562L179.033 288.329L211.094 263.283L191.321 248.562ZM194.078 239.656L218.279 257.678L242.247 238.969L232.516 211.054H202.912L194.078 239.656ZM155.662 211.054L186.605 234.095L193.724 211.054H155.662ZM241.826 211.054L249.565 233.264L277.994 211.054H241.826ZM229.46 202.259L216.839 166.025L205.647 202.259H229.46Z" fill="#FF8B13"/>
<path d="M361.433 242.991C361.555 242.98 361.688 242.958 361.81 242.936C361.6 242.958 361.4 242.991 361.189 243.013C361.278 243.013 361.356 243.002 361.433 242.991Z" fill="#09909F"/>
<path d="M354.182 243.411C354.448 243.411 354.714 243.4 354.991 243.4C354.725 243.4 354.459 243.389 354.193 243.389L354.182 243.411Z" fill="#09909F"/>
<path d="M407.357 203.666C407.312 203.779 407.278 203.915 407.244 204.04C407.278 203.904 407.323 203.791 407.357 203.666Z" fill="white"/>
<path d="M407.357 203.666C407.312 203.779 407.278 203.915 407.244 204.04C407.278 203.904 407.323 203.791 407.357 203.666Z" fill="#CCCCCC"/>
<path d="M398.454 221.611C398.022 222.187 397.568 222.763 397.104 223.328C397.557 222.763 398.011 222.198 398.454 221.611Z" fill="white"/>
<path d="M398.454 221.611C398.022 222.187 397.568 222.763 397.104 223.328C397.557 222.763 398.011 222.198 398.454 221.611Z" fill="#CCCCCC"/>
<path d="M396.816 223.672C395.543 225.201 394.204 226.641 392.809 227.992C394.237 226.618 395.565 225.178 396.816 223.672Z" fill="white"/>
<path d="M396.816 223.672C395.543 225.201 394.204 226.641 392.809 227.992C394.237 226.618 395.565 225.178 396.816 223.672Z" fill="#CCCCCC"/>
<path d="M392.598 228.201C391.978 228.799 391.347 229.375 390.705 229.929C391.347 229.364 391.978 228.788 392.598 228.201Z" fill="white"/>
<path d="M392.598 228.201C391.978 228.799 391.347 229.375 390.705 229.929C391.347 229.364 391.978 228.788 392.598 228.201Z" fill="#CCCCCC"/>
<path d="M390.329 230.252C389.609 230.872 388.878 231.47 388.137 232.046C388.89 231.47 389.609 230.872 390.329 230.252Z" fill="white"/>
<path d="M390.329 230.252C389.609 230.872 388.878 231.47 388.137 232.046C388.89 231.47 389.609 230.872 390.329 230.252Z" fill="#CCCCCC"/>
<path d="M400.158 219.23C399.682 219.928 399.195 220.626 398.686 221.313C399.184 220.626 399.682 219.928 400.158 219.23Z" fill="white"/>
<path d="M400.158 219.23C399.682 219.928 399.195 220.626 398.686 221.313C399.184 220.626 399.682 219.928 400.158 219.23Z" fill="#CCCCCC"/>
<path d="M382.639 235.78C382.651 235.769 382.662 235.758 382.684 235.758C382.605 235.803 382.515 235.848 382.436 235.894C382.503 235.86 382.571 235.826 382.639 235.78Z" fill="white"/>
<path d="M382.639 235.78C382.651 235.769 382.662 235.758 382.684 235.758C382.605 235.803 382.515 235.848 382.436 235.894C382.503 235.86 382.571 235.826 382.639 235.78Z" fill="#CCCCCC"/>
<path d="M392.742 188.557C392.742 207.776 378.35 223.639 359.762 225.921L354.193 243.378C354.459 243.378 354.725 243.389 354.99 243.389C355.909 243.389 356.839 243.367 357.769 243.323C357.858 243.323 357.957 243.312 358.046 243.301C359.098 243.245 360.149 243.146 361.212 243.013C361.423 242.991 361.622 242.957 361.832 242.935C362.463 242.858 363.094 242.758 363.736 242.658C363.914 242.625 364.091 242.603 364.257 242.57C364.921 242.448 365.596 242.326 366.261 242.182C366.416 242.149 366.582 242.116 366.737 242.082C367.401 241.938 368.065 241.772 368.718 241.606C368.906 241.562 369.084 241.506 369.272 241.451C369.892 241.285 370.501 241.107 371.121 240.908C371.375 240.831 371.619 240.742 371.873 240.664C372.405 240.487 372.936 240.31 373.468 240.122C373.822 239.989 374.176 239.856 374.53 239.723C374.951 239.557 375.372 239.402 375.781 239.224C376.268 239.025 376.745 238.803 377.221 238.593C377.508 238.46 377.796 238.338 378.084 238.205C378.693 237.917 379.302 237.607 379.911 237.297C380.066 237.219 380.232 237.142 380.387 237.053C381.084 236.688 381.782 236.3 382.457 235.89C382.535 235.846 382.623 235.801 382.701 235.757C383.42 235.325 384.129 234.882 384.837 234.428C384.893 234.395 384.937 234.361 384.992 234.328C385.579 233.94 386.155 233.531 386.73 233.121C386.896 232.999 387.074 232.888 387.24 232.766C387.55 232.534 387.86 232.29 388.17 232.057C388.911 231.481 389.642 230.883 390.362 230.263C390.483 230.152 390.605 230.052 390.727 229.942C391.369 229.377 392 228.801 392.62 228.214C392.686 228.147 392.764 228.081 392.83 228.014C394.225 226.663 395.565 225.223 396.838 223.694C396.938 223.583 397.026 223.461 397.126 223.351C397.591 222.786 398.034 222.21 398.476 221.634C398.554 221.534 398.631 221.434 398.709 221.323C399.218 220.637 399.705 219.95 400.181 219.241C400.237 219.163 400.281 219.086 400.336 218.997C400.746 218.388 401.133 217.768 401.51 217.147C401.676 216.881 401.831 216.605 401.986 216.339C402.241 215.907 402.495 215.464 402.739 215.021C402.971 214.6 403.193 214.179 403.403 213.747C403.558 213.448 403.713 213.148 403.868 212.838C404.134 212.307 404.377 211.775 404.621 211.232C404.72 211.022 404.82 210.8 404.909 210.59C405.174 209.991 405.418 209.382 405.65 208.784C405.717 208.618 405.783 208.441 405.85 208.274C406.093 207.643 406.315 207.023 406.525 206.391C406.58 206.214 406.647 206.048 406.702 205.871C406.901 205.261 407.09 204.652 407.267 204.043C407.3 203.921 407.333 203.799 407.377 203.666L389.808 173.957C391.701 178.454 392.742 183.384 392.742 188.557Z" fill="#09909F"/>
<path d="M392.742 188.557C392.742 207.776 378.35 223.639 359.762 225.921L354.193 243.378C354.459 243.378 354.725 243.389 354.99 243.389C355.909 243.389 356.839 243.367 357.769 243.323C357.858 243.323 357.957 243.312 358.046 243.301C359.098 243.245 360.149 243.146 361.212 243.013C361.423 242.991 361.622 242.957 361.832 242.935C362.463 242.858 363.094 242.758 363.736 242.658C363.914 242.625 364.091 242.603 364.257 242.57C364.921 242.448 365.596 242.326 366.261 242.182C366.416 242.149 366.582 242.116 366.737 242.082C367.401 241.938 368.065 241.772 368.718 241.606C368.906 241.562 369.084 241.506 369.272 241.451C369.892 241.285 370.501 241.107 371.121 240.908C371.375 240.831 371.619 240.742 371.873 240.664C372.405 240.487 372.936 240.31 373.468 240.122C373.822 239.989 374.176 239.856 374.53 239.723C374.951 239.557 375.372 239.402 375.781 239.224C376.268 239.025 376.745 238.803 377.221 238.593C377.508 238.46 377.796 238.338 378.084 238.205C378.693 237.917 379.302 237.607 379.911 237.297C380.066 237.219 380.232 237.142 380.387 237.053C381.084 236.688 381.782 236.3 382.457 235.89C382.535 235.846 382.623 235.801 382.701 235.757C383.42 235.325 384.129 234.882 384.837 234.428C384.893 234.395 384.937 234.361 384.992 234.328C385.579 233.94 386.155 233.531 386.73 233.121C386.896 232.999 387.074 232.888 387.24 232.766C387.55 232.534 387.86 232.29 388.17 232.057C388.911 231.481 389.642 230.883 390.362 230.263C390.483 230.152 390.605 230.052 390.727 229.942C391.369 229.377 392 228.801 392.62 228.214C392.686 228.147 392.764 228.081 392.83 228.014C394.225 226.663 395.565 225.223 396.838 223.694C396.938 223.583 397.026 223.461 397.126 223.351C397.591 222.786 398.034 222.21 398.476 221.634C398.554 221.534 398.631 221.434 398.709 221.323C399.218 220.637 399.705 219.95 400.181 219.241C400.237 219.163 400.281 219.086 400.336 218.997C400.746 218.388 401.133 217.768 401.51 217.147C401.676 216.881 401.831 216.605 401.986 216.339C402.241 215.907 402.495 215.464 402.739 215.021C402.971 214.6 403.193 214.179 403.403 213.747C403.558 213.448 403.713 213.148 403.868 212.838C404.134 212.307 404.377 211.775 404.621 211.232C404.72 211.022 404.82 210.8 404.909 210.59C405.174 209.991 405.418 209.382 405.65 208.784C405.717 208.618 405.783 208.441 405.85 208.274C406.093 207.643 406.315 207.023 406.525 206.391C406.58 206.214 406.647 206.048 406.702 205.871C406.901 205.261 407.09 204.652 407.267 204.043C407.3 203.921 407.333 203.799 407.377 203.666L389.808 173.957C391.701 178.454 392.742 183.384 392.742 188.557Z" fill="#6789A4"/>
<path d="M398.691 221.301C398.612 221.403 398.532 221.516 398.453 221.618C398.532 221.516 398.612 221.414 398.691 221.301Z" fill="#09909F"/>
<path d="M398.691 221.301C398.612 221.403 398.532 221.516 398.453 221.618C398.532 221.516 398.612 221.414 398.691 221.301Z" fill="#CCCCCC"/>
<path d="M390.701 229.93C390.577 230.043 390.453 230.145 390.328 230.258C390.453 230.156 390.577 230.043 390.701 229.93Z" fill="#09909F"/>
<path d="M390.701 229.93C390.577 230.043 390.453 230.145 390.328 230.258C390.453 230.156 390.577 230.043 390.701 229.93Z" fill="#CCCCCC"/>
<path d="M396.963 223.509C397.009 223.453 397.054 223.385 397.111 223.328C397.02 223.441 396.918 223.566 396.816 223.679C396.862 223.622 396.918 223.577 396.963 223.509Z" fill="#09909F"/>
<path d="M396.963 223.509C397.009 223.453 397.054 223.385 397.111 223.328C397.02 223.441 396.918 223.566 396.816 223.679C396.862 223.622 396.918 223.577 396.963 223.509Z" fill="#CCCCCC"/>
<path d="M321.856 206.125L321.801 206.158L333.248 225.887L335.019 220.359C329.495 216.848 324.934 211.952 321.856 206.125Z" fill="#09909F"/>
<path d="M321.856 206.125L321.801 206.158L333.248 225.887L335.019 220.359C329.495 216.848 324.934 211.952 321.856 206.125Z" fill="#6789A4"/>
<path d="M389.808 173.957C384.106 160.432 370.733 150.928 355.134 150.928C334.354 150.928 317.516 167.776 317.516 188.557C317.516 194.904 319.088 200.875 321.855 206.126C324.933 211.941 329.483 216.837 335.019 220.349L335.993 217.303L339.48 219.097C344.351 221.601 349.621 222.875 355.134 222.875C355.167 222.875 355.189 222.875 355.223 222.875C355.511 222.875 355.798 222.875 356.086 222.864L360.78 222.72L359.762 225.91C378.35 223.628 392.742 207.776 392.742 188.546C392.742 183.384 391.701 178.455 389.808 173.957Z" fill="white"/>
<path d="M370.09 101.322C369.127 100.214 367.997 99.3392 366.702 98.7189C365.396 98.0875 363.99 97.7773 362.451 97.7773C360.912 97.7773 359.495 98.0875 358.178 98.7189C356.86 99.3503 355.731 100.214 354.768 101.322C353.805 102.43 353.063 103.748 352.531 105.266C352 106.783 351.734 108.445 351.734 110.261C351.734 112.067 352 113.729 352.531 115.257C353.063 116.775 353.816 118.093 354.768 119.201C355.343 119.877 355.997 120.441 356.705 120.929C357.17 121.25 357.657 121.538 358.178 121.782C359.495 122.402 360.912 122.701 362.451 122.701C363.979 122.701 365.396 122.391 366.702 121.782C367.997 121.161 369.127 120.297 370.09 119.19C371.042 118.082 371.795 116.764 372.348 115.246C372.802 113.994 373.057 112.643 373.134 111.203C373.156 110.893 373.167 110.583 373.167 110.261C373.167 108.456 372.891 106.794 372.348 105.266C371.806 103.737 371.053 102.43 370.09 101.322ZM359.44 105.587C360.192 104.39 361.2 103.803 362.462 103.803C363.669 103.803 364.654 104.402 365.418 105.587C366.182 106.783 366.569 108.334 366.569 110.25C366.569 112.167 366.182 113.718 365.418 114.892C364.654 116.066 363.669 116.664 362.462 116.664C361.2 116.664 360.192 116.077 359.44 114.892C358.687 113.718 358.31 112.167 358.31 110.25C358.31 108.334 358.687 106.783 359.44 105.587Z" fill="#81ADC9"/>
<path d="M384.859 116.376C385.102 116.099 385.468 115.789 385.944 115.457C386.42 115.113 386.94 114.77 387.505 114.427C388.069 114.083 388.634 113.751 389.209 113.419C389.785 113.086 390.272 112.798 390.682 112.555C391.28 112.2 391.878 111.812 392.453 111.38C393.029 110.959 393.549 110.461 394.014 109.907C394.479 109.342 394.856 108.711 395.143 108.002C395.431 107.293 395.575 106.484 395.575 105.576C395.575 103.383 394.789 101.643 393.217 100.358C392.962 100.159 392.697 99.9707 392.409 99.7935C390.903 98.8852 388.911 98.4199 386.431 98.4199C385.224 98.4199 384.073 98.5307 382.966 98.7522C381.858 98.9738 380.84 99.2618 379.91 99.6384C378.98 100.004 378.15 100.425 377.408 100.89C376.666 101.355 376.08 101.832 375.648 102.33L379.833 107.182C380.63 106.274 381.449 105.543 382.301 104.989C383.098 104.468 384.028 104.191 385.08 104.158C385.158 104.158 385.224 104.147 385.301 104.147C386.309 104.147 387.095 104.379 387.637 104.845C388.18 105.31 388.457 105.93 388.457 106.695C388.457 107.082 388.346 107.415 388.125 107.703C387.903 107.991 387.538 108.312 387.04 108.666C386.53 109.021 385.844 109.431 384.992 109.896C384.128 110.361 383.054 110.948 381.77 111.657C380.563 112.344 379.567 113.042 378.77 113.751C377.973 114.46 377.342 115.235 376.877 116.077C376.412 116.908 376.08 117.838 375.891 118.846C375.703 119.854 375.604 121.006 375.604 122.303H396.051V116.387H384.859V116.376Z" fill="#81ADC9"/>
<path d="M427.935 178.753C426.673 177.501 425.079 176.781 423.429 176.615C421.603 161.461 414.883 146.784 403.292 135.164C402.86 134.732 402.163 134.732 401.72 135.164C401.288 135.596 401.288 136.294 401.72 136.726C412.635 147.659 419.422 161.616 421.271 176.693V176.704C419.854 176.969 418.481 177.656 417.385 178.753C414.473 181.655 414.473 186.396 417.385 189.298C418.547 190.473 419.998 191.171 421.514 191.403C420.086 207.377 413.167 222.22 401.675 233.707C401.244 234.139 401.244 234.837 401.675 235.269C401.897 235.491 402.174 235.602 402.461 235.602C402.738 235.602 403.026 235.491 403.236 235.269C415.458 223.051 422.278 207.432 423.673 191.414C425.234 191.204 426.729 190.506 427.924 189.31C430.836 186.396 430.836 181.666 427.935 178.753ZM426.363 187.737C425.644 188.457 424.758 188.922 423.839 189.132C423.131 189.299 422.389 189.321 421.669 189.177C420.673 188.988 419.721 188.501 418.946 187.737C416.909 185.687 416.909 182.364 418.957 180.315C419.676 179.595 420.573 179.118 421.503 178.919C421.88 178.83 422.267 178.786 422.655 178.786C422.998 178.786 423.341 178.819 423.673 178.886C424.658 179.074 425.599 179.562 426.363 180.326C428.411 182.364 428.411 185.698 426.363 187.737Z" fill="#81ADC9"/>
<path d="M420.418 181.788C419.178 183.029 419.178 185.034 420.418 186.285C421.658 187.526 423.662 187.526 424.913 186.285C426.153 185.045 426.153 183.029 424.913 181.788C423.662 180.547 421.658 180.547 420.418 181.788Z" fill="#81ADC9"/>
<path d="M333.835 296.206C333.06 298.665 333.469 301.445 335.185 303.616C335.473 303.993 335.794 304.314 336.137 304.624C356.519 317.851 366.372 343.051 359.84 366.901C359.331 368.74 358.733 370.579 358.024 372.395C352.212 387.427 340.688 398.549 326.893 404.242C317.062 408.308 306.08 409.615 295.187 407.61L293.205 407.2L293.172 407.145C274.639 402.758 261.376 391.16 254.269 376.161C252.343 372.096 250.926 367.798 250.007 363.378L246.586 363.389C247.538 368.23 249.088 372.993 251.258 377.59C259.528 395.059 274.883 406.879 294.578 410.889C298.12 411.542 301.729 411.875 305.327 411.875C313.188 411.875 320.871 410.346 328.155 407.333C343.444 401.019 355.146 389.044 361.113 373.625C361.833 371.786 362.475 369.825 363.039 367.798C369.925 342.675 359.94 316.278 338.186 302.01C338.031 301.855 337.909 301.722 337.787 301.567C336.824 300.349 336.525 298.72 337.001 297.214L336.934 297.192C337.433 295.862 338.352 292.993 340.488 286.28L353.12 246.69C351.969 246.657 350.828 246.602 349.699 246.502C343.112 267.172 333.846 296.206 333.835 296.206Z" fill="white"/>
<path d="M313.187 288.772L313.165 288.816L313.143 288.916L313.01 289.348V289.459C312.755 290.312 312.29 291.065 311.692 291.619C311.25 292.018 310.917 292.273 310.696 292.417C308.936 292.261 307.142 292.173 305.382 292.173C280.849 292.173 258.42 307.548 249.585 330.434C248.633 332.915 247.858 335.419 247.238 337.955L250.67 337.944C251.213 335.828 251.877 333.724 252.685 331.641C262.062 307.371 286.34 293.303 311.006 295.784C311.869 295.873 313.353 294.61 313.929 294.089C315.135 292.97 315.955 291.519 316.331 289.935C316.342 289.913 316.342 289.902 316.342 289.869L331.642 241.926C330.623 241.472 329.605 240.996 328.62 240.486L313.187 288.772Z" fill="white"/>
<path d="M331.62 241.927L332.65 238.714C331.631 238.26 330.624 237.762 329.627 237.252L328.598 240.487C329.594 240.996 330.601 241.472 331.62 241.927Z" fill="white"/>
<path d="M352.742 243.355C352.687 243.355 352.643 243.355 352.587 243.344C351.967 243.322 351.347 243.311 350.739 243.277C350.406 244.33 350.063 245.404 349.709 246.512C350.849 246.612 351.99 246.667 353.13 246.7L354.182 243.421C353.694 243.399 353.218 243.366 352.742 243.355Z" fill="white"/>
<path d="M352.742 243.355C353.218 243.367 353.694 243.411 354.181 243.411L354.192 243.378C353.705 243.367 353.218 243.367 352.742 243.355Z" fill="white"/>
<path d="M350.738 243.278C351.347 243.322 351.967 243.322 352.587 243.345C351.978 243.322 351.358 243.278 350.749 243.223C350.749 243.245 350.738 243.256 350.738 243.278Z" fill="white"/>
<path d="M335.506 229.764L333.259 225.887L329.639 237.241C330.624 237.762 331.631 238.249 332.661 238.703L335.506 229.764Z" fill="white"/>
<path d="M359.762 225.92C358.588 226.064 357.392 226.153 356.186 226.186C356.186 226.186 353.883 233.419 350.75 243.223C351.359 243.267 351.968 243.311 352.588 243.344C352.643 243.344 352.687 243.344 352.743 243.356C353.23 243.378 353.706 243.378 354.193 243.378L359.762 225.92Z" fill="white"/>
<path d="M337.964 222.054C336.957 221.533 335.983 220.957 335.019 220.348L333.248 225.875L335.495 229.752L337.964 222.054Z" fill="white"/>
<path d="M356.085 222.873C355.797 222.884 355.51 222.884 355.222 222.884C355.189 222.884 355.166 222.884 355.133 222.884C349.62 222.884 344.35 221.61 339.479 219.107L335.992 217.312L335.018 220.359C335.97 220.968 336.944 221.544 337.962 222.065C343.11 224.712 348.945 226.208 355.133 226.208C355.487 226.208 355.831 226.208 356.185 226.196C357.392 226.163 358.587 226.075 359.761 225.931L360.779 222.74L356.085 222.873Z" fill="white"/>
<path d="M268.716 363.312L250.018 363.379C250.925 367.81 252.354 372.097 254.28 376.162C261.376 391.161 274.65 402.759 293.183 407.145L273.41 373.16C271.406 370.147 269.812 366.835 268.716 363.312Z" fill="#A5C5C4"/>
<path d="M336.136 304.634C335.793 304.324 335.472 304.003 335.184 303.626C333.468 301.455 333.059 298.675 333.834 296.216C333.845 296.205 343.1 267.182 349.698 246.512C350.052 245.404 350.396 244.33 350.728 243.277C350.728 243.266 350.739 243.244 350.739 243.233C353.872 233.43 356.174 226.196 356.174 226.196C355.82 226.207 355.477 226.207 355.123 226.207C348.934 226.207 343.1 224.712 337.952 222.064L335.494 229.763L332.638 238.714L331.608 241.926L316.309 289.868C316.309 289.902 316.309 289.913 316.298 289.935C315.921 291.519 315.102 292.97 313.895 294.089C313.319 294.61 311.836 295.872 310.972 295.784C286.307 293.302 262.029 307.371 252.652 331.641C251.843 333.723 251.179 335.839 250.637 337.944L269.446 337.877C275.026 323.189 289.218 312.732 305.858 312.732C321.545 312.732 335.062 322.026 341.229 335.418L359.828 366.9C366.371 343.05 356.518 317.85 336.136 304.634Z" fill="#A5C5C4"/>
<path d="M293.205 407.2L295.187 407.61C294.5 407.466 293.836 407.3 293.172 407.145L293.205 407.2Z" fill="white"/>
<path d="M293.205 407.2L295.187 407.61C294.5 407.466 293.836 407.3 293.172 407.145L293.205 407.2Z" fill="#CCCCCC"/>
<path d="M344.794 351.681C344.794 373.193 327.357 390.628 305.869 390.628C292.296 390.628 280.362 383.683 273.398 373.148L293.171 407.134C293.846 407.289 294.499 407.466 295.186 407.599C306.079 409.604 317.062 408.297 326.892 404.231C340.687 398.538 352.211 387.416 358.023 372.384C358.732 370.567 359.33 368.729 359.839 366.89L341.24 335.408C343.51 340.371 344.794 345.876 344.794 351.681Z" fill="#5059AB"/>
<path d="M344.794 351.681C344.794 373.193 327.357 390.628 305.869 390.628C292.296 390.628 280.362 383.683 273.398 373.148L293.171 407.134C293.846 407.289 294.499 407.466 295.186 407.599C306.079 409.604 317.062 408.297 326.892 404.231C340.687 398.538 352.211 387.416 358.023 372.384C358.732 370.567 359.33 368.729 359.839 366.89L341.24 335.408C343.51 340.371 344.794 345.876 344.794 351.681Z" fill="#849C9C"/>
<path d="M341.241 335.419C335.074 322.037 321.557 312.732 305.87 312.732C289.23 312.732 275.038 323.178 269.458 337.878L272.724 337.867L271.561 342.087C270.698 345.211 270.266 348.446 270.266 351.68C270.266 354.228 270.543 356.787 271.074 359.29L271.938 363.3L268.705 363.311C269.801 366.834 271.395 370.135 273.388 373.159C280.352 383.693 292.297 390.639 305.859 390.639C327.347 390.639 344.783 373.203 344.783 351.691C344.795 345.876 343.51 340.37 341.241 335.419Z" fill="white"/>
<path d="M378.216 275.491C377.242 274.361 376.079 273.475 374.751 272.821C373.422 272.179 371.972 271.857 370.411 271.857C368.839 271.857 367.389 272.179 366.049 272.821C364.71 273.464 363.547 274.35 362.562 275.491C361.588 276.621 360.824 277.972 360.27 279.523C359.728 281.074 359.451 282.78 359.451 284.618C359.451 286.468 359.728 288.163 360.27 289.714C360.813 291.265 361.577 292.616 362.562 293.746C363.226 294.522 363.99 295.164 364.821 295.707C365.208 295.962 365.618 296.194 366.038 296.394C367.378 297.025 368.839 297.335 370.4 297.335C371.961 297.335 373.411 297.025 374.74 296.394C376.068 295.762 377.22 294.887 378.205 293.746C379.179 292.616 379.954 291.265 380.508 289.714C380.928 288.54 381.194 287.277 381.294 285.926C381.327 285.494 381.349 285.062 381.349 284.618C381.349 282.769 381.072 281.074 380.508 279.523C379.965 277.961 379.201 276.621 378.216 275.491ZM367.334 279.855C368.097 278.637 369.127 278.027 370.422 278.027C371.651 278.027 372.659 278.637 373.445 279.855C374.231 281.074 374.618 282.658 374.618 284.618C374.618 286.579 374.231 288.163 373.445 289.36C372.659 290.567 371.651 291.165 370.422 291.165C369.138 291.165 368.109 290.567 367.334 289.36C366.559 288.152 366.182 286.579 366.182 284.618C366.182 282.658 366.559 281.074 367.334 279.855Z" fill="#A5C5C4"/>
<path d="M403.335 291.775C403.058 290.922 402.66 290.169 402.14 289.504C401.619 288.85 400.999 288.297 400.269 287.865C399.538 287.433 398.741 287.134 397.877 286.967C398.663 286.823 399.383 286.558 400.036 286.148C400.689 285.738 401.254 285.228 401.73 284.619C402.206 283.999 402.571 283.323 402.837 282.559C403.103 281.805 403.236 281.008 403.236 280.166C403.236 279.047 403.003 278.028 402.527 277.12C402.051 276.211 401.376 275.425 400.512 274.771C400.457 274.727 400.39 274.694 400.324 274.649C399.494 274.051 398.508 273.586 397.357 273.265C396.128 272.91 394.766 272.744 393.283 272.744C392.165 272.744 391.069 272.844 390.006 273.043C388.943 273.243 387.947 273.508 387.028 273.863C386.109 274.217 385.279 274.638 384.548 275.148C383.817 275.646 383.231 276.2 382.788 276.787L387.028 281.661C387.67 280.653 388.456 279.878 389.397 279.335C390.338 278.792 391.379 278.515 392.519 278.515C392.929 278.515 393.294 278.56 393.637 278.626C394.191 278.737 394.678 278.936 395.076 279.224C395.719 279.701 396.04 280.399 396.04 281.318C396.04 282.381 395.597 283.234 394.722 283.877C393.837 284.519 392.619 284.841 391.047 284.841H389.663V289.67H390.925C392.94 289.67 394.412 289.991 395.353 290.634C396.294 291.276 396.759 292.229 396.759 293.492C396.759 295.818 395.176 296.981 392.021 296.981C390.681 296.981 389.519 296.782 388.556 296.372C387.593 295.962 386.729 295.375 385.976 294.589L382.367 299.374C384.77 301.866 388.102 303.107 392.353 303.107C394.091 303.107 395.652 302.908 397.058 302.498C398.453 302.088 399.649 301.523 400.645 300.781C401.641 300.039 402.405 299.141 402.937 298.089C403.468 297.037 403.734 295.862 403.734 294.544C403.745 293.547 403.612 292.628 403.335 291.775Z" fill="#A5C5C4"/>
<path d="M378.858 341.655C376.932 325.471 369.68 310.473 357.967 298.742C357.536 298.31 356.838 298.31 356.407 298.742C355.964 299.174 355.964 299.883 356.407 300.315C367.71 311.647 374.74 326.114 376.644 341.744C375.16 342.01 373.743 342.708 372.603 343.849C369.614 346.839 369.614 351.713 372.603 354.715C373.777 355.89 375.271 356.643 376.887 356.876C375.426 373.425 368.263 388.811 356.351 400.719C355.919 401.151 355.919 401.849 356.351 402.281C356.562 402.503 356.849 402.614 357.137 402.614C357.414 402.614 357.702 402.503 357.912 402.281C370.234 389.963 377.64 374.034 379.113 356.887C380.751 356.665 382.268 355.912 383.463 354.727C383.463 354.715 383.463 354.715 383.463 354.715C384.914 353.264 385.711 351.337 385.711 349.288C385.711 347.238 384.914 345.311 383.463 343.86C382.179 342.575 380.541 341.833 378.858 341.655ZM381.891 353.154C381.15 353.896 380.242 354.383 379.279 354.605C378.548 354.771 377.795 354.793 377.054 354.66C375.991 354.472 374.983 353.973 374.164 353.154C372.038 351.016 372.038 347.548 374.175 345.422C374.939 344.646 375.88 344.148 376.876 343.937C377.264 343.86 377.651 343.815 378.039 343.815C378.393 343.815 378.747 343.849 379.091 343.915C380.12 344.126 381.105 344.624 381.903 345.422C382.932 346.452 383.497 347.825 383.497 349.288C383.497 350.75 382.932 352.123 381.891 353.154Z" fill="#A5C5C4"/>
<path d="M375.715 346.962C374.431 348.247 374.431 350.329 375.715 351.614C376.999 352.899 379.081 352.899 380.365 351.614C381.649 350.329 381.649 348.247 380.365 346.962C379.081 345.677 376.999 345.677 375.715 346.962Z" fill="#A5C5C4"/>
<path d="M193.435 360.254C193.435 360.254 190.158 360.265 188.121 361.627C186.98 362.392 186.128 363.411 185.53 364.552C185.242 365.526 184.943 366.49 184.622 367.432C175.411 394.815 153.857 407.842 131.804 408.44C131.693 408.44 131.582 408.451 131.483 408.451C130.896 408.462 130.298 408.462 129.711 408.451C129.534 408.451 129.346 408.451 129.169 408.451C128.405 408.44 127.63 408.407 126.866 408.362C124.674 408.24 122.526 407.997 120.412 407.631C92.2256 402.824 71.5233 377.49 73.1839 348.235C74.3795 327.066 87.0002 309.221 104.758 300.381L103.662 297.213C84.6421 306.518 71.1469 325.549 69.8737 348.035C68.1356 378.708 89.624 405.737 119.858 410.91C122.095 411.298 124.386 411.552 126.689 411.685C127.851 411.752 129.036 411.785 130.209 411.785C151.842 411.785 178.5 399.7 188.63 365.837C188.984 365.238 189.438 364.74 189.981 364.385C190.789 363.843 192.516 363.588 193.457 363.577L246.608 363.389C246.386 362.281 246.198 361.173 246.054 360.065L193.435 360.254Z" fill="white"/>
<path d="M192.647 338.145L192.249 338.156C191.009 338.078 189.559 337.624 188.95 336.583C188.917 336.494 188.883 336.372 188.839 336.228C184.688 323.401 170.971 293.337 133.474 291.233C132.334 291.166 131.171 291.133 130.031 291.133C129.411 291.133 128.802 291.155 128.193 291.177L129.323 294.478C130.64 294.467 131.957 294.478 133.286 294.545C175.277 296.904 185.341 336.782 185.916 337.934C187.156 340.449 190.035 341.479 192.636 341.49C192.647 341.479 192.647 341.479 192.658 341.468L246.496 341.291C246.706 340.183 246.938 339.075 247.215 337.968L192.647 338.145Z" fill="white"/>
<path d="M249.419 360.055L246.031 360.066C246.186 361.173 246.374 362.281 246.585 363.389L250.006 363.378C249.784 362.281 249.585 361.173 249.419 360.055Z" fill="white"/>
<path d="M246.496 341.28L249.895 341.268C250.116 340.161 250.36 339.053 250.648 337.945L247.216 337.956C246.95 339.064 246.706 340.172 246.496 341.28Z" fill="white"/>
<path d="M267.831 359.988L249.42 360.055C249.586 361.174 249.785 362.27 250.007 363.378L268.705 363.311C268.373 362.226 268.074 361.118 267.831 359.988Z" fill="white"/>
<path d="M268.361 341.202C268.682 340.072 269.047 338.964 269.457 337.879L250.647 337.945C250.36 339.053 250.116 340.161 249.895 341.269L268.361 341.202Z" fill="white"/>
<path d="M266.943 351.681C266.943 354.527 267.253 357.308 267.829 359.989C268.073 361.118 268.371 362.226 268.704 363.312L271.936 363.301L271.073 359.291C270.53 356.787 270.265 354.228 270.265 351.681C270.265 348.435 270.696 345.211 271.56 342.088L272.722 337.867L269.456 337.878C269.047 338.964 268.67 340.072 268.36 341.201C267.442 344.536 266.943 348.047 266.943 351.681Z" fill="white"/>
<path d="M131.803 408.44C153.856 407.842 175.411 394.815 184.621 367.432C175.477 394.593 154 407.83 131.803 408.44Z" fill="#14A0C0"/>
<path d="M99.5094 376.116C94.9593 370.478 91.9038 363.532 91.0403 355.789C89.2579 339.716 97.4392 324.839 110.636 317.307L104.757 300.381C86.9994 309.209 74.3787 327.055 73.1831 348.235C71.5225 377.49 92.2248 402.823 120.411 407.642C120.3 407.598 120.19 407.553 120.09 407.498L99.5094 376.116Z" fill="#AEAFC1"/>
<path d="M268.362 341.202L249.896 341.269L246.497 341.28L192.66 341.457C192.649 341.468 192.649 341.468 192.638 341.479C190.036 341.468 187.158 340.438 185.918 337.923C185.342 336.771 175.279 296.893 133.288 294.534C131.959 294.456 130.642 294.445 129.324 294.467L135.513 312.545C146.838 314.118 156.802 320.587 162.935 329.948L162.946 329.937L185.531 364.553C186.128 363.412 186.981 362.393 188.121 361.629C190.158 360.266 193.435 360.255 193.435 360.255L246.032 360.067L249.42 360.056L267.831 359.989C267.255 357.308 266.945 354.528 266.945 351.681C266.945 348.048 267.443 344.536 268.362 341.202Z" fill="#AEAFC1"/>
<path d="M162.934 329.947C166.211 334.943 168.392 340.77 169.101 347.117C171.492 368.684 155.96 388.114 134.405 390.507C120.577 392.046 107.647 386.187 99.5098 376.117L120.09 407.499C120.19 407.555 120.301 407.599 120.411 407.643C122.526 408.009 124.674 408.253 126.866 408.374C127.63 408.419 128.405 408.441 129.168 408.463C129.346 408.463 129.534 408.463 129.711 408.463C130.298 408.463 130.895 408.474 131.482 408.463C131.593 408.463 131.704 408.452 131.803 408.452C154 407.843 175.477 394.605 184.622 367.444C184.943 366.502 185.242 365.539 185.53 364.564L162.934 329.947Z" fill="#14A0C0"/>
<path d="M162.934 329.947C166.211 334.943 168.392 340.77 169.101 347.117C171.492 368.684 155.96 388.114 134.405 390.507C120.577 392.046 107.647 386.187 99.5098 376.117L120.09 407.499C120.19 407.555 120.301 407.599 120.411 407.643C122.526 408.009 124.674 408.253 126.866 408.374C127.63 408.419 128.405 408.441 129.168 408.463C129.346 408.463 129.534 408.463 129.711 408.463C130.298 408.463 130.895 408.474 131.482 408.463C131.593 408.463 131.704 408.452 131.803 408.452C154 407.843 175.477 394.605 184.622 367.444C184.943 366.502 185.242 365.539 185.53 364.564L162.934 329.947Z" fill="#898B97"/>
<path d="M169.102 347.117C168.393 340.77 166.212 334.943 162.935 329.947C156.802 320.587 146.838 314.118 135.513 312.545L136.62 315.768L131.727 315.525C131.173 315.503 130.609 315.48 130.044 315.48C124.896 315.48 119.693 316.621 115.01 318.781L111.689 320.321L110.637 317.308C97.4405 324.841 89.2592 339.717 91.0416 355.791C91.9052 363.523 94.9607 370.479 99.5108 376.117C107.648 386.198 120.578 392.047 134.406 390.507C155.961 388.114 171.493 368.685 169.102 347.117Z" fill="white"/>
<path d="M46.3148 276.466C45.3849 275.391 44.2889 274.538 43.0157 273.929C41.7537 273.32 40.3698 273.01 38.8863 273.01C37.3918 273.01 36.0079 273.32 34.7348 273.929C33.4617 274.538 32.3546 275.391 31.4246 276.466C30.4947 277.54 29.764 278.825 29.2437 280.299C28.7234 281.772 28.4688 283.4 28.4688 285.15C28.4688 286.912 28.7234 288.529 29.2437 290.002C29.764 291.476 30.4836 292.761 31.4246 293.835C32.3546 294.91 33.4617 295.751 34.7348 296.35C34.7791 296.372 34.8234 296.383 34.8677 296.405C36.1076 296.97 37.4471 297.258 38.8863 297.258C40.3809 297.258 41.7537 296.959 43.0157 296.361C44.2778 295.763 45.3738 294.921 46.3148 293.846C47.2448 292.772 47.9755 291.487 48.5068 290.013C48.85 289.072 49.0604 288.064 49.1822 287.011C49.2486 286.413 49.3039 285.793 49.3039 285.162C49.3039 283.4 49.0382 281.783 48.5068 280.31C47.9865 278.825 47.2559 277.54 46.3148 276.466ZM34.8566 285.162C34.8566 283.301 35.2219 281.783 35.9526 280.631C36.6833 279.468 37.6575 278.892 38.8863 278.892C40.0598 278.892 41.0119 279.468 41.7647 280.631C42.5065 281.794 42.8829 283.301 42.8829 285.162C42.8829 287.023 42.5065 288.529 41.7647 289.681C41.023 290.822 40.0598 291.398 38.8863 291.398C37.6575 291.398 36.6833 290.822 35.9526 289.681C35.2219 288.529 34.8566 287.023 34.8566 285.162Z" fill="#AEAFC1"/>
<path d="M69.2431 290.711V274.051H68.9442H64.8923L60.6411 279.501L51.873 290.744V296.46H62.8553V301.932H69.2431V296.46H72.7525V290.711H69.2431ZM63.6081 290.711H58.1723L63.6081 283.644V290.711Z" fill="#AEAFC1"/>
<path d="M90.7971 250.102C89.225 245.859 88.1622 244.829 87.4205 244.308C85.8041 243.201 84.1214 242.902 82.2061 243.001C52.3704 244.519 26.4316 222.254 23.5974 192.179C21.2504 167.011 36.2624 142.564 61.2159 134.001C81.5972 127.011 103.23 132.461 117.865 146.297L118.917 145.521C119.493 145.1 120.024 144.702 120.577 144.292C109.573 133.68 94.7161 127.643 79.3831 127.643C72.8513 127.643 66.3749 128.728 60.131 130.866C34.1147 139.794 17.7299 165.139 20.2873 192.5C23.1878 223.228 48.562 246.413 79.3277 246.402C80.3352 246.402 81.3647 246.38 82.3943 246.324C82.5715 246.313 82.7486 246.313 82.9147 246.313C83.9996 246.313 84.7746 246.535 85.5384 247.056C85.6713 247.144 86.402 247.776 87.664 251.199L103.661 297.236C104.658 296.748 105.665 296.283 106.695 295.851L90.7971 250.102Z" fill="white"/>
<path d="M124.752 291.365L125.87 294.611C127.01 294.522 128.173 294.478 129.335 294.467L128.206 291.166C127.044 291.199 125.892 291.266 124.752 291.365Z" fill="white"/>
<path d="M107.78 298.986L106.684 295.84C105.654 296.272 104.647 296.737 103.65 297.225L104.746 300.393C105.754 299.894 106.761 299.429 107.78 298.986Z" fill="white"/>
<path d="M113.614 315.768L107.779 298.986C106.75 299.418 105.742 299.895 104.746 300.393L110.625 317.319C111.599 316.765 112.595 316.245 113.614 315.768Z" fill="white"/>
<path d="M131.892 312.201C133.109 312.256 134.327 312.367 135.523 312.533L129.334 294.455C128.172 294.466 127.021 294.522 125.869 294.599L131.892 312.201Z" fill="white"/>
<path d="M129.125 312.179C128.881 312.19 128.638 312.201 128.394 312.212C127.641 312.245 126.889 312.301 126.136 312.378C125.881 312.4 125.638 312.422 125.394 312.456C125.15 312.489 124.907 312.522 124.663 312.555C124.077 312.633 123.49 312.733 122.903 312.843C122.826 312.854 122.748 312.866 122.682 312.888C121.973 313.021 121.265 313.187 120.556 313.364C120.456 313.386 120.346 313.419 120.246 313.442C119.538 313.63 118.829 313.818 118.132 314.051C117.434 314.272 116.737 314.527 116.05 314.782C115.917 314.837 115.785 314.882 115.663 314.937C114.988 315.203 114.312 315.48 113.648 315.79C112.629 316.266 111.633 316.776 110.67 317.33L111.722 320.343L115.043 318.803C119.726 316.643 124.929 315.502 130.077 315.502C130.642 315.502 131.206 315.513 131.76 315.546L136.653 315.79L135.546 312.566C134.35 312.4 133.144 312.29 131.915 312.234C130.985 312.157 130.055 312.157 129.125 312.179Z" fill="white"/>
<path d="M108.134 242.88C107.392 241.23 107.26 239.347 107.725 237.597C108.001 236.555 108.666 234.816 109.629 234.196C115.839 230.219 121.087 225.101 125.194 219.23C115.098 233.443 98.2148 243.002 79.2063 243.002C74.6562 243.002 70.2389 242.46 65.9988 241.44L50.0126 214.379C43.3259 207.289 39.2297 197.729 39.2297 187.217C39.2297 165.328 56.9651 147.583 78.8409 147.583C88.3839 147.583 97.1298 150.961 103.961 156.588L117.865 146.309C103.23 132.473 81.5865 127.023 61.2162 134.013C36.2627 142.576 21.2508 167.023 23.5978 192.191C26.4319 222.266 52.3707 244.531 82.2064 243.013C84.1217 242.903 85.8044 243.202 87.4208 244.321C88.1736 244.83 89.2364 245.86 90.7974 250.114L106.695 295.852C112.341 293.47 118.408 291.931 124.751 291.377L108.134 242.88Z" fill="#9ED1D5"/>
<path d="M133.044 203.057C136.288 192.235 136.31 180.349 132.369 168.839C132.18 168.274 131.97 167.732 131.76 167.178L117.777 177.524L133.044 203.057Z" fill="#9ED1D5"/>
<path d="M124.752 291.365C118.408 291.919 112.33 293.459 106.695 295.84L107.791 298.986C113.426 296.583 119.515 295.076 125.87 294.611L124.752 291.365Z" fill="#9ED1D5"/>
<path d="M115.629 314.915C115.762 314.859 115.884 314.815 116.017 314.76C116.703 314.494 117.4 314.25 118.098 314.028C118.795 313.807 119.504 313.608 120.212 313.419C120.312 313.397 120.423 313.364 120.522 313.342C121.231 313.164 121.939 313.009 122.648 312.865C122.725 312.854 122.803 312.843 122.869 312.821C123.456 312.71 124.043 312.622 124.63 312.533C124.873 312.5 125.117 312.467 125.36 312.433C125.482 312.422 125.593 312.4 125.715 312.389C125.847 312.378 125.969 312.378 126.102 312.356C126.855 312.278 127.608 312.223 128.361 312.19C128.604 312.179 128.848 312.167 129.091 312.156C130.021 312.134 130.94 312.134 131.859 312.179L125.836 294.588C119.482 295.053 113.393 296.56 107.758 298.963L113.592 315.745C114.278 315.469 114.954 315.181 115.629 314.915Z" fill="#9ED1D5"/>
<path d="M131.893 312.201C130.974 312.156 130.055 312.156 129.125 312.179C130.055 312.156 130.985 312.156 131.893 312.201Z" fill="#01CC9B"/>
<path d="M125.747 312.4C125.625 312.412 125.503 312.434 125.393 312.445C125.647 312.412 125.891 312.4 126.135 312.367C126.013 312.389 125.88 312.389 125.747 312.4Z" fill="#01CC9B"/>
<path d="M132.822 203.777C131.261 208.751 129.014 213.492 126.146 217.845C129.036 213.514 131.305 208.773 132.822 203.777Z" fill="white"/>
<path d="M132.822 203.777C131.261 208.751 129.014 213.492 126.146 217.845C129.036 213.514 131.305 208.773 132.822 203.777Z" fill="#CCCCCC"/>
<path d="M133.045 203.068C133 203.182 132.966 203.317 132.932 203.442C132.966 203.317 133.011 203.193 133.045 203.068Z" fill="white"/>
<path d="M133.045 203.068C133 203.182 132.966 203.317 132.932 203.442C132.966 203.317 133.011 203.193 133.045 203.068Z" fill="#CCCCCC"/>
<path d="M126.145 217.845C129.013 213.491 131.26 208.75 132.821 203.777C132.854 203.666 132.888 203.544 132.932 203.433C132.965 203.311 132.998 203.189 133.043 203.057L117.776 177.523L117.333 177.845C118.064 180.847 118.451 183.981 118.451 187.205C118.451 209.094 100.716 226.828 78.84 226.828C67.4703 226.828 57.2409 222.032 50.0117 214.366L65.9979 241.428C70.238 242.447 74.6553 242.99 79.2054 242.99C98.2139 242.99 115.097 233.419 125.193 219.218C125.415 218.908 125.625 218.598 125.835 218.288C125.946 218.144 126.046 218 126.145 217.845Z" fill="#01CC9B"/>
<path d="M126.145 217.845C129.013 213.491 131.26 208.75 132.821 203.777C132.854 203.666 132.888 203.544 132.932 203.433C132.965 203.311 132.998 203.189 133.043 203.057L117.776 177.523L117.333 177.845C118.064 180.847 118.451 183.981 118.451 187.205C118.451 209.094 100.716 226.828 78.84 226.828C67.4703 226.828 57.2409 222.032 50.0117 214.366L65.9979 241.428C70.238 242.447 74.6553 242.99 79.2054 242.99C98.2139 242.99 115.097 233.419 125.193 219.218C125.415 218.908 125.625 218.598 125.835 218.288C125.946 218.144 126.046 218 126.145 217.845Z" fill="#80A8B0"/>
<path d="M117.334 177.856L114.665 179.828L113.913 177.601L113.204 175.519C111.377 170.135 108.267 165.195 104.181 161.229L101.381 158.504L103.971 156.588C97.1293 150.961 88.3834 147.582 78.8515 147.582C56.9756 147.582 39.2402 165.328 39.2402 187.217C39.2402 197.729 43.3475 207.289 50.0232 214.378C57.2524 222.043 67.4818 226.84 78.8515 226.84C100.727 226.84 118.463 209.105 118.463 187.217C118.452 183.993 118.064 180.858 117.334 177.856Z" fill="white"/>
<path d="M45.0865 98.4425C44.1233 97.3348 42.9941 96.4597 41.6877 95.8283C40.3814 95.1969 38.9643 94.8867 37.4255 94.8867C35.8867 94.8867 34.4696 95.1969 33.1522 95.8283C31.8348 96.4597 30.6945 97.3348 29.7424 98.4425C28.7792 99.5502 28.0375 100.868 27.5061 102.397C26.9747 103.926 26.709 105.587 26.709 107.393C26.709 109.199 26.9747 110.871 27.5061 112.389C28.0375 113.917 28.7903 115.225 29.7424 116.343C30.7055 117.451 31.8348 118.315 33.1522 118.935C34.4696 119.556 35.8977 119.866 37.4255 119.866C38.9643 119.866 40.3814 119.556 41.6877 118.935C42.9941 118.315 44.1233 117.451 45.0865 116.343C46.0496 115.236 46.8024 113.917 47.3449 112.389C47.8984 110.86 48.1641 109.199 48.1641 107.393C48.1641 105.587 47.8874 103.915 47.3449 102.397C46.7914 100.868 46.0386 99.5502 45.0865 98.4425ZM40.3925 112.045C39.6286 113.231 38.6322 113.818 37.4255 113.818C36.1634 113.818 35.156 113.231 34.4032 112.045C33.6504 110.871 33.274 109.32 33.274 107.393C33.274 105.477 33.6504 103.915 34.4032 102.718C35.156 101.522 36.1634 100.924 37.4255 100.924C38.6322 100.924 39.6175 101.522 40.3925 102.718C41.1563 103.915 41.5438 105.466 41.5438 107.393C41.5438 109.309 41.1563 110.86 40.3925 112.045Z" fill="#9ED1D5"/>
<path d="M70.2607 111.801C69.7847 110.649 69.1094 109.663 68.2458 108.843C67.6812 108.3 67.0391 107.846 66.3417 107.459C65.9763 107.259 65.5889 107.071 65.1903 106.905C64.0168 106.439 62.7215 106.207 61.3266 106.207C60.5295 106.207 59.8985 106.284 59.4114 106.428C58.9353 106.583 58.6143 106.75 58.4482 106.938L59.2675 101.953H69.0208V95.9492H54.4849C53.8538 99.217 53.2892 102.141 52.8021 104.711C52.5807 105.808 52.3704 106.882 52.16 107.946C51.9497 108.998 51.7725 109.951 51.6286 110.804C51.4736 111.657 51.3518 112.344 51.2411 112.886C51.1304 113.418 51.0751 113.706 51.0751 113.728H55.3927H56.7876C57.1751 113.13 57.6733 112.654 58.3043 112.333C58.9353 112 59.6217 111.834 60.3635 111.834C61.5148 111.834 62.4448 112.189 63.1644 112.909C63.8729 113.617 64.2382 114.57 64.2382 115.744C64.2382 116.974 63.8508 117.971 63.0869 118.702C62.323 119.444 61.2934 119.81 59.9981 119.81C58.9021 119.81 57.8282 119.522 56.7655 118.946C55.7137 118.37 54.7838 117.605 53.9867 116.642L50.3223 120.718C51.1969 122.258 52.4921 123.443 54.186 124.296C55.8909 125.149 57.8061 125.57 59.9428 125.57C61.5591 125.57 63.0426 125.326 64.3821 124.85C65.7217 124.374 66.8841 123.687 67.8584 122.812C68.8326 121.936 69.5965 120.884 70.1389 119.666C70.6925 118.447 70.9582 117.096 70.9582 115.611C70.9803 114.227 70.7368 112.953 70.2607 111.801Z" fill="#9ED1D5"/>
<path d="M134.537 165.128L173.152 136.592C173.949 136.005 174.835 135.695 175.71 135.695C176.551 135.695 177.304 135.983 177.979 136.537C188.375 145.222 201.781 149.996 215.742 149.996C227.255 149.996 238.448 146.684 248.124 140.414C251.699 138.099 254.954 135.44 257.899 132.505L255.176 130.533C255.109 130.6 255.032 130.666 254.965 130.733C254.844 130.854 254.711 130.976 254.578 131.087C254.035 131.597 253.493 132.106 252.939 132.605C252.873 132.66 252.807 132.715 252.74 132.782C250.747 134.521 248.611 136.149 246.319 137.634C245.566 138.121 244.813 138.575 244.05 139.029C243.906 139.118 243.762 139.196 243.618 139.273C242.965 139.65 242.3 140.015 241.636 140.359C241.537 140.414 241.437 140.458 241.337 140.514C240.584 140.902 239.832 141.267 239.079 141.61C239.068 141.622 239.046 141.622 239.035 141.633C235.769 143.128 232.414 144.28 229.027 145.1C228.672 145.188 228.329 145.255 227.975 145.344C227.621 145.421 227.266 145.499 226.923 145.576C220.303 146.95 213.66 147.094 207.527 146.097C197.375 144.612 187.81 140.425 180.127 134.011C177.514 131.829 173.96 131.918 171.204 133.945L133.209 162.026L133.497 162.668C133.851 163.455 134.205 164.286 134.537 165.128Z" fill="white"/>
<path d="M132.424 166.691L134.527 165.129C134.195 164.287 133.841 163.456 133.475 162.637L133.188 161.994L130.453 164.01C130.918 165.04 131.35 166.104 131.759 167.178L132.424 166.691Z" fill="white"/>
<path d="M117.865 146.297C118.673 147.062 119.47 147.848 120.245 148.668C120.257 148.657 121.264 147.915 122.936 146.674L122.67 146.386C121.995 145.666 121.297 144.957 120.589 144.281C120.035 144.691 119.493 145.09 118.928 145.511L117.865 146.297Z" fill="white"/>
<path d="M117.776 177.524L131.758 167.178C131.349 166.103 130.928 165.04 130.452 164.01L116.348 174.445C116.514 174.932 116.669 175.43 116.824 175.929L117.776 177.524Z" fill="white"/>
<path d="M106.496 158.836L120.246 148.667C119.482 147.848 118.685 147.061 117.866 146.297L103.961 156.577C104.836 157.297 105.688 158.05 106.496 158.836Z" fill="white"/>
<path d="M117.334 177.856L117.777 177.535L116.824 175.939C117.013 176.571 117.179 177.213 117.334 177.856Z" fill="white"/>
<path d="M104.181 161.229C108.266 165.194 111.377 170.146 113.204 175.518L113.912 177.601L116.824 175.928C116.68 175.43 116.514 174.931 116.348 174.444C114.322 168.462 110.912 163.134 106.495 158.836C105.687 158.049 104.834 157.296 103.96 156.576L101.369 158.493L104.181 161.229Z" fill="white"/>
<path d="M116.824 175.928L113.912 177.6L114.665 179.827L117.333 177.855C117.178 177.213 117.012 176.57 116.824 175.928Z" fill="white"/>
<path d="M252.73 132.783C250.737 134.522 248.589 136.151 246.309 137.635C248.6 136.151 250.737 134.522 252.73 132.783Z" fill="#7DE314"/>
<path d="M239.012 141.611C235.746 143.096 232.392 144.248 229.004 145.079C232.392 144.259 235.746 143.107 239.012 141.611Z" fill="#7DE314"/>
<path d="M254.955 130.739C255.023 130.671 255.102 130.603 255.17 130.535L255.159 130.523C255.091 130.591 255.034 130.671 254.955 130.739Z" fill="#7DE314"/>
<path d="M256.893 128.752C257.092 128.541 257.292 128.319 257.48 128.098H257.469C257.28 128.319 257.092 128.541 256.893 128.752Z" fill="#7DE314"/>
<path d="M255.164 130.534C255.563 130.146 255.939 129.736 256.326 129.326C255.95 129.725 255.563 130.135 255.164 130.534Z" fill="#7DE314"/>
<path d="M257.479 128.108C257.656 127.908 257.833 127.698 258.01 127.498C257.833 127.698 257.656 127.897 257.479 128.108Z" fill="#7DE314"/>
<path d="M262.803 60.0823C245.898 34.1282 211.103 26.7619 185.075 43.6215C163.697 57.4902 154.896 83.3778 161.804 106.574C162.513 109.011 163.808 111.204 163.443 113.829C163.133 116 161.782 118.459 159.756 119.479C159.679 119.512 131.825 140.116 122.946 146.673C121.274 147.914 120.267 148.656 120.256 148.667L106.506 158.836C110.923 163.134 114.333 168.462 116.359 174.444L130.463 164.009L133.197 161.993L171.192 133.912C173.949 131.885 177.503 131.797 180.115 133.979C187.799 140.404 197.364 144.591 207.516 146.064C207.051 145.987 206.586 145.92 206.132 145.831L185.905 114.97C181.898 110.152 179.008 104.281 177.735 97.7007C173.683 76.82 187.322 56.6151 208.191 52.5719C224.232 49.4592 239.864 56.8034 248.079 69.8524L248.134 69.8081L270.331 103.66C273.774 89.2487 271.538 73.5079 262.803 60.0823Z" fill="#598CB2"/>
<path d="M268.506 109.765C268.75 109.1 268.971 108.436 269.193 107.76C268.971 108.436 268.739 109.1 268.506 109.765Z" fill="white"/>
<path d="M268.506 109.765C268.75 109.1 268.971 108.436 269.193 107.76C268.971 108.436 268.739 109.1 268.506 109.765Z" fill="#CCCCCC"/>
<path d="M270.333 103.671L270.322 103.66C270.277 103.86 270.222 104.07 270.178 104.27C270.233 104.07 270.289 103.882 270.333 103.671Z" fill="white"/>
<path d="M270.333 103.671L270.322 103.66C270.277 103.86 270.222 104.07 270.178 104.27C270.233 104.07 270.289 103.882 270.333 103.671Z" fill="#CCCCCC"/>
<path d="M226.902 145.555C220.425 146.862 213.849 146.995 207.506 146.075C213.639 147.072 220.282 146.928 226.902 145.555Z" fill="white"/>
<path d="M226.902 145.555C220.425 146.862 213.849 146.995 207.506 146.075C213.639 147.072 220.282 146.928 226.902 145.555Z" fill="#CCCCCC"/>
<path d="M267.243 112.961C267.288 112.848 267.333 112.746 267.379 112.633C267.333 112.735 267.277 112.848 267.243 112.961C267.232 112.95 267.232 112.95 267.243 112.961Z" fill="white"/>
<path d="M267.243 112.961C267.288 112.848 267.333 112.746 267.379 112.633C267.333 112.735 267.277 112.848 267.243 112.961C267.232 112.95 267.232 112.95 267.243 112.961Z" fill="#CCCCCC"/>
<path d="M266.369 114.848C266.668 114.217 266.968 113.585 267.245 112.943C267.245 112.943 267.245 112.943 267.234 112.932C266.957 113.585 266.668 114.217 266.369 114.848Z" fill="white"/>
<path d="M266.369 114.848C266.668 114.217 266.968 113.585 267.245 112.943C267.245 112.943 267.245 112.943 267.234 112.932C266.957 113.585 266.668 114.217 266.369 114.848Z" fill="#CCCCCC"/>
<path d="M226.902 145.554C227.256 145.488 227.611 145.399 227.954 145.322C228.308 145.244 228.651 145.167 229.005 145.078C232.393 144.247 235.748 143.095 239.013 141.611C239.024 141.6 239.047 141.6 239.058 141.589C239.811 141.245 240.574 140.88 241.316 140.492C241.416 140.437 241.515 140.392 241.615 140.337C242.279 139.994 242.944 139.628 243.597 139.251C243.741 139.174 243.885 139.096 244.029 139.008C244.792 138.565 245.545 138.099 246.298 137.612C248.579 136.128 250.715 134.499 252.719 132.76C252.785 132.705 252.852 132.649 252.918 132.583C253.483 132.084 254.025 131.575 254.557 131.065C254.679 130.943 254.811 130.833 254.944 130.711C255.011 130.644 255.077 130.578 255.144 130.511L240.32 119.767C235.46 123.887 229.515 126.867 222.817 128.163C208.536 130.932 194.575 125.416 185.885 114.959L206.111 145.82C206.565 145.909 207.03 145.975 207.495 146.053C213.85 146.994 220.426 146.862 226.902 145.554Z" fill="#7DE314"/>
<path d="M226.902 145.554C227.256 145.488 227.611 145.399 227.954 145.322C228.308 145.244 228.651 145.167 229.005 145.078C232.393 144.247 235.748 143.095 239.013 141.611C239.024 141.6 239.047 141.6 239.058 141.589C239.811 141.245 240.574 140.88 241.316 140.492C241.416 140.437 241.515 140.392 241.615 140.337C242.279 139.994 242.944 139.628 243.597 139.251C243.741 139.174 243.885 139.096 244.029 139.008C244.792 138.565 245.545 138.099 246.298 137.612C248.579 136.128 250.715 134.499 252.719 132.76C252.785 132.705 252.852 132.649 252.918 132.583C253.483 132.084 254.025 131.575 254.557 131.065C254.679 130.943 254.811 130.833 254.944 130.711C255.011 130.644 255.077 130.578 255.144 130.511L240.32 119.767C235.46 123.887 229.515 126.867 222.817 128.163C208.536 130.932 194.575 125.416 185.885 114.959L206.111 145.82C206.565 145.909 207.03 145.975 207.495 146.053C213.85 146.994 220.426 146.862 226.902 145.554Z" fill="#446E88"/>
<path d="M248.068 69.8523C250.537 73.7847 252.353 78.2156 253.283 83.0453C254.312 88.3624 254.179 93.6241 253.083 98.5867L268.494 109.753C268.737 109.088 268.959 108.423 269.18 107.748C269.247 107.537 269.313 107.327 269.38 107.116C269.557 106.54 269.723 105.975 269.878 105.399C269.977 105.023 270.077 104.635 270.177 104.258C270.232 104.059 270.276 103.848 270.321 103.649L248.124 69.7969L248.068 69.8523Z" fill="#7DE314"/>
<path d="M248.068 69.8523C250.537 73.7847 252.353 78.2156 253.283 83.0453C254.312 88.3624 254.179 93.6241 253.083 98.5867L268.494 109.753C268.737 109.088 268.959 108.423 269.18 107.748C269.247 107.537 269.313 107.327 269.38 107.116C269.557 106.54 269.723 105.975 269.878 105.399C269.977 105.023 270.077 104.635 270.177 104.258C270.232 104.059 270.276 103.848 270.321 103.649L248.124 69.7969L248.068 69.8523Z" fill="#446E88"/>
<path d="M255.154 130.522C255.552 130.135 255.94 129.725 256.327 129.326C256.516 129.138 256.704 128.949 256.881 128.75C257.08 128.539 257.268 128.307 257.468 128.096L242.832 117.484C242.035 118.282 241.194 119.046 240.33 119.777L255.154 130.522Z" fill="#7DE314"/>
<path d="M252.176 102.031C250.327 107.858 247.116 113.164 242.832 117.484L257.468 128.096C257.645 127.897 257.833 127.697 258.01 127.487C258.243 127.221 258.486 126.944 258.719 126.678C259.017 126.324 259.305 125.947 259.604 125.582C259.892 125.227 260.18 124.873 260.457 124.507C260.678 124.208 260.9 123.909 261.121 123.61C261.453 123.167 261.774 122.713 262.084 122.258C262.239 122.026 262.394 121.793 262.549 121.56C262.903 121.018 263.258 120.475 263.601 119.932C263.7 119.766 263.8 119.589 263.911 119.423C264.287 118.802 264.653 118.171 264.996 117.539C265.062 117.429 265.117 117.307 265.184 117.196C265.56 116.509 265.915 115.811 266.258 115.102C266.302 115.025 266.335 114.936 266.368 114.859C266.667 114.227 266.955 113.585 267.232 112.953C258.597 106.684 252.176 102.031 252.176 102.031Z" fill="#7DE314"/>
<path d="M249.01 101.035C247.328 106.341 244.372 111.215 240.475 115.159L237.74 117.917L240.331 119.789C241.194 119.058 242.036 118.305 242.833 117.496C247.117 113.176 250.328 107.87 252.177 102.043C252.542 100.913 252.83 99.7612 253.084 98.598L250.394 96.6484L249.01 101.035Z" fill="white"/>
<path d="M253.282 83.0459C252.352 78.2162 250.537 73.7742 248.068 69.8529C239.854 56.8149 224.222 49.4707 208.18 52.5723C187.312 56.6155 173.672 76.8205 177.724 97.7011C178.997 104.292 181.887 110.152 185.895 114.971C194.585 125.428 208.545 130.944 222.827 128.175C229.524 126.879 235.469 123.899 240.33 119.778L237.739 117.906L240.473 115.148C244.37 111.215 247.326 106.33 249.009 101.024L250.404 96.6377L253.094 98.5873C254.179 93.6247 254.312 88.363 253.282 83.0459Z" fill="white"/>
<path d="M208.669 4.47447C207.694 3.34459 206.543 2.46949 205.226 1.827C203.908 1.18452 202.469 0.863281 200.908 0.863281C199.347 0.863281 197.908 1.18452 196.568 1.827C195.229 2.46949 194.077 3.34459 193.103 4.47447C192.129 5.60435 191.376 6.93363 190.834 8.48444C190.291 10.0242 190.025 11.719 190.025 13.5578C190.025 15.3967 190.291 17.0804 190.834 18.6312C191.376 20.171 192.129 21.5113 193.103 22.6412C194.077 23.7711 195.229 24.6462 196.568 25.2665C196.779 25.3662 197 25.4437 197.221 25.5324C198.373 25.9755 199.602 26.2081 200.908 26.2081C202.469 26.2081 203.908 25.8979 205.226 25.2665C206.543 24.6351 207.694 23.76 208.669 22.6412C209.643 21.5113 210.407 20.182 210.96 18.6312C211.248 17.8226 211.458 16.9807 211.602 16.0945C211.735 15.2859 211.802 14.444 211.802 13.5578C211.802 11.719 211.525 10.0353 210.971 8.48444C210.407 6.93363 209.643 5.60435 208.669 4.47447ZM196.701 13.5468C196.701 11.5972 197.089 10.0242 197.852 8.80568C198.616 7.59826 199.635 6.98901 200.919 6.98901C202.137 6.98901 203.144 7.59826 203.919 8.80568C204.694 10.0131 205.082 11.5972 205.082 13.5468C205.082 15.4964 204.694 17.0693 203.919 18.2657C203.144 19.462 202.137 20.0602 200.919 20.0602C199.646 20.0602 198.616 19.462 197.852 18.2657C197.077 17.0693 196.701 15.4964 196.701 13.5468Z" fill="#3D7492"/>
<path d="M229.017 19.7615V4.65207V1.94922H222.22C222.076 2.22615 221.733 2.5917 221.179 3.03479C220.626 3.47788 219.995 3.92097 219.297 4.35299C218.6 4.785 217.902 5.15055 217.194 5.46071C216.485 5.77088 215.91 5.91488 215.467 5.91488V12.0849C215.998 12.0849 216.596 11.9963 217.282 11.8191C217.869 11.664 218.445 11.4535 219.021 11.2209C219.109 11.1877 219.198 11.1544 219.286 11.1101C219.939 10.8221 220.526 10.5009 221.058 10.1464C221.589 9.80301 221.976 9.45961 222.231 9.12729V19.7615H216.308V25.7654H234.32V19.7615H229.017Z" fill="#3D7492"/>
<path d="M277.572 60.7464C278.115 60.9347 278.679 60.9569 279.211 60.8572C279.952 60.7242 280.639 60.3255 281.126 59.7273C281.369 59.4393 281.558 59.0959 281.69 58.7082C282.266 57.0023 281.347 55.1634 279.642 54.5874C279.222 54.4434 278.79 54.3991 278.38 54.4323C277.605 54.4767 276.886 54.809 276.343 55.3407C275.989 55.6952 275.701 56.1272 275.535 56.6367C274.959 58.3315 275.878 60.1815 277.572 60.7464Z" fill="#3D7492"/>
<path d="M237.905 23.8592C252.895 28.8993 265.471 38.603 274.04 51.5967C272.856 52.4828 271.915 53.7235 271.405 55.2411C270.752 57.1685 270.896 59.24 271.804 61.0566C272.701 62.8733 274.262 64.2358 276.188 64.8783C276.985 65.1552 277.804 65.2771 278.601 65.2771C279.398 65.2771 280.184 65.1552 280.937 64.9115C286.915 80.2092 287.336 96.9692 282.044 112.754C281.845 113.33 282.155 113.962 282.742 114.15C282.852 114.194 282.974 114.216 283.085 114.216C283.55 114.216 283.982 113.917 284.137 113.452C289.628 97.1242 289.163 79.7662 282.93 63.9367C284.236 63.0284 285.277 61.7102 285.819 60.0929C286.462 58.1655 286.329 56.1051 285.421 54.2884C284.513 52.4607 282.963 51.1093 281.037 50.4557C279.332 49.8797 277.561 49.9461 276 50.5332C267.154 37.0522 254.146 26.983 238.614 21.7656C238.027 21.5662 237.407 21.8763 237.208 22.4524C237.008 23.0394 237.329 23.6598 237.905 23.8592ZM275.236 53.4687C275.823 53.0035 276.498 52.649 277.217 52.4607C277.671 52.3388 278.136 52.2724 278.612 52.2724C279.188 52.2724 279.764 52.361 280.328 52.5604C281.69 53.0145 282.797 53.9783 283.439 55.2743C284.081 56.5593 284.181 58.0215 283.716 59.384C283.384 60.3699 282.797 61.2006 282.055 61.821C281.48 62.2973 280.804 62.6407 280.096 62.8512C279.077 63.1502 277.97 63.1392 276.896 62.7847C275.524 62.3195 274.428 61.3557 273.786 60.0708C273.143 58.7747 273.044 57.3125 273.498 55.95C273.841 54.942 274.45 54.089 275.236 53.4687Z" fill="#3D7492"/>
<path d="M9.0504 193.453C10.5007 193.21 11.8956 192.545 13.0248 191.448C16.0582 188.535 16.1468 183.694 13.2352 180.67C12.0727 179.463 10.6114 178.72 9.08361 178.455C10.7996 162.614 17.8738 147.261 30.2177 135.375C30.6605 134.943 30.6716 134.245 30.2509 133.802C29.8192 133.37 29.1217 133.348 28.6789 133.78C15.8921 146.087 8.5965 161.983 6.85839 178.388C5.25313 178.576 3.70322 179.263 2.45222 180.46C0.990879 181.866 0.160571 183.772 0.116288 185.81C0.0830758 187.848 0.835888 189.776 2.24188 191.238C3.50394 192.556 5.14242 193.32 6.82518 193.52C8.4083 209.105 15.0065 224.303 26.6751 236.455C26.8965 236.677 27.1843 236.787 27.4832 236.787C27.76 236.787 28.0257 236.688 28.2471 236.477C28.69 236.056 28.701 235.359 28.2803 234.915C16.9992 223.174 10.6003 208.518 9.0504 193.453ZM6.6259 191.249C5.59632 191.027 4.62209 190.518 3.84714 189.709C2.8397 188.668 2.3083 187.294 2.33044 185.854C2.36365 184.403 2.95041 183.052 3.99106 182.055C4.75494 181.324 5.68489 180.858 6.65911 180.659C7.01338 180.581 7.37871 180.548 7.74405 180.548C8.12046 180.548 8.49686 180.593 8.87327 180.67C9.89178 180.881 10.866 181.39 11.641 182.199C13.7112 184.359 13.6448 187.793 11.486 189.853C10.7221 190.584 9.81428 191.038 8.85113 191.238C8.12046 191.404 7.35657 191.404 6.6259 191.249Z" fill="#9ED1D5"/>
<path d="M5.48612 183.605C4.19083 184.856 4.14655 186.917 5.39755 188.213C6.64855 189.509 8.70771 189.553 10.003 188.302C11.2983 187.05 11.3426 184.989 10.0916 183.693C8.84056 182.397 6.7814 182.364 5.48612 183.605Z" fill="#9ED1D5"/>
<path d="M59.9977 360.719C61.5365 360.475 62.9536 359.766 64.0939 358.669C65.5884 357.24 66.4298 355.313 66.4741 353.242C66.5073 351.17 65.7434 349.221 64.3153 347.725C63.1418 346.507 61.6583 345.731 60.0309 345.465C61.8133 328.783 69.3414 313.397 81.5857 301.621C82.0285 301.201 82.0396 300.492 81.6189 300.06C81.1982 299.616 80.4897 299.605 80.0469 300.026C67.3819 312.211 59.6102 328.14 57.8057 345.41C56.145 345.609 54.5951 346.34 53.3774 347.515C51.8828 348.944 51.0414 350.871 50.9971 352.942C50.9639 355.003 51.7278 356.964 53.1559 358.459C54.4069 359.744 56.0233 360.553 57.7725 360.763C59.4109 377.124 66.4298 392.389 78.0209 404.441C78.2313 404.673 78.5191 404.784 78.818 404.784C79.0948 404.784 79.3715 404.684 79.5819 404.474C80.0247 404.053 80.0358 403.355 79.6151 402.912C68.4115 391.259 61.614 376.526 59.9977 360.719ZM58.6249 358.614C58.2706 358.614 57.9164 358.57 57.5732 358.503C56.5104 358.271 55.5251 357.728 54.7501 356.919C53.7316 355.856 53.1891 354.46 53.2113 352.987C53.2445 351.502 53.8423 350.129 54.9051 349.11C55.669 348.379 56.5879 347.891 57.5953 347.692C57.9717 347.614 58.3481 347.57 58.7356 347.57H58.8463C59.1784 347.57 59.5106 347.614 59.8316 347.67C60.9276 347.891 61.924 348.445 62.7211 349.265C63.7396 350.328 64.2821 351.724 64.2599 353.197C64.2267 354.671 63.6289 356.055 62.5661 357.074C61.7911 357.816 60.8391 358.293 59.7984 358.492C59.422 358.57 59.0234 358.614 58.6249 358.614Z" fill="#AEAFC1"/>
<path d="M56.4441 350.706C55.1267 351.98 55.0824 354.073 56.3555 355.391C57.6287 356.71 59.7211 356.754 61.0385 355.48C62.3559 354.206 62.4002 352.113 61.1271 350.794C59.8539 349.476 57.7615 349.432 56.4441 350.706Z" fill="#AEAFC1"/>
<path d="M412.581 184.657C411.452 168.673 404.023 154.261 391.679 144.07C381.328 135.541 368.265 130.833 354.88 130.833C341.839 130.833 329.085 135.264 318.922 143.317C318.767 143.394 318.601 143.472 318.424 143.527C317.937 143.704 317.428 143.793 316.918 143.793C315.999 143.793 315.058 143.494 314.283 142.94L314.239 142.996C313.11 142.087 310.641 140.304 304.884 136.128L271.285 111.78C272.369 108.922 273.244 105.975 273.897 102.929C277.185 87.4209 274.24 71.5582 265.583 58.2655C254.557 41.3505 235.891 31.248 215.632 31.248C204.14 31.248 192.948 34.5602 183.261 40.841C161.296 55.0863 151.167 82.5136 158.606 107.515C158.828 108.279 159.082 108.988 159.337 109.664C159.868 111.126 160.3 112.289 160.145 113.375C159.957 114.682 159.115 116.089 158.307 116.499C157.942 116.676 157.909 116.698 120.578 144.303C121.287 144.989 121.984 145.687 122.659 146.407L122.925 146.695C131.804 140.127 159.658 119.534 159.735 119.501C161.772 118.482 163.123 116.022 163.422 113.851C163.798 111.226 162.492 109.033 161.784 106.596C154.875 83.3998 163.677 57.5123 185.054 43.6435C211.082 26.7839 245.877 34.1503 262.782 60.1043C271.517 73.5189 273.753 89.2708 270.299 103.682L270.31 103.693C270.266 103.893 270.2 104.092 270.155 104.292C270.056 104.668 269.956 105.056 269.856 105.433C269.701 106.009 269.535 106.585 269.358 107.149C269.292 107.36 269.225 107.57 269.159 107.781C268.949 108.457 268.716 109.121 268.473 109.786C268.461 109.808 268.45 109.841 268.439 109.863C268.45 109.841 268.461 109.808 268.461 109.786L253.084 98.5978C252.83 99.761 252.531 100.913 252.176 102.043C252.176 102.043 258.597 106.695 267.233 112.954C267.277 112.854 267.332 112.744 267.377 112.644C267.332 112.755 267.288 112.854 267.244 112.965C268.14 113.608 269.059 114.283 269.989 114.959C287.736 127.809 312.346 145.654 312.357 145.665C314.383 147.116 317.051 147.593 319.564 146.673C319.996 146.518 320.395 146.33 320.771 146.108C340.51 130.301 369.272 129.913 389.565 146.651C401.565 156.554 408.252 170.511 409.271 184.912C409.713 191.182 409.082 197.529 407.355 203.666L407.366 203.677C407.333 203.799 407.289 203.921 407.256 204.042C407.079 204.652 406.89 205.261 406.691 205.87C406.636 206.047 406.569 206.225 406.514 206.391C406.304 207.022 406.071 207.654 405.839 208.274C405.772 208.44 405.706 208.617 405.639 208.783C405.396 209.393 405.152 209.991 404.898 210.589C404.809 210.799 404.709 211.021 404.61 211.232C404.366 211.763 404.123 212.306 403.857 212.838C403.713 213.137 403.547 213.447 403.392 213.746C403.171 214.167 402.949 214.599 402.728 215.02C402.484 215.463 402.23 215.895 401.975 216.338C401.82 216.604 401.665 216.881 401.499 217.147C401.123 217.767 400.724 218.387 400.325 218.997C400.27 219.074 400.226 219.152 400.17 219.24C399.694 219.949 399.207 220.636 398.698 221.323C398.621 221.423 398.543 221.533 398.466 221.633C398.034 222.209 397.58 222.785 397.115 223.35C397.071 223.405 397.026 223.472 396.971 223.527C396.927 223.583 396.871 223.638 396.827 223.693C395.576 225.2 394.248 226.64 392.819 228.014C392.753 228.08 392.676 228.146 392.609 228.213C391.989 228.8 391.358 229.376 390.716 229.941C390.594 230.052 390.472 230.163 390.351 230.262C389.631 230.872 388.911 231.47 388.159 232.057C387.849 232.289 387.55 232.544 387.229 232.766C387.063 232.888 386.886 232.998 386.719 233.12C386.144 233.53 385.568 233.94 384.981 234.328C384.926 234.361 384.882 234.394 384.826 234.427C384.129 234.893 383.409 235.336 382.69 235.757C382.679 235.768 382.668 235.779 382.645 235.779C382.579 235.823 382.513 235.856 382.446 235.89C381.76 236.288 381.073 236.676 380.376 237.053C380.221 237.141 380.055 237.219 379.9 237.296C379.291 237.607 378.693 237.917 378.073 238.205C377.785 238.338 377.497 238.459 377.21 238.592C376.734 238.803 376.247 239.024 375.77 239.224C375.35 239.401 374.94 239.556 374.519 239.722C374.165 239.855 373.811 239.999 373.457 240.121C372.925 240.309 372.394 240.487 371.863 240.664C371.608 240.741 371.364 240.83 371.11 240.908C370.501 241.096 369.881 241.273 369.261 241.45C369.073 241.506 368.896 241.55 368.707 241.605C368.043 241.783 367.39 241.938 366.726 242.082C366.571 242.115 366.416 242.148 366.25 242.181C365.585 242.325 364.91 242.447 364.246 242.569C364.069 242.602 363.892 242.636 363.725 242.658C363.094 242.757 362.463 242.857 361.821 242.935C361.7 242.946 361.567 242.979 361.445 242.99C361.367 243.001 361.279 243.001 361.201 243.012C360.15 243.134 359.098 243.234 358.035 243.3C357.947 243.3 357.847 243.311 357.758 243.322C356.828 243.367 355.91 243.389 354.98 243.389C354.714 243.389 354.437 243.411 354.171 243.4L353.12 246.679C353.618 246.69 354.105 246.723 354.603 246.723C356.994 246.723 359.419 246.579 361.821 246.28C376.634 244.474 390.008 237.13 399.506 225.61C409.016 214.112 413.655 199.567 412.581 184.657Z" fill="white"/>
<path d="M302.172 174.41C303.445 169.714 307.088 164.751 302.416 160.664L260.192 130.057L257.479 128.096C257.28 128.318 257.092 128.528 256.893 128.75C257.092 128.539 257.28 128.307 257.479 128.096L242.844 117.484C242.047 118.282 241.205 119.046 240.342 119.777L255.166 130.522C255.564 130.135 255.952 129.725 256.339 129.326C255.952 129.725 255.575 130.135 255.177 130.533L257.9 132.505L300.345 163.267C301.917 164.696 301.718 165.981 300.157 170.101C299.737 171.209 299.305 172.35 298.984 173.546C294.212 191.093 297.832 209.481 308.925 223.992C314.317 231.049 321.048 236.62 328.609 240.498L329.639 237.263C307.962 225.853 295.142 200.276 302.172 174.41Z" fill="white"/>
<path d="M409.27 184.889C408.252 170.489 401.565 156.531 389.564 146.628C369.271 129.891 340.51 130.278 320.77 146.086C320.394 146.307 319.995 146.495 319.564 146.65C317.051 147.57 314.382 147.094 312.357 145.642C312.345 145.631 287.735 127.786 269.989 114.936C269.048 114.261 268.129 113.596 267.243 112.942C266.966 113.585 266.667 114.216 266.368 114.848C266.667 114.216 266.955 113.574 267.232 112.942C258.597 106.684 252.176 102.031 252.176 102.031C250.327 107.858 247.116 113.164 242.832 117.484L257.468 128.096C257.645 127.897 257.833 127.697 258.01 127.487C257.833 127.686 257.656 127.897 257.479 128.096L260.191 130.057L302.415 160.663C307.087 164.74 303.456 169.702 302.171 174.41C295.141 200.276 307.961 225.853 329.627 237.24L333.247 225.886L321.8 206.158L321.855 206.124C319.088 200.885 317.516 194.903 317.516 188.556C317.516 167.775 334.354 150.926 355.134 150.926C370.733 150.926 384.106 160.42 389.808 173.956L407.355 203.643C409.082 197.517 409.724 191.159 409.27 184.889Z" fill="#81ADC9"/>
<path d="M111.234 241.651L111.167 241.518C110.747 240.565 110.658 239.48 110.935 238.438C111.123 237.74 111.411 237.131 111.577 236.887C134.538 222.077 144.38 193.686 135.512 167.765C135.213 166.879 134.881 166.004 134.538 165.129L132.434 166.691L131.759 167.189C131.969 167.743 132.18 168.286 132.368 168.851C136.309 180.349 136.287 192.246 133.043 203.069L133.054 203.08C133.021 203.201 132.977 203.323 132.944 203.445C132.91 203.556 132.877 203.678 132.833 203.789C131.305 208.796 129.047 213.526 126.157 217.857C126.058 218.012 125.947 218.167 125.847 218.322C125.637 218.632 125.427 218.942 125.205 219.252C121.098 225.112 115.85 230.23 109.64 234.218C108.676 234.838 108.012 236.566 107.735 237.619C107.27 239.369 107.403 241.252 108.145 242.902L124.762 291.388C125.903 291.288 127.054 291.221 128.205 291.188L111.234 241.651Z" fill="white"/>
<path d="M305.714 148.712L305.294 145.522L303.688 147.76L272.48 125.306L274.085 123.068L270.93 123.689L267.764 124.309L268.184 127.499L268.605 130.701L270.21 128.463L301.419 150.917L299.814 153.154L302.98 152.534L306.135 151.903L305.714 148.712Z" fill="white"/>
<path d="M131.216 148.712L131.625 145.522L133.242 147.76L164.45 125.306L162.845 123.068L166 123.689L169.155 124.309L168.746 127.499L168.325 130.701L166.72 128.463L135.5 150.917L137.116 153.154L133.95 152.534L130.795 151.903L131.216 148.712Z" fill="white"/>
<path d="M238.315 352.943L236.111 355.291V352.533H197.674V355.291L195.471 352.943L193.268 350.595L195.471 348.235L197.674 345.887V348.645H236.111V345.887L238.315 348.235L240.518 350.595L238.315 352.943Z" fill="white"/>
<path d="M116.559 288.063L118.064 285.228L115.463 286.114L103.064 249.703L105.665 248.817L102.731 247.487L99.7977 246.158L98.2921 249.005L96.7754 251.852L99.3881 250.955L111.787 287.366L109.175 288.252L112.108 289.581L115.042 290.91L116.559 288.063Z" fill="white"/>
<path d="M323.439 288.063L321.922 285.228L324.524 286.114L336.934 249.703L334.321 248.817L337.255 247.487L340.189 246.158L341.705 249.005L343.211 251.852L340.609 250.955L328.21 287.366L330.812 288.252L327.878 289.581L324.944 290.91L323.439 288.063Z" fill="white"/>
<path d="M335.619 193.693V183.347H337.509L340.715 189.143L341.793 191.355H341.863C341.807 190.823 341.751 190.249 341.695 189.633C341.639 189.008 341.611 188.406 341.611 187.827V183.347H343.361V193.693H341.471L338.279 187.883L337.201 185.699H337.145C337.182 186.241 337.229 186.815 337.285 187.421C337.341 188.019 337.369 188.607 337.369 189.185V193.693H335.619ZM349.033 193.889C348.389 193.889 347.783 193.731 347.213 193.413C346.653 193.087 346.201 192.62 345.855 192.013C345.51 191.397 345.337 190.665 345.337 189.815C345.337 188.947 345.51 188.21 345.855 187.603C346.201 186.997 346.653 186.535 347.213 186.217C347.783 185.891 348.389 185.727 349.033 185.727C349.519 185.727 349.981 185.821 350.419 186.007C350.867 186.185 351.264 186.451 351.609 186.805C351.955 187.151 352.225 187.575 352.421 188.079C352.627 188.583 352.729 189.162 352.729 189.815C352.729 190.665 352.557 191.397 352.211 192.013C351.866 192.62 351.409 193.087 350.839 193.413C350.279 193.731 349.677 193.889 349.033 193.889ZM349.033 192.377C349.416 192.377 349.743 192.275 350.013 192.069C350.284 191.855 350.489 191.556 350.629 191.173C350.779 190.781 350.853 190.329 350.853 189.815C350.853 189.293 350.779 188.84 350.629 188.457C350.489 188.065 350.284 187.767 350.013 187.561C349.743 187.347 349.416 187.239 349.033 187.239C348.66 187.239 348.338 187.347 348.067 187.561C347.797 187.767 347.587 188.065 347.437 188.457C347.297 188.84 347.227 189.293 347.227 189.815C347.227 190.329 347.297 190.781 347.437 191.173C347.587 191.556 347.797 191.855 348.067 192.069C348.338 192.275 348.66 192.377 349.033 192.377ZM347.367 184.705L346.779 184.019L348.305 182.661H349.775L351.301 184.019L350.685 184.705L349.061 183.725H348.991L347.367 184.705ZM349.999 182.409C349.71 182.409 349.458 182.353 349.243 182.241C349.038 182.129 348.851 182.022 348.683 181.919C348.515 181.807 348.343 181.751 348.165 181.751C348.025 181.751 347.918 181.803 347.843 181.905C347.769 181.999 347.708 182.153 347.661 182.367L346.779 182.283C346.817 181.947 346.887 181.663 346.989 181.429C347.092 181.196 347.232 181.019 347.409 180.897C347.587 180.767 347.806 180.701 348.067 180.701C348.375 180.701 348.627 180.757 348.823 180.869C349.029 180.981 349.215 181.093 349.383 181.205C349.561 181.308 349.738 181.359 349.915 181.359C350.055 181.359 350.163 181.308 350.237 181.205C350.321 181.103 350.377 180.944 350.405 180.729L351.287 180.813C351.25 181.149 351.18 181.439 351.077 181.681C350.975 181.915 350.835 182.097 350.657 182.227C350.48 182.349 350.261 182.409 349.999 182.409ZM359.459 193.889C359.03 193.889 358.685 193.801 358.423 193.623C358.162 193.437 357.975 193.18 357.863 192.853C357.751 192.517 357.695 192.13 357.695 191.691V182.535H359.529V191.775C359.529 191.999 359.571 192.158 359.655 192.251C359.739 192.335 359.828 192.377 359.921 192.377C359.959 192.377 359.996 192.377 360.033 192.377C360.071 192.368 360.127 192.359 360.201 192.349L360.425 193.721C360.313 193.768 360.178 193.805 360.019 193.833C359.87 193.871 359.683 193.889 359.459 193.889ZM368.415 186.539L367.183 185.923C367.407 185.895 367.617 185.839 367.812 185.755C368.009 185.671 368.167 185.527 368.289 185.321C368.419 185.107 368.485 184.808 368.485 184.425C368.485 184.267 368.457 184.113 368.401 183.963C368.354 183.814 368.298 183.679 368.233 183.557L369.619 182.941C369.74 183.109 369.838 183.315 369.913 183.557C369.997 183.8 370.039 184.052 370.039 184.313C370.039 184.733 369.964 185.097 369.815 185.405C369.665 185.704 369.465 185.947 369.213 186.133C368.97 186.32 368.704 186.455 368.415 186.539ZM364.285 193.889C363.445 193.889 362.833 193.619 362.451 193.077C362.068 192.536 361.877 191.775 361.877 190.795V185.923H363.711V190.571C363.711 191.197 363.804 191.645 363.991 191.915C364.187 192.177 364.495 192.307 364.915 192.307C365.251 192.307 365.549 192.223 365.811 192.055C366.072 191.887 366.347 191.617 366.637 191.243V185.923H368.471V193.693H366.959L366.819 192.545H366.777C366.431 192.947 366.063 193.273 365.671 193.525C365.279 193.768 364.817 193.889 364.285 193.889ZM365.419 197.123C365.083 197.123 364.812 197.025 364.607 196.829C364.411 196.643 364.312 196.391 364.312 196.073C364.312 195.756 364.411 195.499 364.607 195.303C364.812 195.117 365.083 195.023 365.419 195.023C365.736 195.023 365.997 195.117 366.203 195.303C366.408 195.499 366.511 195.756 366.511 196.073C366.511 196.391 366.408 196.643 366.203 196.829C365.997 197.025 365.736 197.123 365.419 197.123ZM374.013 193.889C373.304 193.889 372.665 193.731 372.095 193.413C371.535 193.087 371.087 192.62 370.751 192.013C370.425 191.397 370.261 190.665 370.261 189.815C370.261 188.947 370.443 188.21 370.807 187.603C371.171 186.997 371.647 186.535 372.235 186.217C372.833 185.891 373.477 185.727 374.167 185.727C374.653 185.727 375.082 185.811 375.455 185.979C375.829 186.147 376.155 186.357 376.435 186.609L375.553 187.785C375.348 187.608 375.143 187.473 374.937 187.379C374.732 187.286 374.508 187.239 374.265 187.239C373.855 187.239 373.486 187.347 373.159 187.561C372.842 187.767 372.595 188.065 372.417 188.457C372.24 188.84 372.151 189.293 372.151 189.815C372.151 190.329 372.24 190.781 372.417 191.173C372.595 191.556 372.837 191.855 373.145 192.069C373.453 192.275 373.803 192.377 374.195 192.377C374.503 192.377 374.793 192.317 375.063 192.195C375.334 192.065 375.581 191.906 375.805 191.719L376.547 192.937C376.183 193.255 375.777 193.493 375.329 193.651C374.891 193.81 374.452 193.889 374.013 193.889Z" fill="#141A42"/>
<path d="M193.657 95.7871V85.4411H195.505V90.1311H195.547L199.215 85.4411H201.273L198.081 89.4731L201.805 95.7871H199.775L196.975 90.9291L195.505 92.7771V95.7871H193.657ZM202.962 98.9651C202.748 98.9651 202.556 98.9511 202.388 98.9231C202.23 98.8951 202.08 98.8578 201.94 98.8111L202.29 97.3971C202.365 97.4158 202.449 97.4391 202.542 97.4671C202.645 97.4951 202.748 97.5091 202.85 97.5091C203.252 97.5091 203.574 97.3831 203.816 97.1311C204.059 96.8791 204.246 96.5618 204.376 96.1791L204.53 95.6891L201.478 88.0171H203.34L204.67 91.8111C204.792 92.1658 204.904 92.5298 205.006 92.9031C205.118 93.2764 205.235 93.6451 205.356 94.0091H205.426C205.51 93.6451 205.604 93.2811 205.706 92.9171C205.809 92.5438 205.907 92.1751 206 91.8111L207.162 88.0171H208.926L206.126 96.1371C205.912 96.7251 205.664 97.2291 205.384 97.6491C205.114 98.0691 204.782 98.3911 204.39 98.6151C204.008 98.8484 203.532 98.9651 202.962 98.9651ZM204.726 86.7711L204.558 85.9871C204.782 85.9404 204.969 85.8704 205.118 85.7771C205.277 85.6838 205.356 85.5391 205.356 85.3431C205.356 85.1378 205.254 84.9791 205.048 84.8671C204.843 84.7458 204.516 84.6711 204.068 84.6431L204.18 83.4811C204.768 83.4998 205.249 83.5838 205.622 83.7331C206.005 83.8731 206.285 84.0691 206.462 84.3211C206.64 84.5638 206.728 84.8578 206.728 85.2031C206.728 85.5391 206.635 85.8144 206.448 86.0291C206.271 86.2438 206.028 86.4118 205.72 86.5331C205.412 86.6451 205.081 86.7244 204.726 86.7711ZM215.187 95.9831C214.757 95.9831 214.412 95.8944 214.151 95.7171C213.889 95.5304 213.703 95.2738 213.591 94.9471C213.479 94.6111 213.423 94.2238 213.423 93.7851V84.6291H215.257V93.8691C215.257 94.0931 215.299 94.2518 215.383 94.3451C215.467 94.4291 215.555 94.4711 215.649 94.4711C215.686 94.4711 215.723 94.4711 215.761 94.4711C215.798 94.4618 215.854 94.4524 215.929 94.4431L216.153 95.8151C216.041 95.8618 215.905 95.8991 215.747 95.9271C215.597 95.9644 215.411 95.9831 215.187 95.9831ZM220.012 95.9831C219.172 95.9831 218.561 95.7124 218.178 95.1711C217.795 94.6298 217.604 93.8691 217.604 92.8891V88.0171H219.438V92.6651C219.438 93.2904 219.531 93.7384 219.718 94.0091C219.914 94.2704 220.222 94.4011 220.642 94.4011C220.978 94.4011 221.277 94.3171 221.538 94.1491C221.799 93.9811 222.075 93.7104 222.364 93.3371V88.0171H224.198V95.7871H222.686L222.546 94.6391H222.504C222.159 95.0404 221.79 95.3671 221.398 95.6191C221.006 95.8618 220.544 95.9831 220.012 95.9831ZM228.383 95.9831C227.925 95.9831 227.524 95.8851 227.179 95.6891C226.843 95.4931 226.577 95.2271 226.381 94.8911C226.185 94.5458 226.087 94.1491 226.087 93.7011C226.087 92.8611 226.451 92.2171 227.179 91.7691C227.907 91.3118 229.064 90.9944 230.651 90.8171C230.641 90.5371 230.59 90.2851 230.497 90.0611C230.413 89.8278 230.268 89.6458 230.063 89.5151C229.867 89.3751 229.596 89.3051 229.251 89.3051C228.859 89.3051 228.481 89.3798 228.117 89.5291C227.753 89.6784 227.398 89.8604 227.053 90.0751L226.395 88.8431C226.684 88.6658 226.992 88.5024 227.319 88.3531C227.655 88.1944 228.009 88.0684 228.383 87.9751C228.765 87.8724 229.162 87.8211 229.573 87.8211C230.226 87.8211 230.767 87.9518 231.197 88.2131C231.626 88.4744 231.948 88.8571 232.163 89.3611C232.377 89.8558 232.485 90.4624 232.485 91.1811V95.7871H230.987L230.847 94.9331H230.791C230.445 95.2224 230.072 95.4698 229.671 95.6751C229.269 95.8804 228.84 95.9831 228.383 95.9831ZM228.971 94.5271C229.279 94.5271 229.563 94.4571 229.825 94.3171C230.095 94.1678 230.371 93.9624 230.651 93.7011V91.9651C229.951 92.0491 229.395 92.1658 228.985 92.3151C228.574 92.4644 228.28 92.6464 228.103 92.8611C227.935 93.0664 227.851 93.2998 227.851 93.5611C227.851 93.9064 227.953 94.1538 228.159 94.3031C228.373 94.4524 228.644 94.5271 228.971 94.5271ZM226.969 86.1831L228.719 84.0551H230.567L232.331 86.1831L231.617 86.8551L229.685 85.2591H229.629L227.697 86.8551L226.969 86.1831ZM229.335 99.2171C229.017 99.2171 228.756 99.1191 228.551 98.9231C228.345 98.7364 228.243 98.4844 228.243 98.1671C228.243 97.8498 228.345 97.5931 228.551 97.3971C228.756 97.2104 229.017 97.1171 229.335 97.1171C229.661 97.1171 229.927 97.2104 230.133 97.3971C230.338 97.5931 230.441 97.8498 230.441 98.1671C230.441 98.4844 230.338 98.7364 230.133 98.9231C229.927 99.1191 229.661 99.2171 229.335 99.2171ZM237.071 95.9831C236.473 95.9831 235.993 95.8664 235.629 95.6331C235.274 95.3904 235.013 95.0591 234.845 94.6391C234.686 94.2098 234.607 93.7151 234.607 93.1551V89.4731H233.501V88.1011L234.719 88.0171L234.915 85.8891H236.441V88.0171H238.415V89.4731H236.441V93.1691C236.441 93.6171 236.529 93.9578 236.707 94.1911C236.893 94.4151 237.173 94.5271 237.547 94.5271C237.677 94.5271 237.813 94.5084 237.953 94.4711C238.102 94.4338 238.233 94.3918 238.345 94.3451L238.653 95.6891C238.447 95.7544 238.209 95.8198 237.939 95.8851C237.677 95.9504 237.388 95.9831 237.071 95.9831Z" fill="#141A42"/>
<path d="M273.742 356.539V347.747H270.774V346.193H278.586V347.747H275.604V356.539H273.742ZM279.418 356.539V348.769H280.916L281.07 350.155H281.098C281.378 349.651 281.714 349.264 282.106 348.993C282.498 348.713 282.899 348.573 283.31 348.573C283.515 348.573 283.683 348.587 283.814 348.615C283.954 348.643 284.08 348.685 284.192 348.741L283.884 350.323C283.744 350.286 283.613 350.258 283.492 350.239C283.38 350.211 283.24 350.197 283.072 350.197C282.773 350.197 282.451 350.318 282.106 350.561C281.77 350.804 281.485 351.219 281.252 351.807V356.539H279.418ZM287.648 356.735C286.808 356.735 286.196 356.464 285.814 355.923C285.431 355.382 285.24 354.621 285.24 353.641V348.769H287.074V353.417C287.074 354.042 287.167 354.49 287.354 354.761C287.55 355.022 287.858 355.153 288.278 355.153C288.614 355.153 288.912 355.069 289.174 354.901C289.435 354.733 289.71 354.462 290 354.089V348.769H291.834V356.539H290.322L290.182 355.391H290.14C289.794 355.792 289.426 356.119 289.034 356.371C288.642 356.614 288.18 356.735 287.648 356.735ZM294.142 356.539V348.769H295.64L295.794 349.819H295.822C296.168 349.474 296.546 349.18 296.956 348.937C297.367 348.694 297.838 348.573 298.37 348.573C299.201 348.573 299.808 348.844 300.19 349.385C300.573 349.926 300.764 350.687 300.764 351.667V356.539H298.93V351.905C298.93 351.261 298.832 350.808 298.636 350.547C298.45 350.286 298.146 350.155 297.726 350.155C297.39 350.155 297.092 350.239 296.83 350.407C296.578 350.566 296.294 350.799 295.976 351.107V356.539H294.142ZM305.69 359.969C305.074 359.969 304.519 359.894 304.024 359.745C303.539 359.596 303.156 359.372 302.876 359.073C302.596 358.774 302.456 358.401 302.456 357.953C302.456 357.626 302.55 357.318 302.736 357.029C302.932 356.749 303.212 356.506 303.576 356.301V356.231C303.38 356.1 303.212 355.932 303.072 355.727C302.942 355.512 302.876 355.246 302.876 354.929C302.876 354.63 302.96 354.355 303.128 354.103C303.306 353.842 303.511 353.636 303.744 353.487V353.431C303.474 353.226 303.231 352.946 303.016 352.591C302.802 352.236 302.694 351.83 302.694 351.373C302.694 350.776 302.839 350.267 303.128 349.847C303.418 349.427 303.796 349.11 304.262 348.895C304.729 348.68 305.228 348.573 305.76 348.573C305.994 348.573 306.208 348.592 306.404 348.629C306.6 348.666 306.773 348.713 306.922 348.769H309.708V350.127H308.308C308.43 350.276 308.528 350.463 308.602 350.687C308.686 350.911 308.728 351.158 308.728 351.429C308.728 351.998 308.598 352.484 308.336 352.885C308.075 353.277 307.716 353.576 307.258 353.781C306.81 353.977 306.311 354.075 305.76 354.075C305.611 354.075 305.443 354.061 305.256 354.033C305.079 353.996 304.902 353.944 304.724 353.879C304.612 353.972 304.519 354.075 304.444 354.187C304.379 354.299 304.346 354.444 304.346 354.621C304.346 354.826 304.435 354.994 304.612 355.125C304.799 355.246 305.13 355.307 305.606 355.307H306.992C307.916 355.307 308.621 355.461 309.106 355.769C309.592 356.068 309.834 356.553 309.834 357.225C309.834 357.738 309.666 358.2 309.33 358.611C308.994 359.031 308.514 359.362 307.888 359.605C307.263 359.848 306.53 359.969 305.69 359.969ZM305.76 352.927C306.012 352.927 306.241 352.866 306.446 352.745C306.652 352.614 306.815 352.437 306.936 352.213C307.058 351.98 307.118 351.7 307.118 351.373C307.118 351.046 307.058 350.771 306.936 350.547C306.815 350.314 306.652 350.141 306.446 350.029C306.25 349.908 306.022 349.847 305.76 349.847C305.518 349.847 305.294 349.908 305.088 350.029C304.892 350.141 304.734 350.309 304.612 350.533C304.491 350.757 304.43 351.037 304.43 351.373C304.43 351.7 304.491 351.98 304.612 352.213C304.734 352.437 304.892 352.614 305.088 352.745C305.294 352.866 305.518 352.927 305.76 352.927ZM305.956 358.779C306.386 358.779 306.754 358.718 307.062 358.597C307.38 358.485 307.622 358.336 307.79 358.149C307.968 357.962 308.056 357.757 308.056 357.533C308.056 357.225 307.94 357.015 307.706 356.903C307.473 356.8 307.137 356.749 306.698 356.749H305.634C305.429 356.749 305.238 356.74 305.06 356.721C304.892 356.712 304.734 356.688 304.584 356.651C304.379 356.8 304.23 356.964 304.136 357.141C304.043 357.318 303.996 357.496 303.996 357.673C303.996 358.018 304.174 358.289 304.528 358.485C304.883 358.681 305.359 358.779 305.956 358.779ZM317.107 356.735C316.51 356.735 316.029 356.618 315.665 356.385C315.31 356.142 315.049 355.811 314.881 355.391C314.722 354.962 314.643 354.467 314.643 353.907V350.225H313.537V348.853L314.755 348.769L314.951 346.641H316.477V348.769H318.451V350.225H316.477V353.921C316.477 354.369 316.566 354.71 316.743 354.943C316.93 355.167 317.21 355.279 317.583 355.279C317.714 355.279 317.849 355.26 317.989 355.223C318.138 355.186 318.269 355.144 318.381 355.097L318.689 356.441C318.484 356.506 318.246 356.572 317.975 356.637C317.714 356.702 317.424 356.735 317.107 356.735ZM320.092 356.539V345.381H321.926V348.265L321.842 349.749C322.168 349.441 322.528 349.17 322.92 348.937C323.321 348.694 323.788 348.573 324.32 348.573C325.15 348.573 325.757 348.844 326.14 349.385C326.522 349.926 326.714 350.687 326.714 351.667V356.539H324.88V351.905C324.88 351.261 324.782 350.808 324.586 350.547C324.399 350.286 324.096 350.155 323.676 350.155C323.34 350.155 323.041 350.239 322.78 350.407C322.528 350.566 322.243 350.799 321.926 351.107V356.539H320.092ZM335.364 349.385L334.132 348.769C334.356 348.741 334.566 348.685 334.762 348.601C334.958 348.517 335.116 348.372 335.238 348.167C335.368 347.952 335.434 347.654 335.434 347.271C335.434 347.112 335.406 346.958 335.35 346.809C335.303 346.66 335.247 346.524 335.182 346.403L336.568 345.787C336.689 345.955 336.787 346.16 336.862 346.403C336.946 346.646 336.988 346.898 336.988 347.159C336.988 347.579 336.913 347.943 336.764 348.251C336.614 348.55 336.414 348.792 336.162 348.979C335.919 349.166 335.653 349.301 335.364 349.385ZM331.234 356.735C330.394 356.735 329.782 356.464 329.4 355.923C329.017 355.382 328.826 354.621 328.826 353.641V348.769H330.66V353.417C330.66 354.042 330.753 354.49 330.94 354.761C331.136 355.022 331.444 355.153 331.864 355.153C332.2 355.153 332.498 355.069 332.76 354.901C333.021 354.733 333.296 354.462 333.586 354.089V348.769H335.42V356.539H333.908L333.768 355.391H333.726C333.38 355.792 333.012 356.119 332.62 356.371C332.228 356.614 331.766 356.735 331.234 356.735ZM332.368 359.969C332.032 359.969 331.761 359.871 331.556 359.675C331.36 359.488 331.262 359.236 331.262 358.919C331.262 358.602 331.36 358.345 331.556 358.149C331.761 357.962 332.032 357.869 332.368 357.869C332.685 357.869 332.946 357.962 333.152 358.149C333.357 358.345 333.46 358.602 333.46 358.919C333.46 359.236 333.357 359.488 333.152 359.675C332.946 359.871 332.685 359.969 332.368 359.969ZM340.962 356.735C340.253 356.735 339.614 356.576 339.044 356.259C338.484 355.932 338.036 355.466 337.7 354.859C337.374 354.243 337.21 353.51 337.21 352.661C337.21 351.793 337.392 351.056 337.756 350.449C338.12 349.842 338.596 349.38 339.184 349.063C339.782 348.736 340.426 348.573 341.116 348.573C341.602 348.573 342.031 348.657 342.404 348.825C342.778 348.993 343.104 349.203 343.384 349.455L342.502 350.631C342.297 350.454 342.092 350.318 341.886 350.225C341.681 350.132 341.457 350.085 341.214 350.085C340.804 350.085 340.435 350.192 340.108 350.407C339.791 350.612 339.544 350.911 339.366 351.303C339.189 351.686 339.1 352.138 339.1 352.661C339.1 353.174 339.189 353.627 339.366 354.019C339.544 354.402 339.786 354.7 340.094 354.915C340.402 355.12 340.752 355.223 341.144 355.223C341.452 355.223 341.742 355.162 342.012 355.041C342.283 354.91 342.53 354.752 342.754 354.565L343.496 355.783C343.132 356.1 342.726 356.338 342.278 356.497C341.84 356.656 341.401 356.735 340.962 356.735Z" fill="#141A42"/>
<path d="M105.593 356.539V346.193H107.441V350.883H107.483L111.151 346.193H113.209L110.017 350.225L113.741 356.539H111.711L108.911 351.681L107.441 353.529V356.539H105.593ZM117.959 356.735C117.24 356.735 116.591 356.572 116.013 356.245C115.434 355.918 114.972 355.452 114.627 354.845C114.291 354.238 114.123 353.51 114.123 352.661C114.123 352.026 114.221 351.462 114.417 350.967C114.622 350.463 114.893 350.034 115.229 349.679C115.574 349.315 115.957 349.04 116.377 348.853C116.806 348.666 117.249 348.573 117.707 348.573C118.407 348.573 118.995 348.732 119.471 349.049C119.947 349.357 120.306 349.791 120.549 350.351C120.791 350.902 120.913 351.541 120.913 352.269C120.913 352.446 120.903 352.614 120.885 352.773C120.875 352.922 120.857 353.048 120.829 353.151H115.915C115.961 353.608 116.087 353.996 116.293 354.313C116.498 354.63 116.759 354.878 117.077 355.055C117.403 355.223 117.777 355.307 118.197 355.307C118.523 355.307 118.831 355.26 119.121 355.167C119.41 355.064 119.699 354.924 119.989 354.747L120.619 355.895C120.255 356.138 119.844 356.338 119.387 356.497C118.929 356.656 118.453 356.735 117.959 356.735ZM115.887 351.905H119.345C119.345 351.317 119.209 350.855 118.939 350.519C118.668 350.174 118.267 350.001 117.735 350.001C117.445 350.001 117.17 350.076 116.909 350.225C116.647 350.365 116.423 350.575 116.237 350.855C116.059 351.135 115.943 351.485 115.887 351.905ZM116.027 347.551L115.425 346.865L116.951 345.423H118.421L119.947 346.865L119.345 347.551L117.721 346.473H117.651L116.027 347.551ZM120.143 346.459L119.429 345.885L120.745 343.925L121.753 344.597L120.143 346.459ZM128.554 356.735C127.957 356.735 127.476 356.618 127.112 356.385C126.757 356.142 126.496 355.811 126.328 355.391C126.169 354.962 126.09 354.467 126.09 353.907V350.225H124.984V348.853L126.202 348.769L126.398 346.641H127.924V348.769H129.898V350.225H127.924V353.921C127.924 354.369 128.013 354.71 128.19 354.943C128.377 355.167 128.657 355.279 129.03 355.279C129.161 355.279 129.296 355.26 129.436 355.223C129.585 355.186 129.716 355.144 129.828 355.097L130.136 356.441C129.931 356.506 129.693 356.572 129.422 356.637C129.161 356.702 128.871 356.735 128.554 356.735ZM131.539 356.539V345.381H133.373V348.265L133.289 349.749C133.616 349.441 133.975 349.17 134.367 348.937C134.768 348.694 135.235 348.573 135.767 348.573C136.598 348.573 137.204 348.844 137.587 349.385C137.97 349.926 138.161 350.687 138.161 351.667V356.539H136.327V351.905C136.327 351.261 136.229 350.808 136.033 350.547C135.846 350.286 135.543 350.155 135.123 350.155C134.787 350.155 134.488 350.239 134.227 350.407C133.975 350.566 133.69 350.799 133.373 351.107V356.539H131.539ZM146.811 349.385L145.579 348.769C145.803 348.741 146.013 348.685 146.209 348.601C146.405 348.517 146.564 348.372 146.685 348.167C146.816 347.952 146.881 347.654 146.881 347.271C146.881 347.112 146.853 346.958 146.797 346.809C146.75 346.66 146.694 346.524 146.629 346.403L148.015 345.787C148.136 345.955 148.234 346.16 148.309 346.403C148.393 346.646 148.435 346.898 148.435 347.159C148.435 347.579 148.36 347.943 148.211 348.251C148.062 348.55 147.861 348.792 147.609 348.979C147.366 349.166 147.1 349.301 146.811 349.385ZM142.681 356.735C141.841 356.735 141.23 356.464 140.847 355.923C140.464 355.382 140.273 354.621 140.273 353.641V348.769H142.107V353.417C142.107 354.042 142.2 354.49 142.387 354.761C142.583 355.022 142.891 355.153 143.311 355.153C143.647 355.153 143.946 355.069 144.207 354.901C144.468 354.733 144.744 354.462 145.033 354.089V348.769H146.867V356.539H145.355L145.215 355.391H145.173C144.828 355.792 144.459 356.119 144.067 356.371C143.675 356.614 143.213 356.735 142.681 356.735ZM143.591 347.481L140.903 345.031L142.163 343.813L144.515 346.585L143.591 347.481ZM150.833 356.735C150.376 356.735 149.974 356.637 149.629 356.441C149.293 356.245 149.027 355.979 148.831 355.643C148.635 355.298 148.537 354.901 148.537 354.453C148.537 353.613 148.901 352.969 149.629 352.521C150.357 352.064 151.514 351.746 153.101 351.569C153.092 351.289 153.04 351.037 152.947 350.813C152.863 350.58 152.718 350.398 152.513 350.267C152.317 350.127 152.046 350.057 151.701 350.057C151.309 350.057 150.931 350.132 150.567 350.281C150.203 350.43 149.848 350.612 149.503 350.827L148.845 349.595C149.134 349.418 149.442 349.254 149.769 349.105C150.105 348.946 150.46 348.82 150.833 348.727C151.216 348.624 151.612 348.573 152.023 348.573C152.676 348.573 153.218 348.704 153.647 348.965C154.076 349.226 154.398 349.609 154.613 350.113C154.828 350.608 154.935 351.214 154.935 351.933V356.539H153.437L153.297 355.685H153.241C152.896 355.974 152.522 356.222 152.121 356.427C151.72 356.632 151.29 356.735 150.833 356.735ZM151.421 355.279C151.729 355.279 152.014 355.209 152.275 355.069C152.546 354.92 152.821 354.714 153.101 354.453V352.717C152.401 352.801 151.846 352.918 151.435 353.067C151.024 353.216 150.73 353.398 150.553 353.613C150.385 353.818 150.301 354.052 150.301 354.313C150.301 354.658 150.404 354.906 150.609 355.055C150.824 355.204 151.094 355.279 151.421 355.279Z" fill="#141A42"/>
<path d="M55.5416 191.363V181.017H58.8596C59.5689 181.017 60.1989 181.101 60.7496 181.269C61.3096 181.428 61.7483 181.694 62.0656 182.067C62.3829 182.431 62.5416 182.931 62.5416 183.565C62.5416 183.892 62.4856 184.209 62.3736 184.517C62.2616 184.816 62.0983 185.082 61.8836 185.315C61.6689 185.539 61.4123 185.703 61.1136 185.805V185.875C61.6829 185.997 62.1543 186.263 62.5276 186.673C62.9009 187.075 63.0876 187.625 63.0876 188.325C63.0876 189.016 62.9149 189.585 62.5696 190.033C62.2243 190.481 61.7529 190.817 61.1556 191.041C60.5583 191.256 59.8769 191.363 59.1116 191.363H55.5416ZM57.3896 185.287H58.6916C59.4103 185.287 59.9283 185.157 60.2456 184.895C60.5723 184.634 60.7356 184.279 60.7356 183.831C60.7356 183.337 60.5676 182.987 60.2316 182.781C59.8956 182.567 59.3916 182.459 58.7196 182.459H57.3896V185.287ZM57.3896 189.921H58.9296C59.6856 189.921 60.2643 189.786 60.6656 189.515C61.0763 189.235 61.2816 188.806 61.2816 188.227C61.2816 187.677 61.0809 187.28 60.6796 187.037C60.2783 186.795 59.6949 186.673 58.9296 186.673H57.3896V189.921ZM64.8212 191.363V183.593H66.6552V191.363H64.8212ZM65.7452 182.235C65.4092 182.235 65.1432 182.142 64.9472 181.955C64.7512 181.759 64.6532 181.503 64.6532 181.185C64.6532 180.877 64.7512 180.63 64.9472 180.443C65.1432 180.247 65.4092 180.149 65.7452 180.149C66.0625 180.149 66.3238 180.247 66.5292 180.443C66.7345 180.63 66.8372 180.877 66.8372 181.185C66.8372 181.503 66.7345 181.759 66.5292 181.955C66.3238 182.142 66.0625 182.235 65.7452 182.235ZM72.2818 191.559C71.5631 191.559 70.9144 191.396 70.3358 191.069C69.7571 190.743 69.2951 190.276 68.9498 189.669C68.6138 189.063 68.4458 188.335 68.4458 187.485C68.4458 186.851 68.5438 186.286 68.7398 185.791C68.9451 185.287 69.2158 184.858 69.5518 184.503C69.8971 184.139 70.2798 183.864 70.6998 183.677C71.1291 183.491 71.5724 183.397 72.0298 183.397C72.7298 183.397 73.3178 183.556 73.7938 183.873C74.2698 184.181 74.6291 184.615 74.8718 185.175C75.1144 185.726 75.2358 186.365 75.2358 187.093C75.2358 187.271 75.2264 187.439 75.2078 187.597C75.1984 187.747 75.1798 187.873 75.1518 187.975H70.2378C70.2844 188.433 70.4104 188.82 70.6158 189.137C70.8211 189.455 71.0824 189.702 71.3998 189.879C71.7264 190.047 72.0998 190.131 72.5198 190.131C72.8464 190.131 73.1544 190.085 73.4438 189.991C73.7331 189.889 74.0224 189.749 74.3118 189.571L74.9418 190.719C74.5778 190.962 74.1671 191.163 73.7098 191.321C73.2524 191.48 72.7764 191.559 72.2818 191.559ZM70.2098 186.729H73.6678C73.6678 186.141 73.5324 185.679 73.2618 185.343C72.9911 184.998 72.5898 184.825 72.0578 184.825C71.7684 184.825 71.4931 184.9 71.2318 185.049C70.9704 185.189 70.7464 185.399 70.5598 185.679C70.3824 185.959 70.2658 186.309 70.2098 186.729ZM70.3498 182.375L69.7478 181.689L71.2738 180.247H72.7438L74.2698 181.689L73.6678 182.375L72.0438 181.297H71.9738L70.3498 182.375ZM74.4658 181.283L73.7518 180.709L75.0678 178.749L76.0758 179.421L74.4658 181.283ZM79.5004 191.559C78.9031 191.559 78.4224 191.443 78.0584 191.209C77.7037 190.967 77.4424 190.635 77.2744 190.215C77.1157 189.786 77.0364 189.291 77.0364 188.731V185.049H75.9304V183.677L77.1484 183.593L77.3444 181.465H78.8704V183.593H80.8444V185.049H78.8704V188.745C78.8704 189.193 78.9591 189.534 79.1364 189.767C79.3231 189.991 79.6031 190.103 79.9764 190.103C80.1071 190.103 80.2424 190.085 80.3824 190.047C80.5317 190.01 80.6624 189.968 80.7744 189.921L81.0824 191.265C80.8771 191.331 80.6391 191.396 80.3684 191.461C80.1071 191.527 79.8177 191.559 79.5004 191.559ZM91.2434 184.391L90.2914 183.733C90.6834 183.659 90.9914 183.505 91.2154 183.271C91.4394 183.038 91.5514 182.702 91.5514 182.263C91.5514 182.105 91.5281 181.951 91.4814 181.801C91.4441 181.643 91.3881 181.503 91.3134 181.381L92.6854 180.765C92.8068 180.933 92.9048 181.139 92.9794 181.381C93.0634 181.624 93.1054 181.876 93.1054 182.137C93.1054 182.557 93.0168 182.917 92.8394 183.215C92.6714 183.514 92.4474 183.761 92.1674 183.957C91.8874 184.144 91.5794 184.289 91.2434 184.391ZM88.8214 191.559C88.1774 191.559 87.5708 191.401 87.0014 191.083C86.4414 190.757 85.9888 190.29 85.6434 189.683C85.2981 189.067 85.1254 188.335 85.1254 187.485C85.1254 186.617 85.2981 185.88 85.6434 185.273C85.9888 184.667 86.4414 184.205 87.0014 183.887C87.5708 183.561 88.1774 183.397 88.8214 183.397C89.3068 183.397 89.7688 183.491 90.2074 183.677C90.6554 183.855 91.0521 184.121 91.3974 184.475C91.7428 184.821 92.0134 185.245 92.2094 185.749C92.4148 186.253 92.5174 186.832 92.5174 187.485C92.5174 188.335 92.3448 189.067 91.9994 189.683C91.6541 190.29 91.1968 190.757 90.6274 191.083C90.0674 191.401 89.4654 191.559 88.8214 191.559ZM88.8214 190.047C89.2041 190.047 89.5308 189.945 89.8014 189.739C90.0721 189.525 90.2774 189.226 90.4174 188.843C90.5668 188.451 90.6414 187.999 90.6414 187.485C90.6414 186.963 90.5668 186.51 90.4174 186.127C90.2774 185.735 90.0721 185.437 89.8014 185.231C89.5308 185.017 89.2041 184.909 88.8214 184.909C88.4481 184.909 88.1261 185.017 87.8554 185.231C87.5848 185.437 87.3748 185.735 87.2254 186.127C87.0854 186.51 87.0154 186.963 87.0154 187.485C87.0154 187.999 87.0854 188.451 87.2254 188.843C87.3748 189.226 87.5848 189.525 87.8554 189.739C88.1261 189.945 88.4481 190.047 88.8214 190.047ZM94.3251 191.363V183.593H95.8231L95.9771 184.643H96.0051C96.3504 184.298 96.7284 184.004 97.1391 183.761C97.5498 183.519 98.0211 183.397 98.5531 183.397C99.3838 183.397 99.9904 183.668 100.373 184.209C100.756 184.751 100.947 185.511 100.947 186.491V191.363H99.1131V186.729C99.1131 186.085 99.0151 185.633 98.8191 185.371C98.6324 185.11 98.3291 184.979 97.9091 184.979C97.5731 184.979 97.2744 185.063 97.0131 185.231C96.7611 185.39 96.4764 185.623 96.1591 185.931V191.363H94.3251Z" fill="#141A42"/>
</g>
<defs>
<clipPath id="clip0_5024_12482">
<rect width="430" height="411" fill="white" transform="translate(0.117188 0.863281)"/>
</clipPath>
</defs>
</svg>
