<svg width="380" height="539" viewBox="0 0 380 539" fill="none" xmlns="http://www.w3.org/2000/svg">
<g filter="url(#filter0_d_680_7849)">
<path d="M73.8053 252.351C77.4408 244.835 72.7491 234.288 63.3526 228.823C53.9561 223.358 43.3696 225.034 39.7341 232.549C36.0986 240.065 40.7903 250.612 50.1868 256.077C59.6118 261.558 70.1698 259.866 73.8053 252.351Z" fill="url(#paint0_linear_680_7849)"/>
</g>
<g filter="url(#filter1_d_680_7849)">
<path d="M113.852 272.979C117.172 266.066 112.881 256.442 104.283 251.431C95.674 246.444 85.9881 247.966 82.6505 254.841C79.3413 261.731 83.6218 271.378 92.2199 276.389C100.829 281.376 110.514 279.854 113.852 272.979Z" fill="url(#paint1_linear_680_7849)"/>
</g>
<g filter="url(#filter2_d_680_7849)">
<path d="M152.846 290.614C155.804 284.48 151.996 275.912 144.328 271.46C136.661 267.008 128.06 268.367 125.102 274.502C122.144 280.636 125.953 289.204 133.62 293.656C141.288 298.108 149.888 296.749 152.846 290.614Z" fill="url(#paint2_linear_680_7849)"/>
</g>
<g filter="url(#filter3_d_680_7849)">
<path d="M192.847 308.807C195.507 303.314 192.064 295.591 185.195 291.593C178.326 287.596 170.576 288.831 167.916 294.325C165.256 299.818 168.699 307.541 175.569 311.538C182.448 315.513 190.187 314.301 192.847 308.807Z" fill="url(#paint3_linear_680_7849)"/>
</g>
<g filter="url(#filter4_d_680_7849)">
<path d="M232.949 327.42C235.229 322.666 232.286 316.039 226.376 312.617C220.437 309.178 213.784 310.227 211.514 314.958C209.234 319.711 212.177 326.339 218.087 329.761C224.026 333.2 230.679 332.151 232.949 327.42Z" fill="url(#paint4_linear_680_7849)"/>
</g>
<g filter="url(#filter5_d_680_7849)">
<path d="M272.963 346.006C274.924 341.94 272.4 336.275 267.316 333.323C262.233 330.371 256.548 331.276 254.587 335.343C252.626 339.41 255.15 345.075 260.233 348.026C265.299 350.939 271.012 350.05 272.963 346.006Z" fill="url(#paint5_linear_680_7849)"/>
</g>
<g filter="url(#filter6_d_680_7849)">
<path d="M311.844 363.909C313.203 361.062 311.447 357.079 307.903 355.004C304.348 352.951 300.347 353.569 298.96 356.4C297.58 359.293 299.347 363.253 302.919 365.344C306.473 367.397 310.475 366.779 311.844 363.909Z" fill="url(#paint6_linear_680_7849)"/>
</g>
<g filter="url(#filter7_d_680_7849)">
<path d="M351.984 382.14C352.949 380.141 351.701 377.316 349.202 375.865C346.703 374.413 343.866 374.854 342.901 376.853C341.936 378.852 343.185 381.677 345.683 383.128C348.182 384.58 351.009 384.162 351.984 382.14Z" fill="url(#paint7_linear_680_7849)"/>
</g>
<g filter="url(#filter8_d_680_7849)">
<path d="M164.045 161.041C167.269 154.376 163.109 145.022 154.776 140.176C146.443 135.33 137.055 136.816 133.831 143.481C130.606 150.146 134.767 159.499 143.1 164.346C151.458 169.207 160.821 167.706 164.045 161.041Z" fill="url(#paint8_linear_680_7849)"/>
</g>
<g filter="url(#filter9_d_680_7849)">
<path d="M199.56 179.333C202.504 173.202 198.698 164.667 191.073 160.224C183.439 155.801 174.849 157.151 171.89 163.247C168.955 169.358 172.751 177.913 180.376 182.357C188.01 186.78 196.6 185.429 199.56 179.333Z" fill="url(#paint9_linear_680_7849)"/>
</g>
<g filter="url(#filter10_d_680_7849)">
<path d="M234.14 194.972C236.763 189.532 233.386 181.934 226.586 177.986C219.787 174.038 212.16 175.243 209.537 180.684C206.913 186.124 210.291 193.722 217.09 197.67C223.89 201.618 231.517 200.413 234.14 194.972Z" fill="url(#paint10_linear_680_7849)"/>
</g>
<g filter="url(#filter11_d_680_7849)">
<path d="M269.614 211.107C271.973 206.236 268.919 199.387 262.827 195.842C256.736 192.297 249.863 193.392 247.504 198.264C245.145 203.136 248.199 209.985 254.291 213.53C260.392 217.054 267.255 215.979 269.614 211.107Z" fill="url(#paint11_linear_680_7849)"/>
</g>
<g filter="url(#filter12_d_680_7849)">
<path d="M305.176 227.614C307.199 223.398 304.589 217.521 299.348 214.486C294.081 211.436 288.181 212.366 286.168 216.562C284.145 220.777 286.755 226.655 291.997 229.69C297.263 232.739 303.163 231.809 305.176 227.614Z" fill="url(#paint12_linear_680_7849)"/>
</g>
<g filter="url(#filter13_d_680_7849)">
<path d="M340.662 244.096C342.401 240.49 340.162 235.466 335.654 232.848C331.146 230.231 326.105 231.033 324.366 234.64C322.626 238.246 324.865 243.27 329.373 245.888C333.865 248.471 338.932 247.683 340.662 244.096Z" fill="url(#paint13_linear_680_7849)"/>
</g>
<g filter="url(#filter14_d_680_7849)">
<path d="M375.142 259.973C376.347 257.448 374.79 253.916 371.647 252.075C368.495 250.255 364.946 250.803 363.716 253.314C362.492 255.879 364.059 259.391 367.227 261.246C370.379 263.066 373.928 262.518 375.142 259.973Z" fill="url(#paint14_linear_680_7849)"/>
</g>
<g filter="url(#filter15_d_680_7849)">
<path d="M47.5336 170.001C51.7973 161.187 46.2949 148.817 35.2749 142.408C24.2548 135.998 11.8391 137.964 7.57547 146.778C3.31179 155.592 8.81413 167.962 19.8342 174.371C30.8877 180.799 43.2699 178.815 47.5336 170.001Z" fill="url(#paint15_linear_680_7849)"/>
</g>
<g filter="url(#filter16_d_680_7849)">
<path d="M94.4998 194.193C98.3932 186.085 93.3606 174.798 83.277 168.922C73.1809 163.072 61.8214 164.858 57.9071 172.92C54.0262 181.001 59.0463 192.315 69.1299 198.192C79.226 204.041 90.5855 202.255 94.4998 194.193Z" fill="url(#paint16_linear_680_7849)"/>
</g>
<g filter="url(#filter17_d_680_7849)">
<path d="M140.231 214.876C143.701 207.681 139.234 197.633 130.242 192.412C121.249 187.191 111.163 188.785 107.694 195.979C104.225 203.174 108.691 213.222 117.684 218.443C126.676 223.664 136.762 222.07 140.231 214.876Z" fill="url(#paint17_linear_680_7849)"/>
</g>
<g filter="url(#filter18_d_680_7849)">
<path d="M187.144 236.212C190.264 229.77 186.225 220.712 178.169 216.025C170.113 211.337 161.025 212.785 157.905 219.228C154.785 225.67 158.824 234.728 166.88 239.416C174.948 244.077 184.024 242.655 187.144 236.212Z" fill="url(#paint18_linear_680_7849)"/>
</g>
<g filter="url(#filter19_d_680_7849)">
<path d="M234.174 258.041C236.849 252.466 233.397 244.694 226.466 240.68C219.501 236.647 211.698 237.877 209.036 243.425C206.362 249 209.813 256.773 216.745 260.787C223.71 264.819 231.512 263.59 234.174 258.041Z" fill="url(#paint19_linear_680_7849)"/>
</g>
<g filter="url(#filter20_d_680_7849)">
<path d="M281.102 279.838C283.403 275.068 280.442 268.424 274.48 264.962C268.519 261.501 261.852 262.562 259.551 267.331C257.251 272.101 260.212 278.745 266.173 282.206C272.114 285.622 278.814 284.58 281.102 279.838Z" fill="url(#paint20_linear_680_7849)"/>
</g>
<g filter="url(#filter21_d_680_7849)">
<path d="M326.702 300.835C328.295 297.496 326.235 292.825 322.079 290.391C317.911 287.984 313.218 288.709 311.591 292.028C309.973 295.421 312.045 300.065 316.234 302.518C320.403 304.925 325.096 304.2 326.702 300.835Z" fill="url(#paint21_linear_680_7849)"/>
</g>
<g filter="url(#filter22_d_680_7849)">
<path d="M373.777 322.214C374.908 319.87 373.445 316.558 370.514 314.855C367.583 313.153 364.256 313.67 363.125 316.015C361.993 318.359 363.457 321.671 366.388 323.374C369.318 325.076 372.633 324.586 373.777 322.214Z" fill="url(#paint22_linear_680_7849)"/>
</g>
<defs>
<filter id="filter0_d_680_7849" x="34.5031" y="225.609" width="44.5333" height="41.6895" filterUnits="userSpaceOnUse" color-interpolation-filters="sRGB">
<feFlood flood-opacity="0" result="BackgroundImageFix"/>
<feColorMatrix in="SourceAlpha" type="matrix" values="0 0 0 0 0 0 0 0 0 0 0 0 0 0 0 0 0 0 127 0" result="hardAlpha"/>
<feOffset dy="4"/>
<feGaussianBlur stdDeviation="2"/>
<feComposite in2="hardAlpha" operator="out"/>
<feColorMatrix type="matrix" values="0 0 0 0 0 0 0 0 0 0 0 0 0 0 0 0 0 0 0.15 0"/>
<feBlend mode="normal" in2="BackgroundImageFix" result="effect1_dropShadow_680_7849"/>
<feBlend mode="normal" in="SourceGraphic" in2="effect1_dropShadow_680_7849" result="shape"/>
</filter>
<filter id="filter1_d_680_7849" x="77.5318" y="248.496" width="41.4433" height="38.8281" filterUnits="userSpaceOnUse" color-interpolation-filters="sRGB">
<feFlood flood-opacity="0" result="BackgroundImageFix"/>
<feColorMatrix in="SourceAlpha" type="matrix" values="0 0 0 0 0 0 0 0 0 0 0 0 0 0 0 0 0 0 127 0" result="hardAlpha"/>
<feOffset dy="4"/>
<feGaussianBlur stdDeviation="2"/>
<feComposite in2="hardAlpha" operator="out"/>
<feColorMatrix type="matrix" values="0 0 0 0 0 0 0 0 0 0 0 0 0 0 0 0 0 0 0.15 0"/>
<feBlend mode="normal" in2="BackgroundImageFix" result="effect1_dropShadow_680_7849"/>
<feBlend mode="normal" in="SourceGraphic" in2="effect1_dropShadow_680_7849" result="shape"/>
</filter>
<filter id="filter2_d_680_7849" x="120.1" y="268.84" width="37.749" height="35.4355" filterUnits="userSpaceOnUse" color-interpolation-filters="sRGB">
<feFlood flood-opacity="0" result="BackgroundImageFix"/>
<feColorMatrix in="SourceAlpha" type="matrix" values="0 0 0 0 0 0 0 0 0 0 0 0 0 0 0 0 0 0 127 0" result="hardAlpha"/>
<feOffset dy="4"/>
<feGaussianBlur stdDeviation="2"/>
<feComposite in2="hardAlpha" operator="out"/>
<feColorMatrix type="matrix" values="0 0 0 0 0 0 0 0 0 0 0 0 0 0 0 0 0 0 0.15 0"/>
<feBlend mode="normal" in2="BackgroundImageFix" result="effect1_dropShadow_680_7849"/>
<feBlend mode="normal" in="SourceGraphic" in2="effect1_dropShadow_680_7849" result="shape"/>
</filter>
<filter id="filter3_d_680_7849" x="163.017" y="289.246" width="34.7301" height="32.6309" filterUnits="userSpaceOnUse" color-interpolation-filters="sRGB">
<feFlood flood-opacity="0" result="BackgroundImageFix"/>
<feColorMatrix in="SourceAlpha" type="matrix" values="0 0 0 0 0 0 0 0 0 0 0 0 0 0 0 0 0 0 127 0" result="hardAlpha"/>
<feOffset dy="4"/>
<feGaussianBlur stdDeviation="2"/>
<feComposite in2="hardAlpha" operator="out"/>
<feColorMatrix type="matrix" values="0 0 0 0 0 0 0 0 0 0 0 0 0 0 0 0 0 0 0.15 0"/>
<feBlend mode="normal" in2="BackgroundImageFix" result="effect1_dropShadow_680_7849"/>
<feBlend mode="normal" in="SourceGraphic" in2="effect1_dropShadow_680_7849" result="shape"/>
</filter>
<filter id="filter4_d_680_7849" x="206.742" y="310.592" width="30.9785" height="29.1934" filterUnits="userSpaceOnUse" color-interpolation-filters="sRGB">
<feFlood flood-opacity="0" result="BackgroundImageFix"/>
<feColorMatrix in="SourceAlpha" type="matrix" values="0 0 0 0 0 0 0 0 0 0 0 0 0 0 0 0 0 0 127 0" result="hardAlpha"/>
<feOffset dy="4"/>
<feGaussianBlur stdDeviation="2"/>
<feComposite in2="hardAlpha" operator="out"/>
<feColorMatrix type="matrix" values="0 0 0 0 0 0 0 0 0 0 0 0 0 0 0 0 0 0 0.15 0"/>
<feBlend mode="normal" in2="BackgroundImageFix" result="effect1_dropShadow_680_7849"/>
<feBlend mode="normal" in="SourceGraphic" in2="effect1_dropShadow_680_7849" result="shape"/>
</filter>
<filter id="filter5_d_680_7849" x="249.922" y="331.588" width="27.7056" height="26.1504" filterUnits="userSpaceOnUse" color-interpolation-filters="sRGB">
<feFlood flood-opacity="0" result="BackgroundImageFix"/>
<feColorMatrix in="SourceAlpha" type="matrix" values="0 0 0 0 0 0 0 0 0 0 0 0 0 0 0 0 0 0 127 0" result="hardAlpha"/>
<feOffset dy="4"/>
<feGaussianBlur stdDeviation="2"/>
<feComposite in2="hardAlpha" operator="out"/>
<feColorMatrix type="matrix" values="0 0 0 0 0 0 0 0 0 0 0 0 0 0 0 0 0 0 0.15 0"/>
<feBlend mode="normal" in2="BackgroundImageFix" result="effect1_dropShadow_680_7849"/>
<feBlend mode="normal" in="SourceGraphic" in2="effect1_dropShadow_680_7849" result="shape"/>
</filter>
<filter id="filter6_d_680_7849" x="294.491" y="353.793" width="21.8129" height="20.7598" filterUnits="userSpaceOnUse" color-interpolation-filters="sRGB">
<feFlood flood-opacity="0" result="BackgroundImageFix"/>
<feColorMatrix in="SourceAlpha" type="matrix" values="0 0 0 0 0 0 0 0 0 0 0 0 0 0 0 0 0 0 127 0" result="hardAlpha"/>
<feOffset dy="4"/>
<feGaussianBlur stdDeviation="2"/>
<feComposite in2="hardAlpha" operator="out"/>
<feColorMatrix type="matrix" values="0 0 0 0 0 0 0 0 0 0 0 0 0 0 0 0 0 0 0.15 0"/>
<feBlend mode="normal" in2="BackgroundImageFix" result="effect1_dropShadow_680_7849"/>
<feBlend mode="normal" in="SourceGraphic" in2="effect1_dropShadow_680_7849" result="shape"/>
</filter>
<filter id="filter7_d_680_7849" x="338.575" y="375.01" width="17.7352" height="16.9805" filterUnits="userSpaceOnUse" color-interpolation-filters="sRGB">
<feFlood flood-opacity="0" result="BackgroundImageFix"/>
<feColorMatrix in="SourceAlpha" type="matrix" values="0 0 0 0 0 0 0 0 0 0 0 0 0 0 0 0 0 0 127 0" result="hardAlpha"/>
<feOffset dy="4"/>
<feGaussianBlur stdDeviation="2"/>
<feComposite in2="hardAlpha" operator="out"/>
<feColorMatrix type="matrix" values="0 0 0 0 0 0 0 0 0 0 0 0 0 0 0 0 0 0 0.15 0"/>
<feBlend mode="normal" in2="BackgroundImageFix" result="effect1_dropShadow_680_7849"/>
<feBlend mode="normal" in="SourceGraphic" in2="effect1_dropShadow_680_7849" result="shape"/>
</filter>
<filter id="filter8_d_680_7849" x="128.739" y="137.326" width="40.3983" height="37.875" filterUnits="userSpaceOnUse" color-interpolation-filters="sRGB">
<feFlood flood-opacity="0" result="BackgroundImageFix"/>
<feColorMatrix in="SourceAlpha" type="matrix" values="0 0 0 0 0 0 0 0 0 0 0 0 0 0 0 0 0 0 127 0" result="hardAlpha"/>
<feOffset dy="4"/>
<feGaussianBlur stdDeviation="2"/>
<feComposite in2="hardAlpha" operator="out"/>
<feColorMatrix type="matrix" values="0 0 0 0 0 0 0 0 0 0 0 0 0 0 0 0 0 0 0.15 0"/>
<feBlend mode="normal" in2="BackgroundImageFix" result="effect1_dropShadow_680_7849"/>
<feBlend mode="normal" in="SourceGraphic" in2="effect1_dropShadow_680_7849" result="shape"/>
</filter>
<filter id="filter9_d_680_7849" x="166.898" y="157.621" width="37.6581" height="35.3379" filterUnits="userSpaceOnUse" color-interpolation-filters="sRGB">
<feFlood flood-opacity="0" result="BackgroundImageFix"/>
<feColorMatrix in="SourceAlpha" type="matrix" values="0 0 0 0 0 0 0 0 0 0 0 0 0 0 0 0 0 0 127 0" result="hardAlpha"/>
<feOffset dy="4"/>
<feGaussianBlur stdDeviation="2"/>
<feComposite in2="hardAlpha" operator="out"/>
<feColorMatrix type="matrix" values="0 0 0 0 0 0 0 0 0 0 0 0 0 0 0 0 0 0 0.25 0"/>
<feBlend mode="normal" in2="BackgroundImageFix" result="effect1_dropShadow_680_7849"/>
<feBlend mode="normal" in="SourceGraphic" in2="effect1_dropShadow_680_7849" result="shape"/>
</filter>
<filter id="filter10_d_680_7849" x="204.647" y="175.664" width="34.3819" height="32.3281" filterUnits="userSpaceOnUse" color-interpolation-filters="sRGB">
<feFlood flood-opacity="0" result="BackgroundImageFix"/>
<feColorMatrix in="SourceAlpha" type="matrix" values="0 0 0 0 0 0 0 0 0 0 0 0 0 0 0 0 0 0 127 0" result="hardAlpha"/>
<feOffset dy="4"/>
<feGaussianBlur stdDeviation="2"/>
<feComposite in2="hardAlpha" operator="out"/>
<feColorMatrix type="matrix" values="0 0 0 0 0 0 0 0 0 0 0 0 0 0 0 0 0 0 0.15 0"/>
<feBlend mode="normal" in2="BackgroundImageFix" result="effect1_dropShadow_680_7849"/>
<feBlend mode="normal" in="SourceGraphic" in2="effect1_dropShadow_680_7849" result="shape"/>
</filter>
<filter id="filter11_d_680_7849" x="242.707" y="193.76" width="31.7047" height="29.8438" filterUnits="userSpaceOnUse" color-interpolation-filters="sRGB">
<feFlood flood-opacity="0" result="BackgroundImageFix"/>
<feColorMatrix in="SourceAlpha" type="matrix" values="0 0 0 0 0 0 0 0 0 0 0 0 0 0 0 0 0 0 127 0" result="hardAlpha"/>
<feOffset dy="4"/>
<feGaussianBlur stdDeviation="2"/>
<feComposite in2="hardAlpha" operator="out"/>
<feColorMatrix type="matrix" values="0 0 0 0 0 0 0 0 0 0 0 0 0 0 0 0 0 0 0.15 0"/>
<feBlend mode="normal" in2="BackgroundImageFix" result="effect1_dropShadow_680_7849"/>
<feBlend mode="normal" in="SourceGraphic" in2="effect1_dropShadow_680_7849" result="shape"/>
</filter>
<filter id="filter12_d_680_7849" x="281.483" y="212.691" width="28.3777" height="26.793" filterUnits="userSpaceOnUse" color-interpolation-filters="sRGB">
<feFlood flood-opacity="0" result="BackgroundImageFix"/>
<feColorMatrix in="SourceAlpha" type="matrix" values="0 0 0 0 0 0 0 0 0 0 0 0 0 0 0 0 0 0 127 0" result="hardAlpha"/>
<feOffset dy="4"/>
<feGaussianBlur stdDeviation="2"/>
<feComposite in2="hardAlpha" operator="out"/>
<feColorMatrix type="matrix" values="0 0 0 0 0 0 0 0 0 0 0 0 0 0 0 0 0 0 0.15 0"/>
<feBlend mode="normal" in2="BackgroundImageFix" result="effect1_dropShadow_680_7849"/>
<feBlend mode="normal" in="SourceGraphic" in2="effect1_dropShadow_680_7849" result="shape"/>
</filter>
<filter id="filter13_d_680_7849" x="319.776" y="231.309" width="25.4753" height="24.0977" filterUnits="userSpaceOnUse" color-interpolation-filters="sRGB">
<feFlood flood-opacity="0" result="BackgroundImageFix"/>
<feColorMatrix in="SourceAlpha" type="matrix" values="0 0 0 0 0 0 0 0 0 0 0 0 0 0 0 0 0 0 127 0" result="hardAlpha"/>
<feOffset dy="4"/>
<feGaussianBlur stdDeviation="2"/>
<feComposite in2="hardAlpha" operator="out"/>
<feColorMatrix type="matrix" values="0 0 0 0 0 0 0 0 0 0 0 0 0 0 0 0 0 0 0.15 0"/>
<feBlend mode="normal" in2="BackgroundImageFix" result="effect1_dropShadow_680_7849"/>
<feBlend mode="normal" in="SourceGraphic" in2="effect1_dropShadow_680_7849" result="shape"/>
</filter>
<filter id="filter14_d_680_7849" x="359.3" y="251.002" width="20.2495" height="19.3145" filterUnits="userSpaceOnUse" color-interpolation-filters="sRGB">
<feFlood flood-opacity="0" result="BackgroundImageFix"/>
<feColorMatrix in="SourceAlpha" type="matrix" values="0 0 0 0 0 0 0 0 0 0 0 0 0 0 0 0 0 0 127 0" result="hardAlpha"/>
<feOffset dy="4"/>
<feGaussianBlur stdDeviation="2"/>
<feComposite in2="hardAlpha" operator="out"/>
<feColorMatrix type="matrix" values="0 0 0 0 0 0 0 0 0 0 0 0 0 0 0 0 0 0 0.15 0"/>
<feBlend mode="normal" in2="BackgroundImageFix" result="effect1_dropShadow_680_7849"/>
<feBlend mode="normal" in="SourceGraphic" in2="effect1_dropShadow_680_7849" result="shape"/>
</filter>
<filter id="filter15_d_680_7849" x="2.13171" y="138.639" width="50.8456" height="47.5098" filterUnits="userSpaceOnUse" color-interpolation-filters="sRGB">
<feFlood flood-opacity="0" result="BackgroundImageFix"/>
<feColorMatrix in="SourceAlpha" type="matrix" values="0 0 0 0 0 0 0 0 0 0 0 0 0 0 0 0 0 0 127 0" result="hardAlpha"/>
<feOffset dy="4"/>
<feGaussianBlur stdDeviation="2"/>
<feComposite in2="hardAlpha" operator="out"/>
<feColorMatrix type="matrix" values="0 0 0 0 0 0 0 0 0 0 0 0 0 0 0 0 0 0 0.15 0"/>
<feBlend mode="normal" in2="BackgroundImageFix" result="effect1_dropShadow_680_7849"/>
<feBlend mode="normal" in="SourceGraphic" in2="effect1_dropShadow_680_7849" result="shape"/>
</filter>
<filter id="filter16_d_680_7849" x="52.5952" y="165.48" width="47.2217" height="44.1523" filterUnits="userSpaceOnUse" color-interpolation-filters="sRGB">
<feFlood flood-opacity="0" result="BackgroundImageFix"/>
<feColorMatrix in="SourceAlpha" type="matrix" values="0 0 0 0 0 0 0 0 0 0 0 0 0 0 0 0 0 0 127 0" result="hardAlpha"/>
<feOffset dy="4"/>
<feGaussianBlur stdDeviation="2"/>
<feComposite in2="hardAlpha" operator="out"/>
<feColorMatrix type="matrix" values="0 0 0 0 0 0 0 0 0 0 0 0 0 0 0 0 0 0 0.15 0"/>
<feBlend mode="normal" in2="BackgroundImageFix" result="effect1_dropShadow_680_7849"/>
<feBlend mode="normal" in="SourceGraphic" in2="effect1_dropShadow_680_7849" result="shape"/>
</filter>
<filter id="filter17_d_680_7849" x="102.518" y="189.34" width="42.8892" height="40.1758" filterUnits="userSpaceOnUse" color-interpolation-filters="sRGB">
<feFlood flood-opacity="0" result="BackgroundImageFix"/>
<feColorMatrix in="SourceAlpha" type="matrix" values="0 0 0 0 0 0 0 0 0 0 0 0 0 0 0 0 0 0 127 0" result="hardAlpha"/>
<feOffset dy="4"/>
<feGaussianBlur stdDeviation="2"/>
<feComposite in2="hardAlpha" operator="out"/>
<feColorMatrix type="matrix" values="0 0 0 0 0 0 0 0 0 0 0 0 0 0 0 0 0 0 0.15 0"/>
<feBlend mode="normal" in2="BackgroundImageFix" result="effect1_dropShadow_680_7849"/>
<feBlend mode="normal" in="SourceGraphic" in2="effect1_dropShadow_680_7849" result="shape"/>
</filter>
<filter id="filter18_d_680_7849" x="152.85" y="213.271" width="39.3487" height="36.8867" filterUnits="userSpaceOnUse" color-interpolation-filters="sRGB">
<feFlood flood-opacity="0" result="BackgroundImageFix"/>
<feColorMatrix in="SourceAlpha" type="matrix" values="0 0 0 0 0 0 0 0 0 0 0 0 0 0 0 0 0 0 127 0" result="hardAlpha"/>
<feOffset dy="4"/>
<feGaussianBlur stdDeviation="2"/>
<feComposite in2="hardAlpha" operator="out"/>
<feColorMatrix type="matrix" values="0 0 0 0 0 0 0 0 0 0 0 0 0 0 0 0 0 0 0.15 0"/>
<feBlend mode="normal" in2="BackgroundImageFix" result="effect1_dropShadow_680_7849"/>
<feBlend mode="normal" in="SourceGraphic" in2="effect1_dropShadow_680_7849" result="shape"/>
</filter>
<filter id="filter19_d_680_7849" x="204.131" y="238.307" width="34.9488" height="32.8535" filterUnits="userSpaceOnUse" color-interpolation-filters="sRGB">
<feFlood flood-opacity="0" result="BackgroundImageFix"/>
<feColorMatrix in="SourceAlpha" type="matrix" values="0 0 0 0 0 0 0 0 0 0 0 0 0 0 0 0 0 0 127 0" result="hardAlpha"/>
<feOffset dy="4"/>
<feGaussianBlur stdDeviation="2"/>
<feComposite in2="hardAlpha" operator="out"/>
<feColorMatrix type="matrix" values="0 0 0 0 0 0 0 0 0 0 0 0 0 0 0 0 0 0 0.15 0"/>
<feBlend mode="normal" in2="BackgroundImageFix" result="effect1_dropShadow_680_7849"/>
<feBlend mode="normal" in="SourceGraphic" in2="effect1_dropShadow_680_7849" result="shape"/>
</filter>
<filter id="filter20_d_680_7849" x="254.772" y="262.928" width="31.1104" height="29.2871" filterUnits="userSpaceOnUse" color-interpolation-filters="sRGB">
<feFlood flood-opacity="0" result="BackgroundImageFix"/>
<feColorMatrix in="SourceAlpha" type="matrix" values="0 0 0 0 0 0 0 0 0 0 0 0 0 0 0 0 0 0 127 0" result="hardAlpha"/>
<feOffset dy="4"/>
<feGaussianBlur stdDeviation="2"/>
<feComposite in2="hardAlpha" operator="out"/>
<feColorMatrix type="matrix" values="0 0 0 0 0 0 0 0 0 0 0 0 0 0 0 0 0 0 0.15 0"/>
<feBlend mode="normal" in2="BackgroundImageFix" result="effect1_dropShadow_680_7849"/>
<feBlend mode="normal" in="SourceGraphic" in2="effect1_dropShadow_680_7849" result="shape"/>
</filter>
<filter id="filter21_d_680_7849" x="307.041" y="288.971" width="24.1995" height="22.9648" filterUnits="userSpaceOnUse" color-interpolation-filters="sRGB">
<feFlood flood-opacity="0" result="BackgroundImageFix"/>
<feColorMatrix in="SourceAlpha" type="matrix" values="0 0 0 0 0 0 0 0 0 0 0 0 0 0 0 0 0 0 127 0" result="hardAlpha"/>
<feOffset dy="4"/>
<feGaussianBlur stdDeviation="2"/>
<feComposite in2="hardAlpha" operator="out"/>
<feColorMatrix type="matrix" values="0 0 0 0 0 0 0 0 0 0 0 0 0 0 0 0 0 0 0.15 0"/>
<feBlend mode="normal" in2="BackgroundImageFix" result="effect1_dropShadow_680_7849"/>
<feBlend mode="normal" in="SourceGraphic" in2="effect1_dropShadow_680_7849" result="shape"/>
</filter>
<filter id="filter22_d_680_7849" x="358.742" y="313.854" width="19.4173" height="18.5312" filterUnits="userSpaceOnUse" color-interpolation-filters="sRGB">
<feFlood flood-opacity="0" result="BackgroundImageFix"/>
<feColorMatrix in="SourceAlpha" type="matrix" values="0 0 0 0 0 0 0 0 0 0 0 0 0 0 0 0 0 0 127 0" result="hardAlpha"/>
<feOffset dy="4"/>
<feGaussianBlur stdDeviation="2"/>
<feComposite in2="hardAlpha" operator="out"/>
<feColorMatrix type="matrix" values="0 0 0 0 0 0 0 0 0 0 0 0 0 0 0 0 0 0 0.15 0"/>
<feBlend mode="normal" in2="BackgroundImageFix" result="effect1_dropShadow_680_7849"/>
<feBlend mode="normal" in="SourceGraphic" in2="effect1_dropShadow_680_7849" result="shape"/>
</filter>
<linearGradient id="paint0_linear_680_7849" x1="68.1261" y1="215.02" x2="69.2187" y2="256.315" gradientUnits="userSpaceOnUse">
<stop stop-color="#FF851B"/>
<stop offset="0.621648" stop-color="#FFB63A"/>
<stop offset="1" stop-color="#FFDC62"/>
</linearGradient>
<linearGradient id="paint1_linear_680_7849" x1="108.652" y1="238.79" x2="109.652" y2="276.607" gradientUnits="userSpaceOnUse">
<stop stop-color="#FF851B"/>
<stop offset="0.621648" stop-color="#FFB63A"/>
<stop offset="1" stop-color="#FFDC62"/>
</linearGradient>
<linearGradient id="paint2_linear_680_7849" x1="148.22" y1="260.226" x2="149.11" y2="293.846" gradientUnits="userSpaceOnUse">
<stop stop-color="#FF851B"/>
<stop offset="0.621648" stop-color="#FFB63A"/>
<stop offset="1" stop-color="#FFDC62"/>
</linearGradient>
<linearGradient id="paint3_linear_680_7849" x1="188.691" y1="281.497" x2="189.49" y2="311.71" gradientUnits="userSpaceOnUse">
<stop stop-color="#FF851B"/>
<stop offset="0.621648" stop-color="#FFB63A"/>
<stop offset="1" stop-color="#FFDC62"/>
</linearGradient>
<linearGradient id="paint4_linear_680_7849" x1="226.248" y1="312.543" x2="216.847" y2="329.056" gradientUnits="userSpaceOnUse">
<stop stop-color="#F80000"/>
<stop offset="1" stop-color="#F8DF00"/>
</linearGradient>
<linearGradient id="paint5_linear_680_7849" x1="267.217" y1="333.266" x2="259.161" y2="347.416" gradientUnits="userSpaceOnUse">
<stop stop-color="#F80000"/>
<stop offset="1" stop-color="#F8DF00"/>
</linearGradient>
<linearGradient id="paint6_linear_680_7849" x1="307.817" y1="354.955" x2="302.151" y2="364.907" gradientUnits="userSpaceOnUse">
<stop stop-color="#F80000"/>
<stop offset="1" stop-color="#F8DF00"/>
</linearGradient>
<linearGradient id="paint7_linear_680_7849" x1="349.145" y1="375.832" x2="345.161" y2="382.831" gradientUnits="userSpaceOnUse">
<stop stop-color="#F80000"/>
<stop offset="1" stop-color="#F8DF00"/>
</linearGradient>
<linearGradient id="paint8_linear_680_7849" x1="159.009" y1="127.936" x2="159.978" y2="164.556" gradientUnits="userSpaceOnUse">
<stop stop-color="#FF851B"/>
<stop offset="0.621648" stop-color="#FFB63A"/>
<stop offset="1" stop-color="#FFDC62"/>
</linearGradient>
<linearGradient id="paint9_linear_680_7849" x1="194.948" y1="149.013" x2="195.835" y2="182.551" gradientUnits="userSpaceOnUse">
<stop stop-color="#FF851B"/>
<stop offset="0.621648" stop-color="#FFB63A"/>
<stop offset="1" stop-color="#FFDC62"/>
</linearGradient>
<linearGradient id="paint10_linear_680_7849" x1="230.038" y1="168.024" x2="230.827" y2="197.838" gradientUnits="userSpaceOnUse">
<stop stop-color="#FF851B"/>
<stop offset="0.621648" stop-color="#FFB63A"/>
<stop offset="1" stop-color="#FFDC62"/>
</linearGradient>
<linearGradient id="paint11_linear_680_7849" x1="265.928" y1="186.888" x2="266.636" y2="213.682" gradientUnits="userSpaceOnUse">
<stop stop-color="#FF851B"/>
<stop offset="0.621648" stop-color="#FFB63A"/>
<stop offset="1" stop-color="#FFDC62"/>
</linearGradient>
<linearGradient id="paint12_linear_680_7849" x1="299.234" y1="214.421" x2="290.898" y2="229.064" gradientUnits="userSpaceOnUse">
<stop stop-color="#F80000"/>
<stop offset="1" stop-color="#F8DF00"/>
</linearGradient>
<linearGradient id="paint13_linear_680_7849" x1="335.566" y1="232.798" x2="328.422" y2="245.346" gradientUnits="userSpaceOnUse">
<stop stop-color="#F80000"/>
<stop offset="1" stop-color="#F8DF00"/>
</linearGradient>
<linearGradient id="paint14_linear_680_7849" x1="371.571" y1="252.032" x2="366.546" y2="260.858" gradientUnits="userSpaceOnUse">
<stop stop-color="#F80000"/>
<stop offset="1" stop-color="#F8DF00"/>
</linearGradient>
<linearGradient id="paint15_linear_680_7849" x1="40.8731" y1="126.22" x2="42.1545" y2="174.65" gradientUnits="userSpaceOnUse">
<stop stop-color="#FF851B"/>
<stop offset="0.621648" stop-color="#FFB63A"/>
<stop offset="1" stop-color="#FFDC62"/>
</linearGradient>
<linearGradient id="paint16_linear_680_7849" x1="88.4008" y1="154.096" x2="89.5743" y2="198.448" gradientUnits="userSpaceOnUse">
<stop stop-color="#FF851B"/>
<stop offset="0.621648" stop-color="#FFB63A"/>
<stop offset="1" stop-color="#FFDC62"/>
</linearGradient>
<linearGradient id="paint17_linear_680_7849" x1="134.806" y1="179.237" x2="135.849" y2="218.666" gradientUnits="userSpaceOnUse">
<stop stop-color="#FF851B"/>
<stop offset="0.621648" stop-color="#FFB63A"/>
<stop offset="1" stop-color="#FFDC62"/>
</linearGradient>
<linearGradient id="paint18_linear_680_7849" x1="182.269" y1="204.183" x2="183.206" y2="239.617" gradientUnits="userSpaceOnUse">
<stop stop-color="#FF851B"/>
<stop offset="0.621648" stop-color="#FFB63A"/>
<stop offset="1" stop-color="#FFDC62"/>
</linearGradient>
<linearGradient id="paint19_linear_680_7849" x1="226.316" y1="240.594" x2="215.291" y2="259.96" gradientUnits="userSpaceOnUse">
<stop stop-color="#F80000"/>
<stop offset="1" stop-color="#F8DF00"/>
</linearGradient>
<linearGradient id="paint20_linear_680_7849" x1="274.363" y1="264.895" x2="264.916" y2="281.491" gradientUnits="userSpaceOnUse">
<stop stop-color="#F80000"/>
<stop offset="1" stop-color="#F8DF00"/>
</linearGradient>
<linearGradient id="paint21_linear_680_7849" x1="321.979" y1="290.333" x2="315.334" y2="302.006" gradientUnits="userSpaceOnUse">
<stop stop-color="#F80000"/>
<stop offset="1" stop-color="#F8DF00"/>
</linearGradient>
<linearGradient id="paint22_linear_680_7849" x1="370.447" y1="314.817" x2="365.775" y2="323.025" gradientUnits="userSpaceOnUse">
<stop stop-color="#F80000"/>
<stop offset="1" stop-color="#F8DF00"/>
</linearGradient>
</defs>
</svg>
