<svg width="384" height="539" viewBox="0 0 384 539" fill="none" xmlns="http://www.w3.org/2000/svg">
<g filter="url(#filter0_d_588_53632)">
<path d="M309.224 252.698C305.588 245.183 310.28 234.635 319.676 229.17C329.073 223.705 339.659 225.382 343.295 232.897C346.93 240.412 342.239 250.96 332.842 256.425C323.417 261.906 312.859 260.214 309.224 252.698Z" fill="url(#paint0_linear_588_53632)"/>
</g>
<g filter="url(#filter1_d_588_53632)">
<path d="M269.177 273.327C265.857 266.414 270.148 256.789 278.746 251.779C287.355 246.791 297.041 248.314 300.378 255.188C303.688 262.079 299.407 271.726 290.809 276.736C282.2 281.724 272.514 280.201 269.177 273.327Z" fill="url(#paint1_linear_588_53632)"/>
</g>
<g filter="url(#filter2_d_588_53632)">
<path d="M230.183 290.962C227.225 284.827 231.033 276.26 238.701 271.808C246.368 267.356 254.969 268.715 257.927 274.849C260.885 280.984 257.076 289.552 249.409 294.004C241.741 298.456 233.141 297.097 230.183 290.962Z" fill="url(#paint2_linear_588_53632)"/>
</g>
<g filter="url(#filter3_d_588_53632)">
<path d="M190.182 309.155C187.521 303.661 190.965 295.938 197.834 291.941C204.703 287.944 212.453 289.179 215.113 294.672C217.773 300.166 214.329 307.889 207.46 311.886C200.581 315.86 192.842 314.648 190.182 309.155Z" fill="url(#paint3_linear_588_53632)"/>
</g>
<g filter="url(#filter4_d_588_53632)">
<path d="M150.08 327.768C147.8 323.014 150.743 316.387 156.653 312.964C162.592 309.526 169.245 310.574 171.515 315.305C173.795 320.059 170.852 326.686 164.942 330.109C159.003 333.548 152.35 332.499 150.08 327.768Z" fill="url(#paint4_linear_588_53632)"/>
</g>
<g filter="url(#filter5_d_588_53632)">
<path d="M110.066 346.354C108.105 342.287 110.629 336.622 115.712 333.671C120.796 330.719 126.481 331.624 128.442 335.69C130.403 339.757 127.879 345.422 122.795 348.374C117.73 351.287 112.017 350.398 110.066 346.354Z" fill="url(#paint5_linear_588_53632)"/>
</g>
<g filter="url(#filter6_d_588_53632)">
<path d="M71.1847 364.257C69.8261 361.41 71.5822 357.427 75.126 355.351C78.6805 353.299 82.6822 353.917 84.0692 356.748C85.4491 359.64 83.6823 363.6 80.11 365.692C76.5555 367.745 72.5539 367.126 71.1847 364.257Z" fill="url(#paint6_linear_588_53632)"/>
</g>
<g filter="url(#filter7_d_588_53632)">
<path d="M31.0449 382.487C30.0802 380.488 31.3282 377.664 33.827 376.212C36.3259 374.761 39.163 375.202 40.1277 377.201C41.0924 379.2 39.8444 382.024 37.3455 383.476C34.8467 384.927 32.0203 384.509 31.0449 382.487Z" fill="url(#paint7_linear_588_53632)"/>
</g>
<g filter="url(#filter8_d_588_53632)">
<path d="M-7.88715 401.652C-8.35524 400.645 -7.73938 399.252 -6.49431 398.514C-5.24925 397.776 -3.81033 397.999 -3.34224 399.007C-2.84561 399.998 -3.49001 401.408 -4.73508 402.145C-5.99078 402.86 -7.39052 402.644 -7.88715 401.652Z" fill="url(#paint8_linear_588_53632)"/>
</g>
<g filter="url(#filter9_d_588_53632)">
<path d="M218.983 161.389C215.759 154.724 219.92 145.37 228.253 140.524C236.586 135.677 245.974 137.164 249.198 143.828C252.422 150.493 248.262 159.847 239.929 164.693C231.57 169.554 222.207 168.053 218.983 161.389Z" fill="url(#paint9_linear_588_53632)"/>
</g>
<g filter="url(#filter10_d_588_53632)">
<path d="M183.469 179.681C180.525 173.55 184.331 165.015 191.956 160.572C199.59 156.148 208.179 157.499 211.139 163.595C214.074 169.706 210.278 178.261 202.653 182.704C195.019 187.127 186.429 185.777 183.469 179.681Z" fill="url(#paint10_linear_588_53632)"/>
</g>
<g filter="url(#filter11_d_588_53632)">
<path d="M148.889 195.32C146.265 189.88 149.643 182.282 156.443 178.334C163.242 174.386 170.869 175.591 173.492 181.031C176.116 186.472 172.738 194.07 165.938 198.018C159.139 201.966 151.512 200.76 148.889 195.32Z" fill="url(#paint11_linear_588_53632)"/>
</g>
<g filter="url(#filter12_d_588_53632)">
<path d="M113.415 211.455C111.056 206.583 114.11 199.735 120.202 196.19C126.293 192.645 133.166 193.74 135.525 198.612C137.884 203.483 134.83 210.332 128.738 213.877C122.637 217.402 115.774 216.327 113.415 211.455Z" fill="url(#paint12_linear_588_53632)"/>
</g>
<g filter="url(#filter13_d_588_53632)">
<path d="M77.8526 227.961C75.8302 223.746 78.4401 217.868 83.6814 214.833C88.948 211.784 94.848 212.714 96.861 216.909C98.8834 221.125 96.2735 227.002 91.0322 230.037C85.7656 233.087 79.8656 232.157 77.8526 227.961Z" fill="url(#paint13_linear_588_53632)"/>
</g>
<g filter="url(#filter14_d_588_53632)">
<path d="M42.3673 244.444C40.6279 240.837 42.8668 235.814 47.3747 233.196C51.8826 230.578 56.9239 231.381 58.6633 234.987C60.4027 238.594 58.1638 243.618 53.6559 246.235C49.1639 248.818 44.0972 248.03 42.3673 244.444Z" fill="url(#paint14_linear_588_53632)"/>
</g>
<g filter="url(#filter15_d_588_53632)">
<path d="M7.8866 260.32C6.68181 257.796 8.23916 254.264 11.3819 252.423C14.534 250.603 18.0828 251.151 19.3128 253.661C20.5365 256.227 18.9697 259.738 15.8017 261.593C12.6496 263.414 9.10083 262.865 7.8866 260.32Z" fill="url(#paint15_linear_588_53632)"/>
</g>
<g filter="url(#filter16_d_588_53632)">
<path d="M335.495 170.348C331.232 161.534 336.734 149.165 347.754 142.755C358.774 136.346 371.19 138.312 375.453 147.126C379.717 155.94 374.215 168.309 363.195 174.719C352.141 181.147 339.759 179.162 335.495 170.348Z" fill="url(#paint16_linear_588_53632)"/>
</g>
<g filter="url(#filter17_d_588_53632)">
<path d="M288.529 194.541C284.636 186.433 289.668 175.146 299.752 169.27C309.848 163.42 321.208 165.206 325.122 173.268C329.003 181.349 323.983 192.663 313.899 198.539C303.803 204.389 292.443 202.603 288.529 194.541Z" fill="url(#paint17_linear_588_53632)"/>
</g>
<g filter="url(#filter18_d_588_53632)">
<path d="M242.798 215.223C239.328 208.029 243.795 197.981 252.787 192.76C261.78 187.538 271.866 189.132 275.335 196.327C278.804 203.522 274.338 213.57 265.345 218.791C256.353 224.012 246.267 222.418 242.798 215.223Z" fill="url(#paint18_linear_588_53632)"/>
</g>
<g filter="url(#filter19_d_588_53632)">
<path d="M195.885 236.56C192.765 230.118 196.804 221.06 204.86 216.372C212.916 211.684 222.004 213.133 225.124 219.575C228.244 226.018 224.205 235.075 216.149 239.763C208.081 244.424 199.005 243.003 195.885 236.56Z" fill="url(#paint19_linear_588_53632)"/>
</g>
<g filter="url(#filter20_d_588_53632)">
<path d="M148.855 258.389C146.18 252.814 149.632 245.041 156.563 241.028C163.528 236.995 171.33 238.224 173.993 243.773C176.667 249.348 173.216 257.12 166.284 261.134C159.319 265.167 151.517 263.937 148.855 258.389Z" fill="url(#paint20_linear_588_53632)"/>
</g>
<g filter="url(#filter21_d_588_53632)">
<path d="M101.927 280.185C99.6264 275.416 102.587 268.772 108.549 265.31C114.51 261.848 121.177 262.909 123.478 267.679C125.778 272.449 122.817 279.092 116.856 282.554C110.915 285.97 104.215 284.928 101.927 280.185Z" fill="url(#paint21_linear_588_53632)"/>
</g>
<g filter="url(#filter22_d_588_53632)">
<path d="M56.3272 301.182C54.734 297.844 56.7935 293.172 60.9496 290.738C65.1182 288.331 69.8113 289.056 71.438 292.376C73.0563 295.769 70.9843 300.413 66.7947 302.866C62.6261 305.273 57.933 304.548 56.3272 301.182Z" fill="url(#paint22_linear_588_53632)"/>
</g>
<g filter="url(#filter23_d_588_53632)">
<path d="M9.25205 322.562C8.12062 320.218 9.58432 316.905 12.5149 315.203C15.4455 313.501 18.7728 314.018 19.9042 316.362C21.0356 318.707 19.5719 322.019 16.6413 323.721C13.7108 325.424 10.3959 324.933 9.25205 322.562Z" fill="url(#paint23_linear_588_53632)"/>
</g>
<defs>
<filter id="filter0_d_588_53632" x="303.993" y="225.957" width="44.5333" height="41.6895" filterUnits="userSpaceOnUse" color-interpolation-filters="sRGB">
<feFlood flood-opacity="0" result="BackgroundImageFix"/>
<feColorMatrix in="SourceAlpha" type="matrix" values="0 0 0 0 0 0 0 0 0 0 0 0 0 0 0 0 0 0 127 0" result="hardAlpha"/>
<feOffset dy="4"/>
<feGaussianBlur stdDeviation="2"/>
<feComposite in2="hardAlpha" operator="out"/>
<feColorMatrix type="matrix" values="0 0 0 0 0 0 0 0 0 0 0 0 0 0 0 0 0 0 0.15 0"/>
<feBlend mode="normal" in2="BackgroundImageFix" result="effect1_dropShadow_588_53632"/>
<feBlend mode="normal" in="SourceGraphic" in2="effect1_dropShadow_588_53632" result="shape"/>
</filter>
<filter id="filter1_d_588_53632" x="264.054" y="248.844" width="41.4433" height="38.8281" filterUnits="userSpaceOnUse" color-interpolation-filters="sRGB">
<feFlood flood-opacity="0" result="BackgroundImageFix"/>
<feColorMatrix in="SourceAlpha" type="matrix" values="0 0 0 0 0 0 0 0 0 0 0 0 0 0 0 0 0 0 127 0" result="hardAlpha"/>
<feOffset dy="4"/>
<feGaussianBlur stdDeviation="2"/>
<feComposite in2="hardAlpha" operator="out"/>
<feColorMatrix type="matrix" values="0 0 0 0 0 0 0 0 0 0 0 0 0 0 0 0 0 0 0.15 0"/>
<feBlend mode="normal" in2="BackgroundImageFix" result="effect1_dropShadow_588_53632"/>
<feBlend mode="normal" in="SourceGraphic" in2="effect1_dropShadow_588_53632" result="shape"/>
</filter>
<filter id="filter2_d_588_53632" x="225.18" y="269.188" width="37.749" height="35.4355" filterUnits="userSpaceOnUse" color-interpolation-filters="sRGB">
<feFlood flood-opacity="0" result="BackgroundImageFix"/>
<feColorMatrix in="SourceAlpha" type="matrix" values="0 0 0 0 0 0 0 0 0 0 0 0 0 0 0 0 0 0 127 0" result="hardAlpha"/>
<feOffset dy="4"/>
<feGaussianBlur stdDeviation="2"/>
<feComposite in2="hardAlpha" operator="out"/>
<feColorMatrix type="matrix" values="0 0 0 0 0 0 0 0 0 0 0 0 0 0 0 0 0 0 0.15 0"/>
<feBlend mode="normal" in2="BackgroundImageFix" result="effect1_dropShadow_588_53632"/>
<feBlend mode="normal" in="SourceGraphic" in2="effect1_dropShadow_588_53632" result="shape"/>
</filter>
<filter id="filter3_d_588_53632" x="185.282" y="289.594" width="34.7301" height="32.6309" filterUnits="userSpaceOnUse" color-interpolation-filters="sRGB">
<feFlood flood-opacity="0" result="BackgroundImageFix"/>
<feColorMatrix in="SourceAlpha" type="matrix" values="0 0 0 0 0 0 0 0 0 0 0 0 0 0 0 0 0 0 127 0" result="hardAlpha"/>
<feOffset dy="4"/>
<feGaussianBlur stdDeviation="2"/>
<feComposite in2="hardAlpha" operator="out"/>
<feColorMatrix type="matrix" values="0 0 0 0 0 0 0 0 0 0 0 0 0 0 0 0 0 0 0.15 0"/>
<feBlend mode="normal" in2="BackgroundImageFix" result="effect1_dropShadow_588_53632"/>
<feBlend mode="normal" in="SourceGraphic" in2="effect1_dropShadow_588_53632" result="shape"/>
</filter>
<filter id="filter4_d_588_53632" x="145.308" y="310.939" width="30.9785" height="29.1934" filterUnits="userSpaceOnUse" color-interpolation-filters="sRGB">
<feFlood flood-opacity="0" result="BackgroundImageFix"/>
<feColorMatrix in="SourceAlpha" type="matrix" values="0 0 0 0 0 0 0 0 0 0 0 0 0 0 0 0 0 0 127 0" result="hardAlpha"/>
<feOffset dy="4"/>
<feGaussianBlur stdDeviation="2"/>
<feComposite in2="hardAlpha" operator="out"/>
<feColorMatrix type="matrix" values="0 0 0 0 0 0 0 0 0 0 0 0 0 0 0 0 0 0 0.15 0"/>
<feBlend mode="normal" in2="BackgroundImageFix" result="effect1_dropShadow_588_53632"/>
<feBlend mode="normal" in="SourceGraphic" in2="effect1_dropShadow_588_53632" result="shape"/>
</filter>
<filter id="filter5_d_588_53632" x="105.401" y="331.936" width="27.7056" height="26.1504" filterUnits="userSpaceOnUse" color-interpolation-filters="sRGB">
<feFlood flood-opacity="0" result="BackgroundImageFix"/>
<feColorMatrix in="SourceAlpha" type="matrix" values="0 0 0 0 0 0 0 0 0 0 0 0 0 0 0 0 0 0 127 0" result="hardAlpha"/>
<feOffset dy="4"/>
<feGaussianBlur stdDeviation="2"/>
<feComposite in2="hardAlpha" operator="out"/>
<feColorMatrix type="matrix" values="0 0 0 0 0 0 0 0 0 0 0 0 0 0 0 0 0 0 0.15 0"/>
<feBlend mode="normal" in2="BackgroundImageFix" result="effect1_dropShadow_588_53632"/>
<feBlend mode="normal" in="SourceGraphic" in2="effect1_dropShadow_588_53632" result="shape"/>
</filter>
<filter id="filter6_d_588_53632" x="66.7254" y="354.141" width="21.8129" height="20.7598" filterUnits="userSpaceOnUse" color-interpolation-filters="sRGB">
<feFlood flood-opacity="0" result="BackgroundImageFix"/>
<feColorMatrix in="SourceAlpha" type="matrix" values="0 0 0 0 0 0 0 0 0 0 0 0 0 0 0 0 0 0 127 0" result="hardAlpha"/>
<feOffset dy="4"/>
<feGaussianBlur stdDeviation="2"/>
<feComposite in2="hardAlpha" operator="out"/>
<feColorMatrix type="matrix" values="0 0 0 0 0 0 0 0 0 0 0 0 0 0 0 0 0 0 0.15 0"/>
<feBlend mode="normal" in2="BackgroundImageFix" result="effect1_dropShadow_588_53632"/>
<feBlend mode="normal" in="SourceGraphic" in2="effect1_dropShadow_588_53632" result="shape"/>
</filter>
<filter id="filter7_d_588_53632" x="26.7187" y="375.357" width="17.7352" height="16.9805" filterUnits="userSpaceOnUse" color-interpolation-filters="sRGB">
<feFlood flood-opacity="0" result="BackgroundImageFix"/>
<feColorMatrix in="SourceAlpha" type="matrix" values="0 0 0 0 0 0 0 0 0 0 0 0 0 0 0 0 0 0 127 0" result="hardAlpha"/>
<feOffset dy="4"/>
<feGaussianBlur stdDeviation="2"/>
<feComposite in2="hardAlpha" operator="out"/>
<feColorMatrix type="matrix" values="0 0 0 0 0 0 0 0 0 0 0 0 0 0 0 0 0 0 0.15 0"/>
<feBlend mode="normal" in2="BackgroundImageFix" result="effect1_dropShadow_588_53632"/>
<feBlend mode="normal" in="SourceGraphic" in2="effect1_dropShadow_588_53632" result="shape"/>
</filter>
<filter id="filter8_d_588_53632" x="-12.0437" y="398.078" width="12.8696" height="12.4883" filterUnits="userSpaceOnUse" color-interpolation-filters="sRGB">
<feFlood flood-opacity="0" result="BackgroundImageFix"/>
<feColorMatrix in="SourceAlpha" type="matrix" values="0 0 0 0 0 0 0 0 0 0 0 0 0 0 0 0 0 0 127 0" result="hardAlpha"/>
<feOffset dy="4"/>
<feGaussianBlur stdDeviation="2"/>
<feComposite in2="hardAlpha" operator="out"/>
<feColorMatrix type="matrix" values="0 0 0 0 0 0 0 0 0 0 0 0 0 0 0 0 0 0 0.15 0"/>
<feBlend mode="normal" in2="BackgroundImageFix" result="effect1_dropShadow_588_53632"/>
<feBlend mode="normal" in="SourceGraphic" in2="effect1_dropShadow_588_53632" result="shape"/>
</filter>
<filter id="filter9_d_588_53632" x="213.892" y="137.674" width="40.3983" height="37.875" filterUnits="userSpaceOnUse" color-interpolation-filters="sRGB">
<feFlood flood-opacity="0" result="BackgroundImageFix"/>
<feColorMatrix in="SourceAlpha" type="matrix" values="0 0 0 0 0 0 0 0 0 0 0 0 0 0 0 0 0 0 127 0" result="hardAlpha"/>
<feOffset dy="4"/>
<feGaussianBlur stdDeviation="2"/>
<feComposite in2="hardAlpha" operator="out"/>
<feColorMatrix type="matrix" values="0 0 0 0 0 0 0 0 0 0 0 0 0 0 0 0 0 0 0.15 0"/>
<feBlend mode="normal" in2="BackgroundImageFix" result="effect1_dropShadow_588_53632"/>
<feBlend mode="normal" in="SourceGraphic" in2="effect1_dropShadow_588_53632" result="shape"/>
</filter>
<filter id="filter10_d_588_53632" x="178.473" y="157.969" width="37.6581" height="35.3379" filterUnits="userSpaceOnUse" color-interpolation-filters="sRGB">
<feFlood flood-opacity="0" result="BackgroundImageFix"/>
<feColorMatrix in="SourceAlpha" type="matrix" values="0 0 0 0 0 0 0 0 0 0 0 0 0 0 0 0 0 0 127 0" result="hardAlpha"/>
<feOffset dy="4"/>
<feGaussianBlur stdDeviation="2"/>
<feComposite in2="hardAlpha" operator="out"/>
<feColorMatrix type="matrix" values="0 0 0 0 0 0 0 0 0 0 0 0 0 0 0 0 0 0 0.25 0"/>
<feBlend mode="normal" in2="BackgroundImageFix" result="effect1_dropShadow_588_53632"/>
<feBlend mode="normal" in="SourceGraphic" in2="effect1_dropShadow_588_53632" result="shape"/>
</filter>
<filter id="filter11_d_588_53632" x="144" y="176.012" width="34.3819" height="32.3281" filterUnits="userSpaceOnUse" color-interpolation-filters="sRGB">
<feFlood flood-opacity="0" result="BackgroundImageFix"/>
<feColorMatrix in="SourceAlpha" type="matrix" values="0 0 0 0 0 0 0 0 0 0 0 0 0 0 0 0 0 0 127 0" result="hardAlpha"/>
<feOffset dy="4"/>
<feGaussianBlur stdDeviation="2"/>
<feComposite in2="hardAlpha" operator="out"/>
<feColorMatrix type="matrix" values="0 0 0 0 0 0 0 0 0 0 0 0 0 0 0 0 0 0 0.15 0"/>
<feBlend mode="normal" in2="BackgroundImageFix" result="effect1_dropShadow_588_53632"/>
<feBlend mode="normal" in="SourceGraphic" in2="effect1_dropShadow_588_53632" result="shape"/>
</filter>
<filter id="filter12_d_588_53632" x="108.618" y="194.107" width="31.7047" height="29.8438" filterUnits="userSpaceOnUse" color-interpolation-filters="sRGB">
<feFlood flood-opacity="0" result="BackgroundImageFix"/>
<feColorMatrix in="SourceAlpha" type="matrix" values="0 0 0 0 0 0 0 0 0 0 0 0 0 0 0 0 0 0 127 0" result="hardAlpha"/>
<feOffset dy="4"/>
<feGaussianBlur stdDeviation="2"/>
<feComposite in2="hardAlpha" operator="out"/>
<feColorMatrix type="matrix" values="0 0 0 0 0 0 0 0 0 0 0 0 0 0 0 0 0 0 0.15 0"/>
<feBlend mode="normal" in2="BackgroundImageFix" result="effect1_dropShadow_588_53632"/>
<feBlend mode="normal" in="SourceGraphic" in2="effect1_dropShadow_588_53632" result="shape"/>
</filter>
<filter id="filter13_d_588_53632" x="73.1679" y="213.039" width="28.3777" height="26.793" filterUnits="userSpaceOnUse" color-interpolation-filters="sRGB">
<feFlood flood-opacity="0" result="BackgroundImageFix"/>
<feColorMatrix in="SourceAlpha" type="matrix" values="0 0 0 0 0 0 0 0 0 0 0 0 0 0 0 0 0 0 127 0" result="hardAlpha"/>
<feOffset dy="4"/>
<feGaussianBlur stdDeviation="2"/>
<feComposite in2="hardAlpha" operator="out"/>
<feColorMatrix type="matrix" values="0 0 0 0 0 0 0 0 0 0 0 0 0 0 0 0 0 0 0.15 0"/>
<feBlend mode="normal" in2="BackgroundImageFix" result="effect1_dropShadow_588_53632"/>
<feBlend mode="normal" in="SourceGraphic" in2="effect1_dropShadow_588_53632" result="shape"/>
</filter>
<filter id="filter14_d_588_53632" x="37.7776" y="231.656" width="25.4753" height="24.0977" filterUnits="userSpaceOnUse" color-interpolation-filters="sRGB">
<feFlood flood-opacity="0" result="BackgroundImageFix"/>
<feColorMatrix in="SourceAlpha" type="matrix" values="0 0 0 0 0 0 0 0 0 0 0 0 0 0 0 0 0 0 127 0" result="hardAlpha"/>
<feOffset dy="4"/>
<feGaussianBlur stdDeviation="2"/>
<feComposite in2="hardAlpha" operator="out"/>
<feColorMatrix type="matrix" values="0 0 0 0 0 0 0 0 0 0 0 0 0 0 0 0 0 0 0.15 0"/>
<feBlend mode="normal" in2="BackgroundImageFix" result="effect1_dropShadow_588_53632"/>
<feBlend mode="normal" in="SourceGraphic" in2="effect1_dropShadow_588_53632" result="shape"/>
</filter>
<filter id="filter15_d_588_53632" x="3.47931" y="251.35" width="20.2495" height="19.3145" filterUnits="userSpaceOnUse" color-interpolation-filters="sRGB">
<feFlood flood-opacity="0" result="BackgroundImageFix"/>
<feColorMatrix in="SourceAlpha" type="matrix" values="0 0 0 0 0 0 0 0 0 0 0 0 0 0 0 0 0 0 127 0" result="hardAlpha"/>
<feOffset dy="4"/>
<feGaussianBlur stdDeviation="2"/>
<feComposite in2="hardAlpha" operator="out"/>
<feColorMatrix type="matrix" values="0 0 0 0 0 0 0 0 0 0 0 0 0 0 0 0 0 0 0.15 0"/>
<feBlend mode="normal" in2="BackgroundImageFix" result="effect1_dropShadow_588_53632"/>
<feBlend mode="normal" in="SourceGraphic" in2="effect1_dropShadow_588_53632" result="shape"/>
</filter>
<filter id="filter16_d_588_53632" x="330.052" y="138.986" width="50.8456" height="47.5098" filterUnits="userSpaceOnUse" color-interpolation-filters="sRGB">
<feFlood flood-opacity="0" result="BackgroundImageFix"/>
<feColorMatrix in="SourceAlpha" type="matrix" values="0 0 0 0 0 0 0 0 0 0 0 0 0 0 0 0 0 0 127 0" result="hardAlpha"/>
<feOffset dy="4"/>
<feGaussianBlur stdDeviation="2"/>
<feComposite in2="hardAlpha" operator="out"/>
<feColorMatrix type="matrix" values="0 0 0 0 0 0 0 0 0 0 0 0 0 0 0 0 0 0 0.15 0"/>
<feBlend mode="normal" in2="BackgroundImageFix" result="effect1_dropShadow_588_53632"/>
<feBlend mode="normal" in="SourceGraphic" in2="effect1_dropShadow_588_53632" result="shape"/>
</filter>
<filter id="filter17_d_588_53632" x="283.212" y="165.828" width="47.2217" height="44.1523" filterUnits="userSpaceOnUse" color-interpolation-filters="sRGB">
<feFlood flood-opacity="0" result="BackgroundImageFix"/>
<feColorMatrix in="SourceAlpha" type="matrix" values="0 0 0 0 0 0 0 0 0 0 0 0 0 0 0 0 0 0 127 0" result="hardAlpha"/>
<feOffset dy="4"/>
<feGaussianBlur stdDeviation="2"/>
<feComposite in2="hardAlpha" operator="out"/>
<feColorMatrix type="matrix" values="0 0 0 0 0 0 0 0 0 0 0 0 0 0 0 0 0 0 0.15 0"/>
<feBlend mode="normal" in2="BackgroundImageFix" result="effect1_dropShadow_588_53632"/>
<feBlend mode="normal" in="SourceGraphic" in2="effect1_dropShadow_588_53632" result="shape"/>
</filter>
<filter id="filter18_d_588_53632" x="237.622" y="189.688" width="42.8892" height="40.1758" filterUnits="userSpaceOnUse" color-interpolation-filters="sRGB">
<feFlood flood-opacity="0" result="BackgroundImageFix"/>
<feColorMatrix in="SourceAlpha" type="matrix" values="0 0 0 0 0 0 0 0 0 0 0 0 0 0 0 0 0 0 127 0" result="hardAlpha"/>
<feOffset dy="4"/>
<feGaussianBlur stdDeviation="2"/>
<feComposite in2="hardAlpha" operator="out"/>
<feColorMatrix type="matrix" values="0 0 0 0 0 0 0 0 0 0 0 0 0 0 0 0 0 0 0.15 0"/>
<feBlend mode="normal" in2="BackgroundImageFix" result="effect1_dropShadow_588_53632"/>
<feBlend mode="normal" in="SourceGraphic" in2="effect1_dropShadow_588_53632" result="shape"/>
</filter>
<filter id="filter19_d_588_53632" x="190.83" y="213.619" width="39.3487" height="36.8867" filterUnits="userSpaceOnUse" color-interpolation-filters="sRGB">
<feFlood flood-opacity="0" result="BackgroundImageFix"/>
<feColorMatrix in="SourceAlpha" type="matrix" values="0 0 0 0 0 0 0 0 0 0 0 0 0 0 0 0 0 0 127 0" result="hardAlpha"/>
<feOffset dy="4"/>
<feGaussianBlur stdDeviation="2"/>
<feComposite in2="hardAlpha" operator="out"/>
<feColorMatrix type="matrix" values="0 0 0 0 0 0 0 0 0 0 0 0 0 0 0 0 0 0 0.15 0"/>
<feBlend mode="normal" in2="BackgroundImageFix" result="effect1_dropShadow_588_53632"/>
<feBlend mode="normal" in="SourceGraphic" in2="effect1_dropShadow_588_53632" result="shape"/>
</filter>
<filter id="filter20_d_588_53632" x="143.949" y="238.654" width="34.9488" height="32.8535" filterUnits="userSpaceOnUse" color-interpolation-filters="sRGB">
<feFlood flood-opacity="0" result="BackgroundImageFix"/>
<feColorMatrix in="SourceAlpha" type="matrix" values="0 0 0 0 0 0 0 0 0 0 0 0 0 0 0 0 0 0 127 0" result="hardAlpha"/>
<feOffset dy="4"/>
<feGaussianBlur stdDeviation="2"/>
<feComposite in2="hardAlpha" operator="out"/>
<feColorMatrix type="matrix" values="0 0 0 0 0 0 0 0 0 0 0 0 0 0 0 0 0 0 0.15 0"/>
<feBlend mode="normal" in2="BackgroundImageFix" result="effect1_dropShadow_588_53632"/>
<feBlend mode="normal" in="SourceGraphic" in2="effect1_dropShadow_588_53632" result="shape"/>
</filter>
<filter id="filter21_d_588_53632" x="97.1469" y="263.275" width="31.1104" height="29.2871" filterUnits="userSpaceOnUse" color-interpolation-filters="sRGB">
<feFlood flood-opacity="0" result="BackgroundImageFix"/>
<feColorMatrix in="SourceAlpha" type="matrix" values="0 0 0 0 0 0 0 0 0 0 0 0 0 0 0 0 0 0 127 0" result="hardAlpha"/>
<feOffset dy="4"/>
<feGaussianBlur stdDeviation="2"/>
<feComposite in2="hardAlpha" operator="out"/>
<feColorMatrix type="matrix" values="0 0 0 0 0 0 0 0 0 0 0 0 0 0 0 0 0 0 0.15 0"/>
<feBlend mode="normal" in2="BackgroundImageFix" result="effect1_dropShadow_588_53632"/>
<feBlend mode="normal" in="SourceGraphic" in2="effect1_dropShadow_588_53632" result="shape"/>
</filter>
<filter id="filter22_d_588_53632" x="51.7886" y="289.318" width="24.1995" height="22.9648" filterUnits="userSpaceOnUse" color-interpolation-filters="sRGB">
<feFlood flood-opacity="0" result="BackgroundImageFix"/>
<feColorMatrix in="SourceAlpha" type="matrix" values="0 0 0 0 0 0 0 0 0 0 0 0 0 0 0 0 0 0 127 0" result="hardAlpha"/>
<feOffset dy="4"/>
<feGaussianBlur stdDeviation="2"/>
<feComposite in2="hardAlpha" operator="out"/>
<feColorMatrix type="matrix" values="0 0 0 0 0 0 0 0 0 0 0 0 0 0 0 0 0 0 0.15 0"/>
<feBlend mode="normal" in2="BackgroundImageFix" result="effect1_dropShadow_588_53632"/>
<feBlend mode="normal" in="SourceGraphic" in2="effect1_dropShadow_588_53632" result="shape"/>
</filter>
<filter id="filter23_d_588_53632" x="4.86951" y="314.201" width="19.4173" height="18.5312" filterUnits="userSpaceOnUse" color-interpolation-filters="sRGB">
<feFlood flood-opacity="0" result="BackgroundImageFix"/>
<feColorMatrix in="SourceAlpha" type="matrix" values="0 0 0 0 0 0 0 0 0 0 0 0 0 0 0 0 0 0 127 0" result="hardAlpha"/>
<feOffset dy="4"/>
<feGaussianBlur stdDeviation="2"/>
<feComposite in2="hardAlpha" operator="out"/>
<feColorMatrix type="matrix" values="0 0 0 0 0 0 0 0 0 0 0 0 0 0 0 0 0 0 0.15 0"/>
<feBlend mode="normal" in2="BackgroundImageFix" result="effect1_dropShadow_588_53632"/>
<feBlend mode="normal" in="SourceGraphic" in2="effect1_dropShadow_588_53632" result="shape"/>
</filter>
<linearGradient id="paint0_linear_588_53632" x1="314.903" y1="215.368" x2="313.81" y2="256.662" gradientUnits="userSpaceOnUse">
<stop stop-color="#FF851B"/>
<stop offset="0.621648" stop-color="#FFB63A"/>
<stop offset="1" stop-color="#FFDC62"/>
</linearGradient>
<linearGradient id="paint1_linear_588_53632" x1="274.377" y1="239.137" x2="273.377" y2="276.955" gradientUnits="userSpaceOnUse">
<stop stop-color="#FF851B"/>
<stop offset="0.621648" stop-color="#FFB63A"/>
<stop offset="1" stop-color="#FFDC62"/>
</linearGradient>
<linearGradient id="paint2_linear_588_53632" x1="234.809" y1="260.574" x2="233.919" y2="294.194" gradientUnits="userSpaceOnUse">
<stop stop-color="#FF851B"/>
<stop offset="0.621648" stop-color="#FFB63A"/>
<stop offset="1" stop-color="#FFDC62"/>
</linearGradient>
<linearGradient id="paint3_linear_588_53632" x1="194.338" y1="281.844" x2="193.539" y2="312.058" gradientUnits="userSpaceOnUse">
<stop stop-color="#FF851B"/>
<stop offset="0.621648" stop-color="#FFB63A"/>
<stop offset="1" stop-color="#FFDC62"/>
</linearGradient>
<linearGradient id="paint4_linear_588_53632" x1="156.781" y1="312.891" x2="166.182" y2="329.404" gradientUnits="userSpaceOnUse">
<stop stop-color="#F80000"/>
<stop offset="1" stop-color="#F8DF00"/>
</linearGradient>
<linearGradient id="paint5_linear_588_53632" x1="115.812" y1="333.613" x2="123.868" y2="347.764" gradientUnits="userSpaceOnUse">
<stop stop-color="#F80000"/>
<stop offset="1" stop-color="#F8DF00"/>
</linearGradient>
<linearGradient id="paint6_linear_588_53632" x1="75.2115" y1="355.302" x2="80.8777" y2="365.255" gradientUnits="userSpaceOnUse">
<stop stop-color="#F80000"/>
<stop offset="1" stop-color="#F8DF00"/>
</linearGradient>
<linearGradient id="paint7_linear_588_53632" x1="33.884" y1="376.18" x2="37.8683" y2="383.179" gradientUnits="userSpaceOnUse">
<stop stop-color="#F80000"/>
<stop offset="1" stop-color="#F8DF00"/>
</linearGradient>
<linearGradient id="paint8_linear_588_53632" x1="-6.4657" y1="398.497" x2="-4.47348" y2="401.997" gradientUnits="userSpaceOnUse">
<stop stop-color="#F80000"/>
<stop offset="1" stop-color="#F8DF00"/>
</linearGradient>
<linearGradient id="paint9_linear_588_53632" x1="224.02" y1="128.283" x2="223.051" y2="164.904" gradientUnits="userSpaceOnUse">
<stop stop-color="#FF851B"/>
<stop offset="0.621648" stop-color="#FFB63A"/>
<stop offset="1" stop-color="#FFDC62"/>
</linearGradient>
<linearGradient id="paint10_linear_588_53632" x1="188.081" y1="149.361" x2="187.194" y2="182.898" gradientUnits="userSpaceOnUse">
<stop stop-color="#FF851B"/>
<stop offset="0.621648" stop-color="#FFB63A"/>
<stop offset="1" stop-color="#FFDC62"/>
</linearGradient>
<linearGradient id="paint11_linear_588_53632" x1="152.991" y1="168.371" x2="152.202" y2="198.186" gradientUnits="userSpaceOnUse">
<stop stop-color="#FF851B"/>
<stop offset="0.621648" stop-color="#FFB63A"/>
<stop offset="1" stop-color="#FFDC62"/>
</linearGradient>
<linearGradient id="paint12_linear_588_53632" x1="117.101" y1="187.236" x2="116.393" y2="214.029" gradientUnits="userSpaceOnUse">
<stop stop-color="#FF851B"/>
<stop offset="0.621648" stop-color="#FFB63A"/>
<stop offset="1" stop-color="#FFDC62"/>
</linearGradient>
<linearGradient id="paint13_linear_588_53632" x1="83.795" y1="214.768" x2="92.1314" y2="229.412" gradientUnits="userSpaceOnUse">
<stop stop-color="#F80000"/>
<stop offset="1" stop-color="#F8DF00"/>
</linearGradient>
<linearGradient id="paint14_linear_588_53632" x1="47.463" y1="233.145" x2="54.6068" y2="245.694" gradientUnits="userSpaceOnUse">
<stop stop-color="#F80000"/>
<stop offset="1" stop-color="#F8DF00"/>
</linearGradient>
<linearGradient id="paint15_linear_588_53632" x1="11.4577" y1="252.38" x2="16.4825" y2="261.206" gradientUnits="userSpaceOnUse">
<stop stop-color="#F80000"/>
<stop offset="1" stop-color="#F8DF00"/>
</linearGradient>
<linearGradient id="paint16_linear_588_53632" x1="342.156" y1="126.568" x2="340.874" y2="174.997" gradientUnits="userSpaceOnUse">
<stop stop-color="#FF851B"/>
<stop offset="0.621648" stop-color="#FFB63A"/>
<stop offset="1" stop-color="#FFDC62"/>
</linearGradient>
<linearGradient id="paint17_linear_588_53632" x1="294.628" y1="154.444" x2="293.455" y2="198.796" gradientUnits="userSpaceOnUse">
<stop stop-color="#FF851B"/>
<stop offset="0.621648" stop-color="#FFB63A"/>
<stop offset="1" stop-color="#FFDC62"/>
</linearGradient>
<linearGradient id="paint18_linear_588_53632" x1="248.223" y1="179.584" x2="247.18" y2="219.014" gradientUnits="userSpaceOnUse">
<stop stop-color="#FF851B"/>
<stop offset="0.621648" stop-color="#FFB63A"/>
<stop offset="1" stop-color="#FFDC62"/>
</linearGradient>
<linearGradient id="paint19_linear_588_53632" x1="200.76" y1="204.531" x2="199.823" y2="239.965" gradientUnits="userSpaceOnUse">
<stop stop-color="#FF851B"/>
<stop offset="0.621648" stop-color="#FFB63A"/>
<stop offset="1" stop-color="#FFDC62"/>
</linearGradient>
<linearGradient id="paint20_linear_588_53632" x1="156.713" y1="240.941" x2="167.738" y2="260.307" gradientUnits="userSpaceOnUse">
<stop stop-color="#F80000"/>
<stop offset="1" stop-color="#F8DF00"/>
</linearGradient>
<linearGradient id="paint21_linear_588_53632" x1="108.666" y1="265.243" x2="118.113" y2="281.838" gradientUnits="userSpaceOnUse">
<stop stop-color="#F80000"/>
<stop offset="1" stop-color="#F8DF00"/>
</linearGradient>
<linearGradient id="paint22_linear_588_53632" x1="61.0499" y1="290.681" x2="67.695" y2="302.354" gradientUnits="userSpaceOnUse">
<stop stop-color="#F80000"/>
<stop offset="1" stop-color="#F8DF00"/>
</linearGradient>
<linearGradient id="paint23_linear_588_53632" x1="12.5817" y1="315.165" x2="17.2544" y2="323.373" gradientUnits="userSpaceOnUse">
<stop stop-color="#F80000"/>
<stop offset="1" stop-color="#F8DF00"/>
</linearGradient>
</defs>
</svg>
